<svg width="175" height="175" viewBox="0 0 175 175" fill="none" xmlns="http://www.w3.org/2000/svg">
<g clip-path="url(#clip0_1_1529)">
<ellipse rx="3.99778" ry="3.99778" transform="matrix(0.707789 -0.706424 0.706555 0.707659 91.6542 76.9195)" fill="#CCDDE2"/>
<ellipse rx="3.99778" ry="3.99778" transform="matrix(0.707789 -0.706424 0.706555 0.707659 79.6542 74.9217)" fill="#CCDDE2"/>
<path d="M49 50.2891C49 50.2891 67.3072 19.8073 103.902 31.7363C140.439 43.6673 131.805 88.9587 131.782 89.0775C131.941 88.2478 138.271 87.4571 138.941 87.3597C157.612 84.5999 171.5 101.967 172.877 119.082C174.587 140.311 158.167 155.346 139.467 161.82" stroke="#CCDDE2" stroke-width="1.05323"/>
<path fill-rule="evenodd" clip-rule="evenodd" d="M135.533 129.38C138.233 135.965 139.764 143.546 139.998 151.091C140.051 144.222 139.058 136.633 135.919 129.458C134.919 127.178 133.714 124.992 132.318 122.927C132.312 122.912 132.302 122.898 132.289 122.889C127.982 116.515 121.468 110.855 111.847 106.816L103.812 104.499C103.812 104.499 105.084 107.322 103.311 110.977C101.538 114.631 97.17 119.153 92.5292 118.087C87.8884 117.021 82.7873 114.573 83.5559 109.611C84.3245 104.649 84.6561 102.886 84.6561 102.886L57.2114 103.15C60.1531 107.069 64.2242 116.076 56 130.634L61.1089 130.441C61.1089 130.441 57.6991 162.208 65.4298 174.528C65.4844 174.626 65.5449 174.721 65.6053 174.806L109.253 174.626H112.286C112.299 174.594 112.308 174.561 112.315 174.528H101.762C100.558 174.527 99.4041 174.052 98.555 173.207C98.0358 172.693 97.6508 172.062 97.4333 171.368C97.2985 170.935 97.2327 170.484 97.2382 170.031C97.2425 167.548 99.2719 165.535 101.78 165.527H127.888C128.017 165.527 128.153 165.527 128.278 165.542C128.301 165.546 128.324 165.546 128.346 165.542H128.385C128.367 165.546 128.35 165.549 128.332 165.551C128.319 165.553 128.306 165.555 128.294 165.557C128.24 165.565 128.187 165.573 128.134 165.587H128.12C128.246 165.589 128.373 165.584 128.499 165.571C128.705 165.558 128.911 165.535 129.115 165.5C129.23 165.482 129.343 165.461 129.456 165.436L129.575 165.415C129.676 165.393 129.777 165.365 129.878 165.337L129.878 165.337C129.922 165.325 129.965 165.312 130.008 165.301C130.151 165.256 130.287 165.204 130.424 165.152C130.56 165.1 130.697 165.046 130.834 164.978C130.848 164.978 130.861 164.973 130.873 164.965C130.993 164.905 131.114 164.843 131.228 164.783C131.471 164.65 131.704 164.499 131.926 164.333L132.121 164.177C132.294 164.042 132.458 163.896 132.613 163.74C132.757 163.598 132.894 163.447 133.022 163.29L133.043 163.265C133.165 163.115 133.286 162.966 133.395 162.801C133.492 162.659 133.59 162.51 133.668 162.359C133.721 162.268 133.773 162.166 133.818 162.073L133.826 162.063C133.839 162.046 133.849 162.033 133.849 162.013C133.889 161.938 133.924 161.861 133.955 161.782C134.049 161.576 134.13 161.365 134.199 161.15C134.259 160.957 134.312 160.752 134.357 160.549C134.38 160.445 134.401 160.339 134.417 160.234C134.448 160.041 134.47 159.848 134.485 159.641C134.485 159.582 134.489 159.52 134.493 159.458L134.493 159.458C134.497 159.396 134.501 159.334 134.501 159.274C134.502 158.63 134.405 157.989 134.212 157.374C134.187 157.274 134.154 157.177 134.115 157.082C134.083 156.982 134.045 156.884 134 156.789C133.675 156.04 133.212 155.358 132.634 154.778C132.564 154.704 132.491 154.634 132.414 154.567C132.191 154.359 131.95 154.17 131.694 154.003C131.661 153.983 131.629 153.962 131.596 153.94C131.545 153.906 131.492 153.871 131.436 153.839C130.731 153.403 129.945 153.112 129.125 152.984C128.806 152.93 128.484 152.902 128.161 152.9L124.098 152.877L118.154 152.848H117.976C117.801 152.833 117.627 152.825 117.444 152.825H116.55C116.611 147.127 115.575 142.818 114.169 139.614L114.169 139.613C114.192 139.569 120.943 126.421 135.533 129.38ZM136.232 174.806C136.232 174.806 136.555 173.716 137 171.809C136.7 172.835 136.367 173.834 136 174.806H136.232ZM128 174.913C128.21 174.913 128.417 174.907 128.624 174.892C128.599 174.894 128.573 174.896 128.549 174.898C128.384 174.909 128.319 174.913 129 174.913H128Z" fill="#353642"/>
<path d="M87 95.0047C87 95.0047 86.3017 99.1124 85.5787 102.832C83.5128 102.854 81.4469 102.87 79.4038 102.886C78.3708 97.2527 79.4926 92.8408 80.8251 89.9001C82.5046 93.6115 85.0415 94.7405 87 95.0047Z" fill="#0FBE73"/>
<path d="M118.847 109.878C114.883 107.743 110.657 106.134 106.277 105.091L104.842 104.844C104.842 104.844 103.774 102.414 103.768 102.407C103.267 101.133 102.436 99.4429 102.179 98.1015C101.866 96.517 101.789 94.8946 101.953 93.2876C102.234 90.9011 103.345 85.8533 105.353 84.2623C107.028 82.9443 107.718 83.2211 108.668 81.1603C109.35 79.6902 109.627 77.2198 108.301 76.1358C106.831 74.9465 106.203 75.5509 104.445 75.7341C97.7611 76.3971 93.9417 71.5871 91.4851 66.0284C91.0952 65.1256 90.6896 64.1722 90.0521 63.404C89.321 62.5188 88.3091 62.32 87.4805 61.6044C87.1276 61.2963 86.8858 60.7933 87.0554 60.3566C87.1554 60.1479 87.3006 59.9641 87.4805 59.8184C89.0464 58.3758 90.9268 57.3178 92.9727 56.7281C96.2087 55.7924 99.628 55.6858 102.916 56.4181C106.347 57.5548 109.432 59.7073 111.508 62.9965C114.372 67.5414 115.062 72.2558 113.458 76.9547C111.814 81.7666 109.98 87.4189 113.068 92.0495C117.18 98.201 119.658 102.527 118.847 109.878Z" fill="#0FBE73"/>
<path d="M85 102.886C83.0631 102.911 81.1262 102.929 79.2106 102.947C64.614 103.036 50.6431 102.797 36 105.882" stroke="black" stroke-width="1.05323"/>
<path d="M104 103.885C104.556 104.007 105.107 104.136 105.658 104.275C107.804 104.796 109.917 105.448 111.985 106.225C114.107 107.019 116.17 107.967 118.156 109.061C118.16 109.057 118.167 109.057 118.171 109.061C121.296 110.764 124.184 112.874 126.761 115.337C128.916 117.449 130.779 119.843 132.3 122.454C132.313 122.464 132.323 122.477 132.329 122.493C133.563 124.577 134.634 126.754 135.534 129.005C138.217 135.654 139.738 143.309 139.971 150.927C140.182 158.122 139.24 165.286 137.011 171.523C136.64 172.571 136.228 173.592 135.774 174.585C135.745 174.661 135.706 174.73 135.677 174.806" stroke="black" stroke-width="1.05323"/>
<path d="M112.083 174.964C112.083 174.964 112.083 174.949 112.083 174.941C112.095 174.909 112.105 174.876 112.112 174.842" stroke="black" stroke-width="1.05323"/>
<path d="M107.317 130.922C107.317 130.922 111.534 132.977 114.305 139.392C115.699 142.617 116.732 146.954 116.672 152.688V152.704C116.641 156.36 116.16 160.582 115.044 165.448V165.475" stroke="black" stroke-width="1.05323"/>
<path d="M27.5076 49.4853C28.2518 46.6608 29.4456 43.7489 30.3429 42.5242C31.7538 40.6192 33.5949 38.8036 35.9632 38.9669C37.4845 39.066 38.9788 39.9097 39.0466 41.5814C39.1105 43.3951 37.2035 45.409 36.5911 47.1137C36.0097 48.7583 35.7442 50.673 36.0504 52.4031C36.3566 54.1331 37.9051 55.4841 39.5757 55.8554C40.2093 56.0227 40.8833 55.9311 41.4497 55.6008C43.0854 54.5627 42.7424 51.7985 42.6765 50.1676C42.599 48.3384 42.6009 46.2701 44.1571 45.0182C45.3006 44.0988 47.0351 44.7092 47.8781 45.72C49.3433 47.4695 49.415 50.1034 49.4886 52.2573C49.7076 58.746 48.5584 64.9664 44.7909 70.4287C42.8529 73.2493 40.8567 75.7803 40.0718 79.2404C37.6299 89.994 37.3586 97.4488 35.9554 108.37" stroke="black" stroke-width="1.05323"/>
<path d="M65.5372 174.806C58.0487 153.458 61.5953 130.135 61.5953 130.135L21.3698 131.414C17.9047 131.524 14.5617 130.125 12.203 127.576C9.84429 125.028 8.70074 121.58 9.06726 118.122L18.9201 82.0824L21.052 74.3943C21.7318 71.9752 21.576 69.3967 20.6101 67.0776L19.6062 64.6749C19.6062 64.6749 17.7864 60.9524 21.8659 61.3023C24.0598 61.4966 26.2362 62.4317 28.0773 63.6058C29.523 64.5291 31.7285 66.3155 31.0463 68.2964C30.2401 70.629 27.0792 71.2122 25.2226 69.9001" stroke="black" stroke-width="1.05323"/>
<path d="M20.5091 61.2827C20.5091 61.2827 17.0633 53.5071 26.517 55.519C35.9706 57.531 38.2342 67.8919 31.019 66.7256" stroke="black" stroke-width="1.05323"/>
<path d="M23.6261 55.0738C23.6261 55.0738 20.6028 51.3901 25.1223 49.6309C29.6418 47.8717 46.0529 56.1799 35.5256 64.3637" stroke="black" stroke-width="1.05323"/>
<path d="M89.0222 94.642C88.1448 94.8834 87.2276 94.943 86.3265 94.8169C84.4815 94.5603 82.1016 93.4562 80.5337 89.86C80.2081 89.125 79.9436 88.3643 79.743 87.5856C78.9445 84.6095 78.5957 80.4691 79.0628 74.6957C79.1538 73.5858 79.2895 72.4583 79.4775 71.3328C79.7886 69.3748 80.2904 67.4522 80.9756 65.5925C80.9756 65.5925 80.9756 65.5769 80.9911 65.5692C82.7004 61.036 85.7063 57.2104 90.7606 55.7389C94.5511 54.6422 98.581 54.7004 102.338 55.9061C105.749 57.0394 108.815 59.1854 110.879 62.4648C113.726 66.996 114.412 71.6963 112.817 76.3811C111.183 81.1786 109.36 86.8139 112.43 91.4306C116.511 97.5733 118.974 101.887 118.184 109.215" stroke="black" stroke-width="1.05323"/>
<path d="M77.6402 102.697C76.1557 95.5572 78.1596 90.3515 79.7333 87.5853" stroke="black" stroke-width="1.05323"/>
<path d="M79.4776 71.3246C79.4776 71.3246 82.7276 67.917 86.4932 73.2996" stroke="black" stroke-width="1.05323"/>
<path fill-rule="evenodd" clip-rule="evenodd" d="M87.7527 88.4835C89.1268 89.3757 90.9873 88.8217 91.9989 87.4474C93.0978 85.9564 93.5377 83.9659 93.7761 82.16C93.7916 82.0298 93.809 81.9015 93.8206 81.7712C92.1443 84.413 88.8903 85.0467 86.0259 85.3227C86.1345 86.1866 86.4548 87.0101 86.9581 87.7195C87.1736 88.0213 87.443 88.2803 87.7527 88.4835V88.4835Z" stroke="black" stroke-width="1.05323" stroke-linecap="round" stroke-linejoin="round"/>
<path d="M102.678 100.377L102.67 100.369" stroke="black" stroke-width="1.05323"/>
<path d="M89.8925 70.2773C89.8925 70.2773 90.9972 68.4831 94.7724 69.805C98.5477 71.1268 98.5923 73.2865 98.5923 73.2865" stroke="black" stroke-width="1.05323"/>
<path d="M81.3111 74.7386C81.3111 74.7386 83.0553 73.8541 84.4216 74.7386" stroke="black" stroke-width="1.05323"/>
<path d="M90.7103 75.553C90.7103 75.553 92.4545 74.6685 93.8111 75.553" stroke="black" stroke-width="1.05323"/>
<path d="M86.309 94.8171C86.309 94.8171 85.6539 98.8059 84.9756 102.418C84.8768 102.931 84.7818 103.436 84.6965 103.936C84.2527 106.368 83.8981 108.529 83.8826 109.184C83.7702 114.627 88.9001 117.767 93.8556 117.714C100.809 117.638 104.875 111.15 104.22 104.651C103.792 103.465 103.354 102.28 102.926 101.094C102.375 99.5738 101.66 98.0945 101.35 96.4927C101.076 94.9147 101.046 93.3038 101.261 91.7166C101.54 89.345 101.999 85.8091 103.995 84.2229C105.66 82.9088 107.398 82.0457 108.348 79.991C109.026 78.5254 108.995 76.6378 107.678 75.557C106.216 74.3713 103.904 74.5151 102.156 74.6881C90.8808 75.8447 89.0048 64.3972 85.9543 62.7896C83.4543 61.4658 81.5783 64.436 80.9911 65.5382L80.9678 65.5849C80.9669 65.5959 80.9621 65.6062 80.9542 65.614C80.8476 65.8084 80.7953 65.9387 80.7953 65.9387" stroke="black" stroke-width="1.05323"/>
<path d="M86.02 76.0563C86.02 76.0563 84.8417 79.9246 84.9328 80.5039C85.0239 81.0832 86.398 80.6788 86.398 80.6788" stroke="black" stroke-width="1.05323"/>
<ellipse rx="4.62528" ry="4.73788" transform="matrix(0.706654 -0.707559 0.705418 0.708791 91.9113 76.7809)" stroke="black" stroke-width="1.05323"/>
<ellipse rx="4.62528" ry="4.73788" transform="matrix(0.706654 -0.707559 0.705418 0.708791 80.1307 75.3443)" stroke="black" stroke-width="1.05323"/>
<path fill-rule="evenodd" clip-rule="evenodd" d="M76.0372 74.9218C76.232 72.8601 77.9659 71.2865 80.0371 71.2916H80.0429C80.2118 71.2924 80.3804 71.3027 80.548 71.3227C82.8232 71.6037 84.4647 73.6394 84.2565 75.922C84.0616 77.9859 82.3242 79.5603 80.2508 79.5521C80.082 79.5514 79.9134 79.541 79.7457 79.5211C77.4705 79.2401 75.8291 77.2044 76.0372 74.9218ZM82.7799 73.0298C82.0766 72.2597 81.0803 71.8231 80.0373 71.8278C78.2399 71.8208 76.7337 73.1852 76.5639 74.9743C76.4645 76.0124 76.8091 77.044 77.5123 77.8141C78.2156 78.5842 79.2119 79.0209 80.2549 79.0162C82.0523 79.0232 83.5586 77.6588 83.7283 75.8697C83.8277 74.8316 83.4832 73.8 82.7799 73.0298Z" fill="white"/>
<path d="M87.2834 76.2912L84.8046 75.9901" stroke="black" stroke-width="1.05323"/>
<path fill-rule="evenodd" clip-rule="evenodd" d="M31.5175 21.3268C31.9663 15.7097 36.6286 11.1959 42.2622 10.9084H42.2642C46.8417 10.6712 51.115 13.2019 53.1066 17.3294C55.0982 21.457 54.4196 26.3762 51.3849 29.8107C51.3603 29.837 51.3376 29.8649 51.3169 29.8942C50.4985 30.7955 49.5434 31.5624 48.4864 32.1666C48.2215 32.3119 47.9755 32.4894 47.7541 32.6949C44.6662 34.2414 41.0286 34.2356 37.9457 32.6794C37.7131 32.4808 37.4627 32.304 37.1978 32.1511C36.1824 31.5711 35.2647 30.8351 34.4781 29.9699C32.3212 27.6323 31.2468 24.4957 31.5175 21.3268ZM49.2613 28.7616C49.2744 28.7381 49.2922 28.7176 49.3137 28.7014L49.3118 28.7053C51.7671 25.9258 52.2084 21.9027 50.4139 18.6572C48.6194 15.4118 44.9771 13.6458 41.317 14.2465C37.657 14.8472 34.7705 17.6847 34.1079 21.3334C33.4453 24.9821 35.1498 28.6531 38.365 30.5019C38.5709 30.6234 38.7659 30.7625 38.9478 30.9175C41.3286 32.1089 44.1317 32.1089 46.5124 30.9175C46.6806 30.7581 46.8687 30.6211 47.0719 30.5097C47.8884 30.0447 48.6271 29.4549 49.2613 28.7616Z" fill="#0FBE73"/>
<path d="M47.7508 32.6967C46.8466 33.5172 46.3327 34.6825 46.3366 35.9034V36.4239C46.3366 38.2419 45.0195 39.8715 43.2284 40.0541C42.2496 40.1544 41.274 39.8364 40.5424 39.1786C39.8108 38.5208 39.3914 37.5844 39.3878 36.6007V35.9034C39.3857 34.6758 38.865 33.5062 37.9541 32.6831C41.0369 34.2346 44.6715 34.2397 47.7586 32.6967H47.7508Z" fill="#353642"/>
<path fill-rule="evenodd" clip-rule="evenodd" d="M47.7504 32.6966C46.8462 33.5171 46.3322 34.6824 46.3361 35.9033V36.4238C46.3361 38.2418 45.019 39.8714 43.2279 40.0539C42.2491 40.1543 41.2735 39.8363 40.5419 39.1785C39.8104 38.5207 39.391 37.5843 39.3873 36.6006V35.9033C39.3853 34.6757 38.8646 33.5061 37.9537 32.683C41.0365 34.2345 44.671 34.2395 47.7582 32.6966H47.7504Z" stroke="black" stroke-width="1.05323"/>
<path fill-rule="evenodd" clip-rule="evenodd" d="M54.2372 22.2726C54.2431 25.0517 53.2267 27.736 51.3815 29.8145C51.3584 29.8396 51.337 29.8662 51.3174 29.8941C50.4978 30.7969 49.5406 31.5646 48.4812 32.1685C48.218 32.3157 47.9729 32.493 47.7508 32.6968C44.6636 34.2398 41.0291 34.2347 37.9463 32.6832C37.7141 32.4815 37.463 32.3026 37.1964 32.1491C33.366 29.9476 31.1532 25.731 31.5181 21.3287C32.0097 15.2383 37.2256 10.624 43.3317 10.8777C49.4377 11.1314 54.2527 16.1624 54.2372 22.2726V22.2726Z" stroke="black" stroke-width="1.05323"/>
<path d="M39.642 33.8507L37.035 25.2115L36.3823 22.7642C36.3822 22.6129 36.4838 22.4805 36.6299 22.4414C36.7761 22.4022 36.9303 22.4661 37.0058 22.5972C37.5886 23.6266 38.5094 24.9182 39.4264 24.8852C40.9475 24.8308 39.6983 20.214 38.4551 20.6976C37.2118 21.1812 39.5954 24.2326 42.0509 24.6132C44.5064 24.9939 43.8342 20.8666 42.0509 20.7034C40.2675 20.5403 41.4972 24.017 44.7026 24.6132C47.9079 25.2095 47.3096 21.6804 46.4412 20.9754C45.5729 20.2703 45.8429 24.3413 47.8555 24.9939C48.4927 25.2018 48.9997 24.757 49.2483 24.2034C49.3921 23.881 49.3183 22.2495 49.023 22.7525C48.4208 23.7839 48.3023 25.0716 48.007 26.2098C47.3795 28.6182 46.4199 30.9237 45.8701 33.3535" stroke="black" stroke-width="1.05323"/>
<path d="M22.5082 174.805C23.8836 174.161 150.722 174.805 150.722 174.805" stroke="black" stroke-width="1.05323"/>
<path d="M42.8489 6.84265L42.7362 0" stroke="black" stroke-width="1.05323"/>
<path d="M29.7961 13.2075L25.058 8.26831" stroke="black" stroke-width="1.05323"/>
<path d="M55.9495 13.5146L60.7925 8.67834" stroke="black" stroke-width="1.05323"/>
<path d="M128.554 165.471L128.719 165.486C128.63 165.502 128.525 165.518 128.434 165.539H128.294L115.14 165.471H113.654L91.5547 165.358C91.4712 165.358 91.3876 165.358 91.3041 165.358C91.2842 165.362 91.2638 165.362 91.2439 165.358C91.2439 165.358 91.2439 165.358 91.2303 165.358C91.0911 165.359 90.9521 165.35 90.8145 165.329C91.9965 165.195 93.1165 164.73 94.0451 163.987C94.1908 163.865 94.3404 163.748 94.4764 163.616L94.492 163.601C94.5236 163.575 94.5535 163.547 94.5813 163.517C95.7044 162.406 96.377 160.92 96.4696 159.343C96.4696 159.267 96.4696 159.184 96.4696 159.108V158.988C96.4556 155.954 94.316 153.345 91.3429 152.737C91.3385 152.733 91.3318 152.733 91.3274 152.737C91.1836 152.7 91.0185 152.677 90.867 152.654L91.1914 152.632C91.2444 152.629 91.2977 152.629 91.3507 152.632H91.6071L110.278 152.73L113.714 152.745L116.764 152.761H118.184H118.357H118.417C121.679 153.089 124.164 155.83 124.172 159.108C124.171 159.409 124.149 159.71 124.104 160.007C123.649 163.058 121.081 165.35 117.998 165.457C117.93 165.457 117.862 165.457 117.804 165.457H128.896C128.735 165.463 128.63 165.463 128.554 165.471Z" fill="white"/>
<path d="M98.8492 173.19C99.6965 174.041 100.849 174.52 102.051 174.518H91.2146C89.1399 174.518 88.0131 174.013 87.1914 173.19C86.3425 172.34 85.8647 171.189 85.8626 169.989C85.8626 167.506 87.9005 165.467 91.2146 165.467H102.051C100.219 165.464 98.5668 166.566 97.8656 168.257C97.1644 169.949 97.5527 171.896 98.8492 173.19Z" fill="#EAFFEF"/>
<path d="M134.669 159.199C134.669 159.32 134.669 159.448 134.654 159.569C134.638 159.772 134.617 159.969 134.586 160.165C134.57 160.27 134.549 160.377 134.526 160.481C134.481 160.676 134.428 160.889 134.368 161.085C134.3 161.302 134.219 161.514 134.125 161.721C134.095 161.8 134.06 161.878 134.021 161.954C134.021 161.977 134.005 161.992 133.989 162.014C133.945 162.113 133.892 162.208 133.84 162.301C133.756 162.453 133.665 162.602 133.568 162.746C133.453 162.921 133.325 163.078 133.197 163.237C133.069 163.396 132.933 163.547 132.789 163.69C132.635 163.847 132.472 163.993 132.299 164.129L132.105 164.286C131.884 164.453 131.652 164.604 131.41 164.739C131.297 164.799 131.177 164.861 131.056 164.921C131.045 164.93 131.031 164.935 131.017 164.935C130.881 165.003 130.745 165.057 130.609 165.11C130.473 165.162 130.337 165.215 130.195 165.259C130.052 165.298 129.908 165.343 129.764 165.374C129.411 165.455 129.053 165.507 128.692 165.531C128.616 165.531 128.542 165.531 128.467 165.531H128.344C128.428 165.51 128.511 165.502 128.595 165.487C128.604 165.483 128.615 165.483 128.624 165.487C128.586 165.486 128.548 165.48 128.511 165.471C128.536 165.467 128.562 165.467 128.587 165.471H128.919H117.803H117.998C119.365 165.398 120.672 164.886 121.726 164.012C121.884 163.883 122.036 163.745 122.18 163.599C122.3 163.482 122.414 163.358 122.52 163.228C122.601 163.138 122.677 163.042 122.745 162.942C122.79 162.888 122.829 162.835 122.866 162.783C122.938 162.687 123.003 162.585 123.06 162.48C123.149 162.357 123.227 162.227 123.295 162.092C123.368 161.962 123.433 161.828 123.49 161.691C123.519 161.631 123.542 161.563 123.581 161.497C123.633 161.361 123.678 161.225 123.723 161.089C123.785 160.895 123.845 160.689 123.89 160.487C123.917 160.378 123.937 160.267 123.95 160.155C123.959 160.128 123.964 160.1 123.965 160.072C123.974 160.05 123.979 160.027 123.981 160.004C123.981 159.928 124.002 159.86 124.01 159.784C124.01 159.769 124.01 159.755 124.01 159.739C124.039 159.529 124.052 159.317 124.049 159.104C124.052 159.006 124.046 158.908 124.033 158.811V158.743C124.033 158.647 124.026 158.551 124.01 158.456C123.959 157.931 123.839 157.416 123.655 156.923C123.552 156.627 123.422 156.342 123.266 156.07C123.124 155.797 122.957 155.537 122.769 155.294C122.72 155.222 122.667 155.154 122.609 155.09C122.586 155.066 122.565 155.035 122.534 155.006C122.433 154.874 122.322 154.75 122.202 154.635C122.112 154.546 122.007 154.455 121.916 154.357C121.825 154.26 121.673 154.146 121.545 154.054C121.417 153.963 121.333 153.897 121.221 153.821C121.053 153.7 120.876 153.591 120.692 153.497C120.52 153.397 120.341 153.31 120.156 153.239C119.941 153.147 119.722 153.066 119.499 152.998C119.423 152.97 119.345 152.949 119.264 152.938C119.056 152.878 118.845 152.833 118.631 152.802C118.524 152.778 118.419 152.771 118.307 152.757H118.291C118.276 152.761 118.261 152.761 118.246 152.757H118.359L124.278 152.786L128.325 152.809C128.646 152.811 128.967 152.839 129.284 152.893C130.107 153.021 130.895 153.313 131.602 153.753C131.693 153.806 131.775 153.866 131.858 153.918C132.113 154.086 132.353 154.276 132.575 154.486C132.652 154.552 132.725 154.623 132.795 154.697C133.37 155.281 133.831 155.966 134.155 156.719C134.199 156.815 134.238 156.914 134.269 157.014C134.309 157.11 134.341 157.208 134.366 157.308C134.562 157.92 134.664 158.557 134.669 159.199Z" fill="#0FBE73"/>
<path fill-rule="evenodd" clip-rule="evenodd" d="M134.67 159.199C134.67 159.319 134.67 159.448 134.654 159.568C134.639 159.772 134.617 159.968 134.586 160.164C134.571 160.269 134.549 160.376 134.526 160.481C134.481 160.675 134.429 160.889 134.369 161.085C134.3 161.301 134.219 161.513 134.126 161.72C134.096 161.801 134.058 161.879 134.013 161.953C134.013 161.976 133.998 161.992 133.982 162.013C133.937 162.112 133.885 162.208 133.832 162.301C133.749 162.452 133.658 162.602 133.56 162.746C133.446 162.92 133.318 163.078 133.189 163.237C133.059 163.395 132.92 163.546 132.774 163.689C132.62 163.846 132.456 163.993 132.284 164.128L132.09 164.286C131.869 164.453 131.636 164.604 131.394 164.738C131.282 164.799 131.161 164.861 131.041 164.921C131.03 164.929 131.016 164.934 131.002 164.934C130.866 165.002 130.73 165.057 130.594 165.109C130.458 165.162 130.322 165.214 130.18 165.259C130.036 165.298 129.893 165.342 129.749 165.373L129.63 165.395C129.518 165.42 129.405 165.441 129.29 165.459C129.087 165.494 128.882 165.518 128.677 165.531C128.551 165.544 128.426 165.549 128.3 165.546C128.3 165.546 128.276 165.546 128.269 165.546L115.136 165.482L112.042 165.467L91.4149 165.362C91.3389 165.36 91.2631 165.355 91.1876 165.346C91.0147 165.346 90.8477 165.331 90.6748 165.317C93.7586 164.95 96.1386 162.43 96.3298 159.331C96.3298 159.255 96.3298 159.172 96.3298 159.088V159.007C96.3335 155.956 94.1858 153.325 91.1954 152.718C91.0439 152.686 90.8923 152.665 90.735 152.642C90.8853 152.624 91.0364 152.615 91.1876 152.613C91.2407 152.609 91.2939 152.609 91.3469 152.613H91.4751L112.102 152.718L116.764 152.741H118.289H118.418L128.325 152.793C128.65 152.795 128.975 152.82 129.296 152.869C130.117 153.004 130.904 153.296 131.614 153.729C131.705 153.782 131.787 153.842 131.87 153.895C132.122 154.067 132.362 154.256 132.587 154.462C132.663 154.53 132.731 154.598 132.807 154.673C133.382 155.257 133.843 155.942 134.167 156.695L134.281 156.991C134.319 157.086 134.352 157.184 134.378 157.284C134.572 157.904 134.67 158.55 134.67 159.199V159.199Z" stroke="black" stroke-width="1.05323" stroke-linecap="square" stroke-linejoin="round"/>
<path fill-rule="evenodd" clip-rule="evenodd" d="M124.04 159.084C124.041 159.296 124.031 159.508 124.009 159.719V159.764C123.993 159.863 123.979 159.958 123.964 160.052C123.962 160.08 123.957 160.108 123.948 160.135C123.935 160.247 123.915 160.358 123.888 160.467C123.843 160.661 123.783 160.873 123.721 161.069C123.676 161.205 123.632 161.341 123.579 161.477C123.54 161.545 123.517 161.613 123.488 161.671C123.431 161.808 123.366 161.942 123.294 162.072C123.226 162.207 123.147 162.337 123.059 162.46C123.001 162.565 122.936 162.667 122.864 162.763C122.827 162.815 122.789 162.868 122.744 162.922C122.675 163.022 122.6 163.117 122.519 163.208C122.412 163.338 122.299 163.462 122.179 163.579C122.034 163.722 121.882 163.857 121.724 163.985C120.673 164.863 119.366 165.379 117.998 165.457C117.93 165.457 117.862 165.457 117.804 165.457H91.4442C91.2033 165.457 90.9546 165.443 90.704 165.42C90.8666 165.401 91.0281 165.373 91.1877 165.337C91.2003 165.341 91.214 165.341 91.2266 165.337H91.2402C92.465 165.081 93.5885 164.474 94.4727 163.588L94.4883 163.573C95.6127 162.437 96.2699 160.92 96.3299 159.323C96.3299 159.247 96.3299 159.164 96.3299 159.08V159.073C96.3048 155.852 93.8936 153.151 90.6963 152.76C90.8633 152.739 91.0284 152.731 91.1955 152.723C91.2379 152.716 91.2813 152.716 91.3237 152.723C91.3282 152.719 91.3348 152.719 91.3393 152.723C91.3715 152.72 91.4041 152.72 91.4364 152.723H117.658C117.841 152.723 118.014 152.723 118.188 152.747H118.249C118.263 152.751 118.279 152.751 118.293 152.747H118.324L118.633 152.791C118.847 152.823 119.059 152.868 119.267 152.927C119.342 152.943 119.426 152.964 119.502 152.988C119.725 153.056 119.944 153.137 120.158 153.228C120.339 153.304 120.522 153.395 120.694 153.487C120.877 153.584 121.054 153.692 121.223 153.811C121.336 153.887 121.442 153.961 121.547 154.044C121.652 154.128 121.796 154.238 121.918 154.347C122.041 154.456 122.113 154.541 122.204 154.625C122.318 154.747 122.431 154.868 122.536 154.996C122.567 155.025 122.589 155.056 122.612 155.079L122.771 155.283C122.953 155.532 123.119 155.791 123.268 156.06C123.415 156.336 123.545 156.621 123.657 156.913C123.835 157.408 123.955 157.922 124.012 158.445C124.012 158.544 124.028 158.64 124.036 158.733V158.801C124.04 158.888 124.04 158.987 124.04 159.084V159.084Z" stroke="black" stroke-width="1.05323" stroke-linecap="square" stroke-linejoin="round"/>
<path fill-rule="evenodd" clip-rule="evenodd" d="M128.887 174.514H91.2111C90.3715 174.536 89.5341 174.417 88.7343 174.16C88.575 174.1 88.4254 174.04 88.2816 173.966C88.1379 173.89 88.0097 173.815 87.8815 173.739C87.7532 173.663 87.6406 173.566 87.526 173.475C87.4133 173.376 87.3084 173.28 87.2093 173.179C86.6923 172.663 86.3089 172.028 86.0923 171.33C85.9548 170.896 85.886 170.442 85.8883 169.986C85.8869 169.81 85.8973 169.633 85.9194 169.458C85.9481 169.212 86.0008 168.969 86.0768 168.734C86.1819 168.361 86.3452 168.007 86.5605 167.685C86.6835 167.475 86.8301 167.279 86.9976 167.102C87.1004 166.988 87.2094 166.879 87.3239 166.776C88.2447 165.954 89.5813 165.447 91.2344 165.447H128.887C128.735 165.447 128.63 165.447 128.554 165.447C128.529 165.443 128.504 165.443 128.479 165.447C128.403 165.447 128.418 165.447 128.455 165.447C128.46 165.451 128.466 165.451 128.471 165.447C128.488 165.451 128.506 165.451 128.523 165.447H128.562C128.479 165.463 128.395 165.471 128.312 165.492H128.294C128.294 165.492 128.271 165.492 128.263 165.492C126.14 165.914 124.609 167.774 124.601 169.938C124.614 172.228 126.323 174.153 128.595 174.438C128.411 174.508 128.238 174.514 128.887 174.514V174.514Z" stroke="black" stroke-width="1.05323" stroke-linecap="square" stroke-linejoin="round"/>
<path fill-rule="evenodd" clip-rule="evenodd" d="M128.584 174.492C128.411 174.508 128.238 174.514 128.063 174.514H102.045C100.846 174.513 99.6972 174.035 98.8516 173.185C98.3346 172.669 97.9512 172.034 97.7346 171.336C97.6004 170.901 97.5349 170.447 97.5404 169.992C97.5446 167.495 99.5656 165.471 102.063 165.463H128.063C128.191 165.463 128.327 165.463 128.452 165.478C128.474 165.482 128.497 165.482 128.52 165.478H128.558C128.475 165.494 128.391 165.501 128.308 165.523H128.294C128.294 165.523 128.271 165.523 128.263 165.523C126.14 165.945 124.609 167.804 124.601 169.969C124.614 172.259 126.323 174.184 128.595 174.469L128.584 174.492Z" stroke="black" stroke-width="1.05323" stroke-linecap="square" stroke-linejoin="round"/>
<path fill-rule="evenodd" clip-rule="evenodd" d="M97.5226 169.992C97.5226 172.489 99.5474 174.514 102.045 174.514H91.211C89.1421 174.514 88.0095 174.009 87.1859 173.185C86.3381 172.339 85.8627 171.19 85.8649 169.992C85.8649 167.502 87.8969 165.463 91.211 165.463H102.045C99.5479 165.471 97.5269 167.495 97.5226 169.992V169.992Z" stroke="black" stroke-width="1.05323" stroke-linecap="square" stroke-linejoin="round"/>
<path fill-rule="evenodd" clip-rule="evenodd" d="M128.887 174.514H128.063C128.238 174.514 128.411 174.514 128.584 174.493C128.411 174.508 128.238 174.514 128.887 174.514V174.514Z" stroke="black" stroke-width="1.05323" stroke-linecap="square" stroke-linejoin="round"/>
<path fill-rule="evenodd" clip-rule="evenodd" d="M128.524 165.482C128.374 165.482 128.214 165.459 128.063 165.459H128.887C128.312 165.463 128.38 165.482 128.524 165.482Z" stroke="black" stroke-width="1.05323" stroke-linecap="square" stroke-linejoin="round"/>
<path opacity="0.54" d="M15.6212 157.476L2.13538 122.935C1.79683 121.581 2.10109 120.146 2.96019 119.046C3.81929 117.946 5.13744 117.302 6.53351 117.302H60.1075C62.5832 117.302 64.7366 118.998 65.3157 121.404L80.0798 155.942C80.4041 157.292 80.0915 158.717 79.2315 159.807C78.3715 160.898 77.059 161.534 75.67 161.534H20.8138C18.3566 161.533 16.2152 159.86 15.6212 157.476Z" fill="white"/>
<path d="M15.6212 157.476L2.13538 122.935C1.79683 121.581 2.10109 120.146 2.96019 119.046C3.81929 117.946 5.13744 117.302 6.53351 117.302H60.1075C62.5832 117.302 64.7366 118.998 65.3157 121.404L80.0798 155.942C80.4041 157.292 80.0915 158.717 79.2315 159.807C78.3715 160.898 77.059 161.534 75.67 161.534H20.8138C18.3566 161.533 16.2152 159.86 15.6212 157.476Z" fill="#0FBE73"/>
<path fill-rule="evenodd" clip-rule="evenodd" d="M15.6212 157.476L2.13538 122.935C1.79683 121.581 2.10109 120.146 2.96019 119.046C3.81929 117.946 5.13744 117.302 6.53351 117.302H60.1075C62.5832 117.302 64.7366 118.998 65.3157 121.404L80.0798 155.942C80.4041 157.292 80.0915 158.717 79.2315 159.807C78.3715 160.898 77.059 161.534 75.67 161.534H20.8138C18.3566 161.533 16.2152 159.86 15.6212 157.476Z" stroke="black" stroke-width="1.05323" stroke-linecap="square" stroke-linejoin="round"/>
<path d="M17.591 156.078L5.15815 124.211C4.84543 122.963 5.12523 121.64 5.9167 120.624C6.70817 119.609 7.92312 119.015 9.21049 119.014H58.6273C60.9111 119.014 62.8972 120.579 63.4314 122.799L77.0512 154.653C77.3505 155.898 77.0622 157.213 76.269 158.219C75.4757 159.225 74.2649 159.813 72.9833 159.813H22.3854C20.12 159.814 18.144 158.275 17.591 156.078Z" fill="#0FBE73"/>
<path d="M55.0566 124.874C54.4019 123.889 53.3315 123.452 52.6632 123.903C51.995 124.353 51.9853 125.505 52.6399 126.49C52.7431 126.64 52.8588 126.781 52.9857 126.911L48.1291 137.161C47.3521 136.644 46.5031 136.516 45.8931 136.924C45.4944 137.213 45.2447 137.665 45.2113 138.157L41.8933 137.036L38.9929 136.065L38.0449 135.754C37.9261 135.398 37.7608 135.059 37.5534 134.746C36.6326 133.363 35.129 132.75 34.1907 133.373C33.2524 133.997 33.2427 135.591 34.1383 136.964L28.6192 144.506C27.4148 143.518 25.9947 143.213 25.0118 143.865C23.6752 144.757 23.6519 147.078 24.9671 149.051C25.0195 149.129 25.0797 149.195 25.1341 149.269L21.449 154.303L21.4159 154.352C21.1331 154.733 21.0837 155.239 21.2876 155.668C21.4915 156.097 21.9153 156.378 22.3897 156.399C22.864 156.42 23.3113 156.178 23.5528 155.77L26.8301 150.838C27.8635 151.438 28.967 151.553 29.7693 151.017C31.0475 150.166 31.1077 148.014 29.9635 146.103L35.2572 138.114C36.0343 138.644 36.9007 138.78 37.5184 138.371C37.8639 138.127 38.0992 137.757 38.1731 137.341L38.5616 137.452L41.5125 138.258L45.289 139.276C45.4038 139.728 45.5942 140.157 45.8524 140.546C46.7712 141.927 48.2768 142.543 49.2151 141.919C50.1533 141.296 50.165 139.67 49.2461 138.289C49.1105 138.088 48.9584 137.899 48.7916 137.724L53.4131 127.276C53.9706 127.665 54.5787 127.752 55.0274 127.459C55.7054 127.026 55.7151 125.86 55.0566 124.874Z" fill="white"/>
<path d="M19.8952 125.439H12.7366C12.0637 125.441 11.4532 125.045 11.1825 124.429C11.1417 124.336 11.1199 124.236 11.1184 124.135C11.1227 123.729 11.4525 123.402 11.8586 123.401H19.4717C19.1182 124.005 19.3124 124.844 19.8952 125.439Z" fill="#EAFFEF"/>
<path d="M24.5299 124.705C24.5278 125.11 24.1991 125.438 23.7937 125.439H19.8948C19.3003 124.844 19.1177 124.005 19.4771 123.401H22.9156C23.5872 123.398 24.1972 123.792 24.4697 124.405C24.5098 124.5 24.5303 124.602 24.5299 124.705Z" fill="#0FBE73"/>
<path d="M22.7389 125.439C22.718 125.478 22.6947 125.515 22.669 125.551C22.1562 126.249 21.0488 126.315 20.1883 125.685C20.0852 125.611 19.9884 125.529 19.8988 125.439C19.3044 124.844 19.1218 124.005 19.4811 123.401C19.5006 123.362 19.524 123.324 19.5511 123.289C20.0581 122.588 21.1654 122.527 22.026 123.151C22.1306 123.226 22.2287 123.31 22.3193 123.401C22.9099 123.998 23.0925 124.829 22.7389 125.439Z" fill="white"/>
<path d="M26.3311 129.199C26.3279 129.605 25.9974 129.933 25.5909 129.933H18.0749C18.4381 129.323 18.2575 128.492 17.6611 127.896H24.7206C25.3936 127.893 26.004 128.29 26.2747 128.906C26.3129 128.999 26.332 129.098 26.3311 129.199Z" fill="#0FBE73"/>
<path d="M18.0745 129.939H14.5389C13.8673 129.943 13.2573 129.548 12.9848 128.935C12.944 128.841 12.9223 128.74 12.9207 128.637C12.9196 128.442 12.9966 128.255 13.1345 128.117C13.2724 127.978 13.4597 127.901 13.655 127.901H17.6607C18.2571 128.492 18.4378 129.323 18.0745 129.939Z" fill="#EAFFEF"/>
<path d="M18.0748 129.939C18.0587 129.979 18.0371 130.017 18.0107 130.051C17.5036 130.755 16.3944 130.815 15.5338 130.191C15.4274 130.115 15.3267 130.03 15.2327 129.939C14.6499 129.345 14.4556 128.511 14.815 127.901C14.8341 127.862 14.8576 127.825 14.885 127.791C15.3959 127.091 16.5032 127.027 17.3657 127.655C17.4677 127.73 17.5638 127.812 17.6532 127.901C18.2574 128.492 18.4381 129.323 18.0748 129.939Z" fill="white"/>
<path d="M20.579 134.406H16.0798C15.4082 134.408 14.7988 134.013 14.5257 133.4C14.4849 133.307 14.4631 133.208 14.4616 133.107C14.4627 132.698 14.7934 132.368 15.2018 132.367H20.1516C19.8058 132.967 19.9884 133.8 20.579 134.406Z" fill="#0FBE73"/>
<path d="M27.8716 133.666C27.8695 134.071 27.5402 134.398 27.1354 134.396H20.579C19.9962 133.8 19.8019 132.967 20.1594 132.357H26.2612C26.931 132.357 27.5375 132.753 27.8056 133.367C27.8477 133.461 27.8702 133.563 27.8716 133.666Z" fill="#EAFFEF"/>
<path d="M23.4172 134.406C23.3981 134.446 23.3746 134.483 23.3472 134.517C22.8402 135.22 21.7329 135.28 20.8723 134.657C20.769 134.58 20.671 134.496 20.579 134.406C19.9962 133.81 19.8019 132.977 20.1594 132.367C20.1798 132.328 20.2032 132.291 20.2293 132.256C20.7421 131.559 21.8494 131.497 22.71 132.12C22.8122 132.196 22.9089 132.278 22.9995 132.367C23.5862 132.953 23.7804 133.791 23.4172 134.406Z" fill="white"/>
<path d="M49.67 155.449H45.1689C44.4973 155.45 43.8879 155.056 43.6148 154.442C43.5724 154.35 43.5499 154.25 43.5487 154.149C43.5498 153.741 43.8805 153.41 44.2889 153.409H49.2406C48.8968 154.023 49.0794 154.852 49.67 155.449Z" fill="#0FBE73"/>
<path d="M67.5327 154.718C67.5322 154.912 67.4545 155.099 67.3168 155.235C67.1791 155.372 66.9926 155.449 66.7984 155.449H49.6701C49.0874 154.852 48.8931 154.019 49.2505 153.409H65.9222C66.5921 153.409 67.1985 153.805 67.4666 154.419C67.5088 154.513 67.5313 154.615 67.5327 154.718Z" fill="#EAFFEF"/>
<path d="M52.5083 155.449C52.4893 155.488 52.4658 155.525 52.4384 155.56C51.9314 156.263 50.8241 156.323 49.9635 155.699C49.8598 155.623 49.7618 155.539 49.6701 155.449C49.0874 154.853 48.8931 154.019 49.2505 153.41C49.271 153.371 49.2944 153.334 49.3205 153.299C49.8333 152.602 50.9406 152.539 51.8012 153.163C51.9033 153.238 52.0001 153.321 52.0907 153.41C52.6851 154.006 52.8677 154.843 52.5083 155.449Z" fill="white"/>
</g>
<defs>
<clipPath id="clip0_1_1529">
<rect width="175" height="175" fill="white"/>
</clipPath>
</defs>
</svg>
