<svg width="175" height="175" viewBox="0 0 175 175" fill="none" xmlns="http://www.w3.org/2000/svg">
<g clip-path="url(#clip0_1_1537)">
<path d="M7.38931 98.8267C7.2532 97.0902 7.1482 95.3518 7.06458 93.6173" stroke="black"/>
<path d="M105.807 161.286H56.4133" stroke="#CCDDE2"/>
<path d="M120.227 37.1295C120.227 37.1295 134.784 30.2325 147.133 43.6891C151.168 48.0868 153.921 53.9224 154.116 59.9435C154.204 62.8813 153.732 65.809 152.725 68.5692C151.701 71.3865 149.861 73.2518 148.448 75.7608C146.28 79.6298 150.812 80.3146 153.245 82.1896C154.861 83.4462 156.395 84.807 157.836 86.2635C161.082 89.517 163.939 93.14 166.348 97.0588C171.119 104.864 173.991 113.687 174.733 122.813C175.466 131.811 174.904 141.582 170.306 149.576C168.093 153.425 164.76 157.201 160.661 158.996C155.216 161.378 149.101 161.288 143.283 161.288H130.903" stroke="#CCDDE2"/>
<path d="M59.5496 127.045C59.0616 130.529 58.3343 134.527 57.5313 138.529L56.5843 138.8C53.5536 139.654 50.3353 139.56 47.3597 138.529L48.6003 134.299L41.0479 112.252C41.0479 112.252 46.8211 110.379 51.5617 108.988L52.1062 108.964C54.6962 109.512 60.0338 111.571 60.201 119.279C60.2127 119.65 60.201 120.04 60.201 120.466C60.9535 122.953 60.6541 125.146 59.5496 127.045Z" fill="#0FBE73"/>
<path d="M41.7734 43.1211C41.6186 42.7256 41.1769 42.527 40.7797 42.6743C40.6727 42.7067 40.5738 42.762 40.49 42.8362C40.1905 43.0801 40.1225 43.5074 40.1128 43.9132C40.0855 44.84 40.033 45.7687 39.965 46.6915C39.965 46.754 39.9553 46.8242 39.9553 46.8866C39.9125 47.63 39.9436 48.5314 39.6286 49.1792C39.6084 49.2286 39.5739 49.2707 39.5294 49.3001C39.4244 49.3489 39.3136 49.2435 39.2455 49.1479C39.0511 48.8631 38.8566 48.5841 38.6622 48.2934C38.5086 48.0612 38.3355 47.8095 38.0672 47.7354C37.6686 47.6242 37.2894 47.9773 37.0697 48.3363C36.3599 49.5069 36.2919 51.4248 37.3905 52.4062C38.4891 53.3876 36.0294 55.3172 34.2677 56.1289C33.9727 56.2953 33.6636 56.435 33.344 56.5464C33.3285 56.5464 33.9799 56.6928 33.9643 56.6986C32.5935 57.1775 31.1655 57.4721 29.7176 57.5746C27.9987 57.6898 26.3225 57.4732 25.1033 56.724C25.1558 56.5289 25.5719 55.1631 25.5972 54.968C25.6867 54.2871 25.7508 53.612 25.7917 52.9272C25.8656 51.6414 25.8597 50.3537 25.8111 49.0719C25.6342 44.4595 26.4528 40.5847 28.3506 39.9935C28.5004 39.9484 28.6441 39.8848 28.7784 39.8042C29.634 39.3301 30.0909 38.3292 29.6981 37.3849C29.6709 37.3205 29.6398 37.2581 29.6126 37.1898C29.5819 37.1225 29.5468 37.0573 29.5076 36.9947C33.2138 35.8397 35.7299 36.6416 38.2733 38.0385C38.7573 38.4266 39.2123 38.8498 39.6344 39.3048C40.6299 40.3892 41.362 41.69 41.7734 43.1055V43.1211Z" fill="#0FBE73"/>
<path d="M130.863 87.4673H118.224V57.1554C118.224 57.1554 115.891 83.493 109.497 98.4148H70.3531C74.9674 95.4726 78.6677 91.028 81.1314 86.244C82.1036 84.3514 83.6592 81.5419 86.2454 82.2794C86.8598 82.453 87.764 82.5642 88.221 82.0004C88.3787 81.7839 88.4681 81.525 88.4777 81.257C88.6993 78.4943 85.8448 76.1686 83.492 75.435C81.1392 74.7014 78.3897 75.0448 76.5172 76.7598C75.1677 77.9987 74.3218 79.6435 73.334 81.1673C72.7412 82.0703 72.0384 82.8954 71.2418 83.6237C72.2568 77.4388 73.161 71.527 73.2913 69.3516C75.7666 67.3907 77.5847 64.1929 78.2302 61.3638C78.94 58.2733 79.5661 55.2511 80.6686 52.3577L89.693 52.3889C90.4007 52.3889 90.9744 51.8132 90.9744 51.1031V36.0643C90.9754 35.3607 90.4096 34.7886 89.7085 34.7843L83.5639 34.7317C85.797 34.2633 88.0612 33.9601 90.3385 33.8244H90.4688C91.968 33.7249 94.595 33.682 96.1078 33.6664C94.3053 34.6419 93.1911 36.714 93.3855 38.5441C93.4197 38.9338 93.519 39.315 93.6791 39.6718C95.2192 43.0667 99.2753 44.0695 102.624 43.0823C106.349 41.9916 109.087 38.5538 108.924 34.599C111.257 34.9424 113.567 35.3781 115.854 35.9062C119.329 36.7081 122.718 37.789 125.466 40.1459C127.861 42.1926 129.891 44.8285 130.83 47.8078C134.863 60.5463 133.623 74.7619 130.863 87.4673Z" fill="#2E2E2E"/>
<path d="M73.3926 69.3514C73.1087 74.0067 72.3776 78.6581 71.5843 83.2977" stroke="black"/>
<path d="M80.7697 52.3578C79.6652 55.2512 79.0411 58.2734 78.3313 61.3639C77.6799 64.1832 75.8657 67.3908 73.3923 69.3516C71.3156 70.9964 68.7723 71.771 66.05 70.733C62.3983 69.336 61.1168 65.2973 60.6696 61.7366C60.0883 57.3028 60.053 52.8141 60.5646 48.3717C61.0799 49.5209 63.1858 53.0172 69.7173 52.0983C69.8926 52.2297 70.1033 52.3051 70.322 52.3148L80.7697 52.3578Z" fill="#2E2E2E"/>
<path d="M77.1028 42.3546C78.6233 41.9644 79.5489 43.4316 79.3234 44.5476C78.9558 46.368 76.3464 47.084 74.7927 47.1172C73.5482 47.1425 70.5149 46.8128 69.2782 46.6684" stroke="black"/>
<path d="M68.7668 43.2559C70.648 43.8013 72.6399 43.8343 74.538 43.3515C76.1344 42.9398 78.0206 42.1808 78.8567 40.657C79.3448 39.7713 78.9559 38.3587 77.937 38.0465C76.7606 37.6895 75.6717 38.864 74.6061 39.1606C73.9186 39.3484 73.2169 39.4789 72.508 39.5508C72.3135 39.5722 72.1308 39.5879 71.9421 39.6035C70.9498 39.6832 69.9524 39.676 68.9612 39.582C68.745 39.582 68.553 39.4429 68.485 39.2369C68.417 39.0309 68.4883 38.8043 68.6618 38.6748L68.8407 38.544" stroke="black"/>
<path d="M80.7698 52.3575C79.6654 55.251 79.0412 58.2732 78.3315 61.3637C77.1337 66.5516 72.0255 73.0155 66.0501 70.7288C62.3984 69.3319 61.117 65.2932 60.6697 61.7324C59.9697 56.2187 60.0281 50.5547 61.0586 45.0878C61.9142 40.5847 63.4329 35.8553 67.8002 33.6409L69.8496 32.6126C70.8662 32.0971 72.107 32.4905 72.6439 33.4984C72.8012 33.7995 72.8846 34.134 72.8869 34.474C72.8889 34.5237 72.885 34.5735 72.8752 34.6222" stroke="black"/>
<path d="M122.397 94.6802C123.453 94.6474 124.51 94.6741 125.563 94.7602C126.423 94.8305 127.313 94.8714 128.132 95.1934C128.806 95.4626 129.51 96.1045 129.475 96.8888C129.411 98.4263 127.405 98.4146 126.304 98.4146" stroke="black"/>
<path opacity="0.54" d="M103.512 93.2153L112.663 69.6912C112.893 68.7673 112.685 67.7889 112.1 67.0393C111.515 66.2898 110.618 65.8529 109.669 65.8554H73.3302C71.6539 65.8593 70.198 67.0138 69.8068 68.6493L59.7772 92.1676C59.5568 93.0875 59.7687 94.058 60.3524 94.8011C60.936 95.5442 61.8268 95.9779 62.7697 95.978H99.9871C101.654 95.9771 103.108 94.8383 103.512 93.2153Z" fill="white"/>
<path d="M103.512 93.2153L112.663 69.6912C112.893 68.7673 112.685 67.7889 112.1 67.0393C111.515 66.2898 110.618 65.8529 109.669 65.8554H73.3302C71.6539 65.8593 70.198 67.0138 69.8068 68.6493L59.7772 92.1676C59.5568 93.0875 59.7687 94.058 60.3524 94.8011C60.936 95.5442 61.8268 95.9779 62.7697 95.978H99.9871C101.654 95.9771 103.108 94.8383 103.512 93.2153Z" fill="#0FBE73"/>
<path fill-rule="evenodd" clip-rule="evenodd" d="M103.512 93.2153L112.663 69.6912C112.893 68.7673 112.685 67.7889 112.1 67.0393C111.515 66.2898 110.618 65.8529 109.669 65.8554H73.3302C71.6539 65.8593 70.198 67.0138 69.8068 68.6493L59.7772 92.1676C59.5568 93.0875 59.7687 94.058 60.3524 94.8011C60.936 95.5442 61.8268 95.9779 62.7697 95.978H99.9871C101.654 95.9771 103.108 94.8383 103.512 93.2153V93.2153Z" stroke="black" stroke-linecap="square" stroke-linejoin="round"/>
<path d="M102.173 92.2628L110.616 70.561C110.828 69.7098 110.637 68.8081 110.099 68.1167C109.56 67.4253 108.735 67.0214 107.86 67.0217H74.3278C72.7781 67.0212 71.4304 68.0871 71.0688 69.5991L61.8345 91.297C61.6328 92.1452 61.8292 93.0393 62.3674 93.7239C62.9057 94.4085 63.7266 94.8083 64.5956 94.8089H98.9216C100.459 94.8101 101.8 93.7599 102.173 92.2628Z" fill="#0FBE73"/>
<path d="M76.7469 71.0215C77.1922 70.3523 77.9136 70.046 78.3725 70.3562C78.8314 70.6664 78.8314 71.4469 78.3881 72.1122C78.3181 72.2145 78.2401 72.3111 78.1547 72.4009L81.4487 79.3799C81.9737 79.0287 82.5512 78.9409 82.9673 79.218C83.2373 79.4155 83.4066 79.7225 83.4301 80.0569L85.6818 79.296L87.6496 78.6307L88.2913 78.42C88.3725 78.1774 88.4849 77.9466 88.6258 77.7332C89.2499 76.7908 90.2708 76.3675 90.9066 76.7967C91.5425 77.2259 91.5503 78.3088 90.9436 79.2433L94.6964 84.3844C95.515 83.7113 96.4776 83.5025 97.1445 83.9474C98.0526 84.5542 98.0662 86.1365 97.1756 87.4788C97.1387 87.5335 97.0979 87.5764 97.0609 87.6271L99.5576 91.0532L99.581 91.0864C99.8467 91.4888 99.7371 92.0313 99.336 92.298C98.9348 92.5647 98.3942 92.4546 98.1284 92.0522L95.9117 88.6944C95.2098 89.1021 94.4631 89.1802 93.9167 88.8153C93.0494 88.23 93.0067 86.7706 93.7806 85.4692L90.1891 80.0296C89.6583 80.3906 89.073 80.4823 88.653 80.2033C88.4196 80.0369 88.2605 79.7855 88.2096 79.5028L87.9413 79.577L85.9404 80.1252L83.3776 80.8198C83.2976 81.1279 83.1661 81.4202 82.9887 81.6841C82.3645 82.6246 81.3437 83.0499 80.7078 82.6207C80.072 82.1914 80.0623 81.0891 80.6864 80.1467C80.778 80.0084 80.8807 79.8779 80.9937 79.7565L77.8572 72.6468C77.48 72.9063 77.0619 72.9726 76.7625 72.7716C76.3114 72.4712 76.3036 71.6829 76.7469 71.0215Z" fill="#EAFFEF"/>
<path d="M100.608 71.3963H105.469C105.923 71.3956 106.334 71.1263 106.517 70.7095C106.543 70.6478 106.558 70.5816 106.56 70.5144C106.559 70.2371 106.334 70.0129 106.058 70.0129H100.891C101.134 70.4207 101.012 70.9924 100.608 71.3963H100.608Z" fill="#EAFFEF"/>
<path d="M97.4652 70.8969C97.4663 71.1731 97.6897 71.3964 97.965 71.3964H100.608C101.012 70.9925 101.134 70.4208 100.891 70.0092H98.558C98.1043 70.009 97.6933 70.2776 97.5099 70.694C97.4813 70.7578 97.4661 70.8269 97.4652 70.8969H97.4652Z" fill="#0FBE73"/>
<path d="M98.6804 71.3962C98.6945 71.4229 98.7107 71.4483 98.729 71.4723C99.0751 71.9484 99.8276 71.9933 100.411 71.566C100.48 71.5146 100.545 71.4579 100.605 71.3962C101.01 70.9924 101.132 70.4207 100.889 70.009C100.877 69.982 100.861 69.9565 100.843 69.9329C100.498 69.4549 99.7459 69.4139 99.1626 69.8373C99.0936 69.8896 99.0286 69.947 98.9681 70.009C98.5637 70.4148 98.4412 70.9826 98.6804 71.3962Z" fill="white"/>
<path d="M96.2519 73.9581C96.2541 74.2345 96.4781 74.4575 96.7536 74.4575H101.854C101.607 74.0439 101.73 73.482 102.134 73.0703H97.337C96.8824 73.0707 96.4708 73.3399 96.2869 73.7571C96.2625 73.8212 96.2506 73.8894 96.2519 73.9581Z" fill="#0FBE73"/>
<path d="M101.846 74.4577H104.245C104.699 74.4577 105.109 74.1901 105.294 73.7748C105.321 73.7133 105.336 73.647 105.338 73.5797C105.339 73.4465 105.286 73.3187 105.192 73.2245C105.099 73.1304 104.971 73.0777 104.839 73.0783H102.126C101.722 73.4763 101.599 74.044 101.846 74.4577Z" fill="#EAFFEF"/>
<path d="M101.846 74.4575C101.857 74.4844 101.872 74.5099 101.889 74.5335C102.233 75.0116 102.986 75.0545 103.569 74.6292C103.638 74.5768 103.703 74.5194 103.763 74.4575C104.164 74.0516 104.286 73.4819 104.047 73.0702C104.033 73.044 104.018 73.0186 104.001 72.9942C103.653 72.5181 102.9 72.4752 102.317 72.9025C102.248 72.9531 102.183 73.0092 102.122 73.0702C101.722 73.4761 101.599 74.0438 101.846 74.4575Z" fill="white"/>
<path d="M100.141 77.4974H103.194C103.648 77.4969 104.059 77.2287 104.244 76.8126C104.27 76.7509 104.285 76.6847 104.287 76.6175C104.287 76.3392 104.062 76.1133 103.785 76.1122H100.431C100.672 76.5239 100.547 77.0916 100.141 77.4974Z" fill="#0FBE73"/>
<path d="M95.1979 76.9998C95.1984 77.1323 95.2513 77.2591 95.3451 77.3524C95.4388 77.4457 95.5656 77.4978 95.6976 77.4973H100.141C100.541 77.0915 100.666 76.5218 100.425 76.1082H96.2907C95.8358 76.1076 95.424 76.3782 95.2426 76.7969C95.214 76.8607 95.1987 76.9298 95.1979 76.9998H95.1979Z" fill="#EAFFEF"/>
<path d="M98.2198 77.4973C98.2339 77.524 98.2501 77.5494 98.2684 77.5734C98.6126 78.0514 99.3631 78.0924 99.9484 77.6671C100.017 77.6156 100.082 77.5588 100.143 77.4973C100.543 77.0915 100.668 76.5218 100.427 76.1082C100.414 76.0811 100.398 76.0556 100.38 76.0321C100.032 75.558 99.2815 75.517 98.6962 75.9404C98.6275 75.9916 98.5625 76.0477 98.5017 76.1082C98.1012 76.514 97.9767 77.0857 98.2198 77.4973Z" fill="white"/>
<path d="M80.4061 91.8339H83.4609C83.9143 91.833 84.3248 91.5648 84.509 91.149C84.5356 91.0874 84.5501 91.0211 84.5517 90.9539C84.5517 90.6759 84.3271 90.4506 84.0501 90.4506H80.6958C80.9311 90.8603 80.8067 91.4281 80.4061 91.8339H80.4061Z" fill="#0FBE73"/>
<path d="M68.2843 91.336C68.2848 91.4684 68.3377 91.5953 68.4315 91.6886C68.5252 91.7819 68.652 91.834 68.784 91.8335H80.4062C80.8067 91.4277 80.9312 90.858 80.6901 90.4463H69.3771C68.9228 90.4459 68.5114 90.7155 68.329 91.1331C68.3013 91.1972 68.2861 91.2661 68.2843 91.336H68.2843Z" fill="#EAFFEF"/>
<path d="M78.4794 91.8336C78.4935 91.8602 78.5098 91.8857 78.528 91.9097C78.8722 92.3877 79.6228 92.4286 80.2081 92.0053C80.2767 91.9525 80.3417 91.8952 80.4025 91.8336C80.8031 91.4277 80.9275 90.858 80.6864 90.4464C80.6737 90.4193 80.6581 90.3938 80.6397 90.3703C80.2917 89.8942 79.5411 89.8532 78.9558 90.2766C78.8866 90.3279 78.8216 90.3847 78.7614 90.4464C78.3627 90.8502 78.2364 91.4219 78.4794 91.8336Z" fill="white"/>
<path d="M3.53512 99.3472C3.53512 99.3472 -2.88167 128.432 13.625 134.508C30.1317 140.583 74.7206 134.876 56.1897 113.891C37.6588 92.9048 3.53512 99.3472 3.53512 99.3472Z" fill="#2E2E2E"/>
<path d="M83.628 34.7317C85.8714 34.2622 88.146 33.9577 90.4337 33.8205H90.5659C92.069 33.721 94.7018 33.6781 96.2049 33.6625" stroke="black"/>
<path d="M72.5076 39.5446C72.492 39.5543 72.4823 39.5659 72.4668 39.5757" stroke="black"/>
<path d="M98.0893 27.3177C96.9421 27.9226 95.6237 27.5128 95.1182 26.4827" stroke="black"/>
<path d="M91.4296 12.6162C91.3235 14.4515 92.3939 16.1509 94.0916 16.8422C94.2668 16.5198 94.5177 16.2452 94.8228 16.0423C96.112 15.2053 95.8825 17.4412 99.3826 16.852C104.234 16.0306 105.471 17.7261 105.471 17.7261C105.578 17.8744 105.276 18.8421 105.234 19.0196C105.039 20.0596 104.845 21.0936 104.668 22.1414C104.554 22.7761 104.438 23.407 104.322 24.0339C104.41 23.9481 104.503 23.868 104.602 23.7939C105.399 22.5452 106.567 21.1444 107.841 22.2877C108.097 22.5259 108.293 22.8214 108.413 23.1501C108.996 24.7402 107.88 25.7626 106.575 26.3752C106.231 26.5842 105.865 26.7549 105.484 26.8844C105.549 27.2863 105.815 28.8882 105.815 28.8921C105.842 29.056 109.082 27.0522 109.352 26.8083C109.84 26.1605 110.217 25.435 110.466 24.6621C111.473 21.4741 111.302 17.3534 109.274 14.7312C108.771 14.0815 109.107 13.7069 109.253 13.0747C109.267 13.0051 109.238 12.9338 109.179 12.8947C109.119 12.8556 109.043 12.8566 108.984 12.8972C107.892 13.5859 105.914 12.8816 105.914 12.8816C99.4973 9.01452 96.2092 11.4065 94.6361 11.5275C93.998 11.5714 93.3647 11.3907 92.8452 11.0163C92.659 11.3852 92.285 11.6209 91.873 11.629L91.8108 11.9646C91.7631 12.2196 91.6283 12.4501 91.4296 12.6162Z" fill="#0FBE73"/>
<path d="M92.9364 18.1198L92.9423 18.1218L92.9364 18.1198Z" fill="#0FBE73"/>
<path d="M94.0954 16.8499C92.3977 16.1585 91.3272 14.4591 91.4334 12.6238C91.4524 12.28 91.5018 11.9385 91.5812 11.6034L91.6376 11.6151C91.7141 11.6324 91.7927 11.6383 91.8709 11.6327C92.283 11.6246 92.657 11.389 92.8432 11.02C92.8968 10.9193 92.9342 10.8106 92.954 10.6981L93.2534 9.06506C93.2534 9.06506 94.2257 10.3859 95.7813 10.263C97.3369 10.1401 100.625 7.74809 107.059 11.6171C107.059 11.6171 108.603 12.1887 109.696 11.5C109.754 11.4594 109.831 11.4585 109.89 11.4976C109.949 11.5367 109.979 11.608 109.964 11.6776C109.818 12.3078 109.916 12.817 110.419 13.4667C112.447 16.0889 112.619 20.2096 111.611 23.3977C111.17 24.7188 110.387 25.8986 109.342 26.8159C109.072 27.0598 105.832 29.0636 105.805 28.8997C105.805 28.8997 105.539 27.294 105.475 26.892L105.459 26.8003L105.55 26.773C105.897 26.6654 106.236 26.5351 106.565 26.3828C107.87 25.7702 108.992 24.7478 108.403 23.1577C108.283 22.829 108.087 22.5335 107.831 22.2953C106.558 21.152 105.389 22.5528 104.592 23.8015C104.438 24.0386 104.311 24.2926 104.214 24.5586C104.246 24.3869 104.277 24.2191 104.31 24.0474C104.426 23.4191 104.542 22.7883 104.656 22.1548C104.85 21.113 105.031 20.0789 105.222 19.0331C105.257 18.8556 105.566 17.8878 105.459 17.7395C105.459 17.7395 104.222 16.0441 99.3708 16.8655C95.8707 17.4508 96.1002 15.2188 94.811 16.0558C94.506 16.2587 94.255 16.5333 94.0799 16.8557C94.0256 16.9608 93.9776 17.0689 93.936 17.1796C93.929 17.1934 93.9231 17.2077 93.9185 17.2225C93.831 17.4644 93.7512 17.7083 93.6735 17.9464C92.9462 20.2662 92.4659 22.7714 92.7226 25.2083C93.0357 28.1622 95.1804 31.6351 98.593 31.3405C99.6667 31.2143 100.714 30.9193 101.696 30.4664" stroke="black"/>
<ellipse rx="0.604735" ry="0.733602" transform="matrix(0.999598 -0.0283664 0.0281751 0.999603 94.4471 22.4126)" fill="black"/>
<ellipse rx="0.604735" ry="0.733602" transform="matrix(0.999598 -0.0283664 0.0281751 0.999603 99.0164 23.6443)" fill="black"/>
<path d="M97.065 24.6485C97.065 24.6485 95.2974 25.0387 95.4763 24.1295C95.5308 23.8447 95.9741 21.0468 95.9741 21.0468C95.9741 21.0468 95.1497 19.3806 92.9932 19.7689" stroke="black"/>
<path d="M97.8585 20.7968C97.8585 20.7968 100.66 20.3188 101.734 22.5644" stroke="black"/>
<path d="M96.2367 33.6389C94.0297 34.8096 92.8513 37.6269 93.775 39.6658C95.315 43.0626 99.3692 44.0616 102.72 43.0802C106.445 41.9876 109.183 38.542 109.02 34.591" stroke="black"/>
<path d="M109.599 98.4128C115.998 83.491 118.322 57.1534 118.322 57.1534V93.9C118.322 95.097 118.795 96.2452 119.639 97.0916C120.482 97.9381 121.627 98.4133 122.82 98.4128H137.014C138.116 98.4302 139.054 97.6118 139.19 96.5144C139.248 95.9241 139.054 95.3369 138.657 94.8978C138.259 94.4588 137.695 94.209 137.104 94.2102H131.29C130.82 94.2088 130.377 93.9898 130.09 93.6168C129.802 93.2439 129.703 92.7586 129.82 92.3021C133.32 78.4494 135.484 62.1892 130.928 47.8C129.987 44.8304 127.959 42.1848 125.563 40.14C122.814 37.7832 119.425 36.7023 115.952 35.9023C113.661 35.3755 111.35 34.9398 109.02 34.5951C109.013 34.5975 109.005 34.5975 108.998 34.5951C108.983 34.5951 108.967 34.5951 108.957 34.5951H108.942H108.921H108.889" stroke="black"/>
<path d="M107.553 27.9652L107.297 32.6263C107.246 33.569 107.905 34.4013 108.831 34.5657H108.889C108.9 34.5629 108.91 34.5629 108.92 34.5657H108.93H108.957" stroke="black"/>
<path d="M108.998 34.5873H108.957H108.942H108.93H108.92H108.889H108.831C107.905 34.423 107.246 33.5906 107.297 32.6479L107.553 27.9868" stroke="black"/>
<path d="M96.604 31.0498C96.4777 30.9991 96.604 36.2553 93.4793 38.538" stroke="black"/>
<path d="M54.7686 98.4145H44.7584" stroke="black"/>
<path d="M152.562 98.4145H70.3536" stroke="black"/>
<path d="M25.8131 49.0665C25.9095 51.0343 25.8393 53.0068 25.6031 54.9626C25.2997 57.261 23.1822 60.1818 22.7233 62.4548C22.068 65.7248 23.0597 69.104 24.4208 72.1399C26.0658 75.8099 28.6578 79.5013 28.4051 83.7039C28.1427 87.4125 26.1952 90.7941 23.1238 92.874C21.0477 94.2677 18.6761 95.1562 16.1976 95.4689C15.8515 95.5099 15.4995 95.543 15.1476 95.5528C14.9531 95.5528 14.7587 95.5313 14.5642 95.5157C7.97246 94.9558 1.2115 89.9103 1.22705 82.8864C1.22705 78.3989 4.62601 74.887 5.19963 70.5322C5.55158 67.869 4.77379 65.1024 5.49325 62.5172C6.65993 58.3887 11.1692 56.1372 13.1448 52.3365C14.5992 49.5308 14.8365 46.2569 15.9876 43.3147C17.5899 39.2174 20.1488 34.5349 23.6489 34.1447C24.6645 34.2601 25.6462 34.5814 26.5345 35.089C28.7045 36.2596 29.2567 36.3338 29.6981 37.3776C30.1493 38.4682 29.4765 39.633 28.3526 39.9823C26.4547 40.5852 25.6361 44.4541 25.8131 49.0665Z" fill="#0FBE73"/>
<path d="M27.7208 35.7225C33.4181 34.0661 37.0387 36.503 39.6288 39.3125C42.2188 42.1221 42.0983 45.3121 42.0983 45.3121" stroke="black"/>
<path d="M45.3922 90.6727C45.3062 95.1389 44.7423 99.583 43.7102 103.928" stroke="black"/>
<path fill-rule="evenodd" clip-rule="evenodd" d="M59.5497 127.045C57.4633 130.646 52.5146 133.204 46.4595 134.796C35.7143 137.621 21.4885 137.401 13.6289 134.506C-2.88751 128.432 3.53316 99.3472 3.53316 99.3472C3.53316 99.3472 32.0995 93.9524 51.1477 109.103C52.9674 110.546 54.6565 112.147 56.1955 113.889C58.3014 116.279 59.5945 118.466 60.205 120.464C60.9537 122.953 60.6542 125.146 59.5497 127.045V127.045Z" stroke="black"/>
<path d="M48.6007 134.305C48.6007 134.305 38.5925 162.18 55.4064 169.299C72.2203 176.419 -6.33862 177.367 11.0023 169.299C28.3431 161.231 18.3757 136.008 18.3757 136.008" stroke="black"/>
<path d="M68.9594 39.5761C68.7513 38.9381 68.8369 36.7198 68.9049 35.4672C68.9321 34.9754 69.3437 34.5944 69.8344 34.6067L89.81 34.7823C90.511 34.7888 91.0759 35.3608 91.0759 36.0642V51.105C91.0759 51.446 90.9405 51.773 90.6997 52.0135C90.4588 52.2541 90.1324 52.3884 89.7925 52.3869L70.3263 52.3147C69.7403 52.2906 69.2778 51.8067 69.2783 51.2182V50.071C70.6627 50.7187 73.28 50.9177 73.28 50.9177C74.2114 50.8924 75.6834 50.7792 76.4903 50.3148C77.2292 49.8895 78.1626 49.2788 78.289 48.354C78.3906 47.6094 77.8736 46.9224 77.132 46.8166C76.918 46.7737 76.6964 46.7892 76.4903 46.8614" stroke="black"/>
<path d="M88.4543 81.2571C88.4451 81.5255 88.3549 81.7847 88.1957 82.0005C87.7387 82.5644 86.8346 82.4531 86.2201 82.2795C83.6359 81.542 82.0842 84.3515 81.1081 86.2441C78.6425 91.0281 74.9441 95.4727 70.3298 98.4149C70.0304 98.61 69.7251 98.7934 69.4159 98.9729C64.9067 101.583 59.0635 101.098 54.702 98.3876L60.2788 84.6422L60.831 85.0851C64.1989 87.7523 68.3445 86.2558 71.2146 83.6238C72.0112 82.8956 72.7141 82.0704 73.3068 81.1674C74.2946 79.6436 75.1405 77.9988 76.4919 76.7599C78.3625 75.0449 81.1003 74.7093 83.4648 75.4351C85.8293 76.1609 88.6682 78.4944 88.4543 81.2571Z" fill="white"/>
<path d="M88.4311 80.2834C88.4311 80.2834 87.7972 76.9159 82.0824 79.544" stroke="black"/>
<path d="M85.252 76.2407C85.252 76.2407 81.6897 75.0974 79.7063 77.8289" stroke="black"/>
<path fill-rule="evenodd" clip-rule="evenodd" d="M13.3431 95.5215C14.2942 95.6066 15.2516 95.5909 16.1995 95.4746C18.6773 95.1579 21.0478 94.2676 23.1238 92.8739C26.1951 90.7939 28.1426 87.4124 28.405 83.7038C28.6578 79.4992 26.0716 75.8078 24.4208 72.1378C23.0596 69.1 22.0679 65.7207 22.7252 62.4546C23.1821 60.1797 25.2958 57.2609 25.6011 54.9606C25.8385 53.0048 25.9101 51.0323 25.8149 49.0644C25.638 44.4501 26.4547 40.5772 28.3525 39.988C29.4764 39.6388 30.1511 38.472 29.6981 37.3833C29.2645 36.3376 28.7064 36.2751 26.5344 35.0908C20.8721 32.0003 16.9345 37.7618 14.7606 43.3165C13.6075 46.2607 13.3742 49.5307 11.9177 52.3364C9.94215 56.139 5.42318 58.3847 4.26816 62.521C3.54676 65.1042 4.32455 67.8728 3.97454 70.5321C3.40287 74.8849 0.00974916 78.3949 2.67617e-05 82.8863C-0.0155291 89.9082 6.75321 94.9576 13.3431 95.5215V95.5215Z" stroke="black"/>
<path d="M59.5497 127.045C59.0617 130.529 58.3344 134.527 57.5333 138.529C55.2621 149.87 52.3727 161.28 52.3727 161.28" stroke="black"/>
<path d="M60.1974 120.464C60.2071 120.039 60.2129 119.648 60.1974 119.278C60.0243 111.278 54.292 109.366 51.8264 108.908C51.4586 108.835 51.0863 108.788 50.7122 108.765" stroke="black"/>
<path d="M53.2279 157.821C53.874 157.424 54.6836 157.408 55.3444 157.78C56.0052 158.152 56.414 158.854 56.413 159.614V159.714C56.35 161.667 55.3792 163.478 53.7898 164.607L51.087 166.537" stroke="black"/>
<path d="M22.5249 65.0336C22.9022 64.8795 23.2872 64.7429 23.6761 64.6161C24.4947 63.0981 24.3683 59.7755 24.2905 58.5677L25.1092 56.7162C27.3686 58.1092 30.3593 57.5864 33.134 56.6167C33.5237 56.4801 33.9026 56.3144 34.2677 56.1211C36.0294 55.3094 38.4988 53.3896 37.3905 52.3984C36.2821 51.4073 36.3599 49.4991 37.0697 48.3285C37.2855 47.9695 37.6686 47.6164 38.0672 47.7276C38.3355 47.8017 38.5086 48.0534 38.6622 48.2856C38.8566 48.5763 39.0511 48.8553 39.2455 49.1401C39.3136 49.2358 39.4244 49.3353 39.5294 49.2923C39.5739 49.2629 39.6084 49.2208 39.6286 49.1714C39.9708 48.4651 39.9067 47.4525 39.965 46.6779C40.033 45.755 40.0855 44.8263 40.1128 43.8996C40.1283 43.3884 40.2333 42.8401 40.7797 42.6606C41.0032 42.5741 41.2539 42.5957 41.4594 42.7192C41.6649 42.8427 41.8022 43.0543 41.8317 43.2928C42.2294 45.5351 42.2877 47.8247 42.0047 50.0845C41.7364 52.4511 41.2522 54.9622 39.7394 56.8703C38.8775 57.971 37.7227 58.8044 36.4085 59.274C35.1368 59.7169 35.1777 61.2563 35.1777 62.6065V64.8483C39.088 65.6443 42.7611 66.6042 45.7984 69.3357C47.8071 71.1782 49.6971 73.1469 51.4569 75.2299C56.9967 81.7524 58.1945 82.9757 60.8623 85.0848C64.2302 87.7519 68.3777 86.2555 71.2458 83.6235C72.0411 82.895 72.7426 82.0698 73.3342 81.167C74.322 79.6433 75.1679 77.9985 76.5173 76.7596C78.3899 75.0446 81.1277 74.709 83.4922 75.4348C85.8567 76.1606 88.6995 78.4941 88.4739 81.2568C88.4644 81.5248 88.375 81.7837 88.2173 82.0002C87.7603 82.564 86.8561 82.4528 86.2417 82.2792C83.6555 81.5417 82.1058 84.3512 81.1277 86.2437C78.664 91.0278 74.9637 95.4723 70.3494 98.4146C70.05 98.6097 69.7466 98.7931 69.4355 98.9726C64.2807 101.958 57.37 100.892 52.9366 97.0898L42.242 87.9802" stroke="black"/>
<path d="M23.676 64.6162C23.676 64.6162 28.7841 63.0319 35.1776 64.8543" stroke="black"/>
<path d="M69.278 50.0712C69.278 50.0712 69.3169 56.7048 70.8938 59.2588" stroke="black"/>
<path d="M74.4599 19.7084C73.2465 21.7863 73.3029 23.2613 73.6179 25.6553C73.6711 26.0714 73.4816 26.4812 73.1307 26.7093C72.7798 26.9374 72.3296 26.9433 71.9729 26.7245C64.9728 22.6819 58.4218 25.8797 50.0644 23.8993C46.996 23.1755 43.1713 21.679 40.5481 19.2694C39.6779 17.9727 39.2135 16.4448 39.2142 14.8815C39.2142 8.32779 48.1375 3.01306 59.1393 3.01306C66.192 3.01306 72.3871 5.19632 75.9299 8.48583C75.9299 8.48583 75.9299 8.48583 75.9396 8.49753C76.8286 9.77981 77.3135 11.3002 77.3319 12.8621C77.3319 15.2209 75.5896 17.7573 74.4599 19.7084Z" fill="#EAFFEF"/>
<path fill-rule="evenodd" clip-rule="evenodd" d="M77.3009 12.866V13.0318C77.26 15.3282 76.1147 17.4627 74.7555 19.3104C73.8455 20.5473 72.7663 21.9189 73.023 23.4349C73.1358 24.1022 73.5072 24.709 73.6064 25.386C73.7055 26.063 73.3439 26.8922 72.6691 26.9274C72.2413 26.9488 71.8758 26.6425 71.5374 26.3791C69.5288 24.8182 66.9193 24.2329 64.3817 24.1315C61.8442 24.03 59.3105 24.3636 56.771 24.4358C53.1115 24.5412 49.3937 24.0827 46.0122 22.6799C42.973 21.4078 40.2021 19.3396 38.3782 16.5867C36.5873 13.8727 37.6471 9.93544 39.5566 7.57659C41.3494 5.36407 43.9433 3.94759 46.6053 2.95059C53.7629 0.26786 61.9336 0.332246 68.994 3.26861C71.0902 4.13099 73.1125 5.27042 74.6875 6.91322C76.2236 8.51506 77.2873 10.6495 77.3009 12.866Z" stroke="black"/>
<ellipse cx="47.9275" cy="12.7177" rx="2.7495" ry="2.75882" fill="#0FBE73"/>
<ellipse cx="56.8177" cy="12.7177" rx="2.7495" ry="2.75882" fill="#0FBE73"/>
<ellipse cx="65.8811" cy="12.7177" rx="2.7495" ry="2.75882" fill="#0FBE73"/>
<g opacity="0.54">
<path d="M118.714 128.383L117.596 144.577C117.085 145.555 116.446 146.46 115.697 147.268C115.615 147.239 115.533 147.207 115.454 147.17C115.304 147.12 115.156 147.059 115.016 147.001C112.751 146.004 111.03 144.146 110.528 142.041C110.075 140.197 110.483 138.205 109.608 136.473C108.541 134.338 105.638 133 105.282 130.592C104.948 128.339 106.97 126.272 106.643 124.064C106.254 121.566 103.211 120.085 102.641 117.647C102.286 116.131 102.604 114.39 102.47 112.829C102.322 111.083 102.03 109.353 101.597 107.655C106.103 107.327 110.688 109.819 112.148 113.387C113.34 116.314 112.622 119.723 114.481 122.384C115.496 123.826 117.186 124.905 118.061 126.413C118.331 126.883 118.528 127.393 118.644 127.923C118.644 127.96 118.644 127.997 118.658 128.026C118.658 128.087 118.674 128.13 118.681 128.175C118.701 128.309 118.714 128.383 118.714 128.383Z" fill="#0FBE73"/>
<path d="M118.722 128.369C118.722 128.369 118.709 128.303 118.693 128.175C118.707 128.226 118.716 128.278 118.722 128.33C118.728 128.343 118.728 128.357 118.722 128.369Z" fill="#0FBE73"/>
</g>
<path d="M133.607 122.05C133.024 124.154 129.829 125.432 129.444 127.588C129.104 129.5 131.208 131.283 130.86 133.224C130.488 135.306 127.465 136.457 126.354 138.297C125.45 139.792 125.872 141.51 125.405 143.101C124.865 144.907 123.072 146.521 120.708 147.375C120.56 147.428 120.42 147.479 120.27 147.524C120.188 147.547 120.099 147.576 120.017 147.598C119.239 146.952 118.335 145.815 117.602 144.587L118.714 128.384C119.582 127.646 120.573 126.971 121.264 126.152C122.012 125.268 122.36 124.302 122.582 123.289H122.605V123.178C122.93 121.58 122.959 119.906 123.708 118.39C125.227 115.306 129.992 113.156 134.683 113.438C134.24 114.895 133.937 116.392 133.778 117.906C133.644 119.247 133.975 120.749 133.607 122.05Z" fill="#0FBE73"/>
<path d="M122.613 123.164V123.275H122.59L122.613 123.164Z" fill="#0FBE73"/>
<path d="M122.613 123.165L122.59 123.276C122.368 124.288 122.02 125.254 121.271 126.138C120.581 126.958 119.589 127.633 118.722 128.37C118.726 128.36 118.726 128.349 118.722 128.339C118.716 128.286 118.706 128.234 118.693 128.183C118.693 128.138 118.678 128.095 118.67 128.035C118.67 128.005 118.67 127.968 118.656 127.931C118.539 127.401 118.343 126.892 118.073 126.421C117.198 124.913 115.508 123.834 114.493 122.392C114.493 122.392 114.952 114.793 118.827 112.481C122.502 110.295 122.613 121.9 122.613 123.165Z" fill="#0FBE73"/>
<path d="M122.613 123.164V123.275H122.59L122.613 123.164Z" fill="#0FBE73"/>
<path d="M118.714 128.338V128.383C118.714 128.383 118.701 128.317 118.685 128.189C118.698 128.238 118.708 128.288 118.714 128.338Z" fill="#0FBE73"/>
<path d="M118.368 128.383C119.232 127.645 120.235 126.961 120.927 126.143C122.872 123.843 122.121 120.903 123.368 118.38C124.884 115.299 129.654 113.151 134.342 113.432C133.897 114.888 133.594 116.385 133.436 117.9C133.296 119.25 133.631 120.75 133.263 122.058C132.666 124.161 129.483 125.437 129.096 127.593C128.752 129.503 130.862 131.286 130.514 133.226C130.142 135.309 127.12 136.46 126.008 138.298C125.1 139.795 125.526 141.51 125.055 143.104C124.486 145.026 122.502 146.723 119.918 147.525C119.836 147.552 119.747 147.582 119.663 147.603C118.886 146.957 117.981 145.82 117.246 144.591" stroke="black"/>
<path d="M131.48 115.845C124.49 123.394 121.202 139.309 119.922 147.527C119.817 148.22 119.728 148.854 119.642 149.425" stroke="black"/>
<path fill-rule="evenodd" clip-rule="evenodd" d="M132.126 154.053L128.919 173.094C128.762 174.171 127.853 174.976 126.769 175H109.953C108.857 174.975 107.943 174.153 107.798 173.063L104.833 154.051L132.126 154.053Z" stroke="black"/>
<path fill-rule="evenodd" clip-rule="evenodd" d="M135.18 151.927C135.121 153.098 134.171 154.025 133.003 154.053H104.008C102.854 154.026 101.911 153.118 101.835 151.962C101.712 150.596 102.719 149.426 104.008 149.426H133.003C134.28 149.427 135.283 150.581 135.18 151.927V151.927Z" stroke="black"/>
<path fill-rule="evenodd" clip-rule="evenodd" d="M115.353 147.264C116.597 146.025 118.122 143.262 118.796 141.007C119.352 139.147 118.374 137.233 118.149 135.325C117.799 132.338 119.277 129.127 117.719 126.418C116.85 124.908 115.16 123.835 114.145 122.389C112.276 119.726 112.994 116.32 111.8 113.399C110.34 109.827 105.757 107.335 101.253 107.667C101.683 109.365 101.975 111.095 102.126 112.841C102.26 114.402 101.932 116.142 102.293 117.656C102.863 120.095 105.92 121.572 106.295 124.071C106.626 126.28 104.602 128.348 104.934 130.598C105.292 133.009 108.191 134.342 109.262 136.48C110.134 138.215 109.725 140.205 110.176 142.047C110.742 144.349 112.747 146.372 115.353 147.264V147.264Z" stroke="black"/>
<path d="M104.003 110.464C110.713 119.213 113.871 137.649 115.114 147.166C115.219 147.991 115.308 148.748 115.388 149.426" stroke="black"/>
<path d="M114.141 122.389C114.141 122.389 114.602 114.79 118.475 112.48C122.349 110.17 122.267 123.115 122.267 123.115" stroke="black"/>
<path d="M118.368 128.383C118.368 128.383 117.577 124.036 118.965 119.762" stroke="black"/>
</g>
<defs>
<clipPath id="clip0_1_1537">
<rect width="175" height="175" fill="white"/>
</clipPath>
</defs>
</svg>
