<svg width="175" height="175" viewBox="0 0 175 175" fill="none" xmlns="http://www.w3.org/2000/svg">
<g clip-path="url(#clip0_1_1536)">
<path d="M139.716 99.2963L139.372 102.588C138.476 104.732 137.581 106.875 136.687 109.016C136.375 109.768 136.061 110.519 135.746 111.268C135.603 111.619 135.4 111.942 135.147 112.223C135.121 112.261 135.08 112.285 135.034 112.289C134.958 112.289 134.931 112.188 134.925 112.112C134.882 111.3 134.785 110.491 134.636 109.692C133.798 105.833 129.325 104.419 125.818 104.507C124.414 104.528 123.032 104.849 121.762 105.448C119.93 106.336 119.217 108.806 119.119 108.898L119.042 109.215L117.786 114.457C117.521 115.626 117.319 116.243 116.242 116.555C116.207 116.567 115.133 117.139 115.098 117.139C114.682 117.256 115.822 117.005 115.371 116.929L113.941 116.705L113.333 116.565L104.453 114.459C104.797 114.517 105.149 114.582 105.507 114.654L107.568 115.146L107.023 112.528C105.606 104.378 107.955 96.9841 111.956 92.9695C113.01 91.9137 113.533 91.6429 114.762 90.9397L115.452 92.5779C115.452 92.5779 122.514 94.6875 124.179 88.2146C124.851 88.273 126.144 88.2633 126.811 88.4094C130.288 89.1395 133.428 90.996 135.746 93.6921C135.95 93.9259 136.15 94.1674 136.349 94.4129L136.454 94.5414C136.576 94.6953 136.706 94.8531 136.829 95.0109L136.916 95.1355C137.933 96.4645 138.868 97.854 139.716 99.2963Z" fill="#353642"/>
<path d="M55.8038 65.2232C56.9238 59.6132 61.6798 54.1785 75.2633 52.9338C105.456 50.1697 89.1346 41.8307 98.9654 32.7047C108.796 23.5787 145.967 38.5933 136.243 62.0423C126.519 85.4913 158.619 59.4652 172.214 89.167C174.184 93.4772 175.132 98.1851 174.985 102.923C174.814 107.929 173.527 112.834 171.219 117.277C166.877 125.774 158.812 133.344 147.147 138.034C145.426 138.737 143.624 139.369 141.742 139.93" stroke="#CCDDE2"/>
<path d="M149.838 144.899H113.089L111.995 144.572C111.995 144.572 111.773 132.072 110.307 128.873L115.751 130.728L121.024 132.247C121.024 132.247 128.279 132.399 132.426 124.981C132.426 124.981 133.124 123.211 133.75 120.018C134.291 117.248 137.165 101.976 138.37 98.5657C139.671 100.843 141.709 104.76 142.693 107.148C143.758 109.741 144.655 112.324 145.388 114.718C146.608 118.659 147.57 122.676 148.269 126.742C149.315 132.738 149.84 138.813 149.838 144.899Z" fill="#353642"/>
<path d="M151.445 111.361C151.209 114.114 149.347 114.562 149.347 114.562C147.772 115.495 145.353 114.492 144.865 112.742C144.858 112.724 144.854 112.704 144.853 112.684C144.464 111.186 143.706 109.261 142.687 107.156C140.723 102.395 138.17 97.5954 134.896 93.7989C132.578 91.103 129.438 89.2466 125.961 88.5162C125.95 88.5162 125.944 88.5045 125.932 88.5045C121.322 87.1137 119.078 84.2736 118.106 81.5505C118.106 81.5505 118.106 81.5505 118.106 81.5388C117.69 79.8188 117.266 78.1416 117.494 77.1267C117.883 75.3483 118.077 73.4257 117.593 73.0361C116.984 72.5258 115.884 72.9037 113.084 73.4686C110.659 73.9672 109.366 73.6848 109.074 72.2005C109.028 71.9702 109.005 71.736 109.004 71.5012C108.993 71.6492 108.421 71.0609 108.394 71.2012C108.211 71.9589 107.846 72.2628 107.048 72.5959C105.864 73.0887 105.38 74.9918 105.205 76.2599C105.022 77.6098 105.629 79.472 106.109 80.7401C105.495 80.0369 104.791 80.1187 103.69 80.5453C103.414 80.6505 102.718 80.6213 102.168 80.4285C102.246 80.3616 102.337 80.313 102.436 80.2863C102.613 80.2278 101.33 79.5889 101.517 79.548C103.385 79.1253 104.433 77.565 104.212 76.1917C103.661 72.7342 104.394 68.6669 106.726 65.973C109.296 63.0102 113.49 62.3947 117.041 63.7504C119.829 64.812 122.465 66.9898 123.432 69.8941C123.432 69.9058 123.432 69.9175 123.443 69.9292C123.566 70.2986 123.661 70.677 123.725 71.0609C124.081 73.2212 123.321 75.4106 122.899 77.5455C122.747 78.315 123.132 79.1545 123.214 79.7642C123.683 83.4263 127.902 84.4606 131.24 86.0151C138.258 89.2895 143.988 94.8878 147.842 101.696C150.401 106.203 151.314 109.277 151.445 111.361Z" fill="#0FBE73"/>
<path d="M114.451 90.2129C114.375 90.2538 114.299 90.2947 114.229 90.3415C112.969 91.0651 111.81 91.9534 110.784 92.9828C106.784 96.9975 104.435 104.392 105.853 112.542L106.397 115.146" stroke="black"/>
<path d="M149.839 144.899C149.84 138.814 149.315 132.742 148.27 126.748C147.571 122.681 146.608 118.665 145.388 114.724C144.655 112.33 143.759 109.747 142.693 107.154C141.704 104.728 140.561 102.367 139.271 100.087C138.021 97.854 136.558 95.7475 134.902 93.7971C132.584 91.1012 129.444 89.2447 125.968 88.5143C125.301 88.3727 124.626 88.2712 123.947 88.2104" stroke="black"/>
<path d="M77.9701 91.9483L77.871 91.9308C75.4581 91.5257 73.0051 92.3769 71.3592 94.1903L64.7094 101.448L63.9316 102.305C63.8832 102.358 63.8378 102.413 63.7955 102.471" stroke="black"/>
<path d="M68.3671 104.366L72.0167 100.311L72.0225 100.305" stroke="black"/>
<path d="M100.115 125.314L117.282 131.374C120.627 132.555 124.32 132.22 127.399 130.457C130.478 128.693 132.64 125.675 133.321 122.188L137.383 101.415C137.803 99.2598 137.327 97.0261 136.065 95.2305C135.89 94.9802 135.7 94.7408 135.497 94.5137" stroke="black"/>
<path d="M88.7537 124.477C86.5682 125.955 84.9621 130.445 84.1085 133.392C83.808 134.408 82.8751 135.103 81.818 135.099C81.4696 135.099 81.1253 135.023 80.8089 134.877C79.8096 134.407 79.2626 133.312 79.4867 132.229C80.9158 125.229 85.9596 111.408 103.286 114.455C103.632 114.513 103.984 114.577 104.34 114.649L106.397 115.146L112.166 116.554L113.722 116.93C114.312 117.074 114.93 117.052 115.508 116.866C115.544 116.859 115.579 116.849 115.613 116.837C116.696 116.465 117.514 115.564 117.781 114.449L119.094 108.979L119.17 108.662L120.889 101.511" stroke="black"/>
<path d="M80.3037 102.062H74.4239C73.0278 102.062 71.8961 100.928 71.8961 99.5298C71.8961 98.1313 73.0278 96.9976 74.4239 96.9976H82.7536" stroke="black"/>
<path d="M75.7907 102.06C75.7071 103.092 75.3144 103.856 74.7349 104.384C73.2416 105.747 70.5059 105.592 68.6023 104.659" stroke="black"/>
<path d="M64.7172 101.447C63.0314 99.4051 63.3756 96.6371 64.6841 94.4983C68.396 88.4286 76.8774 89.5934 82.3781 92.116C86.8346 94.1535 90.739 97.2156 94.5402 100.27C96.3971 101.762 98.221 103.317 99.9845 104.945C100.641 105.54 101.532 105.8 102.405 105.652C103.277 105.504 104.033 104.963 104.457 104.185C105.429 102.387 106.481 100.426 106.679 99.8823" stroke="black"/>
<path d="M74.7367 104.384C74.7367 104.384 83.5078 109.151 90.0235 115.999" stroke="black"/>
<path d="M86.6133 127.062C85.6411 128.725 86.4772 131.168 88.3146 131.752C90.6612 132.511 93.1423 132.76 95.5925 132.483C98.266 132.171 100.043 129.96 101.214 127.428C101.385 127.047 101.387 126.611 101.218 126.229C101.05 125.846 100.727 125.554 100.331 125.424C99.5974 125.182 98.8014 125.545 98.5032 126.259C98.1143 127.159 97.5135 128.285 96.7163 128.791" stroke="black"/>
<path d="M91.1921 126.75C91.1921 126.75 88.7907 129.337 90.6846 132.075C90.7677 132.19 90.8658 132.294 90.9762 132.383" stroke="black"/>
<path d="M94.3597 127.176C94.3597 127.176 92.1392 132.182 94.9877 132.549" stroke="black"/>
<path d="M173.195 144.902H35.6801" stroke="black"/>
<path fill-rule="evenodd" clip-rule="evenodd" d="M89.7787 135.469H76.0649C75.7766 138.155 73.5118 140.19 70.8151 140.187H24.7214C24.7267 142.787 26.8294 144.893 29.4249 144.899H89.7787C92.3785 144.898 94.4881 142.791 94.4978 140.187V137.02C94.4978 136.159 93.8013 135.461 92.9422 135.461L89.7787 135.469Z" stroke="black"/>
<path fill-rule="evenodd" clip-rule="evenodd" d="M68.6022 104.659C69.0062 105.219 69.2969 105.853 69.4577 106.525L75.9539 133.667C76.0974 134.256 76.1349 134.866 76.0647 135.469C75.7764 138.155 73.5116 140.19 70.8149 140.187H23.8657C21.4249 140.186 19.3028 138.509 18.7344 136.131L12.2499 108.991C11.8721 107.416 12.2358 105.755 13.2366 104.484C14.2373 103.212 15.7648 102.471 17.3811 102.471H64.3265C65.8879 102.468 67.3694 103.163 68.3669 104.367L68.6022 104.659Z" stroke="black"/>
<path fill-rule="evenodd" clip-rule="evenodd" d="M60.3053 69.8591C60.6339 70.1883 60.9488 70.5273 61.2483 70.8798C63.2894 74.0761 64.3694 77.7932 64.3593 81.5875C64.3593 87.612 59.4843 92.4959 53.4707 92.4959H47.5967C46.0637 92.4969 44.8212 93.7417 44.8201 95.2775V95.406C44.8193 96.5246 45.5279 97.5201 46.5837 97.8838C46.5837 97.9094 46.5865 97.935 46.5893 97.9613C46.5923 97.989 46.5954 98.0174 46.5954 98.0474L40.6377 98.1994H40.5775C39.0423 98.1994 37.7972 96.9537 37.7951 95.4158C37.7951 93.8795 36.5519 92.6342 35.0185 92.6342H10.8886C7.96785 92.6431 5.16709 91.4709 3.12074 89.3831C2.21936 87.7612 1.74744 85.9352 1.74995 84.0789V83.9367C1.74737 78.6528 3.84132 73.5845 7.57067 69.848C11.3 66.1116 16.3589 64.0133 21.6333 64.0154H46.2454C51.5213 64.0123 56.5811 66.1152 60.3053 69.8591ZM14.228 79.4779C14.9651 81.2602 16.7016 82.4219 18.6273 82.4211C21.2534 82.419 23.382 80.2874 23.3852 77.6565C23.3868 75.7273 22.2279 73.9872 20.4491 73.2481C18.6704 72.5089 16.6223 72.9162 15.2603 74.2801C13.8984 75.644 13.4909 77.6956 14.228 79.4779ZM34.157 82.4211C32.2317 82.4204 30.4964 81.2576 29.7605 79.4752C29.0246 77.6928 29.4331 75.6418 30.7953 74.2787C32.1576 72.9157 34.2054 72.509 35.9837 73.2484C37.7619 73.9878 38.9204 75.7277 38.9189 77.6565C38.9189 78.9212 38.417 80.134 37.5238 81.0277C36.6306 81.9214 35.4194 82.4227 34.157 82.4211ZM44.1921 77.6489C44.19 80.2824 46.3193 82.4191 48.9481 82.4212C50.2108 82.4233 51.4225 81.9222 52.3161 81.0285C53.2097 80.1347 53.7119 78.9216 53.7119 77.6566C53.714 75.0231 51.5847 72.8864 48.9559 72.8843C46.3271 72.8821 44.1943 75.0153 44.1921 77.6489Z" fill="#0FBE73"/>
<path fill-rule="evenodd" clip-rule="evenodd" d="M64.3593 81.5898C64.3593 87.6143 59.4843 92.4981 53.4707 92.4981H47.6006C46.0683 92.4992 44.8262 93.7428 44.824 95.2778V95.4064C44.8232 96.5249 45.5317 97.5204 46.5876 97.8841C46.8589 97.9786 47.1442 98.026 47.4314 98.0244L46.5992 98.0478L40.6377 98.1997H40.5736C39.0392 98.1997 37.7944 96.9553 37.7912 95.4181C37.7912 93.8818 36.548 92.6364 35.0146 92.6364H10.8886C4.87498 92.6364 0 87.7526 0 81.7281V81.5859C0.000515659 76.3056 2.09483 71.2417 5.82222 67.5082C9.54961 63.7748 14.6047 61.6777 19.8756 61.6782H44.4799C55.457 61.6793 64.3561 70.5928 64.3593 81.5898V81.5898Z" stroke="black"/>
<path d="M125.961 88.5086C125.95 88.5086 125.944 88.4969 125.932 88.4969C121.322 87.1061 119.078 84.266 118.106 81.5428C118.106 81.5428 118.106 81.5428 118.106 81.5311C117.346 79.4079 117.363 77.3529 117.637 76.1257C117.802 75.4756 117.906 74.8119 117.949 74.1427C118.013 72.2474 116.624 72.711 112.654 73.5038C110.83 73.8739 109.664 73.1804 109.08 72.1948C109.023 72.1089 108.974 72.0183 108.932 71.924C108.66 71.3503 108.547 70.7138 108.606 70.0813" stroke="black"/>
<path d="M106.321 80.9974C106.251 80.8981 106.179 80.8027 106.109 80.7267C105.495 80.0235 104.791 80.1053 103.69 80.5319C103.414 80.6371 102.718 80.6079 102.168 80.415C101.705 80.2494 101.359 79.9631 101.516 79.5346C101.598 79.356 101.759 79.2257 101.95 79.182C102.133 79.1356 102.319 79.0986 102.506 79.071C104.394 78.6483 103.972 76.4588 103.743 75.0855C103.187 71.6299 103.925 67.5627 106.28 64.8687C108.874 61.9059 113.117 61.2884 116.7 62.6442C119.852 63.8363 122.817 66.4231 123.432 69.8807C123.432 69.8924 123.432 69.9041 123.443 69.9158C123.455 69.9274 123.443 69.945 123.443 69.9567C123.807 72.1169 123.443 74.4583 123.021 76.5952C122.769 77.8613 122.864 78.8956 123.216 79.7508C124.318 82.5499 128.038 83.5258 131.036 84.9108C138.131 88.1853 143.912 93.7836 147.808 100.592C150.884 105.991 151.614 109.312 151.444 111.362C151.209 114.114 149.346 114.562 149.346 114.562C147.771 115.495 145.351 114.492 144.865 112.743C144.857 112.724 144.853 112.704 144.853 112.684C144.464 111.186 143.706 109.262 142.687 107.156" stroke="black"/>
<path d="M108.598 70.0813C108.598 71.1234 108.108 72.1519 107.043 72.5902C105.845 73.085 105.359 74.3881 105.184 75.6562C104.939 77.5131 105.338 79.3977 106.313 80.9955C107.218 82.4993 108.689 84.1569 110.774 84.1569C114.593 84.1569 116.23 82.3123 116.23 82.3123" stroke="black"/>
<ellipse cx="112.563" cy="75.6035" rx="0.649426" ry="0.650604" fill="black"/>
<ellipse cx="106.85" cy="75.9834" rx="0.649426" ry="0.650604" fill="black"/>
<path d="M109.652 74.9924C109.652 74.9924 109.327 77.5617 109.458 77.9143C109.588 78.2669 110.401 77.8637 110.401 77.8637" stroke="black"/>
<path d="M110.856 80.1115C112.246 80.6238 113.681 79.9713 114.101 78.7188" stroke="black"/>
<ellipse rx="2.96294" ry="3.03313" transform="matrix(0.576305 -0.817234 0.816249 0.5777 113.448 74.792)" stroke="black"/>
<ellipse rx="2.96294" ry="3.03313" transform="matrix(0.576305 -0.817234 0.816249 0.5777 105.854 75.1743)" stroke="black"/>
<path fill-rule="evenodd" clip-rule="evenodd" d="M105.67 72.6663H105.8C107.148 72.6699 108.269 73.708 108.378 75.0544C108.428 75.7166 108.208 76.3709 107.769 76.8679C107.329 77.3649 106.707 77.6622 106.045 77.6919H105.915C104.566 77.6882 103.446 76.6501 103.336 75.3037C103.286 74.6415 103.506 73.9873 103.946 73.4903C104.385 72.9933 105.007 72.696 105.67 72.6663ZM107.939 75.0876C107.853 73.9686 106.92 73.1053 105.8 73.1085V73.1066H105.691C105.143 73.1311 104.629 73.3771 104.266 73.7884C103.906 74.1951 103.727 74.731 103.77 75.2727C103.855 76.3925 104.788 77.2569 105.909 77.2537H106.018C106.566 77.2306 107.082 76.9844 107.445 76.5719C107.804 76.1651 107.983 75.6291 107.939 75.0876Z" fill="white"/>
<path d="M110.449 74.9512L108.855 75.0328" stroke="black"/>
<ellipse opacity="0.53" rx="2.50935" ry="2.56815" transform="matrix(0.576305 -0.817234 0.816249 0.5777 113.448 74.7915)" fill="white"/>
<ellipse opacity="0.53" rx="2.50935" ry="2.56815" transform="matrix(0.576305 -0.817234 0.816249 0.5777 105.854 75.1739)" fill="white"/>
<path d="M111.911 84.1567L115.452 92.5834C115.452 92.5834 122.283 94.4242 123.943 87.9493" stroke="black"/>
<ellipse rx="5.07764" ry="5.71425" transform="matrix(0.95356 -0.301202 0.300211 0.953873 43.015 122.38)" fill="#0FBE73"/>
<path d="M110.966 144.899C110.891 138.04 109.683 131.263 109.127 128.497" stroke="black"/>
</g>
<defs>
<clipPath id="clip0_1_1536">
<rect width="175" height="175" fill="white"/>
</clipPath>
</defs>
</svg>
