<svg width="45" height="51" viewBox="0 0 45 51" fill="none" xmlns="http://www.w3.org/2000/svg">
<path d="M39.6686 11.4779C37.1651 10.4384 36.4534 9.80957 36.4534 8.7059C36.4534 8.38507 36.5678 6.80657 38.9188 6.80657C40.6853 6.80657 41.7909 7.44824 42.2611 7.71774L42.8838 8.07707L44.0403 4.98424L43.5955 4.72757C42.7186 4.2014 41.7528 3.86774 40.6726 3.71374C40.3549 3.6624 40.1261 3.3929 40.1261 3.07207V0.774902H37.1142V3.3544C37.1142 3.63674 36.9363 3.88057 36.6695 3.9704C34.204 4.72757 32.7426 6.6269 32.7426 9.06524C32.7426 12.2222 35.2207 13.6339 37.9022 14.6991C40.4565 15.7386 40.7997 16.7139 40.7997 17.6122C40.7997 18.9341 39.6305 19.8581 37.9657 19.8581C36.644 19.8581 35.208 19.4217 34.1278 18.7031L33.4797 18.2667L32.3613 21.4109L32.7299 21.6804C33.6067 22.3092 34.9538 22.7969 36.3645 22.9894C36.6822 23.0279 36.9109 23.3102 36.9109 23.6311V26.0437H39.9609V23.3744C39.9609 23.0921 40.1388 22.8482 40.4057 22.7584C42.9601 21.9627 44.5359 19.9094 44.5359 17.3941C44.5359 13.9547 42.0832 12.4789 39.6686 11.4779Z" fill="#1C366C"/>
<path d="M25.2451 26.4417H23.6439L18.2174 40.1605C18.1157 40.4043 17.887 40.5583 17.6328 40.5583C17.3787 40.5583 17.1372 40.4043 17.0482 40.1605L11.5964 26.4417H9.99512C4.73387 26.4417 0.463867 30.7537 0.463867 36.0667V50.825H34.7764V36.0667C34.7764 30.7537 30.4937 26.4417 25.2451 26.4417Z" fill="#1C366C"/>
<path d="M6.81738 11.6832C6.81738 17.7919 11.6338 25.1582 17.6195 25.1582C23.6051 25.1582 28.4215 17.7919 28.4215 11.6832C28.4215 5.6644 23.5797 0.774902 17.6195 0.774902C11.6593 0.774902 6.81738 5.6644 6.81738 11.6832Z" fill="#1C366C"/>
</svg>
