<svg width="61" height="54" viewBox="0 0 61 54" fill="none" xmlns="http://www.w3.org/2000/svg">
<g clip-path="url(#clip0_2140_587)">
<path d="M10.1172 0.0452881C9.55438 0.0473667 9.09991 0.513982 9.10205 1.08706V8.34882H51.9001V1.08706C51.9021 0.513982 51.4477 0.0475628 50.8849 0.0452881H10.1172ZM14.1938 4.19813C14.7566 4.19813 15.2129 4.66268 15.2129 5.23572C15.2129 5.80879 14.7566 6.27342 14.1938 6.27342C13.6309 6.27342 13.1746 5.80883 13.1746 5.23572C13.1746 4.6626 13.6309 4.19813 14.1938 4.19813ZM18.2703 4.19813C18.8332 4.19813 19.2895 4.66268 19.2895 5.23572C19.2895 5.80879 18.8332 6.27342 18.2703 6.27342C17.7075 6.27342 17.2512 5.80883 17.2512 5.23572C17.2512 4.6626 17.7075 4.19813 18.2703 4.19813ZM22.3469 4.19813C22.9097 4.19813 23.3661 4.66268 23.3661 5.23572C23.3661 5.80879 22.9097 6.27342 22.3469 6.27342C21.7841 6.27342 21.3278 5.80879 21.3278 5.23572C21.3278 4.66268 21.7841 4.19813 22.3469 4.19813ZM35.5937 4.19813H46.8043C48.1928 4.16676 48.1928 6.30393 46.8043 6.27342H35.5937C34.2052 6.30479 34.2052 4.16762 35.5937 4.19813ZM9.10205 10.4242V40.5131C9.10001 41.0861 9.55438 41.5525 10.1172 41.5548H50.8849C51.4477 41.5527 51.9022 41.0861 51.9001 40.5131V10.4242H9.10205ZM6.04263 12.4976C4.36645 12.4976 2.98919 13.908 2.98919 15.6147V43.6321H23.368C24.6511 43.6312 25.5452 44.5601 25.9955 45.7075H35.0145C35.4645 44.5608 36.3574 43.6312 37.64 43.6321H37.6481H58.021V15.6147C58.021 15.6116 58.021 15.6107 58.021 15.6068C58.0129 13.9046 56.6437 12.4978 54.9676 12.4978H53.9385V40.5051C53.9446 42.1997 52.5573 43.6226 50.893 43.6305C50.8899 43.6305 50.888 43.6305 50.8849 43.6305H10.1172C10.1142 43.6305 10.1121 43.6305 10.109 43.6305C8.44476 43.6226 7.05586 42.1997 7.06356 40.5051V12.4978L6.04263 12.4976ZM30.4961 15.6106C34.5499 15.6106 38.4419 17.2501 41.3085 20.1687C42.3544 21.1431 40.8328 22.699 39.8714 21.6381C37.3865 19.1081 34.0102 17.686 30.4961 17.686C26.9817 17.686 23.6156 19.1078 21.1307 21.6381C20.1693 22.699 18.6477 21.1431 19.6936 20.1687C22.5602 17.2497 26.4419 15.6106 30.4961 15.6106ZM30.4961 19.7634C33.4688 19.7634 36.3242 20.9694 38.4263 23.1096C39.4239 24.0904 37.939 25.5939 36.9812 24.5728C35.2608 22.8212 32.929 21.8387 30.4961 21.8387C28.0629 21.8387 25.7334 22.8209 24.013 24.5728C23.058 25.7079 21.461 24.082 22.5758 23.1096C24.678 20.969 27.5231 19.7634 30.4961 19.7634ZM30.4961 23.9141C32.3875 23.9141 34.2084 24.6826 35.546 26.0442C36.5433 27.0251 35.0587 28.5283 34.1009 27.5075C33.145 26.5345 31.8477 25.9895 30.4961 25.9895C29.144 25.9895 27.8492 26.534 26.8932 27.5075C25.9382 28.6426 24.3413 27.0166 25.4561 26.0442C26.7938 24.6819 28.6041 23.9141 30.4961 23.9141ZM30.4961 28.0649C32.1726 28.0649 33.5595 29.4689 33.5595 31.1759C33.5595 32.8829 32.1726 34.2931 30.4961 34.2931C28.8196 34.2931 27.4426 32.8829 27.4426 31.1759C27.4426 29.4689 28.8196 28.0649 30.4961 28.0649ZM30.4961 30.1423C29.9211 30.1423 29.4809 30.5905 29.4809 31.1759C29.4809 31.7613 29.9211 32.2177 30.4961 32.2177C31.071 32.2177 31.5192 31.7613 31.5192 31.1759C31.5192 30.5905 31.071 30.1423 30.4961 30.1423ZM0.948916 45.7035C0.382966 45.7014 -0.0763616 46.169 -0.0742112 46.7453V48.8227C-0.0742112 51.6791 2.22207 54.007 5.02747 54.007H55.9826C58.788 54.007 61.0743 51.6792 61.0743 48.8227V46.7453C61.0764 46.1722 60.622 45.7058 60.0592 45.7035H37.64C37.0741 45.7014 36.6147 46.169 36.6169 46.7453V47.7789H24.3932V46.7453C24.3952 46.169 23.936 45.7013 23.37 45.7035H0.948916Z" fill="#2B2932"/>
</g>
<defs>
<clipPath id="clip0_2140_587">
<rect width="61" height="54" fill="white"/>
</clipPath>
</defs>
</svg>
