<svg width="64" height="54" viewBox="0 0 64 54" fill="none" xmlns="http://www.w3.org/2000/svg">
<g clip-path="url(#clip0_2140_615)">
<path d="M59.5746 0.0673828H4.42563C1.77031 0.0673828 -0.340332 2.15988 -0.340332 4.79238V49.2074C-0.340332 51.8399 1.83839 53.9324 4.42563 53.9324H59.5065C62.1618 53.9324 64.2724 51.7724 64.2724 49.2074V4.79238C64.3405 2.15988 62.1618 0.0673828 59.5746 0.0673828ZM20.0852 4.92738C21.2426 4.92738 22.1278 5.87238 22.1278 6.95238C22.1278 8.09988 21.1746 8.97738 20.0852 8.97738C18.9278 8.97738 18.0426 8.03238 18.0426 6.95238C18.0426 5.80488 18.9278 4.92738 20.0852 4.92738ZM13.8214 4.92738C14.9788 4.92738 15.8639 5.87238 15.8639 6.95238C15.8639 8.09988 14.9107 8.97738 13.8214 8.97738C12.6639 8.97738 11.7788 8.03238 11.7788 6.95238C11.7788 5.80488 12.732 4.92738 13.8214 4.92738ZM7.55754 4.92738C8.71499 4.92738 9.60009 5.87238 9.60009 6.95238C9.60009 8.09988 8.6469 8.97738 7.55754 8.97738C6.46818 8.97738 5.51499 8.03238 5.51499 6.95238C5.51499 5.80488 6.46818 4.92738 7.55754 4.92738ZM59.915 49.2074C59.915 49.4099 59.7788 49.5449 59.5746 49.5449H4.42563C4.22137 49.5449 4.0852 49.4099 4.0852 49.2074V13.9049H59.915V49.2074Z" fill="#2B2932"/>
<path d="M32.6126 24.3001H50.519C51.7445 24.3001 52.6977 23.2876 52.6977 22.1401C52.6977 20.9251 51.6764 19.9126 50.519 19.9126H32.6126C31.3871 19.9126 30.4339 20.9251 30.4339 22.1401C30.3658 23.2876 31.3871 24.3001 32.6126 24.3001Z" fill="#2B2932"/>
<path d="M32.6131 33.9524H50.5195C51.745 33.9524 52.6982 32.9399 52.6982 31.7249C52.6982 30.5099 51.6769 29.5649 50.5195 29.5649H32.6131C31.3876 29.5649 30.4344 30.5774 30.4344 31.7249C30.3663 32.9399 31.3876 33.9524 32.6131 33.9524Z" fill="#2B2932"/>
<path d="M32.6126 43.6047H50.519C51.7445 43.6047 52.6977 42.5922 52.6977 41.4447C52.6977 40.2297 51.6764 39.2847 50.519 39.2847H32.6126C31.3871 39.2847 30.4339 40.2972 30.4339 41.4447C30.3658 42.5922 31.3871 43.6047 32.6126 43.6047Z" fill="#2B2932"/>
<path d="M13.8216 43.6051H23.6939C25.1237 43.6051 26.2812 42.4576 26.2812 41.0401V22.4776C26.2812 21.0601 25.1237 19.9126 23.6939 19.9126H13.8216C12.3918 19.9126 11.2344 21.0601 11.2344 22.4776V41.1076C11.2344 42.4576 12.3918 43.6051 13.8216 43.6051Z" fill="#2B2932"/>
</g>
<defs>
<clipPath id="clip0_2140_615">
<rect width="64" height="54" fill="white"/>
</clipPath>
</defs>
</svg>
