<svg width="50" height="62" viewBox="0 0 50 62" fill="none" xmlns="http://www.w3.org/2000/svg">
<g clip-path="url(#clip0_2140_603)">
<path d="M35.7075 36.2829C35.6798 36.2788 35.6501 36.2774 35.6224 36.2719C35.394 36.2416 35.165 36.2147 34.9346 36.1934C34.9332 36.2161 34.9258 36.2402 34.9258 36.2636C34.9224 36.3332 34.9109 36.4 34.9021 36.4703C34.8595 36.8602 34.746 37.2398 34.567 37.6056C33.365 40.6911 29.4737 46.5398 27.1832 49.8602L26.7109 42.9617C27.3798 42.6124 27.9562 42.0324 28.3244 41.3607C28.5906 40.8785 28.7521 40.3508 28.7521 39.8128C28.7521 39.8128 27.0433 40.5843 25.2987 40.5843C25.1994 40.5843 25.1001 40.5836 25.0001 40.5781C24.9008 40.5836 24.8014 40.5843 24.7014 40.5843C22.9568 40.5843 21.2481 39.8128 21.2481 39.8128C21.2481 40.3508 21.4102 40.8785 21.6758 41.3607C22.044 42.0331 22.6204 42.611 23.2893 42.9617L22.8177 49.8602C20.5264 46.5398 16.6359 40.6904 15.4332 37.6056C15.2541 37.2398 15.14 36.8602 15.0974 36.4703C15.0893 36.4 15.0778 36.3332 15.0744 36.2636C15.0737 36.2409 15.067 36.2168 15.0663 36.1934C14.8359 36.2147 14.6062 36.2416 14.3785 36.2719C14.3501 36.2774 14.3197 36.2788 14.2933 36.2829C6.3332 37.4127 0.20752 44.3801 0.20752 52.8066C0.206844 62.0212 7.53387 61.9998 16.5724 61.9998H25.0001H33.4291C42.467 61.9998 49.794 62.0212 49.794 52.8066C49.7933 44.3801 43.6683 37.4127 35.7075 36.2829Z" fill="#2B2932"/>
<path d="M33.2778 19.7965L27.6014 22.302C26.6751 22.7112 25.6758 22.7966 25.0008 22.7966C24.3258 22.7966 23.3264 22.7105 22.4001 22.302L16.7244 19.7965L15.7258 19.3556H15.7244L12.7258 18.0322C12.669 18.5475 12.6318 19.069 12.6318 19.5988C12.6318 19.8778 12.6433 20.1533 12.6575 20.4268C12.6791 20.8277 12.717 21.2232 12.7724 21.6131C12.7818 21.7329 12.7913 21.8514 12.8028 21.9692C13.5832 30.9682 18.7453 37.9191 25.0001 37.9191C31.2555 37.9191 36.4176 30.9682 37.1981 21.9699C37.2095 21.8521 37.219 21.7336 37.2285 21.6138C37.2839 21.2238 37.321 20.8277 37.3433 20.4275C37.3575 20.154 37.369 19.8784 37.369 19.5994C37.369 19.0697 37.3318 18.5482 37.2758 18.0322L33.2778 19.7965Z" fill="#2B2932"/>
<path d="M42.1256 7.07213L26.8769 0.342378C26.3614 0.114356 25.681 0 25.0006 0C24.3195 0 23.6391 0.114356 23.1229 0.342378L7.87491 7.07213C6.84248 7.52818 6.84248 8.27287 7.87491 8.72822L9.03032 9.238L8.93302 10.0295C8.49045 10.1067 8.15329 10.4987 8.15329 10.9719C8.15329 11.3977 8.42491 11.7593 8.80329 11.8813L8.10194 21.8991C8.07288 22.3166 8.15464 22.9841 8.28504 23.3816L8.85396 25.1231C8.91883 25.3222 9.00464 25.4221 9.08977 25.4221C9.17558 25.4221 9.26072 25.3222 9.32626 25.1231L9.89653 23.3816C10.0263 22.9841 10.1087 22.3172 10.0796 21.8991L9.37829 11.8813C9.75396 11.7573 10.0283 11.3977 10.0283 10.9719C10.0283 10.498 9.69113 10.1067 9.24653 10.0295L9.15734 9.2938L11.8242 10.4711L13.1317 11.0477V16.1896L17.4486 18.0937L23.1242 20.5998C23.6411 20.8279 24.3209 20.9415 25.0019 20.9415C25.6823 20.9415 26.3627 20.8279 26.8783 20.5998L32.5546 18.0937L36.8715 16.1882V11.047L38.1783 10.4711L42.1269 8.72822C43.1573 8.27218 43.1573 7.52818 42.1256 7.07213Z" fill="#2B2932"/>
</g>
<defs>
<clipPath id="clip0_2140_603">
<rect width="50" height="62" fill="white"/>
</clipPath>
</defs>
</svg>
