<svg width="44" height="58" viewBox="0 0 44 58" fill="none" xmlns="http://www.w3.org/2000/svg">
<path d="M28.0714 19.2891C26.2676 20.9691 24.0772 22.1321 21.5003 22.1321C18.9234 22.1321 16.733 20.9691 14.9291 19.2891C11.9657 20.4521 9.38875 22.3906 7.45605 24.846H35.5445C33.483 22.3906 30.9061 20.4521 28.0714 19.2891Z" fill="#1C366C"/>
<path d="M21.5002 19.4184C23.4329 19.4184 25.2367 18.3845 26.5252 16.8338L26.654 16.7045C28.4579 14.6369 29.4886 11.7938 29.4886 9.07993C29.4886 4.16916 25.881 0.292236 21.5002 0.292236C17.1194 0.292236 13.5117 4.16916 13.5117 9.07993C13.5117 13.7322 16.9906 19.4184 21.5002 19.4184Z" fill="#1C366C"/>
<path d="M41.5998 27.5601C27.6844 27.5601 17.5056 27.5601 1.52864 27.5601C0.755559 27.5601 0.111328 28.2062 0.111328 28.9816V56.5077C0.111328 57.2831 0.755559 57.9293 1.52864 57.9293H41.5998C42.3729 57.9293 43.0171 57.2831 43.0171 56.5077V28.9816C42.8883 28.2062 42.3729 27.5601 41.5998 27.5601ZM21.4998 49.7877C17.6344 49.7877 14.4133 46.557 14.4133 42.6801C14.4133 38.8031 17.6344 35.5724 21.4998 35.5724C25.3652 35.5724 28.5863 38.8031 28.5863 42.6801C28.5863 46.557 25.3652 49.7877 21.4998 49.7877Z" fill="#1C366C"/>
<path d="M21.5 38.5447C19.1807 38.5447 17.248 40.4831 17.248 42.8093C17.248 45.1354 19.1807 47.0739 21.5 47.0739C23.8192 47.0739 25.7519 45.1354 25.7519 42.8093C25.7519 40.3539 23.8192 38.5447 21.5 38.5447Z" fill="#1C366C"/>
</svg>
