<svg width="94" height="39" viewBox="0 0 94 39" fill="none" xmlns="http://www.w3.org/2000/svg">
<path d="M85.5178 39H58.3922C53.7771 39 50 35.2228 50 30.6078C50 25.9928 53.7771 22.2156 58.3922 22.2156H85.5178C90.1329 22.2156 93.91 25.9928 93.91 30.6078C93.91 35.2228 90.1329 39 85.5178 39Z" fill="#FF3900"/>
<path d="M8.73831 0C11.1572 0 13.2895 0.886402 14.844 2.37035V6.94348C14.1009 4.26222 11.7305 2.39242 8.73831 2.39242C5.12214 2.39242 2.39243 5.1222 2.39243 8.73836C2.39243 12.3545 5.12214 15.0842 8.73831 15.0842C11.4923 15.0842 13.7194 13.5033 14.6301 11.1572H6.34373V8.76259H14.8461V15.1085C13.2894 16.5925 11.1572 17.4789 8.74057 17.4789C3.75952 17.4789 9.69435e-07 13.7194 9.69435e-07 8.73836C-0.00220401 3.75952 3.75726 0 8.73831 0Z" fill="black"/>
<path d="M17 0.359436H29.9322V2.75401H19.3946V7.54322H29.9322V9.93786H19.3946V14.7271H29.9322V17.1216H17V0.359436Z" fill="black"/>
<path d="M32.0869 0.359436H37.1165L44.6355 17.1216V0.359436H47.0301V17.1216H42.0005L34.4815 0.359436V17.1216H32.0869V0.359436Z" fill="black"/>
<path d="M48.7061 14.7271H54.8116V2.75401H48.7061V0.359436H63.314V2.75401H57.2085V14.7271H63.314V17.1216H48.7061V14.7271Z" fill="black"/>
<path d="M64.5107 9.26753V0.359436H66.9053V9.31604C66.9053 12.7161 69.4432 15.2077 72.8455 15.2077C76.1971 15.2077 78.8806 12.7183 78.8806 9.31604V0.359436H81.2752V9.26753C81.2752 13.9862 77.5399 17.6024 72.8455 17.6024C68.1511 17.6024 64.5107 13.9619 64.5107 9.26753Z" fill="black"/>
<path d="M82.3545 15.9485V11.565C82.5948 13.6244 84.6763 14.9893 86.641 14.9893C88.0544 14.9893 89.5383 14.1999 89.5383 12.619C89.5383 9.24314 82.3545 10.1759 82.3545 4.93243C82.3545 1.89176 84.7248 0.0946655 87.6221 0.0946655C88.9627 0.0946655 90.2814 0.502595 91.3574 1.31623V5.72178C91.1414 3.7814 89.5604 2.4893 87.6464 2.4893C86.2331 2.4893 84.7491 3.1596 84.7491 4.78908C84.7491 8.31043 91.9329 7.63793 91.9329 12.6917C91.9329 15.7082 89.4898 17.3862 86.6652 17.3862C85.1305 17.3862 83.5761 16.9055 82.3545 15.9485Z" fill="black"/>
<path d="M59.8505 32.2398C59.8505 31.9397 59.7364 31.7076 59.5083 31.5435C59.2842 31.3754 58.8901 31.2314 58.3258 31.1113C57.7656 30.9913 57.3194 30.8472 56.9873 30.6791C56.6591 30.5111 56.415 30.311 56.2549 30.0789C56.0989 29.8468 56.0209 29.5707 56.0209 29.2505C56.0209 28.7183 56.2449 28.2681 56.6931 27.9C57.1453 27.5318 57.7216 27.3477 58.4219 27.3477C59.1582 27.3477 59.7544 27.5378 60.2106 27.918C60.6708 28.2981 60.9009 28.7843 60.9009 29.3766H59.7844C59.7844 29.0725 59.6544 28.8103 59.3943 28.5903C59.1382 28.3702 58.814 28.2601 58.4219 28.2601C58.0177 28.2601 57.7016 28.3482 57.4735 28.5242C57.2454 28.7003 57.1313 28.9304 57.1313 29.2145C57.1313 29.4826 57.2374 29.6847 57.4495 29.8208C57.6615 29.9568 58.0437 30.0869 58.5959 30.2109C59.1522 30.335 59.6024 30.4831 59.9465 30.6551C60.2907 30.8272 60.5448 31.0353 60.7088 31.2794C60.8769 31.5195 60.9609 31.8136 60.9609 32.1618C60.9609 32.742 60.7288 33.2082 60.2646 33.5604C59.8004 33.9085 59.1982 34.0826 58.4579 34.0826C57.9377 34.0826 57.4775 33.9905 57.0773 33.8065C56.6771 33.6224 56.363 33.3663 56.1349 33.0381C55.9108 32.706 55.7988 32.3478 55.7988 31.9637H56.9092C56.9292 32.3358 57.0773 32.632 57.3534 32.8521C57.6335 33.0681 58.0017 33.1762 58.4579 33.1762C58.8781 33.1762 59.2142 33.0922 59.4663 32.9241C59.7224 32.752 59.8505 32.5239 59.8505 32.2398ZM67.8939 30.7872C67.8939 31.7756 67.6678 32.5719 67.2156 33.1762C66.7634 33.7804 66.1511 34.0826 65.3788 34.0826C64.5905 34.0826 63.9702 33.8325 63.518 33.3323V36.4596H62.4076V27.4678H63.422L63.476 28.1881C63.9282 27.6278 64.5565 27.3477 65.3608 27.3477C66.1411 27.3477 66.7574 27.6419 67.2096 28.2301C67.6658 28.8183 67.8939 29.6367 67.8939 30.6851V30.7872ZM66.7834 30.6611C66.7834 29.9288 66.6273 29.3506 66.3152 28.9264C66.0031 28.5022 65.5749 28.2901 65.0307 28.2901C64.3584 28.2901 63.8542 28.5883 63.518 29.1845V32.2878C63.8502 32.8801 64.3584 33.1762 65.0427 33.1762C65.5749 33.1762 65.9971 32.9661 66.3092 32.5459C66.6253 32.1217 66.7834 31.4935 66.7834 30.6611ZM73.3202 33.9625C73.2561 33.8345 73.2041 33.6064 73.1641 33.2782C72.6479 33.8145 72.0316 34.0826 71.3153 34.0826C70.675 34.0826 70.1488 33.9025 69.7367 33.5423C69.3285 33.1782 69.1244 32.718 69.1244 32.1618C69.1244 31.4855 69.3805 30.9613 69.8927 30.5891C70.4089 30.2129 71.1332 30.0249 72.0656 30.0249H73.1461V29.5146C73.1461 29.1265 73.03 28.8183 72.7979 28.5903C72.5658 28.3582 72.2237 28.2421 71.7715 28.2421C71.3753 28.2421 71.0432 28.3421 70.7751 28.5422C70.507 28.7423 70.3729 28.9844 70.3729 29.2685H69.2564C69.2564 28.9444 69.3705 28.6323 69.5986 28.3321C69.8307 28.028 70.1428 27.7879 70.535 27.6118C70.9312 27.4358 71.3653 27.3477 71.8375 27.3477C72.5859 27.3477 73.1721 27.5358 73.5963 27.912C74.0205 28.2841 74.2406 28.7983 74.2566 29.4546V32.4439C74.2566 33.0401 74.3326 33.5143 74.4847 33.8665V33.9625H73.3202ZM71.4774 33.1162C71.8255 33.1162 72.1557 33.0261 72.4678 32.8461C72.7799 32.666 73.006 32.4319 73.1461 32.1438V30.8112H72.2757C70.9151 30.8112 70.2349 31.2094 70.2349 32.0057C70.2349 32.3538 70.3509 32.626 70.583 32.822C70.8151 33.0181 71.1132 33.1162 71.4774 33.1162ZM78.6024 33.1762C78.9986 33.1762 79.3447 33.0561 79.6408 32.816C79.937 32.5759 80.101 32.2758 80.133 31.9157H81.1835C81.1635 32.2878 81.0354 32.642 80.7993 32.9781C80.5632 33.3143 80.2471 33.5824 79.8509 33.7824C79.4588 33.9825 79.0426 34.0826 78.6024 34.0826C77.718 34.0826 77.0137 33.7885 76.4895 33.2002C75.9693 32.608 75.7092 31.7996 75.7092 30.7752V30.5891C75.7092 29.9568 75.8252 29.3946 76.0573 28.9024C76.2894 28.4102 76.6216 28.028 77.0537 27.7559C77.4899 27.4838 78.0041 27.3477 78.5964 27.3477C79.3247 27.3477 79.929 27.5658 80.4092 28.002C80.8934 28.4382 81.1515 29.0044 81.1835 29.7007H80.133C80.101 29.2805 79.941 28.9364 79.6528 28.6683C79.3687 28.3962 79.0166 28.2601 78.5964 28.2601C78.0322 28.2601 77.594 28.4642 77.2818 28.8724C76.9737 29.2765 76.8196 29.8628 76.8196 30.6311V30.8412C76.8196 31.5895 76.9737 32.1658 77.2818 32.5699C77.59 32.9741 78.0302 33.1762 78.6024 33.1762ZM85.1272 34.0826C84.2468 34.0826 83.5305 33.7945 82.9782 33.2182C82.426 32.638 82.1499 31.8636 82.1499 30.8952V30.6911C82.1499 30.0469 82.272 29.4726 82.5161 28.9684C82.7642 28.4602 83.1083 28.064 83.5485 27.7799C83.9927 27.4918 84.4729 27.3477 84.9891 27.3477C85.8335 27.3477 86.4897 27.6258 86.9579 28.1821C87.4261 28.7383 87.6602 29.5347 87.6602 30.5711V31.0333H83.2604C83.2764 31.6736 83.4625 32.1918 83.8186 32.5879C84.1788 32.9801 84.635 33.1762 85.1872 33.1762C85.5793 33.1762 85.9115 33.0962 86.1836 32.9361C86.4557 32.776 86.6938 32.5639 86.8979 32.2998L87.5762 32.828C87.032 33.6644 86.2156 34.0826 85.1272 34.0826ZM84.9891 28.2601C84.5409 28.2601 84.1648 28.4242 83.8606 28.7523C83.5565 29.0765 83.3684 29.5327 83.2964 30.1209H86.5498V30.0369C86.5177 29.4726 86.3657 29.0364 86.0936 28.7283C85.8215 28.4162 85.4533 28.2601 84.9891 28.2601Z" fill="white"/>
</svg>
