<svg width="444" height="454" viewBox="0 0 444 454" fill="none" xmlns="http://www.w3.org/2000/svg">
<ellipse cx="233.541" cy="199.742" rx="10.612" ry="10.8681" transform="rotate(-44.95 233.541 199.742)" fill="#EAFFEF"/>
<ellipse cx="203.013" cy="196.031" rx="10.617" ry="10.8731" transform="rotate(-44.95 203.013 196.031)" fill="#EAFFEF"/>
<path d="M123.32 131.076C123.32 131.076 170.529 52.4729 264.896 83.234C359.113 114 336.85 230.792 336.789 231.098C337.201 228.959 353.523 226.92 355.251 226.669C403.399 219.552 439.213 264.335 442.763 308.471C447.173 363.213 404.83 401.984 356.607 418.678" stroke="#EAFFEF"/>
<path fill-rule="evenodd" clip-rule="evenodd" d="M346.588 334.877C353.538 351.998 357.481 371.71 358.084 391.327C358.219 373.468 355.663 353.736 347.582 335.078C345.008 329.151 341.906 323.468 338.311 318.098C338.296 318.058 338.27 318.023 338.236 317.997C327.147 301.424 310.377 286.709 285.608 276.208L264.921 270.181C264.921 270.181 268.196 277.523 263.631 287.025C259.065 296.527 247.821 308.284 235.873 305.512C223.925 302.74 210.792 296.377 212.771 283.475C214.749 270.573 215.603 265.987 215.603 265.987L144.945 266.675C152.519 276.865 163 300.284 141.827 338.137L154.98 337.634C154.98 337.634 146.201 420.235 166.104 452.267C166.245 452.523 166.4 452.769 166.556 452.99L278.928 452.523H286.738C286.77 452.439 286.795 452.354 286.813 452.267H259.643C256.544 452.265 253.572 451.029 251.386 448.831C250.05 447.496 249.059 445.855 248.499 444.05C248.152 442.925 247.982 441.752 247.996 440.575C248.007 434.119 253.232 428.885 259.688 428.863H326.906C327.237 428.863 327.589 428.863 327.91 428.903C327.968 428.913 328.028 428.913 328.086 428.903H328.186C328.108 428.918 328.029 428.93 327.951 428.942C327.813 428.963 327.676 428.984 327.538 429.019H327.503C327.829 429.026 328.154 429.012 328.478 428.978C329.009 428.945 329.539 428.883 330.065 428.793C330.361 428.747 330.652 428.692 330.943 428.627L331.25 428.572C331.51 428.515 331.77 428.442 332.03 428.368C332.142 428.337 332.253 428.305 332.365 428.275C332.731 428.16 333.083 428.024 333.434 427.889C333.786 427.753 334.138 427.612 334.489 427.437C334.525 427.435 334.56 427.423 334.59 427.402C334.901 427.246 335.212 427.085 335.504 426.929C336.13 426.582 336.73 426.191 337.302 425.759L337.804 425.352C338.249 425.001 338.672 424.622 339.069 424.217C339.442 423.847 339.794 423.456 340.124 423.047L340.177 422.981C340.491 422.592 340.803 422.204 341.083 421.777C341.334 421.405 341.586 421.018 341.786 420.627C341.922 420.39 342.058 420.124 342.173 419.883C342.18 419.874 342.187 419.865 342.193 419.856L342.194 419.856C342.226 419.814 342.253 419.777 342.253 419.728C342.355 419.532 342.446 419.331 342.525 419.125C342.767 418.591 342.976 418.042 343.152 417.483C343.308 416.98 343.444 416.448 343.559 415.921C343.62 415.65 343.675 415.373 343.715 415.102C343.795 414.6 343.851 414.098 343.891 413.56C343.891 413.405 343.901 413.244 343.911 413.084L343.911 413.083C343.921 412.922 343.931 412.762 343.931 412.606C343.934 410.931 343.684 409.264 343.188 407.664C343.122 407.406 343.038 407.152 342.937 406.906C342.855 406.645 342.756 406.39 342.64 406.142C341.805 404.196 340.612 402.422 339.125 400.914C338.945 400.722 338.756 400.539 338.557 400.367C337.983 399.825 337.363 399.335 336.704 398.9C336.62 398.848 336.537 398.792 336.453 398.736L336.453 398.736C336.32 398.647 336.185 398.556 336.041 398.474C334.226 397.34 332.203 396.584 330.09 396.249C329.27 396.109 328.44 396.036 327.609 396.033L317.147 395.972L301.845 395.897H301.388C300.936 395.857 300.489 395.837 300.017 395.837H297.716C297.872 381.021 295.205 369.817 291.584 361.485L291.584 361.485C291.646 361.364 309.028 327.184 346.588 334.877ZM347.929 452.246C347.929 452.246 348.963 449.379 350.389 444.361C349.429 447.06 348.361 449.688 347.185 452.246H347.929ZM326.905 452.247C327.357 452.247 327.804 452.231 328.251 452.191C328.19 452.197 328.13 452.202 328.074 452.206C327.722 452.235 327.585 452.247 329.035 452.247H326.905Z" fill="#353642"/>
<path d="M219.023 246.341C219.023 246.341 217.325 256.646 215.568 265.978C210.545 266.033 205.523 266.073 200.556 266.113C198.045 251.981 200.772 240.912 204.012 233.534C208.095 242.845 214.262 245.678 219.023 246.341Z" fill="#0FBE73"/>
<path d="M301.568 283.525C291.357 278.027 280.472 273.882 269.19 271.196L265.494 270.558C265.494 270.558 262.742 264.3 262.726 264.28C261.436 261.001 259.296 256.646 258.633 253.191C257.826 249.11 257.629 244.931 258.051 240.791C258.774 234.644 261.637 221.641 266.81 217.543C271.124 214.148 272.902 214.861 275.347 209.553C277.105 205.766 277.818 199.403 274.403 196.611C270.616 193.547 268.999 195.104 264.469 195.576C247.253 197.284 237.414 184.894 231.086 170.576C230.082 168.25 229.037 165.794 227.395 163.816C225.512 161.536 222.905 161.023 220.771 159.18C219.862 158.387 219.239 157.091 219.676 155.966C219.934 155.428 220.308 154.955 220.771 154.58C224.805 150.864 229.648 148.138 234.918 146.62C243.254 144.209 252.062 143.935 260.532 145.821C269.371 148.749 277.316 154.293 282.665 162.766C290.042 174.473 291.82 186.617 287.687 198.72C283.453 211.115 278.727 225.674 286.682 237.602C297.274 253.447 303.658 264.592 301.568 283.525Z" fill="#0FBE73"/>
<path d="M215.588 265.978C210.566 266.033 205.544 266.073 200.577 266.113C162.729 266.309 126.504 265.782 88.5361 272.592" stroke="black"/>
<path d="M264.896 270.191C266.338 270.508 267.764 270.839 269.19 271.196C274.75 272.54 280.224 274.217 285.583 276.218C291.081 278.264 296.423 280.704 301.569 283.52C301.58 283.51 301.597 283.51 301.609 283.52C309.704 287.907 317.187 293.341 323.862 299.682C329.444 305.121 334.27 311.284 338.211 318.008C338.245 318.033 338.271 318.068 338.286 318.108C341.483 323.475 344.259 329.082 346.588 334.878C353.539 351.998 357.481 371.711 358.084 391.327C358.631 409.854 356.19 428.301 350.415 444.362C349.454 447.061 348.386 449.689 347.211 452.247C347.135 452.443 347.035 452.619 346.96 452.814" stroke="black"/>
<path d="M286.718 452.563C286.718 452.563 286.718 452.522 286.718 452.502C286.75 452.419 286.776 452.334 286.794 452.246" stroke="black"/>
<path d="M273.464 339.623C273.464 339.623 284.393 344.932 291.574 361.505C295.185 369.837 297.862 381.041 297.707 395.857V395.897C297.626 405.344 296.381 416.252 293.488 428.823V428.893" stroke="black"/>
<path d="M66.644 129.222C68.5726 121.925 71.6663 114.402 73.9916 111.238C77.6477 106.316 82.4188 101.625 88.556 102.047C92.4984 102.303 96.3706 104.483 96.5464 108.802C96.7121 113.488 91.7702 118.691 90.1832 123.095C88.6765 127.344 87.9885 132.291 88.782 136.761C89.5755 141.23 93.5883 144.721 97.9174 145.68C99.5595 146.112 101.306 145.876 102.774 145.022C107.013 142.34 106.124 135.199 105.953 130.985C105.752 126.259 105.757 120.915 109.79 117.681C112.753 115.306 117.248 116.883 119.433 119.494C123.229 124.014 123.415 130.819 123.606 136.384C124.174 153.148 121.195 169.219 111.432 183.332C106.41 190.619 101.237 197.158 99.2031 206.097C92.8751 233.88 92.172 253.141 88.5359 281.355" stroke="black"/>
<path d="M165.195 453C145.79 397.846 154.98 337.589 154.98 337.589L50.739 340.894C41.7594 341.178 33.0963 337.562 26.9839 330.977C20.8715 324.393 17.9081 315.486 18.8579 306.552L44.3909 213.44L49.9153 193.577C51.6769 187.327 51.2734 180.665 48.7702 174.673L46.1687 168.466C46.1687 168.466 41.4529 158.848 52.0246 159.752C57.7098 160.255 63.3498 162.67 68.1209 165.704C71.8674 168.089 77.5827 172.705 75.8149 177.822C73.7257 183.849 65.5344 185.356 60.7231 181.966" stroke="black"/>
<path d="M48.5088 159.702C48.5088 159.702 39.5793 139.613 64.0777 144.811C88.5761 150.009 94.442 176.778 75.7443 173.764" stroke="black"/>
<path d="M56.5843 143.661C56.5843 143.661 48.7497 134.144 60.4615 129.599C72.1733 125.054 114.701 146.519 87.4208 167.662" stroke="black"/>
<path d="M226.055 245.888C223.781 246.512 221.404 246.666 219.069 246.34C214.288 245.677 208.12 242.825 204.057 233.534C203.213 231.635 202.528 229.669 202.008 227.658C199.939 219.969 199.035 209.271 200.246 194.355C200.482 191.487 200.833 188.575 201.32 185.667C202.127 180.608 203.427 175.641 205.202 170.836C205.202 170.836 205.202 170.796 205.243 170.776C209.672 159.064 217.462 149.18 230.56 145.378C240.382 142.545 250.825 142.695 260.562 145.81C269.402 148.738 277.347 154.283 282.695 162.755C290.073 174.462 291.851 186.606 287.718 198.709C283.484 211.104 278.758 225.664 286.713 237.591C297.29 253.462 303.673 264.606 301.624 283.54" stroke="black"/>
<path d="M196.559 266.701C192.712 248.254 197.905 234.805 201.983 227.658" stroke="black"/>
<path d="M201.32 185.647C201.32 185.647 209.743 176.843 219.501 190.749" stroke="black"/>
<path fill-rule="evenodd" clip-rule="evenodd" d="M222.765 229.978C226.326 232.284 231.147 230.852 233.769 227.302C236.616 223.45 237.756 218.307 238.374 213.641C238.414 213.305 238.459 212.973 238.489 212.637C234.145 219.462 225.713 221.099 218.29 221.812C218.571 224.044 219.401 226.172 220.706 228.005C221.264 228.784 221.962 229.454 222.765 229.978V229.978Z" stroke="black" stroke-linecap="round" stroke-linejoin="round"/>
<path d="M261.442 260.704L261.422 260.683" stroke="black"/>
<path d="M228.31 182.94C228.31 182.94 231.172 178.304 240.956 181.719C250.739 185.134 250.854 190.714 250.854 190.714" stroke="black"/>
<path d="M206.071 194.466C206.071 194.466 210.591 192.181 214.132 194.466" stroke="black"/>
<path d="M230.429 196.57C230.429 196.57 234.949 194.285 238.465 196.57" stroke="black"/>
<path d="M219.024 246.34C219.024 246.34 217.327 256.646 215.569 265.977C215.313 267.303 215.067 268.609 214.846 269.899C213.695 276.182 212.776 281.767 212.736 283.459C212.445 297.522 225.739 305.633 238.581 305.497C256.6 305.301 267.137 288.537 265.439 271.748C264.33 268.684 263.195 265.621 262.085 262.557C260.658 258.63 258.805 254.808 258.002 250.669C257.292 246.592 257.214 242.43 257.771 238.33C258.494 232.203 259.684 223.067 264.857 218.969C269.171 215.574 273.676 213.344 276.137 208.036C277.895 204.249 277.814 199.372 274.399 196.58C270.612 193.517 264.621 193.888 260.091 194.335C230.871 197.323 226.01 167.747 218.105 163.594C211.626 160.174 206.765 167.848 205.243 170.696L205.183 170.816C205.18 170.845 205.168 170.871 205.148 170.891C204.871 171.394 204.736 171.73 204.736 171.73" stroke="black"/>
<path d="M218.275 197.871C218.275 197.871 215.222 207.865 215.458 209.362C215.694 210.859 219.255 209.814 219.255 209.814" stroke="black"/>
<ellipse cx="233.542" cy="199.742" rx="11.968" ry="12.2592" transform="rotate(-44.95 233.542 199.742)" stroke="black"/>
<ellipse cx="203.014" cy="196.03" rx="11.968" ry="12.2592" transform="rotate(-44.95 203.014 196.03)" stroke="black"/>
<path fill-rule="evenodd" clip-rule="evenodd" d="M192.405 194.727C192.909 189.397 197.392 185.328 202.746 185.341H202.761C203.198 185.343 203.634 185.37 204.067 185.421C209.949 186.148 214.193 191.412 213.654 197.314C213.15 202.65 208.659 206.722 203.299 206.7C202.862 206.698 202.426 206.672 201.993 206.62C196.111 205.893 191.867 200.63 192.405 194.727ZM209.836 189.835C208.018 187.844 205.442 186.714 202.746 186.727C198.099 186.708 194.205 190.237 193.766 194.863C193.509 197.547 194.4 200.214 196.218 202.206C198.036 204.197 200.612 205.326 203.309 205.314C207.955 205.332 211.849 201.804 212.288 197.178C212.545 194.494 211.654 191.826 209.836 189.835Z" fill="white"/>
<path d="M221.479 198.268L215.071 197.489" stroke="black"/>
<path fill-rule="evenodd" clip-rule="evenodd" d="M77.3109 56.1439C78.4711 41.6197 90.5244 29.948 105.089 29.2047H105.094C116.928 28.5912 127.976 35.135 133.124 45.8078C138.273 56.4806 136.519 69.2004 128.673 78.081C128.61 78.149 128.551 78.2211 128.497 78.2969C126.382 80.6276 123.912 82.6105 121.18 84.1729C120.495 84.5486 119.859 85.0074 119.287 85.539C111.304 89.5377 101.9 89.5228 93.9295 85.4988C93.328 84.9854 92.6808 84.5281 91.9959 84.1328C89.371 82.6331 86.9983 80.7298 84.9648 78.4928C79.3887 72.4483 76.611 64.3378 77.3109 56.1439ZM123.184 75.369C123.218 75.3083 123.264 75.2553 123.32 75.2133L123.315 75.2234C129.662 68.0364 130.803 57.6336 126.164 49.2418C121.525 40.8499 112.108 36.2834 102.646 37.8367C93.1839 39.3899 85.7216 46.7271 84.0086 56.1617C82.2955 65.5962 86.7022 75.0884 95.0144 79.8689C95.5466 80.1831 96.0507 80.5427 96.521 80.9437C102.676 84.0243 109.923 84.0243 116.078 80.9437C116.512 80.5315 116.999 80.1771 117.524 79.889C119.635 78.6868 121.545 77.1617 123.184 75.369Z" fill="#0FBE73"/>
<path d="M119.277 85.5439C116.939 87.6656 115.61 90.6788 115.621 93.8356V95.1816C115.621 99.8824 112.216 104.096 107.585 104.568C105.055 104.828 102.532 104.005 100.641 102.304C98.7497 100.603 97.6655 98.1823 97.6561 95.6386V93.8356C97.6507 90.6614 96.3046 87.6372 93.9497 85.5088C101.92 89.5206 111.316 89.5337 119.297 85.5439H119.277Z" fill="#353642"/>
<path fill-rule="evenodd" clip-rule="evenodd" d="M119.277 85.5439C116.939 87.6656 115.61 90.6788 115.621 93.8356V95.1816C115.621 99.8824 112.216 104.096 107.585 104.568C105.055 104.828 102.532 104.005 100.641 102.304C98.7497 100.603 97.6655 98.1823 97.6561 95.6386V93.8356C97.6507 90.6614 96.3046 87.6372 93.9497 85.5088C101.92 89.5206 111.316 89.5337 119.297 85.5439H119.277Z" stroke="black"/>
<path fill-rule="evenodd" clip-rule="evenodd" d="M136.046 58.5898C136.061 65.7758 133.433 72.7166 128.663 78.091C128.604 78.156 128.548 78.2248 128.497 78.297C126.379 80.6315 123.904 82.6163 121.165 84.178C120.485 84.5585 119.851 85.0169 119.277 85.544C111.296 89.5337 101.899 89.5207 93.9295 85.5089C93.3292 84.9873 92.68 84.5248 91.991 84.1278C82.0883 78.4352 76.3677 67.5322 77.311 56.149C78.582 40.4008 92.0664 28.4694 107.852 29.1254C123.638 29.7814 136.086 42.7905 136.046 58.5898V58.5898Z" stroke="black"/>
<path d="M98.314 88.5271L91.5742 66.1883L89.8867 59.8603C89.8865 59.4692 90.1492 59.1267 90.527 59.0255C90.9048 58.9243 91.3035 59.0896 91.4989 59.4284C93.0055 62.0902 95.3861 65.4299 97.7565 65.3446C101.689 65.2039 98.4597 53.2661 95.2454 54.5167C92.0312 55.7672 98.1935 63.6571 104.542 64.6415C110.89 65.6258 109.152 54.9536 104.542 54.5317C99.9312 54.1099 103.11 63.0996 111.397 64.6415C119.684 66.1833 118.137 57.0579 115.892 55.2348C113.647 53.4118 114.345 63.9383 119.548 65.6258C121.195 66.1632 122.506 65.0131 123.149 63.5818C123.521 62.7481 123.33 58.5294 122.566 59.8302C121.009 62.497 120.703 65.8267 119.94 68.7697C118.318 74.9973 115.837 80.9587 114.415 87.2415" stroke="black"/>
<path d="M54.0181 453C57.5738 451.332 385.485 453 385.485 453" stroke="black"/>
<path d="M106.606 18.6933L106.314 1" stroke="black"/>
<path d="M72.8615 35.1514L60.6123 22.3799" stroke="black"/>
<path d="M140.476 35.9448L152.996 23.4395" stroke="black"/>
<path d="M328.176 428.864L328.603 428.904C328.372 428.944 328.101 428.984 327.865 429.039H327.503L293.498 428.864H289.656L232.523 428.572C232.307 428.572 232.091 428.572 231.875 428.572C231.824 428.582 231.771 428.582 231.719 428.572C231.719 428.572 231.719 428.572 231.684 428.572C231.324 428.576 230.965 428.55 230.609 428.497C233.665 428.151 236.561 426.948 238.961 425.027C239.338 424.71 239.725 424.409 240.076 424.067L240.116 424.027C240.198 423.961 240.276 423.889 240.347 423.811C243.251 420.94 244.99 417.095 245.229 413.019C245.229 412.823 245.229 412.607 245.229 412.411V412.099C245.193 404.254 239.662 397.509 231.975 395.938C231.964 395.928 231.947 395.928 231.935 395.938C231.564 395.843 231.137 395.782 230.745 395.722L231.584 395.667C231.721 395.657 231.858 395.657 231.996 395.667H232.658L280.927 395.918L289.811 395.958L297.696 395.998H301.367H301.814H301.97C310.402 396.848 316.827 403.936 316.846 412.411C316.846 413.189 316.787 413.967 316.67 414.736C315.495 422.625 308.857 428.552 300.885 428.829C300.71 428.829 300.534 428.829 300.383 428.829H329.06C328.643 428.844 328.372 428.844 328.176 428.864Z" fill="white"/>
<path d="M251.381 448.822C253.572 451.025 256.551 452.261 259.658 452.257H231.644C226.28 452.257 223.367 450.951 221.243 448.822C219.048 446.626 217.813 443.65 217.808 440.545C217.808 434.127 223.076 428.854 231.644 428.854H259.658C254.923 428.846 250.651 431.695 248.838 436.068C247.026 440.442 248.029 445.478 251.381 448.822Z" fill="#EAFFEF"/>
<path d="M343.986 412.647C343.986 412.958 343.986 413.29 343.946 413.601C343.905 414.129 343.85 414.636 343.77 415.143C343.73 415.414 343.674 415.69 343.614 415.962C343.499 416.464 343.363 417.016 343.207 417.524C343.031 418.083 342.822 418.632 342.58 419.166C342.5 419.372 342.41 419.573 342.308 419.769C342.308 419.829 342.268 419.869 342.228 419.924C342.112 420.18 341.977 420.426 341.841 420.667C341.625 421.059 341.389 421.446 341.138 421.818C340.842 422.27 340.51 422.676 340.179 423.088C339.849 423.497 339.497 423.888 339.124 424.258C338.727 424.663 338.304 425.042 337.859 425.393L337.356 425.8C336.785 426.232 336.184 426.623 335.558 426.97C335.267 427.126 334.956 427.287 334.644 427.442C334.615 427.464 334.58 427.476 334.544 427.478C334.192 427.653 333.841 427.794 333.489 427.93C333.138 428.065 332.786 428.201 332.42 428.316C332.048 428.417 331.676 428.532 331.305 428.613C330.393 428.821 329.466 428.957 328.532 429.019C328.337 429.019 328.146 429.019 327.95 429.019H327.633C327.849 428.964 328.065 428.944 328.281 428.904C328.306 428.895 328.332 428.895 328.357 428.904C328.258 428.901 328.161 428.888 328.065 428.864C328.13 428.854 328.196 428.854 328.261 428.864H329.12H300.383H300.885C304.419 428.675 307.799 427.352 310.523 425.092C310.933 424.757 311.326 424.4 311.698 424.022C312.009 423.72 312.302 423.399 312.577 423.063C312.786 422.83 312.981 422.583 313.159 422.325C313.275 422.184 313.375 422.049 313.471 421.913C313.657 421.664 313.824 421.402 313.973 421.13C314.201 420.811 314.405 420.475 314.581 420.125C314.768 419.79 314.936 419.445 315.083 419.091C315.158 418.935 315.218 418.759 315.319 418.588C315.455 418.237 315.57 417.885 315.686 417.534C315.846 417.031 316.002 416.499 316.117 415.977C316.188 415.694 316.24 415.407 316.273 415.118C316.296 415.048 316.309 414.975 316.313 414.902C316.336 414.846 316.349 414.787 316.353 414.726C316.353 414.53 316.409 414.355 316.429 414.159C316.429 414.119 316.429 414.083 316.429 414.043C316.502 413.499 316.536 412.95 316.529 412.401C316.536 412.147 316.522 411.894 316.489 411.643V411.467C316.489 411.218 316.469 410.969 316.429 410.723C316.296 409.368 315.987 408.036 315.51 406.761C315.246 405.996 314.909 405.258 314.505 404.556C314.137 403.85 313.707 403.178 313.22 402.547C313.093 402.363 312.956 402.187 312.808 402.02C312.748 401.96 312.692 401.879 312.612 401.804C312.352 401.462 312.064 401.141 311.753 400.845C311.522 400.614 311.251 400.378 311.015 400.127C310.779 399.875 310.387 399.579 310.056 399.343C309.724 399.107 309.508 398.936 309.217 398.74C308.784 398.426 308.327 398.145 307.851 397.902C307.407 397.643 306.944 397.42 306.465 397.234C305.91 396.996 305.344 396.788 304.767 396.611C304.571 396.538 304.367 396.486 304.16 396.455C303.622 396.302 303.075 396.185 302.522 396.104C302.246 396.044 301.975 396.023 301.684 395.988H301.643C301.606 395.998 301.566 395.998 301.528 395.988H301.819L317.122 396.064L327.583 396.124C328.415 396.128 329.244 396.2 330.064 396.34C332.191 396.67 334.229 397.427 336.056 398.565C336.292 398.7 336.503 398.856 336.719 398.992C337.378 399.426 337.998 399.916 338.572 400.458C338.771 400.63 338.96 400.813 339.139 401.005C340.627 402.514 341.82 404.287 342.655 406.234C342.771 406.481 342.87 406.736 342.951 406.997C343.053 407.243 343.137 407.497 343.202 407.755C343.707 409.337 343.971 410.986 343.986 412.647Z" fill="#0FBE73"/>
<path fill-rule="evenodd" clip-rule="evenodd" d="M343.986 412.646C343.986 412.958 343.986 413.289 343.946 413.601C343.906 414.128 343.851 414.635 343.77 415.142C343.73 415.414 343.675 415.69 343.615 415.961C343.499 416.463 343.364 417.016 343.208 417.523C343.032 418.082 342.822 418.631 342.58 419.165C342.502 419.375 342.405 419.577 342.289 419.768C342.289 419.828 342.249 419.868 342.208 419.924C342.093 420.18 341.957 420.426 341.822 420.667C341.606 421.059 341.37 421.445 341.119 421.817C340.822 422.269 340.491 422.676 340.159 423.088C339.822 423.497 339.464 423.887 339.085 424.258C338.687 424.662 338.264 425.041 337.819 425.393L337.317 425.8C336.746 426.231 336.145 426.622 335.519 426.97C335.228 427.125 334.916 427.286 334.605 427.442C334.576 427.463 334.541 427.476 334.504 427.477C334.153 427.653 333.801 427.793 333.45 427.929C333.098 428.065 332.747 428.2 332.38 428.316C332.008 428.416 331.637 428.532 331.265 428.612L330.959 428.667C330.667 428.733 330.376 428.788 330.08 428.833C329.554 428.923 329.025 428.985 328.493 429.019C328.169 429.053 327.844 429.066 327.518 429.059C327.518 429.059 327.458 429.059 327.438 429.059L293.488 428.893L285.487 428.853L232.162 428.582C231.965 428.578 231.769 428.565 231.574 428.542C231.127 428.542 230.695 428.502 230.248 428.466C238.221 427.516 244.373 421.002 244.868 412.988C244.868 412.792 244.868 412.576 244.868 412.36V412.149C244.877 404.26 239.325 397.458 231.594 395.887C231.202 395.807 230.811 395.752 230.404 395.691C230.792 395.646 231.183 395.621 231.574 395.616C231.711 395.606 231.849 395.606 231.986 395.616H232.317L285.643 395.887L297.696 395.947H301.639H301.97L327.584 396.083C328.424 396.086 329.264 396.152 330.095 396.279C332.217 396.627 334.251 397.383 336.086 398.504C336.322 398.639 336.533 398.795 336.749 398.931C337.4 399.376 338.019 399.866 338.602 400.397C338.798 400.573 338.974 400.749 339.17 400.945C340.658 402.453 341.85 404.226 342.686 406.173L342.982 406.936C343.081 407.184 343.164 407.437 343.233 407.694C343.734 409.297 343.988 410.967 343.986 412.646V412.646Z" stroke="black" stroke-linecap="square" stroke-linejoin="round"/>
<path fill-rule="evenodd" clip-rule="evenodd" d="M316.505 412.351C316.508 412.899 316.481 413.447 316.424 413.993V414.108C316.384 414.364 316.349 414.611 316.309 414.852C316.305 414.925 316.291 414.998 316.269 415.068C316.235 415.357 316.183 415.644 316.113 415.926C315.997 416.429 315.842 416.976 315.681 417.483C315.565 417.835 315.45 418.186 315.314 418.538C315.214 418.714 315.154 418.889 315.078 419.04C314.931 419.394 314.764 419.74 314.576 420.075C314.4 420.425 314.197 420.761 313.968 421.079C313.82 421.352 313.652 421.614 313.466 421.863C313.371 421.998 313.27 422.134 313.155 422.274C312.977 422.533 312.782 422.779 312.572 423.013C312.298 423.349 312.004 423.669 311.693 423.972C311.32 424.341 310.927 424.692 310.518 425.022C307.8 427.293 304.422 428.628 300.886 428.828C300.71 428.828 300.534 428.828 300.383 428.828H232.237C231.614 428.828 230.971 428.793 230.323 428.733C230.744 428.683 231.161 428.611 231.574 428.517C231.606 428.529 231.642 428.529 231.674 428.517H231.709C234.876 427.857 237.781 426.286 240.066 423.997L240.107 423.957C243.014 421.019 244.713 417.098 244.868 412.968C244.868 412.772 244.868 412.556 244.868 412.34V412.32C244.803 403.993 238.569 397.007 230.303 395.998C230.735 395.943 231.162 395.923 231.594 395.903C231.704 395.883 231.816 395.883 231.925 395.903C231.937 395.893 231.954 395.893 231.966 395.903C232.049 395.893 232.133 395.893 232.217 395.903H300.007C300.479 395.903 300.926 395.903 301.378 395.963H301.533C301.571 395.973 301.611 395.973 301.649 395.963H301.729L302.528 396.079C303.081 396.16 303.628 396.277 304.165 396.43C304.361 396.47 304.577 396.526 304.773 396.586C305.349 396.763 305.916 396.971 306.47 397.209C306.937 397.404 307.409 397.64 307.856 397.876C308.329 398.128 308.785 398.408 309.222 398.715C309.514 398.911 309.79 399.102 310.061 399.318C310.332 399.534 310.704 399.82 311.02 400.101C311.337 400.383 311.523 400.604 311.759 400.82C312.055 401.136 312.346 401.447 312.617 401.779C312.698 401.854 312.753 401.934 312.813 401.995L313.225 402.522C313.695 403.164 314.125 403.835 314.511 404.531C314.89 405.245 315.226 405.981 315.515 406.736C315.976 408.016 316.285 409.346 316.434 410.698C316.434 410.954 316.475 411.2 316.495 411.442V411.617C316.505 411.843 316.505 412.099 316.505 412.351V412.351Z" stroke="black" stroke-linecap="square" stroke-linejoin="round"/>
<path fill-rule="evenodd" clip-rule="evenodd" d="M329.035 452.246H231.634C229.464 452.305 227.299 451.996 225.231 451.332C224.819 451.176 224.432 451.021 224.061 450.83C223.689 450.634 223.358 450.438 223.026 450.242C222.695 450.046 222.403 449.795 222.107 449.559C221.816 449.303 221.545 449.057 221.288 448.796C219.952 447.46 218.961 445.819 218.401 444.015C218.045 442.891 217.867 441.718 217.873 440.539C217.87 440.083 217.897 439.626 217.954 439.173C218.028 438.537 218.164 437.91 218.361 437.3C218.632 436.336 219.054 435.421 219.611 434.588C219.929 434.044 220.308 433.539 220.741 433.081C221.007 432.785 221.289 432.504 221.585 432.238C223.965 430.113 227.421 428.802 231.695 428.802H329.035C328.644 428.802 328.372 428.802 328.176 428.802C328.112 428.792 328.045 428.792 327.981 428.802C327.785 428.802 327.825 428.802 327.92 428.802C327.932 428.813 327.949 428.813 327.961 428.802C328.005 428.812 328.051 428.812 328.096 428.802H328.197C327.981 428.843 327.765 428.863 327.549 428.918H327.503C327.503 428.918 327.443 428.918 327.423 428.918C321.935 430.01 317.975 434.818 317.956 440.414C317.988 446.335 322.407 451.314 328.282 452.05C327.805 452.231 327.358 452.246 329.035 452.246V452.246Z" stroke="black" stroke-linecap="square" stroke-linejoin="round"/>
<path fill-rule="evenodd" clip-rule="evenodd" d="M328.252 452.191C327.805 452.231 327.358 452.246 326.906 452.246H259.643C256.544 452.244 253.572 451.008 251.386 448.811C250.05 447.476 249.059 445.835 248.499 444.03C248.152 442.905 247.982 441.732 247.996 440.555C248.007 434.099 253.232 428.865 259.688 428.843H326.906C327.237 428.843 327.589 428.843 327.91 428.883C327.968 428.893 328.028 428.893 328.086 428.883H328.186C327.97 428.923 327.754 428.943 327.538 428.998H327.503C327.503 428.998 327.443 428.998 327.423 428.998C321.934 430.09 317.975 434.898 317.956 440.494C317.988 446.415 322.406 451.395 328.282 452.131L328.252 452.191Z" stroke="black" stroke-linecap="square" stroke-linejoin="round"/>
<path fill-rule="evenodd" clip-rule="evenodd" d="M247.951 440.555C247.951 447.012 253.186 452.246 259.643 452.246H231.634C226.285 452.246 223.358 450.941 221.228 448.811C219.036 446.623 217.807 443.652 217.813 440.555C217.813 434.116 223.066 428.843 231.634 428.843H259.643C253.187 428.865 247.962 434.099 247.951 440.555V440.555Z" stroke="black" stroke-linecap="square" stroke-linejoin="round"/>
<path fill-rule="evenodd" clip-rule="evenodd" d="M329.035 452.247H326.906C327.358 452.247 327.805 452.247 328.252 452.191C327.805 452.232 327.358 452.247 329.035 452.247V452.247Z" stroke="black" stroke-linecap="square" stroke-linejoin="round"/>
<path fill-rule="evenodd" clip-rule="evenodd" d="M328.096 428.894C327.709 428.894 327.297 428.833 326.906 428.833H329.035C327.549 428.843 327.724 428.894 328.096 428.894Z" stroke="black" stroke-linecap="square" stroke-linejoin="round"/>
<path opacity="0.54" d="M36.2143 408.192L1.34999 318.877C0.474752 315.375 1.26134 311.666 3.48234 308.821C5.70334 305.976 9.11109 304.313 12.7203 304.313H151.223C157.623 304.311 163.19 308.697 164.688 314.919L202.857 404.225C203.695 407.716 202.887 411.4 200.664 414.219C198.44 417.039 195.047 418.684 191.456 418.684H49.6387C43.286 418.683 37.75 414.356 36.2143 408.192Z" fill="white"/>
<path d="M36.2143 408.192L1.34999 318.877C0.474752 315.375 1.26134 311.666 3.48234 308.821C5.70334 305.976 9.11109 304.313 12.7203 304.313H151.223C157.623 304.311 163.19 308.697 164.688 314.919L202.857 404.225C203.695 407.716 202.887 411.4 200.664 414.219C198.44 417.039 195.047 418.684 191.456 418.684H49.6387C43.286 418.683 37.75 414.356 36.2143 408.192Z" fill="#0FBE73"/>
<path fill-rule="evenodd" clip-rule="evenodd" d="M36.2143 408.192L1.34999 318.877C0.474752 315.375 1.26134 311.666 3.48234 308.821C5.70334 305.976 9.11109 304.313 12.7203 304.313H151.223C157.623 304.311 163.19 308.697 164.688 314.919L202.857 404.225C203.695 407.716 202.887 411.4 200.664 414.219C198.44 417.039 195.047 418.684 191.456 418.684H49.6387C43.286 418.683 37.75 414.356 36.2143 408.192Z" stroke="black" stroke-linecap="square" stroke-linejoin="round"/>
<path d="M41.307 404.576L9.1648 322.177C8.35632 318.948 9.07967 315.527 11.1258 312.902C13.172 310.278 16.313 308.741 19.6412 308.737H147.396C153.301 308.738 158.435 312.785 159.816 318.526L195.027 400.89C195.801 404.112 195.056 407.51 193.005 410.112C190.954 412.715 187.824 414.233 184.511 414.234H53.7019C47.845 414.236 42.7367 410.256 41.307 404.576Z" fill="#0FBE73"/>
<path d="M138.165 323.888C136.473 321.342 133.706 320.212 131.978 321.377C130.25 322.542 130.225 325.52 131.918 328.067C132.184 328.455 132.483 328.819 132.812 329.157L120.256 355.659C118.247 354.323 116.052 353.991 114.476 355.046C113.445 355.796 112.799 356.964 112.713 358.235L104.135 355.337L96.6366 352.826L94.1857 352.023C93.8785 351.102 93.4513 350.225 92.9151 349.416C90.5346 345.84 86.6474 344.253 84.2216 345.865C81.7959 347.478 81.7708 351.601 84.086 355.152L69.8179 374.653C66.7041 372.097 63.0329 371.308 60.4917 372.996C57.0364 375.301 56.9761 381.302 60.3761 386.405C60.5117 386.606 60.6674 386.777 60.8081 386.967L51.2809 399.985L51.1955 400.111C50.4642 401.096 50.3366 402.405 50.8637 403.514C51.3908 404.622 52.4866 405.35 53.7128 405.405C54.9391 405.46 56.0957 404.834 56.72 403.777L65.1925 391.025C67.8643 392.577 70.7169 392.873 72.7911 391.487C76.0957 389.288 76.2514 383.723 73.2933 378.781L86.9788 358.125C88.9877 359.496 91.2276 359.847 92.8247 358.788C93.7178 358.158 94.326 357.202 94.5172 356.126L95.5216 356.412L103.15 358.496L112.914 361.128C113.21 362.297 113.703 363.408 114.37 364.413C116.746 367.983 120.638 369.575 123.064 367.963C125.489 366.351 125.519 362.148 123.144 358.577C122.793 358.058 122.4 357.569 121.969 357.115L133.917 330.101C135.358 331.105 136.93 331.331 138.09 330.573C139.843 329.453 139.868 326.44 138.165 323.888Z" fill="white"/>
<path d="M47.2632 325.35H28.7563C27.0165 325.357 25.4384 324.332 24.7385 322.739C24.6329 322.5 24.5766 322.242 24.5728 321.98C24.5837 320.931 25.4364 320.085 26.4862 320.082H46.1683C45.2543 321.644 45.7565 323.814 47.2632 325.35Z" fill="#EAFFEF"/>
<path d="M59.2459 323.452C59.2404 324.5 58.3906 325.348 57.3425 325.35H47.2629C45.7261 323.814 45.254 321.644 46.1831 320.082H55.0725C56.8086 320.072 58.3858 321.092 59.0902 322.679C59.1941 322.923 59.247 323.186 59.2459 323.452Z" fill="#0FBE73"/>
<path d="M54.6156 325.35C54.5616 325.451 54.5012 325.548 54.4348 325.641C53.109 327.444 50.2463 327.615 48.0215 325.988C47.7551 325.796 47.5048 325.582 47.2732 325.35C45.7364 323.813 45.2643 321.643 46.1934 320.082C46.2437 319.979 46.3043 319.881 46.3742 319.79C47.685 317.977 50.5476 317.822 52.7725 319.434C53.0429 319.628 53.2965 319.845 53.5308 320.082C55.0576 321.623 55.5297 323.773 54.6156 325.35Z" fill="white"/>
<path d="M63.9015 335.073C63.8932 336.124 63.0389 336.972 61.988 336.971H42.557C43.4962 335.394 43.0291 333.245 41.4873 331.703H59.7381C61.4778 331.696 63.0559 332.722 63.7558 334.315C63.8545 334.555 63.904 334.813 63.9015 335.073Z" fill="#0FBE73"/>
<path d="M42.5574 336.987H33.4169C31.6808 336.997 30.1036 335.977 29.3992 334.391C29.2939 334.148 29.2375 333.887 29.2334 333.622C29.2307 333.117 29.4297 332.632 29.7862 332.275C30.1426 331.918 30.6271 331.717 31.1318 331.719H41.4876C43.0295 333.246 43.4965 335.395 42.5574 336.987Z" fill="#EAFFEF"/>
<path d="M42.557 336.987C42.5153 337.091 42.4595 337.189 42.3913 337.278C41.0805 339.096 38.2128 339.252 35.9879 337.64C35.7127 337.442 35.4525 337.223 35.2095 336.987C33.7028 335.45 33.2006 333.296 34.1297 331.719C34.179 331.617 34.2397 331.521 34.3105 331.432C35.6314 329.624 38.494 329.459 40.7239 331.081C40.9874 331.274 41.2359 331.487 41.4672 331.719C43.0291 333.245 43.4962 335.395 42.557 336.987Z" fill="white"/>
<path d="M49.0308 348.538H37.3993C35.6631 348.543 34.0876 347.523 33.3816 345.936C33.276 345.697 33.2196 345.439 33.2158 345.178C33.2186 344.122 34.0737 343.267 35.1293 343.265H47.9259C47.032 344.817 47.504 346.971 49.0308 348.538Z" fill="#0FBE73"/>
<path d="M67.8842 346.624C67.8786 347.671 67.0273 348.515 65.9808 348.513H49.0308C47.5241 346.971 47.0219 344.816 47.946 343.239H63.7208C65.4526 343.238 67.0203 344.264 67.7134 345.851C67.8224 346.094 67.8805 346.358 67.8842 346.624Z" fill="#EAFFEF"/>
<path d="M56.3682 348.538C56.3189 348.64 56.2583 348.736 56.1874 348.824C54.8766 350.642 52.014 350.798 49.7891 349.186C49.5221 348.987 49.2688 348.771 49.0308 348.538C47.5241 346.996 47.0219 344.842 47.946 343.265C47.9989 343.165 48.0594 343.069 48.1268 342.978C49.4526 341.175 52.3153 341.015 54.5401 342.627C54.8042 342.822 55.0542 343.035 55.2884 343.265C56.8052 344.781 57.3074 346.946 56.3682 348.538Z" fill="white"/>
<path d="M124.239 402.948H112.602C110.866 402.953 109.29 401.933 108.584 400.347C108.475 400.109 108.417 399.85 108.414 399.588C108.416 398.533 109.271 397.678 110.327 397.675H123.129C122.24 399.262 122.712 401.406 124.239 402.948Z" fill="#0FBE73"/>
<path d="M170.418 401.06C170.417 401.562 170.216 402.043 169.86 402.397C169.504 402.751 169.022 402.949 168.52 402.948H124.239C122.732 401.406 122.23 399.252 123.154 397.675H166.255C167.986 397.674 169.554 398.699 170.247 400.286C170.356 400.53 170.414 400.793 170.418 401.06Z" fill="#EAFFEF"/>
<path d="M131.576 402.949C131.527 403.051 131.466 403.147 131.395 403.235C130.085 405.053 127.222 405.209 124.997 403.597C124.729 403.399 124.476 403.183 124.239 402.949C122.732 401.407 122.23 399.253 123.154 397.676C123.207 397.576 123.267 397.48 123.335 397.389C124.661 395.586 127.523 395.426 129.748 397.038C130.012 397.233 130.262 397.446 130.496 397.676C132.033 399.218 132.505 401.382 131.576 402.949Z" fill="white"/>
</svg>
