<svg width="32" height="40" viewBox="0 0 32 40" fill="none" xmlns="http://www.w3.org/2000/svg">
<path d="M8.84484 25.1367C8.49217 25.1367 8.2545 25.1712 8.13184 25.2057V27.4635C8.2775 27.498 8.45959 27.5076 8.71067 27.5076C9.62875 27.5076 10.1942 27.0437 10.1942 26.2598C10.1942 25.5583 9.70734 25.1367 8.84484 25.1367ZM15.5283 25.1597C15.1449 25.1597 14.8958 25.1942 14.7482 25.2287V30.2312C14.8958 30.2657 15.1334 30.2657 15.3481 30.2657C16.914 30.2772 17.9337 29.4147 17.9337 27.59C17.9452 25.9992 17.0156 25.1597 15.5283 25.1597Z" fill="#596657"/>
<path d="M19.8337 0.833313H4.50032C3.48366 0.833313 2.50864 1.23718 1.78975 1.95607C1.07086 2.67496 0.666992 3.64998 0.666992 4.66665V35.3333C0.666992 36.35 1.07086 37.325 1.78975 38.0439C2.50864 38.7628 3.48366 39.1667 4.50032 39.1667H27.5003C28.517 39.1667 29.492 38.7628 30.2109 38.0439C30.9298 37.325 31.3337 36.35 31.3337 35.3333V12.3333L19.8337 0.833313ZM11.2048 28.0308C10.6126 28.5867 9.73857 28.8358 8.72082 28.8358C8.52349 28.838 8.32624 28.8264 8.13049 28.8013V31.5345H12.5309L15.5002 23.2073C16.2735 23.092 7.97164 23.8226 8.75341 23.8333C9.82099 23.8333 10.58 24.0365 11.0917 24.4447C11.5786 24.8319 11.9082 25.4663 11.9082 26.2138C11.9063 26.9652 11.6572 27.5996 11.2048 28.0308ZM13.0122 30C12.2072 30.6689 15.9972 29.5 14.5002 29.5C13.6032 29.5 21.3421 21.5575 20.9108 21.5L13.0122 23.9924C13.7858 23.8795 21.8656 28.4551 22.6473 28.4621C24.0982 28.4621 17.7426 24.094 18.4786 24.6498C19.274 25.2402 14.9749 26.6796 14.9749 28.0308C14.9749 29.4932 13.7482 29.3771 13.0122 30ZM25.5837 25.3092L19.7723 24.6498L22.6473 27.0552H25.392V28.4621H22.6473V31.5364H20.9108L27.5003 33L25.5837 23.8908V25.3092ZM19.8337 14.25H17.917L25.392 16.2558L27.5003 14.25H19.8337Z" fill="#596657"/>
<path d="M20.5 21.134C21.1667 21.5189 21.1667 22.4811 20.5 22.866L14.5 26.3301C13.8333 26.715 13 26.2339 13 25.4641L13 18.5359C13 17.7661 13.8333 17.285 14.5 17.6699L20.5 21.134Z" fill="white"/>
</svg>
