<svg width="34" height="38" viewBox="0 0 34 38" fill="none" xmlns="http://www.w3.org/2000/svg">
<path d="M15.7333 25.3334C15.7333 24.6615 15.4664 24.0171 14.9913 23.542C14.5162 23.067 13.8719 22.8 13.2 22.8C12.5281 22.8 11.8838 23.067 11.4087 23.542C10.9336 24.0171 10.6667 24.6615 10.6667 25.3334C10.6667 26.0053 10.9336 26.6496 11.4087 27.1247C11.8838 27.5998 12.5281 27.8667 13.2 27.8667C13.8719 27.8667 14.5162 27.5998 14.9913 27.1247C15.4664 26.6496 15.7333 26.0053 15.7333 25.3334Z" fill="#1C366C"/>
<path fill-rule="evenodd" clip-rule="evenodd" d="M0.533333 3.8C0.533333 2.79218 0.933689 1.82563 1.64633 1.11299C2.35897 0.400356 3.32551 0 4.33333 0L25.1244 0L33.4667 8.34227V34.2C33.4667 35.2078 33.0663 36.1744 32.3537 36.887C31.641 37.5996 30.6745 38 29.6667 38H4.33333C3.32551 38 2.35897 37.5996 1.64633 36.887C0.933689 36.1744 0.533333 35.2078 0.533333 34.2V3.8ZM16.5997 10.1992C16.8518 10.1151 17.124 10.1124 17.3777 10.1915C17.6313 10.2706 17.8537 10.4275 18.0133 10.64L18.7733 11.6533C19.5992 12.7545 20.6702 13.6483 21.9014 14.2639C23.1326 14.8795 24.4902 15.2 25.8667 15.2V17.7333C23.0625 17.7333 20.3567 16.6997 18.2667 14.8301V25.3333C18.2667 26.4487 17.8987 27.5329 17.2197 28.4178C16.5408 29.3026 15.5888 29.9388 14.5114 30.2275C13.4341 30.5162 12.2916 30.4413 11.2611 30.0145C10.2307 29.5877 9.36986 28.8328 8.81217 27.8668C8.25448 26.9009 8.0311 25.778 8.17667 24.6722C8.32225 23.5664 8.82863 22.5395 9.6173 21.7508C10.406 20.9621 11.4328 20.4557 12.5387 20.3101C13.6445 20.1646 14.7674 20.3879 15.7333 20.9456V11.4C15.7335 11.1343 15.8173 10.8753 15.9728 10.6598C16.1283 10.4443 16.3476 10.2832 16.5997 10.1992Z" fill="#1C366C"/>
</svg>
