<svg width="473" height="522" viewBox="0 0 473 522" fill="none" xmlns="http://www.w3.org/2000/svg">
<path d="M267.826 453.493C288.931 446.644 311.327 431.616 335.907 405.059C335.907 405.056 335.907 405.053 335.906 405.05C335.931 405.016 335.959 404.983 335.96 404.981L335.965 404.976L335.965 404.976L335.97 404.971L335.997 404.941L336.118 404.811L336.443 404.46L336.669 404.217L337.314 403.52L337.648 403.16L337.746 403.055L337.772 403.026L337.778 403.02L337.779 403.019L337.781 403.017L337.781 403.017C337.781 403.017 337.781 403.016 337.782 403.017C340.926 399.626 348.901 391.024 367.272 371.209C388.415 348.403 396.759 339.368 399.816 336.034C400.173 335.646 400.457 335.335 400.681 335.09C400.653 335.061 400.653 335.061 400.653 335.061L400.653 335.061L400.654 335.06L400.655 335.059L400.659 335.054L400.66 335.053L400.677 335.035L400.684 335.027C400.706 335.004 400.739 334.968 400.783 334.92C400.871 334.823 401.002 334.678 401.172 334.483C401.514 334.093 402.015 333.508 402.649 332.727C403.916 331.165 405.715 328.824 407.831 325.713C412.064 319.491 417.567 310.191 422.634 297.897C432.766 273.313 441.159 236.736 434.14 188.817C427.132 140.966 396.575 105.425 361.677 82.8751C344.232 71.6022 325.713 63.5843 308.535 58.9026C291.35 54.2191 275.534 52.882 263.49 54.9414C233.98 59.9872 218.538 68.6858 202.514 79.0423C200.74 80.1888 198.958 81.3559 197.15 82.5408C182.588 92.0805 166.267 102.773 137.905 113.164C102.536 126.124 77.1896 146.286 60.1017 169.973C43.0112 193.664 34.1612 220.91 31.8305 248.062C27.1676 302.382 48.6022 356.226 82.1852 380.313C98.7927 389.651 114.549 400.116 129.824 410.262C135.232 413.854 140.579 417.406 145.882 420.853C166.185 434.051 185.852 445.726 205.862 452.344C225.864 458.959 246.192 460.515 267.826 453.493Z" stroke="#0FBE73" stroke-width="0.89924"/>
<path d="M342.636 415.019C316.317 443.455 292.336 459.548 269.734 466.883C246.566 474.403 224.798 472.736 203.381 465.653C181.956 458.567 160.9 446.067 139.165 431.938C133.487 428.247 127.762 424.445 121.973 420.6C105.618 409.737 88.7499 398.533 70.9697 388.535C54.2071 377.332 40.0775 357.329 30.6876 332.726C21.2973 308.122 16.6597 278.949 18.8565 249.451C21.0532 219.954 30.0822 190.147 48.0093 164.255C65.9329 138.367 92.7713 116.362 130.636 102.488C160.995 91.3655 178.464 79.9205 194.053 69.7081C195.989 68.4397 197.896 67.1902 199.795 65.9628C216.953 54.874 233.488 45.5596 265.084 40.157C277.985 37.9513 294.92 39.3836 313.319 44.3981C331.712 49.4108 351.539 57.9953 370.218 70.0648C407.581 94.2077 440.299 132.262 447.804 183.499C455.318 234.803 446.332 273.967 435.484 300.291C430.059 313.455 424.166 323.413 419.633 330.076C417.367 333.407 415.441 335.914 414.083 337.587C413.404 338.423 412.867 339.051 412.502 339.468C412.391 339.594 412.296 339.701 412.218 339.788C412.166 339.846 412.122 339.895 412.084 339.936C412.037 339.988 412.002 340.026 411.978 340.052L411.971 340.06L411.952 340.08L411.951 340.081L411.946 340.086L411.945 340.087L411.945 340.088C411.945 340.088 411.945 340.088 411.975 340.118L342.636 415.019ZM342.636 415.019C342.636 415.016 342.635 415.012 342.635 415.009C342.659 414.975 342.688 414.941 342.689 414.94L342.694 414.934L342.694 414.934L342.7 414.928L342.728 414.897L342.858 414.758L343.205 414.382L344.138 413.376L344.496 412.99L344.601 412.877L344.629 412.847L344.635 412.84L344.636 412.839L344.638 412.837L344.638 412.836C344.638 412.836 344.638 412.836 344.639 412.837C348.005 409.206 356.542 399.998 376.209 378.785L342.636 415.019Z" stroke="#0FBE73" stroke-width="0.89924"/>
<path d="M357.961 362.913C397.022 320.782 388.793 329.526 388.793 329.526C388.793 329.526 432.845 282.736 419.855 194.048C406.865 105.361 306.614 62.4208 261.806 70.082C207.145 79.4285 204.524 102.341 145.729 123.883C14.7341 171.879 33.0054 328.32 94.1097 371.417C177.167 418.114 237.03 495.286 330.721 392.294C330.721 392.294 318.901 405.044 357.961 362.913Z" fill="#0FBE73"/>
</svg>
