<svg width="54" height="53" viewBox="0 0 54 53" fill="none" xmlns="http://www.w3.org/2000/svg">
<path d="M53.8801 4.10548C53.8801 2.37748 52.4241 0.879883 50.7441 0.879883H3.25612C1.57612 0.879883 0.120117 2.37748 0.120117 4.10548V10.7871H53.8801V4.10548ZM7.28812 6.98548C6.50412 6.98548 5.83212 6.29428 5.83212 5.48788C5.83212 4.68148 6.50412 3.99028 7.28812 3.99028C8.07212 3.99028 8.74412 4.68148 8.74412 5.48788C8.74412 6.29428 8.18412 6.98548 7.28812 6.98548ZM11.6561 6.98548C10.8721 6.98548 10.0881 6.29428 10.0881 5.48788C10.0881 4.68148 10.7601 3.99028 11.6561 3.99028C12.5521 3.99028 13.1121 4.68148 13.1121 5.48788C13.1121 6.29428 12.4401 6.98548 11.6561 6.98548ZM15.9121 6.98548C15.0161 6.98548 14.4561 6.29428 14.4561 5.48788C14.4561 4.68148 15.1281 3.99028 15.9121 3.99028C16.6961 3.99028 17.3681 4.68148 17.3681 5.48788C17.3681 6.29428 16.6961 6.98548 15.9121 6.98548ZM48.6161 5.37268C48.6161 5.94868 48.1681 6.29428 47.7201 6.29428H24.7601C24.3121 6.29428 23.8641 5.83348 23.8641 5.37268C23.8641 4.91188 24.3121 4.45108 24.7601 4.45108H47.7201C48.2801 4.45108 48.6161 4.91188 48.6161 5.37268Z" fill="#1C366C"/>
<path d="M3.25612 45.3471H10.9841C11.6561 43.6191 13.1121 42.2367 14.7921 41.6607C14.1201 40.6239 13.6721 39.2415 13.6721 37.8591C13.6721 34.1727 16.5841 31.0623 20.2801 31.0623C23.8641 31.0623 26.8881 34.0575 26.8881 37.8591C26.8881 39.2415 26.4401 40.5087 25.7681 41.6607C27.5601 42.2367 28.9041 43.6191 29.5761 45.3471H50.7441C52.4241 45.3471 53.8801 43.8495 53.8801 42.1215V13.0911H0.120117V42.1215C0.120117 43.9647 1.57612 45.3471 3.25612 45.3471ZM48.2801 15.8559C49.8481 15.8559 51.0801 17.1231 51.0801 18.7359C51.0801 20.3487 49.8481 21.6159 48.2801 21.6159C46.8241 21.6159 45.4801 20.3487 45.4801 18.7359C45.4801 17.2383 46.7121 15.8559 48.2801 15.8559ZM43.8001 21.2703C44.1361 21.9615 44.6961 22.5375 45.3681 22.9983L39.6561 28.1823C39.3201 27.4911 38.8721 26.7999 38.3121 26.2239L43.8001 21.2703ZM34.9521 27.3759C36.4081 27.3759 37.7521 28.6431 37.7521 30.2559C37.7521 31.8687 36.5201 33.1359 34.9521 33.1359C33.3841 33.1359 32.1521 31.8687 32.1521 30.2559C32.1521 28.6431 33.4961 27.3759 34.9521 27.3759ZM25.9921 22.8831L31.1441 26.9151C30.5841 27.4911 30.2481 28.2975 30.1361 29.1039L24.9841 25.0719C25.4321 24.3807 25.7681 23.6895 25.9921 22.8831ZM21.0641 18.8511C22.6321 18.8511 23.8641 20.1183 23.8641 21.7311C23.8641 23.3439 22.6321 24.6111 21.0641 24.6111C19.4961 24.6111 18.2641 23.3439 18.2641 21.7311C18.2641 20.1183 19.4961 18.8511 21.0641 18.8511ZM16.1361 22.5375C16.2481 23.3439 16.5841 24.1503 17.0321 24.7263L9.97612 30.0255C9.75212 29.2191 9.30412 28.5279 8.74412 28.0671L16.1361 22.5375ZM5.16012 28.8735C6.50412 28.8735 7.73612 29.9103 7.96012 31.4079C8.18412 33.2511 6.72812 34.6335 5.16012 34.6335C3.59212 34.6335 2.36012 33.3663 2.36012 31.7535C2.36012 30.1407 3.70412 28.8735 5.16012 28.8735Z" fill="#1C366C"/>
<path d="M23.7524 43.6191H22.1844C21.8484 44.0799 20.1684 46.6143 20.2804 46.4991C19.1604 44.8863 19.0484 44.6559 18.3764 43.6191H16.8084C15.4644 43.6191 14.2324 44.3103 13.5604 45.3471C13.1124 46.0383 12.7764 46.8447 12.7764 47.7663V52.72H27.7844V47.7663C27.7844 46.8447 27.4484 46.0383 27.0004 45.3471C26.2164 44.3103 25.0964 43.6191 23.7524 43.6191Z" fill="#1C366C"/>
<path d="M20.1678 42.3518H20.2798C22.6318 42.3518 24.5358 40.3934 24.5358 37.9742C24.5358 35.555 22.6318 33.4814 20.1678 33.4814C17.8158 33.4814 15.7998 35.4398 15.7998 37.9742C15.9118 40.3934 17.8158 42.3518 20.1678 42.3518Z" fill="#1C366C"/>
</svg>
