<svg width="17" height="17" viewBox="0 0 17 17" fill="none" xmlns="http://www.w3.org/2000/svg">
<path d="M6.09125 9.71511H6.43806C9.46476 9.83576 11.4826 11.1342 13.1851 11.2835C13.288 11.2893 13.3912 11.2893 13.4941 11.2835C15.3479 11.2835 17 9.87023 17 9.41636V1.43055C17 1.30416 16.855 1.26394 16.5964 1.26394C15.9659 1.26394 14.5912 1.56269 13.3995 1.56269C13.2608 1.56269 13.1283 1.56269 12.9896 1.56269C11.4132 1.45928 9.33234 0 6.75334 0C5.47778 0.00785618 4.22788 0.327278 3.1339 0.924974C3.02165 0.816125 2.87591 0.740718 2.71581 0.708639C2.5557 0.67656 2.38869 0.689305 2.23667 0.745205C2.08466 0.801105 1.95472 0.897549 1.8639 1.0219C1.77309 1.14624 1.72563 1.29269 1.72774 1.44204V15.5063H0.819732C0.602326 15.5063 0.393824 15.5849 0.240094 15.725C0.0863644 15.8651 0 16.055 0 16.2531C0 16.4512 0.0863644 16.6412 0.240094 16.7812C0.393824 16.9213 0.602326 17 0.819732 17H4.20586C4.42327 17 4.63177 16.9213 4.7855 16.7812C4.93923 16.6412 5.02559 16.4512 5.02559 16.2531C5.02559 16.055 4.93923 15.8651 4.7855 15.725C4.63177 15.5849 4.42327 15.5063 4.20586 15.5063H3.36721V10.0081C4.26174 9.82532 5.17459 9.72713 6.09125 9.71511ZM3.36721 2.64278C4.29369 1.88019 5.50507 1.46912 6.75334 1.49375C7.9317 1.56583 9.08365 1.8448 10.1458 2.31531C11.0057 2.69042 11.9249 2.9405 12.8698 3.05644H13.3995C14.0563 3.04536 14.7115 2.99354 15.3605 2.90132V9.0659C14.8475 9.5135 14.1777 9.78201 13.4688 9.82426H13.3175C12.668 9.71877 12.0334 9.54726 11.4258 9.31294C9.84676 8.71323 8.17021 8.35416 6.46328 8.25008H6.04711C5.13218 8.25778 4.2201 8.34434 3.32307 8.50862L3.36721 2.64278Z" fill="#684AB8"/>
</svg>
