<svg width="271" height="366" viewBox="0 0 271 366" fill="none" xmlns="http://www.w3.org/2000/svg">
<path fill-rule="evenodd" clip-rule="evenodd" d="M136.183 291.444L148.343 337.781C173.684 343.078 207.674 338.772 240.349 308.156C231.182 283.719 235.201 269.187 222.535 259.932C237.268 252.718 215.713 164.542 215.713 164.542L197.405 126.791C187.625 116.65 174.057 130.407 174.057 130.407L186.003 160.97L185.85 160.964C177.656 141.09 162.091 105.489 154.133 101.111C142.988 94.9379 126.706 109.386 126.706 109.386L147.862 162.906L121.384 101.378C96.7216 83.685 90.3488 110.591 90.3488 110.591L115.152 167.353L48.072 50.6639C40.4984 37.5105 21.3928 50.1847 24.8734 57.7399L80.2352 177.545L82.8291 183.161L83.0367 183.253L96.6395 210.94C91.9923 205.144 86.9965 199.636 81.6799 194.447C64.1775 177.384 53.1719 194.414 53.1719 194.414C68.8106 214.207 86.8936 249.279 86.8936 249.279C97.8083 262.393 117.241 293.094 136.183 291.444Z" fill="#F28E50"/>
<path fill-rule="evenodd" clip-rule="evenodd" d="M96.2338 211.172C91.584 205.378 86.5884 199.87 81.2742 194.679C80.6318 194.044 79.9886 193.463 79.3563 192.911C89.9275 204.017 100.546 221.612 100.546 221.612L96.2338 211.172Z" fill="#3B2F35"/>
<path fill-rule="evenodd" clip-rule="evenodd" d="M215.289 164.781C215.289 164.781 203.864 158.274 183.745 156.311L173.748 130.527C173.748 130.527 187.321 116.811 197.096 126.911L215.308 164.719L215.289 164.781ZM183.468 156.289C174.967 135.898 161.231 105.24 153.881 101.155C142.76 94.9614 126.472 109.422 126.472 109.422L145.726 158.479C158.129 155.884 170.848 155.146 183.468 156.289ZM145.597 158.507C127.57 162.225 106.595 170.047 83.4866 184.952L82.7492 183.429L82.5322 183.34L79.9571 177.717L24.8569 57.7251C21.3964 50.1944 40.5005 37.4884 48.0403 50.6656C54.2671 61.5518 99.3519 140.384 114.82 167.438L90.1492 110.604C90.1492 110.604 96.6005 83.6782 121.178 101.404L145.597 158.507Z" fill="#C16548"/>
<path fill-rule="evenodd" clip-rule="evenodd" d="M87.6321 185.13C87.6321 185.13 87.2324 168.288 112.9 169.91L112.808 171.376C88.7517 169.886 89.0511 185.1 89.0656 185.137L87.604 185.141L87.6321 185.13ZM212.015 165.106C212.015 165.106 207.835 155.959 190.776 159.454L190.472 158.022C208.671 154.303 213.328 164.438 213.343 164.476L212.015 165.106ZM180.372 160.902C180.372 160.902 173.49 148.063 153.726 159.754L152.981 158.492C174.065 146.067 181.593 160.163 181.611 160.209L180.335 160.916L180.372 160.902ZM118.285 167.469C118.332 167.451 129.783 153.896 143.277 160.918L142.608 162.251C130.162 155.773 119.441 168.433 119.411 168.466L118.285 167.469Z" fill="#3B2F35"/>
</svg>
