<svg width="645" height="452" viewBox="0 0 645 452" fill="none" xmlns="http://www.w3.org/2000/svg">
<path d="M115.716 449.806L29.025 450.519C29.025 450.519 -6.5058 403.22 1.05592 245.559C8.61764 87.8966 87.4867 6.17422 179.034 0.96268C290.714 -5.39404 300.759 32.8884 423.281 45.7837C696.263 74.5182 675.561 360.534 578.579 449.803H115.716V449.806Z" fill="#C16548" fill-opacity="0.22"/>
<path d="M62.1074 162.95C62.1074 162.95 45.3768 135.758 5.24121 142.811C5.24121 142.808 32.2622 182.199 62.1074 162.95Z" fill="#596657"/>
<path d="M88.2325 170.125C88.2325 170.125 83.2492 115.62 15.7227 96.7114C15.7227 96.7143 27.2473 177.743 88.2325 170.125Z" fill="#C5D6C2"/>
<path d="M435.383 132.49L434.629 132.394L434.678 132.021C434.857 130.66 435.08 129.279 435.334 127.918L435.404 127.549L436.152 127.685L436.083 128.054C435.828 129.401 435.612 130.768 435.432 132.118L435.383 132.49ZM436.863 124.397L436.123 124.221L436.213 123.857C436.545 122.502 436.918 121.152 437.32 119.848L437.43 119.49L438.158 119.706L438.048 120.064C437.65 121.354 437.282 122.689 436.953 124.031L436.863 124.397ZM488.197 120.152C487.572 120.152 486.928 120.092 486.283 119.976L485.907 119.907L486.046 119.171L486.422 119.24C487.02 119.348 487.619 119.402 488.197 119.402H488.2C488.96 119.402 489.706 119.308 490.417 119.12L490.784 119.024L490.98 119.748L490.613 119.845C489.836 120.047 489.023 120.152 488.197 120.152ZM482.543 118.691L482.228 118.481C481.046 117.697 480.193 116.517 479.699 114.98L479.583 114.622L480.308 114.395L480.424 114.753C480.866 116.128 481.618 117.171 482.656 117.861L482.971 118.072L482.543 118.691ZM494.14 118.072L493.643 117.503L493.932 117.259C494.903 116.435 495.761 115.395 496.481 114.164L496.672 113.841L497.331 114.213L497.14 114.537C496.377 115.841 495.464 116.946 494.426 117.824L494.14 118.072ZM439.251 116.526L438.537 116.264L438.67 115.915C439.17 114.596 439.713 113.303 440.283 112.073L440.442 111.732L441.136 112.042L440.977 112.383C440.413 113.599 439.878 114.875 439.384 116.176L439.251 116.526ZM479.982 111.181L479.222 111.135L479.245 110.763C479.326 109.45 479.583 108.058 480.008 106.626L480.115 106.268L480.846 106.478L480.739 106.836C480.332 108.214 480.083 109.553 480.005 110.809L479.982 111.181ZM498.678 111.007L497.944 110.806L498.045 110.445C498.409 109.166 498.635 107.822 498.718 106.455L498.742 106.083L499.502 106.128L499.479 106.501C499.392 107.921 499.158 109.314 498.779 110.647L498.678 111.007ZM442.662 109.044L441.994 108.683L442.179 108.356C442.873 107.123 443.613 105.929 444.382 104.804L444.593 104.494L445.226 104.912L445.015 105.222C444.257 106.33 443.529 107.507 442.844 108.72L442.662 109.044ZM482.063 103.381L481.375 103.057L481.54 102.718C482.135 101.497 482.841 100.275 483.635 99.084L483.844 98.7714L484.48 99.1834L484.271 99.496C483.494 100.655 482.806 101.849 482.225 103.04L482.063 103.381ZM498.597 102.787L498.539 102.417C498.458 101.892 498.357 101.366 498.233 100.86C498.039 100.059 497.779 99.2772 497.458 98.5384L497.308 98.1945L498.007 97.9019L498.158 98.2457C498.496 99.0243 498.768 99.8455 498.973 100.687C499.1 101.212 499.207 101.758 499.291 102.306L499.349 102.676L498.597 102.787ZM447.258 102.224L446.671 101.749L446.914 101.46C447.821 100.377 448.781 99.3426 449.773 98.3849L450.044 98.1235L450.579 98.6577L450.307 98.9192C449.336 99.8569 448.391 100.871 447.503 101.934L447.258 102.224ZM486.517 96.518L485.936 96.0349L486.182 95.7479C487.084 94.7022 488.064 93.6849 489.102 92.7244L489.379 92.4687L489.902 93.0143L489.625 93.27C488.61 94.2106 487.648 95.208 486.763 96.2338L486.517 96.518ZM453.129 96.4583L452.66 95.8673L452.961 95.6371C454.077 94.7818 455.25 93.9861 456.453 93.27L456.779 93.0768L457.172 93.7161L456.846 93.9094C455.669 94.6084 454.522 95.3898 453.429 96.2253L453.129 96.4583ZM495.585 95.4041L495.342 95.1142C494.498 94.1054 493.489 93.1819 492.348 92.3749L492.038 92.1561L492.483 91.548L492.793 91.7668C493.987 92.6108 495.045 93.5769 495.929 94.6368L496.172 94.9267L495.585 95.4041ZM460.173 92.1618L459.855 91.4826L460.202 91.3263C461.482 90.7495 462.803 90.2295 464.136 89.7777L464.494 89.6554L464.743 90.363L464.384 90.4852C463.078 90.9285 461.777 91.44 460.52 92.0055L460.173 92.1618ZM492.492 90.8518L492.03 90.2579L492.333 90.0305C493.443 89.2008 494.62 88.408 495.828 87.6748L496.152 87.4788L496.551 88.1153L496.227 88.3114C495.039 89.0303 493.885 89.8089 492.796 90.6245L492.492 90.8518ZM489.119 90.542L488.769 90.3914C487.552 89.8714 486.234 89.4395 484.852 89.107L484.482 89.0189L484.665 88.2915L485.035 88.3796C486.46 88.7234 487.821 89.1695 489.076 89.7066L489.425 89.8572L489.119 90.542ZM468.009 89.431L467.833 88.7035L468.203 88.6183C469.584 88.2943 470.986 88.0414 472.371 87.8596L472.75 87.8112L472.851 88.5529L472.472 88.6012C471.114 88.7774 469.738 89.0275 468.382 89.3457L468.009 89.431ZM481.144 88.4677L480.765 88.4307C479.421 88.3 478.025 88.2489 476.614 88.2801L476.233 88.2886L476.215 87.5413L476.597 87.5328C478.034 87.4987 479.464 87.5527 480.837 87.6862L481.216 87.7231L481.144 88.4677ZM499.531 86.5126L499.207 85.8363L499.551 85.6772C500.805 85.0975 502.132 84.5803 503.499 84.1427L503.861 84.0262L504.098 84.7366L503.736 84.8531C502.401 85.2822 501.103 85.7852 499.878 86.3535L499.531 86.5126ZM537.024 85.7539L536.657 85.6544C535.319 85.2879 533.954 84.9526 532.602 84.6513L532.229 84.5689L532.396 83.8386L532.766 83.9211C534.134 84.2223 535.51 84.5633 536.859 84.9327L537.227 85.0321L537.024 85.7539ZM528.873 83.9211L528.497 83.8585C527.107 83.6255 525.716 83.4323 524.358 83.2845L523.979 83.2419L524.063 82.4974L524.442 82.54C525.812 82.6906 527.219 82.8867 528.621 83.1197L528.997 83.1822L528.873 83.9211ZM507.379 83.8841L507.223 83.151L507.595 83.0742C508.939 82.7986 510.35 82.5827 511.781 82.4292L512.16 82.3894L512.243 83.1339L511.865 83.1737C510.457 83.3243 509.072 83.5374 507.751 83.8074L507.379 83.8841ZM520.577 82.9719L520.195 82.9549C518.788 82.8895 517.406 82.8725 516.021 82.9066L515.64 82.9151L515.62 82.1678L516.001 82.1592C517.4 82.1251 518.802 82.1422 520.23 82.2076L520.609 82.2246L520.577 82.9719Z" fill="#596657"/>
<path d="M549.938 98.4331L554.295 94.6651C554.295 94.6651 573.332 95.0999 573.612 95.0061C573.893 94.9095 584.18 91.4029 584.18 91.4029L572.15 89.1382L551.953 89.3684L549.938 98.4331Z" fill="#596657"/>
<path d="M548.742 79.2466L584.18 91.4002L551.951 89.3656L548.742 79.2466Z" fill="#AAB7A8"/>
<path d="M554.295 94.6652L557.642 105.429L584.181 91.4001L554.295 94.6652Z" fill="#AAB7A8"/>
<path d="M391.129 143.885C387.49 141.89 383.602 140.532 379.619 139.807L377.344 130.206L370.496 130.521L363.649 130.836L362.296 140.603C358.402 141.689 354.659 143.402 351.225 145.721L342.709 140.515L338.093 145.499L333.477 150.483L339.547 158.332C337.518 161.91 336.136 165.732 335.399 169.647L325.632 171.884L325.953 178.615L326.274 185.347L336.208 186.677C337.313 190.505 339.056 194.185 341.414 197.561L336.119 205.932L341.189 210.47L346.259 215.008L354.243 209.041C357.882 211.036 361.77 212.394 365.753 213.119L368.028 222.72L374.875 222.405L381.723 222.09L383.076 212.323C386.97 211.237 390.713 209.524 394.147 207.205L402.662 212.411L407.279 207.427L411.895 202.443L405.825 194.594C407.854 191.016 409.236 187.194 409.973 183.279L419.74 181.042L419.419 174.31L419.098 167.579L409.163 166.249C408.059 162.421 406.316 158.741 403.957 155.365L409.253 146.994L404.183 142.456L399.113 137.918L391.129 143.885ZM391.707 193.489C382.142 203.815 365.874 204.565 355.37 195.162C344.866 185.759 344.103 169.767 353.667 159.44C363.232 149.114 379.5 148.364 390.005 157.766C400.509 167.169 401.272 183.162 391.707 193.489Z" fill="#C16548"/>
<path d="M338.819 81.5482C336.64 80.099 334.266 79.0362 331.798 78.3713L330.893 72.2078L326.566 72.043L322.239 71.8782L320.851 77.9536C318.339 78.431 315.891 79.309 313.602 80.5878L308.529 76.8567L305.349 79.7495L302.17 82.6423L305.56 87.9049C304.086 90.0475 303.005 92.3805 302.326 94.8072L296.056 95.6967L295.888 99.9506L295.721 104.204L301.901 105.568C302.386 108.038 303.28 110.445 304.58 112.695L300.785 117.682L303.728 120.808L306.67 123.934L312.024 120.601C314.203 122.05 316.576 123.113 319.045 123.778L319.949 129.941L324.277 130.106L328.604 130.271L329.991 124.195C332.503 123.718 334.952 122.84 337.241 121.561L342.314 125.292L345.493 122.399L348.673 119.507L345.282 114.244C346.757 112.101 347.838 109.768 348.514 107.342L354.784 106.452L354.951 102.198L355.119 97.9444L348.939 96.5804C348.453 94.111 347.56 91.7042 346.259 89.4536L350.055 84.4666L347.112 81.3408L344.17 78.215L338.819 81.5482ZM336.455 112.803C329.867 118.796 319.585 118.404 313.489 111.928C307.393 105.452 307.792 95.3443 314.379 89.3513C320.967 83.3583 331.249 83.7505 337.345 90.2265C343.441 96.7026 343.042 106.81 336.455 112.803Z" fill="#C16548"/>
<path d="M107.591 75.0949C117.572 74.5778 151.77 73.1598 175.158 76.5669C178.193 77.0102 180.124 73.4354 178.025 71.236C176.797 69.9516 174.704 68.903 171.183 68.6615C171.183 68.6615 172.397 47.1987 155.904 45.775C136.988 44.1439 136.76 65.2316 136.76 65.2316C136.76 65.2316 128.163 57.2069 121.963 67.3799C121.963 67.3799 111.247 61.2903 105.842 72.5375C105.252 73.765 106.212 75.166 107.591 75.0949Z" fill="white"/>
<path d="M611.381 244.774C604.603 244.394 588.716 243.726 574.902 244.871C569.187 245.345 564.253 240.856 564.383 235.221C564.435 232.913 565.277 230.231 567.456 227.19C575.842 215.483 590.419 226.665 590.28 232.606C590.28 232.606 593.228 223.658 602.178 225.224C611.13 226.79 607.965 239.807 607.965 239.807C607.965 239.807 610.852 239.208 612.855 240.552C614.821 241.87 613.76 244.908 611.381 244.774Z" fill="white"/>
<path d="M88.1807 435.962V201.047C88.1807 189.885 96.069 180.838 105.799 180.838H502.881C512.611 180.838 520.499 189.885 520.499 201.047V435.962H88.1807Z" fill="#8E9D8C"/>
<path d="M98.3008 423.328V210.99C98.3008 195.756 102.602 194.281 107.906 194.281H500.774C506.079 194.281 510.38 198.362 510.38 203.397V423.331H98.3008V423.328Z" fill="#C5D6C2"/>
<path d="M97.7832 395.952L98.8151 394.937V203.397C98.8151 198.652 102.894 194.79 107.906 194.79V193.773C102.324 193.773 97.7832 198.089 97.7832 203.394V395.952Z" fill="#21111D"/>
<path d="M510.743 423.328H510.018V203.397C510.018 198.569 505.87 194.639 500.774 194.639H107.905V193.926H500.774C506.272 193.926 510.743 198.174 510.743 203.397V423.328Z" fill="#21111D"/>
<path d="M545.815 435.757H46.8545V449.249H545.815V435.757Z" fill="#C16548"/>
<path d="M185.787 97.6318V271.511H54.0635V126.244L82.4228 97.6318H185.787Z" fill="white"/>
<path d="M54.0635 126.298L82.2581 97.6318V126.298H54.0635Z" fill="#596657"/>
<path d="M95.1126 119.274H152.577C153.401 119.274 154.069 118.617 154.069 117.807C154.069 116.997 153.401 116.341 152.577 116.341H95.1126C94.2888 116.341 93.6211 116.997 93.6211 117.807C93.6182 118.617 94.2859 119.274 95.1126 119.274Z" fill="#596657"/>
<path d="M87.2757 130.646H160.413C161.237 130.646 161.904 129.99 161.904 129.18C161.904 128.37 161.237 127.713 160.413 127.713H87.2757C86.4519 127.713 85.7842 128.37 85.7842 129.18C85.7813 129.99 86.4519 130.646 87.2757 130.646Z" fill="#596657"/>
<path d="M67.8714 157.792H173.845C174.669 157.792 175.337 157.136 175.337 156.326C175.337 155.516 174.669 154.859 173.845 154.859H67.8714C67.0476 154.859 66.3799 155.516 66.3799 156.326C66.377 157.136 67.0476 157.792 67.8714 157.792Z" fill="#596657"/>
<path d="M67.8714 170.63H173.845C174.669 170.63 175.337 169.974 175.337 169.164C175.337 168.354 174.669 167.698 173.845 167.698H67.8714C67.0476 167.698 66.3799 168.354 66.3799 169.164C66.377 169.974 67.0476 170.63 67.8714 170.63Z" fill="#596657"/>
<path d="M67.8714 183.469H173.845C174.669 183.469 175.337 182.813 175.337 182.003C175.337 181.193 174.669 180.536 173.845 180.536H67.8714C67.0476 180.536 66.3799 181.193 66.3799 182.003C66.377 182.813 67.0476 183.469 67.8714 183.469Z" fill="#596657"/>
<path d="M67.8714 198.115H173.845C174.669 198.115 175.337 197.458 175.337 196.648C175.337 195.839 174.669 195.182 173.845 195.182H67.8714C67.0476 195.182 66.3799 195.839 66.3799 196.648C66.377 197.458 67.0476 198.115 67.8714 198.115Z" fill="#596657"/>
<path d="M67.8714 210.956H173.845C174.669 210.956 175.337 210.3 175.337 209.49C175.337 208.68 174.669 208.023 173.845 208.023H67.8714C67.0476 208.023 66.3799 208.68 66.3799 209.49C66.377 210.3 67.0476 210.956 67.8714 210.956Z" fill="#596657"/>
<path d="M67.8714 255.004H173.845C174.669 255.004 175.337 254.348 175.337 253.538C175.337 252.728 174.669 252.072 173.845 252.072H67.8714C67.0476 252.072 66.3799 252.728 66.3799 253.538C66.377 254.345 67.0476 255.004 67.8714 255.004Z" fill="#596657"/>
<path d="M67.8714 244.521H173.845C174.669 244.521 175.337 243.865 175.337 243.055C175.337 242.245 174.669 241.589 173.845 241.589H67.8714C67.0476 241.589 66.3799 242.245 66.3799 243.055C66.377 243.865 67.0476 244.521 67.8714 244.521Z" fill="#596657"/>
<path d="M456.297 213.832H219.571V395.295H456.297V213.832Z" fill="white"/>
<path d="M446.503 223.846H258.998V233.084H446.503V223.846Z" fill="#F1DDD7"/>
<path d="M446.504 247.65H229.888V279.82H446.504V247.65Z" fill="#F1DDD7"/>
<path d="M446.504 278.777H229.888V385.048H446.504V278.777Z" fill="#F1DDD7"/>
<path d="M253.717 229.557C254.314 227.074 252.75 224.585 250.223 223.999C247.697 223.412 245.166 224.95 244.569 227.434C243.973 229.917 245.537 232.406 248.063 232.992C250.59 233.579 253.121 232.041 253.717 229.557Z" fill="#F1DDD7"/>
<path d="M236.395 232.736C238.793 231.759 239.932 229.057 238.939 226.699C237.945 224.341 235.196 223.222 232.797 224.198C230.399 225.175 229.26 227.878 230.254 230.235C231.247 232.593 233.997 233.713 236.395 232.736Z" fill="#F1DDD7"/>
<path d="M405.689 255.072H236.507V258.246H405.689V255.072Z" fill="white"/>
<path d="M405.689 265.325H236.507V268.499H405.689V265.325Z" fill="white"/>
<path d="M305.088 289.854H438.765C439.589 289.854 440.257 289.197 440.257 288.387C440.257 287.578 439.589 286.921 438.765 286.921H305.088C304.264 286.921 303.597 287.578 303.597 288.387C303.594 289.197 304.262 289.854 305.088 289.854Z" fill="white"/>
<path d="M305.088 298.768H438.765C439.589 298.768 440.257 298.112 440.257 297.302C440.257 296.492 439.589 295.835 438.765 295.835H305.088C304.264 295.835 303.597 296.492 303.597 297.302C303.594 298.112 304.262 298.768 305.088 298.768Z" fill="white"/>
<path d="M305.088 307.682H438.765C439.589 307.682 440.257 307.026 440.257 306.216C440.257 305.406 439.589 304.75 438.765 304.75H305.088C304.264 304.75 303.597 305.406 303.597 306.216C303.594 307.026 304.262 307.682 305.088 307.682Z" fill="white"/>
<path d="M305.088 325.513H438.765C439.589 325.513 440.257 324.857 440.257 324.047C440.257 323.237 439.589 322.581 438.765 322.581H305.088C304.264 322.581 303.597 323.237 303.597 324.047C303.594 324.857 304.262 325.513 305.088 325.513Z" fill="white"/>
<path d="M305.088 334.428H438.765C439.589 334.428 440.257 333.771 440.257 332.961C440.257 332.151 439.589 331.495 438.765 331.495H305.088C304.264 331.495 303.597 332.151 303.597 332.961C303.594 333.771 304.262 334.428 305.088 334.428Z" fill="white"/>
<path d="M305.088 343.342H438.765C439.589 343.342 440.257 342.685 440.257 341.875C440.257 341.066 439.589 340.409 438.765 340.409H305.088C304.264 340.409 303.597 341.066 303.597 341.875C303.594 342.685 304.262 343.342 305.088 343.342Z" fill="white"/>
<path d="M305.088 361.173H438.765C439.589 361.173 440.257 360.517 440.257 359.707C440.257 358.897 439.589 358.24 438.765 358.24H305.088C304.264 358.24 303.597 358.897 303.597 359.707C303.594 360.514 304.262 361.173 305.088 361.173Z" fill="white"/>
<path d="M305.088 370.087H438.765C439.589 370.087 440.257 369.431 440.257 368.621C440.257 367.811 439.589 367.155 438.765 367.155H305.088C304.264 367.155 303.597 367.811 303.597 368.621C303.594 369.431 304.262 370.087 305.088 370.087Z" fill="white"/>
<path d="M294.945 286.918H238.01V337.121H294.945V286.918Z" fill="white"/>
<path d="M294.945 350.292H238.01V370.087H294.945V350.292Z" fill="white"/>
<path d="M241.993 325.513L251.679 309.771L265.994 315.772L275.573 295.833L289.994 325.513H241.993Z" fill="#F1DDD7"/>
<path d="M260.681 304.425C262.907 303.519 263.964 301.01 263.042 298.822C262.12 296.634 259.568 295.595 257.342 296.502C255.117 297.408 254.06 299.916 254.982 302.104C255.904 304.292 258.455 305.331 260.681 304.425Z" fill="#F1DDD7"/>
<path d="M437.798 422.973H149.01V423.686H437.798V422.973Z" fill="#21111D"/>
<path d="M517.137 252.898L524.909 247.369L525.421 247.005L533.194 241.475L603.244 323.925C605.215 326.244 604.773 329.719 602.281 331.489L582.501 345.558C580.012 347.329 576.515 346.655 574.893 344.089L517.137 252.898Z" fill="#596657"/>
<path d="M517.291 255.586L535.883 242.362C537.108 241.489 537.383 239.804 536.495 238.599L529.974 229.739L506.939 246.124L513.461 254.984C514.351 256.189 516.065 256.459 517.291 255.586Z" fill="#F99247"/>
<path d="M522.213 252.657L534.752 243.737C536.967 242.163 537.464 239.111 535.862 236.937L530.362 229.463L529.596 230.009L535.096 237.482C536.391 239.244 535.99 241.711 534.197 242.987L521.658 251.906L522.213 252.657Z" fill="#21111D"/>
<path d="M524.496 231.989C544.788 212.04 544.788 179.698 524.496 159.75C504.204 139.802 471.305 139.802 451.013 159.75C430.721 179.698 430.721 212.04 451.013 231.989C471.305 251.937 504.204 251.937 524.496 231.989Z" fill="#FBE7E2"/>
<path d="M464.866 191.491C466.573 181.028 463.836 171.896 458.753 171.095C453.669 170.293 448.164 178.125 446.457 188.588C444.749 199.051 447.486 208.183 452.57 208.984C457.653 209.786 463.159 201.954 464.866 191.491Z" fill="#F3FFFE"/>
<path d="M534.861 243.052L534.137 243.649L603.813 325.344L604.537 324.747L534.861 243.052Z" fill="#21111D"/>
<path d="M495.119 152.237L495.385 151.344C495.273 151.31 483.892 148.102 473.495 152.598L473.877 153.447C483.95 149.094 495.009 152.205 495.119 152.237Z" fill="#21111D"/>
<path d="M496.128 158.571L496.394 157.678C496.281 157.644 484.901 154.436 474.504 158.932L474.885 159.781C484.962 155.428 496.018 158.539 496.128 158.571Z" fill="#21111D"/>
<path d="M518.219 237.25C494.97 253.788 462.486 248.664 445.662 225.809C428.839 202.954 434.051 171.02 457.3 154.482C480.549 137.943 513.033 143.067 529.856 165.922C546.679 188.78 541.47 220.714 518.219 237.25ZM536.551 161.162C517.054 134.673 479.404 128.736 452.455 147.903C425.509 167.07 419.471 204.082 438.968 230.575C458.465 257.064 496.114 263 523.063 243.834C550.012 224.664 556.05 187.652 536.551 161.162Z" fill="#C16548"/>
<path d="M523.34 244.209C550.454 224.923 556.553 187.544 536.935 160.889C517.317 134.235 479.294 128.239 452.181 147.525C439.468 156.567 430.906 169.897 428.067 185.06L428.995 185.228C431.788 170.301 440.219 157.178 452.733 148.278C479.424 129.29 516.854 135.192 536.166 161.435C555.481 187.674 549.477 224.471 522.783 243.456C510.394 252.267 495.221 256.055 480.066 254.117L479.944 255.038C495.345 257.007 510.755 253.16 523.34 244.209Z" fill="#21111D"/>
<path d="M214.216 142.876L217.875 144.431L221.945 146.329C221.945 146.329 228.267 147.409 228.356 147.389C228.371 147.386 227.83 148.312 227.83 148.312C235.672 149.264 260.39 150.262 264.448 150.708C266.893 150.975 269.246 153.967 270.726 156.3L268.717 157.636C268.717 157.636 247.13 156.701 247.174 157.147C247.188 157.289 247.795 159.395 248.743 162.151C235.412 163.026 216.742 162.944 213.273 157.542C210.432 153.109 213.204 146.75 214.216 142.876Z" fill="#FE9F73"/>
<path d="M298.071 238.119L281.667 238.341L281.433 223.266L297.77 221.277L298.071 238.119Z" fill="#FE9F73"/>
<path d="M313.87 243.717L280.626 239.739L281.432 233.22C281.432 233.22 284.239 230.381 287.722 232.419C287.722 232.419 292.697 236.917 298.175 232.91L309.847 239.534C309.847 239.531 314.145 241.5 313.87 243.717Z" fill="#A6543B"/>
<path d="M280.343 242.02L314.691 246.132C314.879 246.155 315.05 246.024 315.073 245.84L315.272 244.228C315.296 244.044 315.163 243.876 314.975 243.853L280.626 239.741L280.343 242.02Z" fill="#472A31"/>
<path d="M301.629 234.868C300.302 236.431 297.643 239.574 295.949 241.572L293.683 241.302C295.194 239.517 298.365 235.772 299.944 233.913L301.629 234.868Z" fill="#D7E4F7"/>
<path d="M299.583 242.006L297.316 241.736C298.548 240.284 300.947 237.451 302.647 235.445L304.332 236.403C302.904 238.088 300.927 240.421 299.583 242.006Z" fill="#D7E4F7"/>
<path d="M247.058 184.37C247.058 184.37 232.938 184.597 223.043 184.265C219.866 184.157 217.039 184.378 215.366 184.012C208.478 182.508 206.781 161.372 214.603 148.42C222.425 135.471 249.789 175.231 249.789 175.231L247.058 184.37Z" fill="#FECC86"/>
<path d="M272.611 238.119L256.21 238.341L255.973 223.266L272.31 221.277L272.611 238.119Z" fill="#FE9F73"/>
<path d="M287.231 245.36L254.403 238.841L255.727 232.405C255.727 232.405 258.751 229.79 262.06 232.089C262.06 232.089 266.662 236.957 272.443 233.379L283.552 240.878C283.552 240.878 287.68 243.172 287.231 245.36Z" fill="#C16548"/>
<path d="M253.94 241.094L287.858 247.829C288.043 247.866 288.225 247.746 288.263 247.565L288.59 245.973C288.627 245.791 288.506 245.612 288.321 245.575L254.403 238.841L253.94 241.094Z" fill="#683D46"/>
<path d="M275.73 235.599C274.284 237.056 271.379 239.983 269.535 241.845L267.298 241.401C268.948 239.736 272.405 236.249 274.128 234.516L275.73 235.599Z" fill="#D7E4F7"/>
<path d="M273.122 242.561L270.885 242.117C272.226 240.765 274.845 238.125 276.698 236.255L278.302 237.338C276.744 238.906 274.588 241.08 273.122 242.561Z" fill="#D7E4F7"/>
<path d="M262.263 156.081C262.263 156.081 296.946 158.261 297.947 162.197C298.947 166.135 301.817 207.995 299.672 225.852C299.672 225.852 286.511 226.741 280.219 225.244L278.687 181.699L268.298 180.528L244.5 152.404L262.263 156.081Z" fill="#FFB357"/>
<path d="M245.598 155.436C245.598 155.436 272.348 162.856 273.348 166.794C274.348 170.733 277.198 208.089 275.053 225.948C275.053 225.948 260.904 226.744 254.608 225.246L252.911 184.171L246.807 184.381L232.007 158.784L245.598 155.436Z" fill="#FECC86"/>
<path d="M263.101 226.431C256.849 226.431 254.62 225.505 254.513 225.46L254.374 225.4L252.732 184.083L255.317 185.282L255.111 185.711L253.247 184.847L254.845 225.079C255.522 225.309 258.765 226.23 266.425 225.88L266.448 226.355C265.223 226.409 264.11 226.431 263.101 226.431Z" fill="#21111D"/>
<path d="M257.238 217.523C256.571 214.994 256.38 190.312 256.371 189.263L256.854 189.26C256.857 189.516 257.053 214.931 257.704 217.407L257.238 217.523Z" fill="#21111D"/>
<path d="M282.095 182.628C278.924 181.619 274.556 181.468 274.513 181.466L274.527 180.991C274.571 180.991 279.005 181.144 282.242 182.176L282.095 182.628Z" fill="#21111D"/>
<path d="M289.232 226.343C283.89 226.343 280.199 225.482 280.161 225.474L279.982 225.431L278.433 181.403L280.41 182.969L280.106 183.338L278.95 182.423L280.45 225.053C281.268 225.227 284.835 225.92 289.697 225.869L289.703 226.343C289.547 226.343 289.388 226.343 289.232 226.343Z" fill="#21111D"/>
<path d="M282.502 218.441C281.837 214.619 282.47 188.746 282.499 187.646L282.982 187.658C282.976 187.928 282.323 214.582 282.979 218.361L282.502 218.441Z" fill="#21111D"/>
<path d="M236.435 184.81C230.275 184.81 222.887 184.606 214.585 183.992L214.623 183.52C239.363 185.353 255.955 183.54 256.119 183.52L256.174 183.989C256.062 184.003 248.668 184.81 236.435 184.81Z" fill="#21111D"/>
<path d="M244.904 142.18C245.381 142.172 264.595 150.296 264.595 150.296L260.721 157.579L249.94 155.252L244.904 142.18Z" fill="#D9E9D6"/>
<path d="M217.065 108.328C217.065 108.328 208.897 108.046 204.994 110.22C199.173 113.463 201.248 132.027 201.248 132.027C201.248 132.027 206.194 129.376 206.495 128.492C206.792 127.605 217.065 108.328 217.065 108.328Z" fill="#D9E9D6"/>
<path d="M215.082 148.625C215.091 148.628 215.102 148.631 215.111 148.634L221.12 149.986C221.242 150.015 221.363 149.938 221.389 149.821C221.415 149.705 221.343 149.585 221.222 149.557L215.212 148.204C215.091 148.176 214.969 148.253 214.943 148.369C214.917 148.477 214.981 148.585 215.082 148.625Z" fill="#21111D"/>
<path d="M211.943 145.113L215.603 146.667L219.672 148.565C219.672 148.565 225.994 149.645 226.084 149.625C226.098 149.622 225.558 150.549 225.558 150.549C233.4 151.501 258.117 152.498 262.175 152.944C264.621 153.211 266.974 156.203 268.454 158.536L266.445 159.872C266.445 159.872 244.858 158.937 244.901 159.383C244.916 159.525 245.523 161.631 246.471 164.387C233.14 165.263 214.469 165.18 211.001 159.778C208.159 155.342 210.931 148.983 211.943 145.113Z" fill="#F9B59D"/>
<path d="M209.157 109.777C213.799 109.146 226.052 108.708 226.052 108.708C226.052 108.708 227.677 109.126 227.159 108.89C240.69 111.24 242.185 121.104 242.185 121.104L248.789 149.602L256.14 149.995C258.519 154.425 256.773 166.376 256.773 166.376L221.173 170.321C221.173 170.321 213.478 171.568 206.972 163.364C202.668 157.937 201.202 141.271 201.202 129.094C201.202 129.094 201.942 110.76 209.157 109.777Z" fill="#C5D6C2"/>
<path d="M308.87 131.845H274.972L263.152 161.438H297.047L308.87 131.845Z" fill="#596657"/>
<path d="M263.152 161.438H264.921L276.741 131.845H274.972L263.152 161.438Z" fill="#5D4296"/>
<path d="M286.708 145.698C286.236 147.056 286.583 148.4 287.476 148.701C288.37 149 289.477 148.142 289.948 146.78C290.419 145.422 290.072 144.078 289.179 143.777C288.286 143.478 287.179 144.34 286.708 145.698Z" fill="#E2F2F1"/>
<path d="M251.948 159.048H264.612V161.438H251.948C251.278 161.438 250.731 160.903 250.731 160.241C250.731 159.585 251.275 159.048 251.948 159.048Z" fill="#5D4296"/>
<path d="M255.153 160.243H263.151V159.869H255.153V160.243Z" fill="#A88AE7"/>
<path d="M221.123 150.097C221.164 150.111 221.21 150.117 221.253 150.105C221.375 150.077 221.45 149.958 221.421 149.838C221.383 149.682 217.663 134.135 216.079 124.352C216.059 124.232 215.943 124.15 215.822 124.167C215.701 124.187 215.617 124.301 215.634 124.42C217.221 134.221 220.944 149.784 220.982 149.941C221.002 150.014 221.057 150.071 221.123 150.097Z" fill="#21111D"/>
<path d="M244.15 149.841C244.196 149.858 244.248 149.861 244.297 149.844C244.416 149.807 244.482 149.682 244.445 149.566C244.39 149.392 238.869 132.175 237.716 126.222C237.693 126.102 237.574 126.023 237.453 126.045C237.331 126.068 237.25 126.185 237.273 126.304C238.433 132.283 243.959 149.523 244.014 149.696C244.034 149.77 244.086 149.818 244.15 149.841Z" fill="#21111D"/>
<path d="M221.707 117.063C221.881 117.08 222.057 117.097 222.239 117.108C222.343 117.114 222.43 117.04 222.439 116.938C222.444 116.836 222.372 116.75 222.265 116.742C214.521 116.208 213.085 110.635 213.073 110.578C213.053 110.482 212.958 110.414 212.859 110.431C212.758 110.448 212.692 110.536 212.706 110.635C212.715 110.692 214.143 116.293 221.707 117.063Z" fill="#21111D"/>
<path d="M245.728 145.732C245.83 145.769 245.945 145.732 246.003 145.636L247.512 143.092L247.492 143.007L242.404 121.058C242.373 120.86 241.933 118.302 239.728 115.483C237.661 112.84 233.582 109.476 225.899 108.473C225.775 108.456 225.662 108.541 225.648 108.663C225.63 108.785 225.717 108.896 225.841 108.91C233.357 109.894 237.34 113.162 239.358 115.733C241.543 118.518 241.959 121.107 241.965 121.132L241.968 121.149L247.035 143.019L245.616 145.411C245.552 145.516 245.59 145.653 245.697 145.712C245.705 145.724 245.717 145.729 245.728 145.732Z" fill="#21111D"/>
<path d="M253.689 145.815C253.805 145.857 253.932 145.803 253.978 145.69C254.024 145.576 253.967 145.448 253.854 145.403L247.359 142.857C247.24 142.817 247.113 142.865 247.067 142.979C247.021 143.092 247.078 143.22 247.191 143.266L253.686 145.812C253.686 145.812 253.689 145.812 253.689 145.815Z" fill="#21111D"/>
<path d="M256.14 149.995C256.14 149.995 258.49 155.445 256.773 166.377L248.183 161.847L250.735 153.68L256.14 149.995Z" fill="#D9E9D6"/>
<path d="M213.36 150.293C213.386 150.301 213.415 150.307 213.446 150.307C213.767 150.298 245.575 149.358 255.981 150.202C256.238 150.872 257.412 154.342 257.082 160.69C257.077 160.813 257.172 160.918 257.296 160.923C257.421 160.929 257.525 160.835 257.533 160.713C257.906 153.518 256.412 150.048 256.348 149.903L256.293 149.781L256.16 149.77C245.876 148.903 213.759 149.852 213.435 149.861C213.311 149.864 213.212 149.966 213.218 150.088C213.218 150.185 213.276 150.264 213.36 150.293Z" fill="#21111D"/>
<path d="M227.902 92.1332L228.156 101.752C228.156 101.752 228.37 104.841 225.627 105.298L226.249 109.41C226.48 110.939 225.587 112.431 224.101 112.934C223.375 113.181 222.505 113.369 221.514 113.394C218.369 113.474 216.603 111.198 216.311 110.047C216.019 108.893 216.658 103.335 216.658 103.335L216.49 100.615L216.571 90.0588L227.902 92.1332Z" fill="#FE9F73"/>
<path d="M219.176 102.832C219.176 102.832 219.497 108.001 226.084 108.328L225.625 105.296C225.627 105.296 221.384 106.245 219.176 102.832Z" fill="#F07162"/>
<path d="M220.442 97.3706C220.41 97.3706 220.375 97.3592 220.349 97.3365C220.297 97.2882 220.291 97.2057 220.34 97.1546C220.358 97.1347 222.112 95.2762 223.795 96.5408C223.852 96.5834 223.864 96.6658 223.821 96.7226C223.777 96.7795 223.693 96.7909 223.636 96.7482C222.147 95.6286 220.601 97.2626 220.534 97.3308C220.511 97.3563 220.476 97.3706 220.442 97.3706Z" fill="#49263E"/>
<path d="M215.889 96.1344L218.733 96.6402L219.259 97.1488C219.259 97.1488 218.892 92.4943 218.334 91.5907C217.776 90.687 215.889 96.1344 215.889 96.1344Z" fill="#4C222E"/>
<path d="M225.824 96.4583C225.787 96.4583 225.752 96.4441 225.723 96.4156C225.674 96.3645 225.677 96.2821 225.732 96.2338C225.784 96.1883 227.007 95.1056 227.813 95.7507C227.868 95.7962 227.877 95.8757 227.833 95.9326C227.787 95.9894 227.706 95.9951 227.648 95.9525C227.015 95.4466 225.92 96.4156 225.908 96.427C225.885 96.4469 225.853 96.4583 225.824 96.4583Z" fill="#49263E"/>
<path d="M223.104 97.8223C223.11 98.0354 222.939 98.2144 222.722 98.2201C222.505 98.2258 222.323 98.0581 222.318 97.845C222.312 97.6319 222.482 97.4528 222.699 97.4472C222.919 97.4415 223.098 97.6091 223.104 97.8223Z" fill="black"/>
<path d="M227.272 97.3307C227.278 97.5438 227.107 97.7228 226.89 97.7285C226.673 97.7342 226.491 97.5666 226.485 97.3534C226.48 97.1403 226.65 96.9613 226.867 96.9556C227.087 96.9471 227.269 97.1176 227.272 97.3307Z" fill="black"/>
<path d="M219.855 97.771C219.89 99.0526 218.861 100.118 217.557 100.149C216.253 100.184 215.169 99.172 215.138 97.8904C215.103 96.6088 216.132 95.546 217.436 95.5119C218.736 95.4807 219.82 96.4923 219.855 97.771Z" fill="#FE9F73"/>
<path d="M217.118 99.1294C216.627 99.1408 216.291 98.7884 216.173 98.4304C216.034 98.007 216.17 97.5864 216.517 97.362C217.031 97.0295 217.511 97.2227 217.757 97.3733C217.647 97.1119 217.482 96.9243 217.265 96.8135C216.794 96.5748 216.222 96.7709 216.216 96.7738C216.181 96.7851 216.144 96.7681 216.132 96.734C216.121 96.6999 216.138 96.6629 216.173 96.6515C216.199 96.643 216.803 96.4328 217.326 96.697C217.627 96.8505 217.838 97.1289 217.951 97.5268L218.014 97.7484L217.844 97.5893C217.82 97.5666 217.245 97.0437 216.592 97.4671C216.231 97.7001 216.21 98.1093 216.3 98.3878C216.395 98.6776 216.664 99.0101 217.115 98.9987C217.121 98.9987 217.124 98.9987 217.13 98.9987C217.164 98.9987 217.196 99.0243 217.196 99.0613C217.199 99.0954 217.17 99.1266 217.132 99.1294C217.127 99.1294 217.121 99.1294 217.118 99.1294Z" fill="#F07162"/>
<path d="M224.561 100.394C224.532 100.394 224.506 100.377 224.498 100.351C224.486 100.317 224.503 100.28 224.538 100.269L225.842 99.8085L225.348 96.7793C225.342 96.7452 225.365 96.7111 225.402 96.7055C225.437 96.6998 225.472 96.7225 225.478 96.7594L225.989 99.8938L224.584 100.391C224.576 100.394 224.567 100.394 224.561 100.394Z" fill="#F07162"/>
<path d="M223.575 101.676C223.616 101.667 226.168 101.542 226.168 101.542C226.168 101.542 225.876 102.588 224.925 102.636C223.974 102.684 223.575 101.676 223.575 101.676Z" fill="#FBFDFC"/>
<path d="M215.89 96.1344C215.89 96.1344 214.973 91.6389 216.335 89.9197C217.696 88.2005 225.689 85.0492 226.692 85.8676C227.692 86.6831 226.741 87.7317 226.741 87.7317C226.741 87.7317 229.955 86.6263 230.761 89.4338C231.571 92.2413 224.631 93.6195 220.439 92.4033C220.439 92.4005 217.711 93.2615 215.89 96.1344Z" fill="#4C222E"/>
<path d="M214.97 169.664C215.499 169.86 215.996 170.014 216.453 170.133C219.204 170.852 221.127 170.554 221.208 170.539C221.329 170.52 221.413 170.406 221.393 170.287C221.372 170.167 221.257 170.085 221.135 170.105C221.115 170.108 219.21 170.4 216.545 169.701C214.088 169.056 210.463 167.411 207.145 163.228C202.983 157.98 201.462 141.822 201.425 129.58C201.425 129.458 201.323 129.359 201.199 129.359C201.075 129.359 200.974 129.458 200.974 129.58C201.011 141.89 202.558 158.161 206.789 163.498C209.576 167.01 212.582 168.775 214.97 169.664Z" fill="#21111D"/>
<path d="M285.424 407.722C285.247 407.591 281.316 404.474 281.007 404.329C278.116 406.247 278.501 411.439 275.315 413.547C277.382 413.976 278.848 414.249 279.434 414.331L281.203 418.193L281.446 419.205C281.562 419.685 282.134 420.032 282.727 419.983C283.319 419.935 283.704 419.506 283.591 419.026L283.692 419.449C283.808 419.929 284.38 420.276 284.973 420.228C285.565 420.179 285.95 419.75 285.837 419.27C285.953 419.75 286.525 420.097 287.118 420.049C287.71 420 288.095 419.571 287.982 419.091L287.881 418.668C287.996 419.148 288.569 419.495 289.161 419.446C289.196 419.443 289.231 419.438 289.262 419.435C289.3 419.429 289.338 419.421 289.375 419.412C289.936 419.281 290.173 419.034 290.231 418.77C290.349 418.222 289.499 415.192 289.129 413.76C288.58 411.53 287.545 409.299 285.424 407.722Z" fill="#F9956E"/>
<path d="M287.996 419.134C288.017 419.134 288.034 419.131 288.054 419.122C288.141 419.091 288.184 418.997 288.152 418.915L285.823 412.763C285.791 412.677 285.695 412.638 285.612 412.666C285.525 412.697 285.482 412.791 285.513 412.874L287.843 419.026C287.866 419.094 287.93 419.134 287.996 419.134Z" fill="#F07162"/>
<path d="M285.871 419.628C285.892 419.628 285.909 419.625 285.929 419.617C286.016 419.586 286.059 419.492 286.027 419.409L283.914 413.828C283.883 413.743 283.787 413.703 283.703 413.732C283.617 413.763 283.573 413.857 283.605 413.939L285.718 419.52C285.741 419.588 285.805 419.628 285.871 419.628Z" fill="#F07162"/>
<path d="M276.628 400.774C279.744 403.269 285.346 407.764 286.502 408.784C288.118 410.214 280.568 416.389 280.568 416.389C280.568 416.389 271.827 411.839 267.02 408.591L276.628 400.774Z" fill="#F9956E"/>
<path d="M283.666 419.512C283.686 419.512 283.704 419.509 283.724 419.5C283.811 419.469 283.854 419.375 283.822 419.293L282.122 414.809C282.091 414.724 281.995 414.684 281.911 414.712C281.825 414.743 281.781 414.837 281.813 414.92L283.513 419.404C283.536 419.472 283.6 419.512 283.666 419.512Z" fill="#F07162"/>
<path d="M308.23 414.408C308.285 414.408 308.34 414.388 308.386 414.351L311.86 411.393C311.959 411.308 311.97 411.163 311.883 411.064C311.797 410.967 311.649 410.956 311.548 411.041L308.074 413.999C307.975 414.084 307.964 414.229 308.051 414.329C308.097 414.383 308.163 414.408 308.23 414.408Z" fill="#21111D"/>
<path d="M237.914 419.955C237.914 419.955 240.68 411.723 270.132 413.252C303.802 414.999 326.735 409.285 332.696 419.955L286.039 436.982L237.914 419.955Z" fill="#596657"/>
<path d="M290.878 434.623C290.878 434.623 264.163 418.801 254.792 416.426C245.421 414.05 238.935 417.184 237.914 419.955C236.897 422.728 235.937 430.21 242.169 434.623C244.866 436.533 275.682 445.544 283.831 447.647C283.831 447.647 291.393 444.518 290.878 434.623Z" fill="#596657"/>
<path d="M285.221 431.583C285.302 431.583 285.38 431.543 285.423 431.469C285.49 431.358 285.455 431.216 285.342 431.151C259.761 416.119 251.381 415.377 251.034 415.351C250.901 415.34 250.791 415.44 250.78 415.567C250.771 415.695 250.869 415.806 251 415.818C251.083 415.823 259.663 416.605 285.097 431.552C285.137 431.571 285.178 431.583 285.221 431.583Z" fill="#21111D"/>
<path d="M278.399 450.207L290.482 444.157L284.672 432.941L274.815 437.877C274.815 437.877 258.518 437.741 257.74 438.491C256.957 439.238 274.612 452.102 278.399 450.207Z" fill="#FE9F73"/>
<path d="M282.548 448.13C279.079 444.37 277.191 438.92 276.602 436.982L274.813 437.877C274.813 437.877 258.516 437.741 257.738 438.491C256.958 439.241 274.613 452.105 278.4 450.21L282.548 448.13Z" fill="#472A31"/>
<path d="M279.73 434.623C279.73 434.623 306.444 418.801 315.815 416.426C325.187 414.05 331.673 417.184 332.693 419.955C333.711 422.728 334.67 430.21 328.438 434.623C325.742 436.533 292.766 446.118 284.617 448.221C284.617 448.221 279.218 444.518 279.73 434.623Z" fill="#596657"/>
<path d="M284.617 448.454C284.695 448.454 284.771 448.417 284.814 448.348C284.886 448.24 284.854 448.096 284.747 448.027C280.238 445.103 279.981 435.965 279.966 434.757C281.837 433.689 305.048 420.466 314.304 417.054C314.425 417.008 314.489 416.875 314.442 416.755C314.396 416.636 314.26 416.573 314.139 416.619C304.502 420.168 279.86 434.28 279.611 434.422L279.495 434.49V434.623C279.492 435.052 279.466 445.16 284.487 448.417C284.528 448.439 284.574 448.454 284.617 448.454Z" fill="#21111D"/>
<path d="M240.68 419.716C240.752 419.716 240.827 419.682 240.874 419.62C240.888 419.6 241.828 418.404 244.886 418.441C245.022 418.443 245.123 418.338 245.126 418.21C245.129 418.082 245.022 417.977 244.892 417.974C241.547 417.935 240.53 419.29 240.489 419.347C240.414 419.452 240.44 419.597 240.547 419.671C240.585 419.702 240.634 419.716 240.68 419.716Z" fill="#21111D"/>
<path d="M242.2 420.879C242.261 420.879 242.325 420.856 242.371 420.808C242.388 420.791 243.495 419.742 246.516 420.219C246.646 420.239 246.768 420.154 246.788 420.026C246.808 419.898 246.721 419.779 246.591 419.759C243.287 419.239 242.079 420.433 242.03 420.484C241.94 420.577 241.943 420.725 242.039 420.813C242.082 420.859 242.143 420.879 242.2 420.879Z" fill="#21111D"/>
<path d="M291.502 351.648C291.502 351.648 290.097 364.06 288.213 364.182C286.328 364.307 289.513 378.842 294.511 371.721C296.263 369.226 296.185 352.898 292.005 349.406C287.825 345.916 291.502 351.648 291.502 351.648Z" fill="#49263E"/>
<path d="M292.187 348.533C292.187 348.533 293.921 360.258 292.36 362.347C292.36 362.347 291.597 363.458 289.736 363.515L289.883 370.406L281.454 369.459L281.174 349.861C281.174 349.861 283.576 345.016 283.579 345.214C283.579 345.413 292.187 348.533 292.187 348.533Z" fill="#FE9F73"/>
<path d="M289.62 358.317C289.594 358.317 289.571 358.294 289.566 358.257C289.56 358.218 289.577 358.178 289.606 358.166C289.953 358.059 290.164 357.462 290.225 357.266C289.725 356.908 289.415 356.436 289.308 355.862C289.132 354.93 289.545 354.077 289.563 354.043C289.58 354.009 289.612 354.001 289.638 354.023C289.664 354.046 289.67 354.094 289.652 354.129C289.649 354.137 289.248 354.961 289.412 355.825C289.516 356.371 289.82 356.82 290.317 357.161L290.36 357.192L290.343 357.254C290.334 357.291 290.1 358.164 289.629 358.309C289.629 358.317 289.623 358.317 289.62 358.317Z" fill="#F07162"/>
<path d="M289.768 365.859L289.733 363.515C289.733 363.515 285.698 363.338 283.203 361.841C283.206 361.838 286.605 364.964 289.768 365.859Z" fill="#F07162"/>
<path d="M284.044 354.43C284.007 354.43 283.969 354.416 283.937 354.39C283.877 354.333 283.874 354.24 283.929 354.18C283.949 354.16 285.874 352.168 287.681 353.558C287.747 353.609 287.759 353.703 287.707 353.768C287.655 353.833 287.559 353.845 287.493 353.793C285.906 352.574 284.224 354.308 284.151 354.384C284.125 354.413 284.085 354.43 284.044 354.43Z" fill="#49263E"/>
<path d="M290.314 354.029C290.27 354.029 290.227 354.012 290.198 353.978C290.143 353.915 290.149 353.822 290.21 353.768C290.267 353.719 291.606 352.557 292.479 353.273C292.542 353.327 292.551 353.421 292.499 353.484C292.444 353.546 292.349 353.557 292.285 353.503C291.614 352.955 290.426 353.984 290.415 353.992C290.386 354.015 290.351 354.029 290.314 354.029Z" fill="#49263E"/>
<path d="M287.106 355.223C287.109 355.453 286.921 355.643 286.687 355.646C286.452 355.649 286.259 355.464 286.256 355.234C286.253 355.004 286.441 354.813 286.675 354.811C286.909 354.808 287.103 354.992 287.106 355.223Z" fill="black"/>
<path d="M292.077 355.166C292.08 355.396 291.892 355.586 291.658 355.589C291.424 355.592 291.23 355.407 291.228 355.177C291.225 354.947 291.413 354.757 291.647 354.754C291.881 354.751 292.072 354.936 292.077 355.166Z" fill="black"/>
<path d="M287.527 359.013C287.576 359.01 290.528 359.334 290.528 359.334C290.528 359.334 289.993 360.482 288.895 360.366C287.799 360.246 287.527 359.013 287.527 359.013Z" fill="#FBFDFC"/>
<path d="M288.534 348.761L286.487 345.97C286.487 345.97 289.777 347.994 289.502 348.076C289.227 348.158 288.534 348.761 288.534 348.761Z" fill="#FE9F73"/>
<path d="M282.394 347.437C282.394 347.437 282.981 351.81 293.636 352.691C293.636 352.691 296.11 346.22 288.375 344.058C280.637 341.895 279.934 347.729 280.09 347.675C280.246 347.621 282.394 347.437 282.394 347.437Z" fill="#49263E"/>
<path d="M284.001 349.889C284.001 349.889 282.033 352.765 281.119 354.839C281.119 354.839 284.675 373.154 277.503 372.128L276.22 372.111C269.875 372.025 274.266 358.528 274.376 351.364C274.442 346.877 279.983 342.325 283.585 345.058C287.192 347.789 284.001 349.889 284.001 349.889Z" fill="#49263E"/>
<path d="M282.24 358.768C283.17 357.854 283.17 356.371 282.24 355.457C281.31 354.542 279.802 354.542 278.872 355.457C277.942 356.371 277.942 357.854 278.872 358.768C279.802 359.682 281.31 359.682 282.24 358.768Z" fill="#FE9F73"/>
<path d="M280.405 358.559C279.905 358.564 279.567 358.201 279.451 357.834C279.315 357.399 279.457 356.973 279.815 356.748C280.324 356.427 280.795 356.604 281.05 356.757C280.943 356.51 280.784 356.328 280.576 356.22C280.104 355.976 279.532 356.166 279.526 356.169C279.486 356.183 279.443 356.16 279.428 356.123C279.414 356.084 279.434 356.041 279.474 356.027C279.5 356.018 280.116 355.811 280.645 356.086C280.951 356.246 281.16 356.533 281.269 356.936L281.339 357.195L281.142 357.007C281.119 356.984 280.55 356.456 279.893 356.871C279.532 357.098 279.506 357.507 279.593 357.786C279.685 358.078 279.954 358.416 280.411 358.405C280.451 358.402 280.489 358.436 280.489 358.479C280.489 358.522 280.457 358.556 280.414 358.556C280.417 358.559 280.411 358.559 280.405 358.559Z" fill="#F07162"/>
<path d="M292.664 346.55C292.664 346.55 296.358 350.383 295.511 361.406L292.965 350.531L292.664 346.55Z" fill="#49263E"/>
<path d="M290.19 389.771L285.057 368.575H271.066C269.581 368.575 267.534 369.539 267.447 369.579C261.834 372.517 246.39 389.251 247.159 399.796C247.858 409.37 261.877 407.466 275.845 409.685L278.949 396.992L273.899 395.662L290.19 389.771Z" fill="#596657"/>
<path d="M285.56 392.903V368.575H299.55C301.036 368.575 303.082 369.539 303.169 369.579C308.782 372.517 326.163 389.78 325.394 400.325C324.695 409.898 308.305 409.512 300.622 411.842L296.353 396.665L296.732 395.892L285.56 392.903Z" fill="#596657"/>
<path d="M308.236 396.21L308.057 422.74C308.057 422.74 283.629 427.127 261.878 421.441C261.343 421.302 262.898 399.515 262.898 399.515C262.898 399.515 262.898 395.29 265.164 393.982C267.43 392.675 285.93 384.608 286.375 384.608C286.817 384.608 308.236 396.21 308.236 396.21Z" fill="#596657"/>
<path d="M284.814 375.95C284.953 375.95 285.068 375.844 285.077 375.705C285.086 375.563 284.976 375.438 284.831 375.43C276.804 374.935 274.185 369.53 274.159 369.474C274.099 369.343 273.942 369.286 273.809 369.346C273.677 369.405 273.619 369.559 273.679 369.69C273.705 369.746 276.443 375.43 284.796 375.947C284.802 375.95 284.808 375.95 284.814 375.95Z" fill="#21111D"/>
<path d="M293.662 368.575H275.966C275.966 368.575 279.166 374.023 285.279 373.997C288.086 373.986 291.083 372.971 293.662 368.575Z" fill="#FE9F73"/>
<path d="M282.758 403.655C281.637 402.539 282.675 401.118 282.675 401.118C282.258 399.427 282.718 398.685 282.718 398.685C282.718 398.685 287.438 400.061 290.121 401.038C291.633 400.814 292.167 400.089 292.167 400.089L292.205 400.152C292.234 398.862 292.271 397.25 292.271 397.069C292.271 396.762 292.771 396.267 293.555 397.242C294.335 398.217 295.847 400.828 295.847 400.828L299.755 398.575L302.935 409.384C302.935 409.384 293.451 410.703 291.991 410.805C290.531 410.907 285.452 409.731 283.941 408.5C282.429 407.27 282.756 406.17 282.756 406.17C281.637 404.84 282.758 403.655 282.758 403.655Z" fill="#F78C63"/>
<path d="M293.055 396.506V399.853C293.055 399.853 292.049 401.317 290.121 401.038L288.655 400.504L289.809 395.636L293.055 396.506Z" fill="#FD7583"/>
<path d="M285.886 402.777C285.961 402.777 286.03 402.732 286.053 402.658C286.082 402.567 286.033 402.47 285.941 402.439C284.646 402.027 282.781 400.976 282.764 400.967C282.68 400.919 282.573 400.947 282.524 401.03C282.475 401.112 282.504 401.217 282.588 401.266C282.666 401.308 284.501 402.345 285.834 402.766C285.851 402.774 285.868 402.777 285.886 402.777Z" fill="#F07162"/>
<path d="M285.886 404.968C285.97 404.968 286.042 404.911 286.059 404.826C286.077 404.732 286.013 404.641 285.918 404.624C284.287 404.326 282.859 403.513 282.845 403.505C282.761 403.456 282.654 403.485 282.605 403.567C282.556 403.65 282.585 403.755 282.669 403.803C282.729 403.837 284.163 404.656 285.854 404.962C285.866 404.968 285.877 404.968 285.886 404.968Z" fill="#F07162"/>
<path d="M285.496 407.466C285.576 407.466 285.649 407.412 285.666 407.329C285.686 407.236 285.626 407.145 285.53 407.125C284.131 406.826 282.862 406.034 282.851 406.025C282.77 405.974 282.66 405.997 282.608 406.076C282.556 406.156 282.579 406.264 282.66 406.315C282.715 406.349 283.995 407.15 285.455 407.463C285.472 407.466 285.484 407.466 285.496 407.466Z" fill="#F07162"/>
<path d="M296.945 398.77L302.327 397.452C302.327 397.452 305.363 404.852 305.363 405.099C305.363 405.346 303.845 411.873 303.654 411.842C303.463 411.811 301.741 410.057 301.741 410.057L296.945 398.77Z" fill="#4CB7D8"/>
<path d="M306.837 393.948L309.491 393.531C309.664 393.502 309.786 393.343 309.757 393.17C309.728 392.999 309.566 392.883 309.39 392.908L307.147 393.261L302.152 385.696C302.056 385.551 301.857 385.509 301.71 385.603C301.562 385.696 301.519 385.892 301.614 386.037L306.837 393.948Z" fill="#21111D"/>
<path d="M305.843 375.489C305.759 375.489 305.678 375.449 305.626 375.378C303.638 372.571 301.941 372.562 301.941 372.565C301.796 372.565 301.678 372.448 301.678 372.306C301.678 372.164 301.793 372.048 301.941 372.045C302.036 372.045 303.938 372.085 306.06 375.083C306.144 375.199 306.115 375.361 305.993 375.444C305.947 375.475 305.895 375.489 305.843 375.489Z" fill="#21111D"/>
<path d="M305.277 378.126C305.178 378.126 305.086 378.072 305.04 377.981C303.516 374.969 301.828 374.668 301.811 374.668C301.669 374.645 301.568 374.514 301.591 374.372C301.614 374.233 301.744 374.134 301.889 374.153C301.967 374.165 303.852 374.466 305.514 377.751C305.577 377.879 305.525 378.035 305.395 378.098C305.358 378.117 305.317 378.126 305.277 378.126Z" fill="#21111D"/>
<path d="M290.401 399.228C290.329 399.242 290.251 399.211 290.213 399.146C290.164 399.063 290.193 398.958 290.277 398.91C291.459 398.242 293.061 396.838 293.078 396.824C293.15 396.762 293.263 396.767 293.327 396.838C293.39 396.909 293.384 397.02 293.312 397.083C293.246 397.142 291.664 398.526 290.453 399.211C290.436 399.217 290.422 399.222 290.401 399.228Z" fill="#F07162"/>
<path d="M290.863 401.371C290.782 401.388 290.699 401.345 290.664 401.269C290.626 401.18 290.67 401.078 290.759 401.044C292.291 400.422 293.517 399.336 293.531 399.325C293.604 399.259 293.714 399.265 293.78 399.336C293.847 399.407 293.841 399.515 293.768 399.58C293.716 399.626 292.485 400.717 290.895 401.362C290.884 401.365 290.872 401.368 290.863 401.371Z" fill="#F07162"/>
<path d="M291.769 403.735C291.691 403.752 291.607 403.712 291.572 403.635C291.532 403.547 291.572 403.445 291.662 403.408C292.969 402.834 294.044 401.797 294.053 401.788C294.122 401.72 294.232 401.723 294.301 401.791C294.371 401.859 294.368 401.967 294.298 402.035C294.252 402.081 293.168 403.124 291.804 403.726C291.795 403.729 291.783 403.732 291.769 403.735Z" fill="#F07162"/>
<path d="M267.74 393.781L265.054 393.911C264.878 393.92 264.728 393.786 264.719 393.613C264.71 393.44 264.846 393.292 265.023 393.283L267.292 393.173L270.587 384.758C270.651 384.596 270.836 384.514 271 384.577C271.165 384.639 271.249 384.821 271.185 384.983L267.74 393.781Z" fill="#21111D"/>
<path d="M278.952 396.989L276.186 410.018C276.186 410.018 270.494 405.462 270.494 404.965C270.494 404.468 272.295 398.41 272.486 398.293C272.674 398.177 278.952 396.989 278.952 396.989Z" fill="#4CB7D8"/>
<path d="M276.371 410.35L276.09 410.333C276.024 410.33 269.39 409.915 261.721 406.75C261.559 406.682 261.481 406.497 261.551 406.338C261.62 406.179 261.808 406.102 261.97 406.17C268.653 408.929 274.521 409.569 275.85 409.685L278.221 397.412L267.413 393.778C267.245 393.721 267.156 393.542 267.213 393.377C267.271 393.212 267.453 393.124 267.621 393.181L278.952 396.995L276.371 410.35Z" fill="#21111D"/>
<path d="M298.354 410.35L298.634 410.333C298.701 410.33 305.334 409.915 313.003 406.75C313.165 406.682 313.243 406.497 313.174 406.338C313.104 406.179 312.916 406.102 312.755 406.17C306.072 408.929 300.204 409.569 298.874 409.685L296.504 397.412L307.312 393.778C307.479 393.721 307.569 393.542 307.511 393.377C307.453 393.212 307.271 393.124 307.104 393.181L295.772 396.995L298.354 410.35Z" fill="#21111D"/>
<path d="M261.175 424.402H312.069C313.075 424.402 313.887 423.601 313.887 422.615V394.693C313.887 393.704 313.072 392.906 312.069 392.906H261.175C260.169 392.906 259.356 393.707 259.356 394.693V422.615C259.354 423.601 260.169 424.402 261.175 424.402Z" fill="#C16548"/>
<path d="M286.062 408.139C287.266 408.139 288.242 407.18 288.242 405.997C288.242 404.813 287.266 403.854 286.062 403.854C284.859 403.854 283.883 404.813 283.883 405.997C283.883 407.18 284.859 408.139 286.062 408.139Z" fill="white"/>
<path d="M570.041 421.316C570.041 421.316 564.081 436.055 569.079 447.206L454.511 448.149L443.937 447.206L434.618 441.531V432.844L437.208 425.664L445.666 421.316H570.041Z" fill="white"/>
<path d="M449.145 449.585H572.922C573.729 449.585 574.382 448.942 574.382 448.15C574.382 447.357 573.729 446.715 572.922 446.715H449.145C441.673 446.715 435.594 441.171 435.594 434.353C435.594 427.536 441.673 421.992 449.145 421.992H572.922C573.729 421.992 574.382 421.35 574.382 420.557C574.382 419.765 573.729 419.122 572.922 419.122H449.145C440.063 419.122 432.675 425.954 432.675 434.353C432.675 442.753 440.063 449.585 449.145 449.585Z" fill="#C16548"/>
<path d="M568.358 434.672H507.616C507.437 434.672 507.292 434.53 507.292 434.353C507.292 434.177 507.437 434.035 507.616 434.035H568.358C568.537 434.035 568.682 434.177 568.682 434.353C568.682 434.53 568.537 434.672 568.358 434.672Z" fill="#AAC9F8"/>
<path d="M499.06 434.672H440.046C439.867 434.672 439.723 434.53 439.723 434.353C439.723 434.177 439.867 434.035 440.046 434.035H499.06C499.239 434.035 499.384 434.177 499.384 434.353C499.384 434.53 499.239 434.672 499.06 434.672Z" fill="#AAC9F8"/>
<path d="M471.912 440.386H441.633C441.454 440.386 441.31 440.244 441.31 440.068C441.31 439.892 441.454 439.75 441.633 439.75H471.912C472.091 439.75 472.236 439.892 472.236 440.068C472.236 440.244 472.091 440.386 471.912 440.386Z" fill="#AAC9F8"/>
<path d="M568.359 440.386H476.355C476.176 440.386 476.031 440.244 476.031 440.068C476.031 439.892 476.176 439.75 476.355 439.75H568.359C568.538 439.75 568.683 439.892 568.683 440.068C568.683 440.244 568.538 440.386 568.359 440.386Z" fill="#AAC9F8"/>
<path d="M455.164 392.888C455.164 392.888 460.694 406.568 456.057 416.914L562.384 417.792L572.197 416.914L580.846 411.646V403.584L578.441 396.921L570.59 392.885H455.164V392.888Z" fill="white"/>
<path d="M567.364 419.124H452.487C451.739 419.124 451.132 418.528 451.132 417.792C451.132 417.056 451.739 416.459 452.487 416.459H567.362C574.296 416.459 579.936 411.313 579.936 404.987C579.936 398.662 574.293 393.516 567.362 393.516H452.487C451.739 393.516 451.132 392.919 451.132 392.183C451.132 391.447 451.739 390.85 452.487 390.85H567.362C575.79 390.85 582.647 397.19 582.647 404.984C582.65 412.782 575.793 419.124 567.364 419.124Z" fill="#596657"/>
<path d="M513.1 405.309H456.725C456.546 405.309 456.401 405.167 456.401 404.991C456.401 404.815 456.546 404.673 456.725 404.673H513.1C513.279 404.673 513.424 404.815 513.424 404.991C513.424 405.167 513.279 405.309 513.1 405.309Z" fill="#AAC9F8"/>
<path d="M575.807 405.309H521.04C520.86 405.309 520.716 405.167 520.716 404.991C520.716 404.815 520.86 404.673 521.04 404.673H575.807C575.986 404.673 576.131 404.815 576.131 404.991C576.131 405.167 575.986 405.309 575.807 405.309Z" fill="#AAC9F8"/>
<path d="M574.336 410.611H546.234C546.055 410.611 545.91 410.469 545.91 410.293C545.91 410.117 546.055 409.975 546.234 409.975H574.336C574.515 409.975 574.66 410.117 574.66 410.293C574.66 410.469 574.515 410.611 574.336 410.611Z" fill="#AAC9F8"/>
<path d="M574.336 400.004H456.725C456.546 400.004 456.401 399.862 456.401 399.685C456.401 399.509 456.546 399.367 456.725 399.367H574.336C574.516 399.367 574.66 399.509 574.66 399.685C574.66 399.862 574.516 400.004 574.336 400.004Z" fill="#AAC9F8"/>
<path d="M572.923 449.903H449.146C439.884 449.903 432.352 442.926 432.352 434.353C432.352 425.78 439.884 418.804 449.146 418.804H572.923C573.905 418.804 574.706 419.591 574.706 420.557C574.706 421.523 573.905 422.311 572.923 422.311C572.743 422.311 572.599 422.168 572.599 421.992C572.599 421.816 572.743 421.674 572.923 421.674C573.55 421.674 574.059 421.174 574.059 420.557C574.059 419.941 573.55 419.44 572.923 419.44H449.146C440.243 419.44 433.002 426.13 433.002 434.35C433.002 442.571 440.246 449.26 449.146 449.26H572.923C573.55 449.26 574.059 448.76 574.059 448.144C574.059 447.527 573.55 447.027 572.923 447.027C572.743 447.027 572.599 446.885 572.599 446.709C572.599 446.532 572.743 446.39 572.923 446.39C573.905 446.39 574.706 447.178 574.706 448.144C574.706 449.116 573.908 449.903 572.923 449.903Z" fill="#21111D"/>
<path d="M567.364 419.443H452.487C451.562 419.443 450.808 418.702 450.808 417.792C450.808 416.883 451.562 416.141 452.487 416.141C452.666 416.141 452.811 416.283 452.811 416.46C452.811 416.636 452.666 416.778 452.487 416.778C451.92 416.778 451.458 417.232 451.458 417.789C451.458 418.346 451.92 418.801 452.487 418.801H567.361C575.611 418.801 582.323 412.603 582.323 404.985C582.323 397.367 575.611 391.169 567.361 391.169H452.487C451.92 391.169 451.458 391.624 451.458 392.181C451.458 392.74 451.92 393.192 452.487 393.192C452.666 393.192 452.811 393.334 452.811 393.511C452.811 393.687 452.666 393.829 452.487 393.829C451.562 393.829 450.808 393.087 450.808 392.178C450.808 391.269 451.562 390.527 452.487 390.527H567.361C575.969 390.527 582.97 397.011 582.97 404.979C582.973 412.959 575.969 419.443 567.364 419.443Z" fill="#21111D"/>
<path d="M553.305 428.639C553.305 428.639 557.204 438.187 554.955 445.214L551.787 440.403C551.787 440.403 549.625 442.955 548.298 445.214C548.298 445.214 545.879 429.517 541.19 428.639H553.305Z" fill="#8C9F89"/>
<path d="M523.936 410.29C523.936 410.29 520.037 419.838 522.286 426.866L525.454 422.055C525.454 422.055 527.616 424.606 528.943 426.866C528.943 426.866 531.362 411.168 536.05 410.29H523.936Z" fill="#E3967E"/>
<path d="M568.359 428.957H441.633C441.454 428.957 441.31 428.815 441.31 428.639C441.31 428.463 441.454 428.321 441.633 428.321H568.359C568.538 428.321 568.682 428.463 568.682 428.639C568.682 428.815 568.538 428.957 568.359 428.957Z" fill="#AAC9F8"/>
<path d="M542.112 410.611H456.725C456.546 410.611 456.401 410.469 456.401 410.293C456.401 410.117 456.546 409.975 456.725 409.975H542.112C542.292 409.975 542.436 410.117 542.436 410.293C542.436 410.469 542.292 410.611 542.112 410.611Z" fill="#AAC9F8"/>
<path d="M475.14 436.996L480.739 440.09L487.431 433.617L487.613 432.569L485.974 420.793L472.946 423.177L475.14 436.996Z" fill="#FE9F73"/>
<path d="M484.705 440.431L466.749 442.835C466.584 442.832 466.448 442.824 466.347 442.81C464.587 442.526 464.991 441.397 464.991 441.397L472.862 434.998L472.92 434.211C473.013 432.947 474.498 432.304 475.77 432.981L479.077 434.737C479.077 434.737 486.853 434.848 487.61 432.569L488.312 438.121C488.315 438.121 489.142 439.809 484.705 440.431Z" fill="#3A1F33"/>
<path d="M451.938 437.752L457.537 440.844L464.232 434.373L464.411 433.325L462.772 421.549L449.747 423.933L451.938 437.752Z" fill="#FE9F73"/>
<path d="M461.503 441.187L443.547 443.591C443.382 443.589 443.246 443.583 443.145 443.566C441.385 443.282 441.789 442.154 441.789 442.154L449.66 435.754L449.718 434.967C449.81 433.703 451.296 433.06 452.568 433.737L455.875 435.493C455.875 435.493 463.651 435.604 464.408 433.325L465.11 438.877C465.116 438.874 465.943 440.565 461.503 441.187Z" fill="#3A1F33"/>
<path d="M495.964 390.717C495.964 390.717 518.36 391.751 524.58 390.396C530.801 389.038 532.333 369.953 525.268 358.263C518.207 346.57 493.498 382.468 493.498 382.468L495.964 390.717Z" fill="#49263E"/>
<path d="M482.11 362.375C482.11 362.375 450.92 367.146 450.016 370.701C449.111 374.256 446.521 412.049 448.458 428.176C448.458 428.176 460.338 428.98 466.021 427.624L467.631 390.686L477.193 390.859L498.268 361.861L482.11 362.375Z" fill="#3A1F33"/>
<path d="M497.282 364.597C497.282 364.597 473.132 371.295 472.227 374.853C471.322 378.407 468.749 412.138 470.686 428.261C470.686 428.261 483.462 428.98 489.145 427.627L490.677 390.541L496.19 390.729L509.553 367.618L497.282 364.597Z" fill="#49263E"/>
<path d="M512.252 319.361C512.252 319.361 522.927 319.537 525.407 320.978C527.888 322.419 539.253 340.827 541.707 348.636C541.707 348.636 535.293 354.16 527.029 354.37L525.043 350.687L526.179 358.226L504.532 364.537C497.187 366.68 489.333 366.427 482.144 363.821L479.896 363.006C479.896 363.006 479.93 327.184 486.437 323.399C492.235 320.026 504.795 318.253 512.252 319.361Z" fill="#C16548"/>
<path d="M498.84 301.76V311.902C498.84 311.902 498.695 315.329 501.745 315.758L501.176 320.33C500.965 322.03 501.996 323.658 503.659 324.175C504.471 324.428 505.439 324.613 506.54 324.613C510.026 324.613 511.917 322.041 512.206 320.757C512.498 319.472 511.625 313.329 511.625 313.329L511.732 310.311L511.336 298.617L498.84 301.76Z" fill="#FE9F73"/>
<path d="M507.261 306.832C507.298 306.832 507.333 306.818 507.362 306.793C507.42 306.739 507.423 306.648 507.365 306.591C507.345 306.571 505.347 304.562 503.52 306.008C503.457 306.057 503.448 306.148 503.497 306.21C503.547 306.273 503.639 306.281 503.703 306.233C505.321 304.951 507.082 306.716 507.154 306.793C507.183 306.815 507.22 306.832 507.261 306.832Z" fill="#21111D"/>
<path d="M501.271 305.974C501.311 305.974 501.352 305.957 501.381 305.926C501.433 305.866 501.427 305.775 501.366 305.724C501.308 305.673 499.921 304.508 499.045 305.247C498.984 305.298 498.976 305.389 499.031 305.449C499.083 305.508 499.175 305.517 499.236 305.463C499.921 304.883 501.164 305.929 501.178 305.937C501.202 305.963 501.236 305.974 501.271 305.974Z" fill="#21111D"/>
<path d="M504.32 307.409C504.32 307.645 504.517 307.838 504.757 307.838C504.997 307.838 505.193 307.645 505.193 307.409C505.193 307.173 504.997 306.98 504.757 306.98C504.517 306.98 504.32 307.173 504.32 307.409Z" fill="black"/>
<path d="M499.688 306.98C499.688 307.216 499.884 307.409 500.124 307.409C500.364 307.409 500.561 307.216 500.561 306.98C500.561 306.745 500.364 306.551 500.124 306.551C499.884 306.551 499.688 306.745 499.688 306.98Z" fill="black"/>
<path d="M510.928 299.183L508.497 302.567C508.497 302.567 501.129 305.38 497.351 302.047C493.573 298.714 494.735 297.114 495.842 295.446C496.389 294.625 498.993 292.948 502.19 294.343C503.936 295.105 505.225 292.832 507.26 293.974C509.295 295.116 511.694 297.094 511.425 297.878C511.157 298.663 510.928 299.183 510.928 299.183Z" fill="#21111D"/>
<path d="M510.781 297.753C510.781 297.753 514.134 297.594 515.071 300.768C516.007 303.942 514.747 305.605 514.715 306.551C514.683 307.497 515.337 313.877 510.781 313.402L509.55 302.865L511.137 298.671L510.781 297.753Z" fill="#21111D"/>
<path d="M512.378 309.08C513.4 308.076 513.4 306.447 512.378 305.443C511.357 304.439 509.701 304.439 508.679 305.443C507.657 306.447 507.657 308.076 508.679 309.08C509.701 310.084 511.357 310.084 512.378 309.08Z" fill="#FE9F73"/>
<path d="M510.729 308.836C511.273 308.836 511.634 308.435 511.755 308.034C511.897 307.56 511.735 307.1 511.342 306.861C510.764 306.508 510.238 306.733 509.969 306.909C510.082 306.616 510.258 306.406 510.498 306.275C511.013 305.997 511.651 306.199 511.66 306.202C511.698 306.213 511.738 306.193 511.752 306.156C511.764 306.119 511.744 306.079 511.706 306.065C511.677 306.057 511.001 305.841 510.432 306.148C510.102 306.327 509.877 306.642 509.764 307.085L509.7 307.335L509.885 307.154C509.911 307.128 510.533 306.534 511.267 306.983C511.674 307.23 511.709 307.685 511.617 307.997C511.521 308.321 511.229 308.697 510.732 308.697C510.726 308.697 510.723 308.697 510.718 308.697C510.677 308.697 510.645 308.728 510.645 308.768C510.645 308.807 510.677 308.839 510.718 308.839C510.721 308.836 510.726 308.836 510.729 308.836Z" fill="#F07162"/>
<path d="M508.821 312.845C508.821 312.845 508.616 318.582 501.329 319.131L501.748 315.758C501.745 315.758 506.474 316.693 508.821 312.845Z" fill="#F07162"/>
<path d="M525.335 351.148C534.348 349.769 539.693 344.464 539.745 344.41L539.432 344.112C539.38 344.163 534.131 349.369 525.266 350.724L525.335 351.148Z" fill="#21111D"/>
<path d="M481.48 428.695C487.125 428.695 489.137 427.86 489.232 427.817L489.356 427.763L490.839 390.458L488.506 391.541L488.691 391.928L490.374 391.146L488.931 427.471C488.321 427.678 485.393 428.508 478.476 428.195L478.456 428.624C479.566 428.676 480.572 428.695 481.48 428.695Z" fill="#21111D"/>
<path d="M486.775 420.654C487.376 418.369 487.549 396.085 487.555 395.139L487.119 395.136C487.116 395.366 486.939 418.315 486.35 420.549L486.775 420.654Z" fill="#21111D"/>
<path d="M457.887 428.835C462.711 428.835 466.238 428.011 466.238 428.011L467.637 390.686L465.85 391.902L466.125 392.235L467.168 391.408L465.816 427.664C465.076 427.82 461.859 428.446 457.468 428.4L457.465 428.829C457.604 428.832 457.745 428.835 457.887 428.835Z" fill="#21111D"/>
<path d="M463.963 421.481C464.561 418.031 463.992 394.67 463.966 393.678L463.529 393.69C463.535 393.931 464.125 418 463.532 421.41L463.963 421.481Z" fill="#21111D"/>
<path d="M485.509 366.438L487.977 362.665C489.336 360.505 491.533 357.672 493.819 357.422C497.554 357.013 520.3 356.095 527.514 355.22C527.514 355.22 527.02 354.367 527.032 354.37C527.116 354.39 532.931 353.395 532.931 353.395L536.678 351.651L540.045 350.219C540.976 353.782 543.528 359.633 540.909 363.711C536.073 371.244 499.083 367.535 495.799 366.549L492.778 369.766L492.16 370.698C491.868 371.139 491.267 371.264 490.819 370.977C490.371 370.69 490.243 370.099 490.535 369.658L490.278 370.047C489.986 370.488 489.385 370.613 488.937 370.326C488.489 370.039 488.362 369.448 488.654 369.007C488.362 369.448 487.76 369.573 487.312 369.286C486.864 368.999 486.737 368.408 487.029 367.967L487.286 367.578C486.994 368.018 486.393 368.143 485.945 367.856C485.928 367.845 485.91 367.831 485.893 367.82C485.89 367.817 485.884 367.814 485.881 367.811C485.873 367.805 485.864 367.8 485.858 367.791L485.855 367.788L485.853 367.785C485.792 367.737 485.74 367.68 485.694 367.621C485.162 366.995 485.509 366.438 485.509 366.438Z" fill="#FE9F73"/>
<path d="M526.914 354.66L527.052 354.657C534.4 354.489 541.786 348.934 541.861 348.877L541.997 348.775L537.337 338.625L536.941 338.801L541.459 348.641C540.43 349.389 533.796 354.012 527.182 354.225L525.182 350.224L524.792 350.412L526.914 354.66Z" fill="#21111D"/>
<path d="M530.111 358.718C530.151 358.726 530.197 358.718 530.232 358.692C530.296 358.644 530.307 358.553 530.258 358.49L527.61 355.14C527.561 355.077 527.469 355.066 527.405 355.114C527.341 355.163 527.33 355.254 527.379 355.316L530.027 358.666C530.05 358.692 530.079 358.709 530.111 358.718Z" fill="#F07162"/>
<path d="M486.859 368.126C486.914 368.138 486.975 368.118 487.009 368.072L490.475 363.395C490.521 363.332 490.507 363.242 490.443 363.196C490.38 363.151 490.287 363.165 490.241 363.227L486.775 367.905C486.729 367.967 486.743 368.058 486.807 368.104C486.821 368.112 486.839 368.121 486.859 368.126Z" fill="#F07162"/>
<path d="M488.379 369.493C488.437 369.505 488.498 369.485 488.533 369.433L491.839 364.611C491.886 364.546 491.865 364.458 491.799 364.412C491.732 364.367 491.643 364.387 491.597 364.452L488.29 369.274C488.243 369.34 488.264 369.428 488.33 369.473C488.347 369.482 488.362 369.49 488.379 369.493Z" fill="#F07162"/>
<path d="M490.218 370.365C490.276 370.377 490.336 370.357 490.371 370.306L493.123 366.22C493.166 366.154 493.149 366.066 493.082 366.021C493.016 365.978 492.926 365.995 492.88 366.06L490.128 370.147C490.085 370.212 490.102 370.3 490.169 370.346C490.186 370.354 490.201 370.363 490.218 370.365Z" fill="#F07162"/>
<path d="M505.558 391.118C494.513 391.118 487.836 390.388 487.737 390.376L487.786 389.95C487.934 389.967 502.916 391.604 525.254 389.95L525.286 390.376C517.791 390.933 511.119 391.118 505.558 391.118Z" fill="#21111D"/>
<path d="M490.086 333.672L489.501 351.864L489.937 351.877L490.522 333.686L490.086 333.672Z" fill="#21111D"/>
<path d="M518.589 335.016L518.188 335.187L526.854 354.759L527.254 354.589L518.589 335.016Z" fill="#21111D"/>
<path d="M525.012 349.495L524.581 349.563L525.548 355.431L525.978 355.363L525.012 349.495Z" fill="#21111D"/>
<path d="M502.783 310.299C502.815 310.299 502.841 310.279 502.852 310.251C502.864 310.214 502.844 310.174 502.806 310.16L501.349 309.685L501.809 306.315C501.815 306.275 501.786 306.241 501.745 306.236C501.705 306.23 501.67 306.258 501.664 306.298L501.188 309.785L502.757 310.296C502.769 310.299 502.777 310.299 502.783 310.299Z" fill="#F07162"/>
<path d="M503.913 311.689C503.87 311.68 501.037 311.615 501.037 311.615C501.037 311.615 501.393 312.766 502.445 312.794C503.497 312.823 503.913 311.689 503.913 311.689Z" fill="#FBFDFC"/>
<path d="M443.327 338.625H477.944L490.018 368.848H455.401L443.327 338.625Z" fill="#596657"/>
<path d="M490.018 368.848H488.212L476.141 338.625H477.944L490.018 368.848Z" fill="#3F4A3D"/>
<path d="M465.96 352.773C466.439 354.163 466.087 355.535 465.173 355.839C464.26 356.143 463.13 355.265 462.65 353.878C462.17 352.489 462.523 351.116 463.436 350.812C464.35 350.505 465.48 351.386 465.96 352.773Z" fill="#E2F2F1"/>
<path d="M501.462 366.407H488.529V368.848H501.462C502.147 368.848 502.702 368.302 502.702 367.626C502.705 366.955 502.15 366.407 501.462 366.407Z" fill="#8C9F89"/>
<path d="M498.187 367.245H490.019V367.628H498.187V367.245Z" fill="#596657"/>
<path d="M500.378 368.848H485.145V374.199H500.378V368.848Z" fill="#49263E"/>
<path d="M588.751 449.454H18.3037V451.19H588.751V449.454Z" fill="#21111D"/>
<path d="M110.479 445.143L96.4973 445.33L96.2949 432.367L110.225 430.656L110.479 445.143Z" fill="#FE9F73"/>
<path d="M124.845 447.476H96.2949V441.83C96.2949 441.83 98.3703 439.119 101.533 440.503C101.533 440.503 106.212 443.836 110.43 439.852L121.001 444.313C121.001 444.313 124.845 445.555 124.845 447.476Z" fill="#33192C"/>
<path d="M96.2949 449.454H125.51C125.828 449.454 126.085 449.201 126.085 448.888V448.044C126.085 447.732 125.828 447.479 125.51 447.479H96.2949V449.454Z" fill="#472A31"/>
<path d="M113.56 441.173C112.603 442.642 110.678 445.598 109.455 447.476H107.51C108.602 445.797 110.895 442.279 112.034 440.528L113.56 441.173Z" fill="#D7E4F7"/>
<path d="M112.577 447.476H110.632C111.522 446.109 113.254 443.447 114.482 441.562L116.008 442.208C114.976 443.79 113.548 445.984 112.577 447.476Z" fill="#D7E4F7"/>
<path d="M86.4057 445.143L72.4211 445.33L72.2217 432.367L86.1485 430.656L86.4057 445.143Z" fill="#FE9F73"/>
<path d="M87.8943 332.924C88.3568 346.311 90.3715 398.679 94.6062 432.941C94.8866 435.2 96.8319 436.902 99.1473 436.897C101.708 436.891 105.272 436.59 109.221 435.405C111.129 434.831 112.455 433.126 112.487 431.165L114.21 326.911C114.213 326.658 114.196 326.406 114.158 326.155L114.077 325.641C113.632 322.802 110.637 321.095 107.911 322.123L90.834 328.574C89.0043 329.261 87.8278 331.009 87.8943 332.924Z" fill="#33192C"/>
<path d="M69.1145 330.225C69.1145 330.225 67.9525 394.619 70.9818 434.342C71.1263 436.223 72.6439 437.706 74.5545 437.851C77.2601 438.053 81.3849 438.025 86.0301 436.811C87.6054 436.399 88.753 435.061 88.8946 433.464L97.0026 341.114L101.995 315.474L69.1145 330.225Z" fill="#49263E"/>
<path d="M63.9004 309.731C64.1866 312.302 65.7532 350.468 70.1093 353.617C74.4654 356.765 116.142 353.739 117.113 350.019C118.084 346.3 112.427 306.417 112.427 306.417L63.9004 309.731Z" fill="#C16548"/>
<path d="M110.956 291.749C111.52 291.758 133.806 302.081 133.806 302.081L128.95 310.504L116.35 307.338L110.956 291.749Z" fill="#FFB357"/>
<path d="M79.567 250.799C79.567 250.799 69.9616 250.145 65.2789 252.549C58.2954 256.135 59.9776 278.073 59.9776 278.073C59.9776 278.073 65.9091 275.146 66.2964 274.117C66.6866 273.088 79.567 250.799 79.567 250.799Z" fill="#FFB357"/>
<path d="M70.1956 252.194C75.6877 251.634 90.1289 251.603 90.1289 251.603C90.1289 251.603 92.0223 252.16 91.4239 251.861C107.258 255.16 108.614 266.831 108.614 266.831L115.225 300.643L123.862 301.393C126.481 306.704 123.937 320.702 123.937 320.702L81.8677 323.942C81.8677 323.942 72.7566 325.107 65.4319 315.19C60.5845 308.631 59.541 288.953 60.041 274.617C60.041 274.62 61.6597 253.066 70.1956 252.194Z" fill="#C16548"/>
<path d="M82.6367 300.132C82.6829 300.152 82.7379 300.157 82.7899 300.146C82.9344 300.118 83.0269 299.981 82.998 299.839C82.9604 299.655 79.2142 281.204 77.7516 269.624C77.7343 269.482 77.6013 269.38 77.4568 269.397C77.3123 269.414 77.2082 269.545 77.2255 269.687C78.691 281.286 82.4401 299.754 82.4777 299.942C82.4979 300.032 82.5586 300.101 82.6367 300.132Z" fill="#21111D"/>
<path d="M108.603 300.567C108.559 300.604 108.504 300.629 108.444 300.632C108.296 300.64 108.172 300.53 108.163 300.388C108.152 300.174 106.9 278.945 105.637 271.917C105.611 271.775 105.709 271.642 105.851 271.616C105.995 271.59 106.131 271.684 106.157 271.826C107.426 278.885 108.678 300.143 108.689 300.359C108.695 300.442 108.661 300.515 108.603 300.567Z" fill="#21111D"/>
<path d="M111.782 295.966C111.9 296.014 112.036 295.975 112.109 295.864L113.99 292.931L113.97 292.829L108.877 266.791C108.848 266.558 108.435 263.529 105.952 260.122C103.625 256.928 98.9624 252.807 89.9583 251.321C89.8138 251.299 89.6779 251.392 89.6519 251.534C89.6288 251.676 89.7242 251.81 89.8687 251.836C98.6762 253.29 103.232 257.294 105.501 260.4C107.961 263.765 108.345 266.831 108.348 266.859L108.351 266.879L113.424 292.826L111.655 295.585C111.577 295.707 111.614 295.867 111.739 295.943C111.756 295.955 111.77 295.96 111.782 295.966Z" fill="#21111D"/>
<path d="M75.5869 298.16C75.5985 298.166 75.6101 298.168 75.6216 298.171L82.6428 300.001C82.7844 300.038 82.929 299.956 82.9666 299.816C83.0041 299.677 82.9203 299.535 82.7787 299.498L75.7575 297.668C75.6159 297.631 75.4713 297.714 75.4337 297.853C75.3991 297.981 75.4684 298.112 75.5869 298.16Z" fill="#21111D"/>
<path d="M121.15 296.375C121.283 296.429 121.436 296.37 121.494 296.239C121.552 296.108 121.491 295.955 121.358 295.895L113.817 292.641C113.678 292.59 113.528 292.644 113.467 292.775C113.409 292.906 113.47 293.059 113.603 293.119L121.144 296.372C121.147 296.372 121.15 296.375 121.15 296.375Z" fill="#21111D"/>
<path d="M152.412 321.007L127.616 319.404C126.44 319.327 125.448 318.301 125.587 317.298L130.527 281.403C130.628 280.678 131.302 280.201 132.155 280.258L156.95 281.86C158.126 281.937 159.118 282.963 158.979 283.966L154.039 319.862C153.941 320.589 153.267 321.064 152.412 321.007Z" fill="#596657"/>
<path d="M140.396 313.479C140.422 312.808 139.832 312.223 139.15 312.178L134.936 311.899C134.803 311.891 134.69 311.8 134.655 311.675C134.603 311.49 134.739 311.302 134.936 311.291L141.176 310.885C141.89 310.839 142.324 310.242 142.139 309.563C141.954 308.884 141.217 308.364 140.5 308.412L134.138 308.827C133.99 308.836 133.857 308.742 133.817 308.603L133.791 308.503C133.748 308.341 133.846 308.174 134.011 308.128L140.832 306.327C141.491 306.153 141.954 305.466 141.795 304.812C141.627 304.119 140.913 303.704 140.22 303.889L133.346 305.704C133.181 305.747 133.011 305.65 132.964 305.488L132.878 305.173C132.837 305.025 132.915 304.872 133.06 304.812L139.159 302.328C139.789 302.073 140.156 301.331 139.913 300.703C139.656 300.038 138.893 299.717 138.228 299.987C138.228 299.987 128.845 303.252 127.313 303.647L130.134 302.351C132.21 304.266 129.866 301.652 128.157 301.314C126.264 300.939 121.263 305.491 121.263 305.491C121.035 305.883 121.269 306.759 121.63 307.418C123.027 314.704 123.301 315.812 123.862 317.744L131.571 315.431C133.794 314.763 136.124 314.499 138.445 314.653L139.029 314.69C139.751 314.735 140.37 314.192 140.396 313.479Z" fill="#FE9F73"/>
<path d="M145.759 295.2C146.319 293.981 145.82 292.571 144.646 292.05C143.471 291.529 142.066 292.095 141.507 293.314C140.948 294.533 141.446 295.943 142.62 296.464C143.795 296.985 145.2 296.419 145.759 295.2Z" fill="white"/>
<path d="M128.25 300.803L127.9 303.477L130.794 302.527L130.756 300.592L128.25 300.803Z" fill="#7FC6A6"/>
<path d="M156.953 281.599L132.158 279.996C131.181 279.934 130.389 280.505 130.27 281.352L127.284 303.687L127.9 303.476L130.785 281.451C130.866 280.854 131.429 280.468 132.155 280.516L156.95 282.119C157.095 282.127 157.21 282.019 157.21 281.874C157.21 281.732 157.095 281.61 156.953 281.599Z" fill="#21111D"/>
<path d="M123.865 301.394C123.865 301.394 126.409 307.904 123.94 320.702L121.469 311.507L117.35 305.517L123.865 301.394Z" fill="#FFB357"/>
<path d="M73.4909 300.058C73.5227 300.07 73.5574 300.078 73.5921 300.078C73.9708 300.078 111.456 300.229 123.671 301.635C123.946 302.437 125.186 306.568 124.538 314.028C124.527 314.17 124.634 314.298 124.778 314.309C124.923 314.32 125.053 314.215 125.064 314.073C125.796 305.619 124.177 301.473 124.111 301.3L124.053 301.155L123.897 301.135C111.823 299.709 73.9737 299.558 73.5921 299.555C73.4447 299.555 73.3262 299.672 73.3262 299.814C73.3262 299.925 73.3927 300.018 73.4909 300.058Z" fill="#21111D"/>
<path d="M88.7763 323.067C104.082 323.067 122.819 321.126 123.972 321.004C124.142 320.986 124.264 320.836 124.246 320.671C124.229 320.503 124.085 320.384 123.905 320.401C123.489 320.444 82.0268 324.743 71.6121 320.728C61.3188 316.761 60.602 294.468 60.5962 294.244C60.5904 294.076 60.4488 293.94 60.2782 293.948C60.1077 293.954 59.9747 294.093 59.9776 294.258C60.0036 295.193 60.7147 317.179 71.3867 321.291C74.8207 322.618 81.3996 323.067 88.7763 323.067Z" fill="#21111D"/>
<path d="M79.8878 227.565C79.8878 227.565 76.2515 229.409 78.0696 236.624L79.4456 235.928L78.9802 232.095L79.8878 227.565Z" fill="#21111D"/>
<path d="M92.6317 232.044V242.617C92.6317 242.617 92.782 246.192 89.6197 246.638L90.2094 251.407C90.4291 253.18 89.3567 254.876 87.6368 255.416C86.7956 255.68 85.7897 255.871 84.6508 255.871C81.0376 255.871 79.0807 253.191 78.7801 251.85C78.4795 250.509 79.3813 244.106 79.3813 244.106L79.2715 240.961L79.682 228.767L92.6317 232.044Z" fill="#FE9F73"/>
<path d="M83.9082 237.329C83.8706 237.329 83.833 237.315 83.8041 237.287C83.7434 237.23 83.7434 237.136 83.7983 237.076C83.8185 237.054 85.8882 234.959 87.7815 236.468C87.8451 236.519 87.8567 236.613 87.8046 236.678C87.7526 236.744 87.6572 236.752 87.5936 236.701C85.9171 235.366 84.0932 237.204 84.0151 237.284C83.9891 237.315 83.9486 237.329 83.9082 237.329Z" fill="#21111D"/>
<path d="M90.1141 236.437C90.0708 236.437 90.0303 236.42 90.0014 236.386C89.9465 236.323 89.9552 236.229 90.0159 236.175C90.0766 236.124 91.5132 234.908 92.4208 235.678C92.4844 235.732 92.4902 235.826 92.4381 235.888C92.3832 235.951 92.2878 235.959 92.2271 235.905C91.5161 235.303 90.2298 236.391 90.2153 236.403C90.1835 236.426 90.1488 236.437 90.1141 236.437Z" fill="#21111D"/>
<path d="M86.9545 237.932C86.9545 238.179 86.7522 238.378 86.5036 238.378C86.2551 238.378 86.0527 238.179 86.0527 237.932C86.0527 237.684 86.2551 237.485 86.5036 237.485C86.7522 237.485 86.9545 237.684 86.9545 237.932Z" fill="black"/>
<path d="M91.7534 237.485C91.7534 237.733 91.5511 237.932 91.3025 237.932C91.0539 237.932 90.8516 237.733 90.8516 237.485C90.8516 237.238 91.0539 237.039 91.3025 237.039C91.5511 237.039 91.7534 237.238 91.7534 237.485Z" fill="black"/>
<path d="M78.9741 240.765C80.4699 240.765 81.6826 239.565 81.6826 238.085C81.6826 236.605 80.4699 235.405 78.9741 235.405C77.4782 235.405 76.2656 236.605 76.2656 238.085C76.2656 239.565 77.4782 240.765 78.9741 240.765Z" fill="#FE9F73"/>
<path d="M78.7747 239.727C78.211 239.727 77.8352 239.31 77.7109 238.892C77.5635 238.398 77.7312 237.917 78.1387 237.667C78.74 237.298 79.2834 237.537 79.5609 237.716C79.4453 237.412 79.2603 237.19 79.0146 237.056C78.4798 236.767 77.8179 236.977 77.8121 236.98C77.7716 236.994 77.7312 236.971 77.7167 236.931C77.7023 236.892 77.7254 236.852 77.763 236.838C77.7919 236.829 78.4914 236.605 79.084 236.926C79.4251 237.11 79.6592 237.44 79.7748 237.903L79.8413 238.162L79.6505 237.974C79.6245 237.949 78.9799 237.326 78.2168 237.795C77.7948 238.054 77.7572 238.526 77.8555 238.852C77.9566 239.19 78.2544 239.583 78.7718 239.583C78.7776 239.583 78.7805 239.583 78.7862 239.583C78.8267 239.583 78.8614 239.614 78.8614 239.656C78.8614 239.696 78.8296 239.73 78.7862 239.733C78.7862 239.728 78.7805 239.727 78.7747 239.727Z" fill="#F07162"/>
<path d="M93.1551 240.935C93.1551 240.935 94.1408 248.096 89.3338 248.349C82.4572 248.713 81.7894 244.831 81.3819 241.654L81.3125 235.096L81.5322 233.192C82.0178 233.734 82.3155 234.419 82.382 235.141C82.5236 236.712 82.8763 240.949 83.2723 241.137C83.8331 241.404 92.0856 240.245 93.1551 240.935Z" fill="#21111D"/>
<path d="M88.5473 240.944C88.5155 240.944 88.4866 240.924 88.475 240.893C88.4606 240.853 88.4837 240.81 88.5242 240.799L90.0331 240.304L89.5561 236.792C89.5503 236.752 89.5792 236.713 89.6197 236.71C89.6602 236.704 89.6978 236.732 89.7035 236.772L90.1978 240.407L88.5704 240.938C88.5617 240.944 88.5531 240.944 88.5473 240.944Z" fill="#F07162"/>
<path d="M87.377 242.396C87.4232 242.387 90.3571 242.319 90.3571 242.319C90.3571 242.319 89.99 243.518 88.8974 243.547C87.8076 243.575 87.377 242.396 87.377 242.396Z" fill="#FBFDFC"/>
<path d="M81.5211 233.314L80.1596 232.095L78.752 235.422C78.752 235.422 80.4921 235.706 80.5239 237.485C80.5528 239.264 79.5787 242.043 82.712 246.033C85.8454 250.025 82.4605 240.074 82.4287 239.727C82.3969 239.384 81.5211 233.314 81.5211 233.314Z" fill="#21111D"/>
<path d="M79.8872 227.565C81.3383 226.15 86.3707 225.34 89.9637 227.469V227.466C94.0539 229.432 92.7676 233.436 92.6317 233.555L92.5797 233.516C92.5999 233.607 92.6202 233.7 92.6317 233.794C92.6317 233.794 92.4612 233.524 92.0941 233.152L90.4869 231.941C89.5851 231.444 88.3768 231.012 86.813 230.913C85.2608 230.813 83.9051 230.898 82.7922 231.234C82.4974 232.143 82.2575 233.942 82.6043 237.485C83.1304 242.893 80.7283 236.334 79.8554 233.823C79.6675 234.291 79.5317 234.82 79.4623 235.425C79.4623 235.422 76.9793 230.404 79.8872 227.565Z" fill="#21111D"/>
<path d="M92.632 235.013C92.632 235.013 92.7389 232.842 92.632 232.368C92.525 231.893 87.6111 230.526 84.9199 230.89C82.2288 231.254 87.4463 234.166 87.507 234.166C87.5677 234.166 92.632 235.013 92.632 235.013Z" fill="#FE9F73"/>
<path d="M83.3046 231.444L80.7031 229.069L83.1543 232.547L83.3046 231.444Z" fill="#FE9F73"/>
<path d="M83.3043 226.764C83.3043 226.764 83.8333 221.635 80.9312 222.752C78.0291 223.866 77.529 226.23 80.1594 227.79C82.7898 229.35 83.3043 226.764 83.3043 226.764Z" fill="#21111D"/>
<path d="M72.5977 261.77L77.7226 253.322L86.7268 255.996L90.3804 252.177C90.3804 252.177 91.158 255.703 91.1349 255.996C91.1117 256.288 87.0216 260.466 86.4955 260.423C85.9665 260.375 72.5977 261.77 72.5977 261.77Z" fill="#FFB357"/>
<path d="M73.3259 354.819C73.4849 354.819 73.6208 354.697 73.6323 354.538C73.6439 354.37 73.5167 354.225 73.3462 354.214C69.0219 353.91 68.4294 350.295 67.4466 344.308C67.2703 343.231 67.0881 342.12 66.8656 340.923C65.403 332.973 64.7584 313.706 64.7526 313.513C64.7468 313.348 64.6109 313.22 64.4433 313.22C64.4404 313.22 64.4375 313.22 64.4346 313.22C64.2641 313.226 64.1311 313.365 64.1369 313.533C64.1427 313.726 64.7902 333.038 66.2615 341.031C66.4811 342.222 66.6632 343.333 66.8396 344.404C67.8368 350.471 68.4958 354.481 73.3057 354.819C73.3115 354.819 73.3201 354.819 73.3259 354.819Z" fill="#21111D"/>
<path d="M89.837 248.372L90.2099 251.364C90.2099 251.364 87.9812 254.652 86.4579 255.7C83.4344 253.64 78.7545 250.756 78.7545 250.756L79.0292 246.974C73.4157 246.346 67.0246 249.812 68.4873 251.6C69.9499 253.387 77.5521 253.935 79.5697 254.586C81.5613 255.228 86.6458 256.746 86.6458 256.746C87.9841 255.771 91.5742 251.622 91.5742 251.622L95.2076 252.614C95.2741 248.991 89.837 248.372 89.837 248.372Z" fill="#FD7583"/>
<path d="M100.772 447.476H72.2217V441.83C72.2217 441.83 74.2971 439.119 77.4594 440.503C77.4594 440.503 82.1392 443.836 86.3565 439.852L96.9273 444.313C96.9273 444.313 100.772 445.555 100.772 447.476Z" fill="#49263E"/>
<path d="M72.2217 449.454H101.437C101.755 449.454 102.012 449.201 102.012 448.888V448.044C102.012 447.732 101.755 447.479 101.437 447.479H72.2217V449.454Z" fill="#683D46"/>
<path d="M89.4874 441.173C88.5307 442.642 86.6055 445.598 85.3828 447.476H83.4375C84.5301 445.797 86.8223 442.279 87.9612 440.528L89.4874 441.173Z" fill="#D7E4F7"/>
<path d="M88.501 447.476H86.5557C87.446 446.109 89.1774 443.447 90.4059 441.562L91.9321 442.208C90.9031 443.79 89.4722 445.984 88.501 447.476Z" fill="#D7E4F7"/>
<path d="M86.6432 256.95C86.6952 256.95 86.7502 256.931 86.7906 256.891L93.1325 250.557C93.2134 250.477 93.2105 250.349 93.1296 250.27C93.0487 250.193 92.9186 250.193 92.8377 250.273L86.4958 256.607C86.4149 256.686 86.4178 256.814 86.4987 256.894C86.5392 256.931 86.5912 256.95 86.6432 256.95Z" fill="black"/>
<path d="M252.654 310.126C252.654 293.318 238.794 279.689 221.693 279.689C204.596 279.689 190.732 293.315 190.732 310.126C190.732 318.463 194.143 326.016 199.667 331.515C199.667 331.515 209.035 341.364 212.201 352.103C212.201 352.103 217.609 353.91 221.693 354.009C225.775 353.91 231.186 352.103 231.186 352.103C234.351 341.367 243.719 331.515 243.719 331.515C249.243 326.016 252.654 318.463 252.654 310.126Z" fill="#FECC86"/>
<path d="M211.368 349.676V357.814C211.368 361.483 213.669 364.62 216.93 365.915C217.256 368.214 219.259 369.988 221.69 369.988C224.118 369.988 226.122 368.217 226.451 365.915C229.712 364.62 232.013 361.483 232.013 357.814V349.676H211.368Z" fill="#C16548"/>
<g opacity="0.3">
<g opacity="0.3">
<path opacity="0.3" d="M252.654 310.126C252.654 303.9 250.752 298.109 247.485 293.286C238.429 315.221 223.988 329.972 203.188 335.692C205.806 339.071 209.281 344.157 211.379 349.673H232.006C235.718 339.923 243.719 331.512 243.719 331.512C249.243 326.016 252.654 318.463 252.654 310.126Z" fill="#FECC86"/>
</g>
</g>
<path d="M226.754 349.792L225.867 349.554C225.896 349.448 228.783 339.014 230.786 328.324C234.261 309.777 232.264 305.844 230.763 305.147C229.228 304.437 228.023 304.565 227.179 305.525C227.118 305.596 227.058 305.67 227.003 305.747C229.168 307.003 229.691 308.93 229.815 309.708C230.159 311.862 229.179 314.011 227.63 314.499C227.254 314.619 226.534 314.678 225.91 313.752C224.919 312.28 224.609 308.6 225.719 306.148C224.656 305.719 223.358 305.491 221.875 305.491H220.982C219.499 305.491 218.201 305.719 217.137 306.148C218.247 308.6 217.938 312.28 216.946 313.752C216.322 314.678 215.602 314.619 215.227 314.499C213.68 314.011 212.7 311.859 213.041 309.708C213.166 308.927 213.689 307 215.854 305.747C215.796 305.67 215.738 305.596 215.677 305.525C214.833 304.565 213.625 304.437 212.093 305.147C210.593 305.841 208.596 309.777 212.07 328.324C214.073 339.014 216.961 349.448 216.99 349.554L216.102 349.792C216.073 349.687 213.177 339.219 211.168 328.494C208.393 313.687 208.57 305.784 211.703 304.335C214.134 303.209 215.585 304.042 216.374 304.94C216.484 305.065 216.588 305.199 216.686 305.341C217.77 304.889 219.169 304.593 220.982 304.593H221.875C223.687 304.593 225.089 304.889 226.173 305.341C226.271 305.199 226.373 305.065 226.485 304.94C227.274 304.042 228.725 303.209 231.156 304.335C234.29 305.784 234.466 313.687 231.691 328.494C229.679 339.221 226.783 349.69 226.754 349.792ZM216.311 306.548C215.004 307.299 214.177 308.424 213.949 309.85C213.648 311.729 214.513 313.329 215.507 313.644C215.599 313.672 215.845 313.752 216.178 313.257C217.027 311.996 217.25 308.668 216.311 306.548ZM226.543 306.548C225.604 308.668 225.826 311.996 226.676 313.257C227.008 313.752 227.254 313.672 227.347 313.644C228.341 313.329 229.205 311.732 228.905 309.85C228.676 308.424 227.85 307.299 226.543 306.548Z" fill="#F99247"/>
<path d="M211.218 349.886C210.972 349.193 210.859 348.937 210.616 348.383L210.484 348.079C206.619 339.204 199.575 331.742 199.502 331.668L199.479 331.646C193.692 325.871 190.504 318.233 190.504 310.126C190.504 293.218 204.494 279.465 221.693 279.465C232.252 279.465 242.014 284.656 247.807 293.352L247.422 293.599C241.716 285.032 232.096 279.917 221.693 279.917C204.749 279.917 190.964 293.468 190.964 310.126C190.964 318.125 194.114 325.664 199.832 331.356L200.132 331.654L200.112 331.66C201.459 333.14 207.446 339.96 210.906 347.903L211.039 348.207C211.287 348.772 211.4 349.031 211.651 349.741L211.218 349.886Z" fill="#21111D"/>
<path d="M200.074 296.074L199.632 295.949C199.655 295.873 201.944 288.382 209.645 285.566L209.804 285.989C202.326 288.726 200.094 296.003 200.074 296.074Z" fill="#21111D"/>
<path d="M201.494 298.785L201.052 298.66C201.075 298.583 203.364 291.093 211.065 288.277L211.224 288.7C203.746 291.434 201.514 298.711 201.494 298.785Z" fill="#21111D"/>
<path d="M222.812 366.777H220.56C215.363 366.777 211.134 362.619 211.134 357.51V349.448H232.004V349.9H211.591V357.51C211.591 362.369 215.611 366.325 220.557 366.325H222.809C225.176 366.325 227.408 365.427 229.096 363.793L229.417 364.114C227.648 365.83 225.3 366.777 222.812 366.777Z" fill="#21111D"/>
<path d="M221.82 370.212C217.346 370.212 216.701 365.947 216.695 365.901L217.149 365.839C217.172 366.004 217.771 369.851 221.968 369.758L221.979 370.209C221.927 370.212 221.875 370.212 221.82 370.212Z" fill="#21111D"/>
<path d="M242.924 327.165L242.649 326.801C246.737 323.82 247.378 318.844 247.384 318.796L247.841 318.85C247.838 318.901 247.173 324.064 242.924 327.165Z" fill="#21111D"/>
<path d="M242.02 324.996L241.745 324.633C244.722 322.462 245.193 318.833 245.199 318.796L245.656 318.85C245.639 319.006 245.162 322.706 242.02 324.996Z" fill="#21111D"/>
<path d="M210.42 353.731L210.414 353.279C210.59 353.276 227.994 353.054 233.504 351.037L233.666 351.46C228.078 353.506 211.137 353.722 210.42 353.731Z" fill="#21111D"/>
<path d="M210.42 357.544L210.411 357.092C210.602 357.089 229.489 356.72 233.018 354.862L233.235 355.259C229.61 357.169 211.203 357.53 210.42 357.544Z" fill="#21111D"/>
<path d="M211.368 361.457L211.365 361.005C211.536 361.002 228.483 360.829 233.024 358.522L233.235 358.922C228.599 361.278 212.071 361.451 211.368 361.457Z" fill="#21111D"/>
<path d="M182.841 305.335C182.821 305.335 182.801 305.335 182.783 305.332L171.828 304.414C171.449 304.383 171.169 304.053 171.201 303.681C171.232 303.309 171.568 303.033 171.946 303.064L182.902 303.982C183.28 304.014 183.561 304.343 183.529 304.715C183.497 305.068 183.197 305.335 182.841 305.335Z" fill="#FECC86"/>
<path d="M188.509 288.177C188.376 288.177 188.241 288.137 188.122 288.058L179.049 281.954C178.734 281.744 178.656 281.32 178.869 281.013C179.083 280.704 179.514 280.627 179.826 280.837L188.9 286.941C189.215 287.151 189.293 287.575 189.079 287.881C188.946 288.072 188.729 288.177 188.509 288.177Z" fill="#FECC86"/>
<path d="M204.911 275.867C204.639 275.867 204.382 275.708 204.272 275.444L200.133 265.43C199.988 265.083 200.159 264.688 200.511 264.549C200.864 264.407 201.266 264.574 201.407 264.921L205.547 274.935C205.691 275.282 205.521 275.677 205.168 275.816C205.084 275.853 204.997 275.867 204.911 275.867Z" fill="#FECC86"/>
<path d="M259.996 307.287C259.638 307.287 259.334 307.011 259.308 306.653C259.282 306.281 259.571 305.957 259.95 305.932L270.923 305.218C271.298 305.193 271.631 305.477 271.654 305.849C271.677 306.222 271.391 306.545 271.012 306.571L260.04 307.284C260.028 307.287 260.014 307.287 259.996 307.287Z" fill="#FECC86"/>
<path d="M254.663 290.027C254.438 290.027 254.218 289.919 254.088 289.72C253.88 289.408 253.966 288.987 254.284 288.782L263.476 282.849C263.794 282.644 264.222 282.73 264.43 283.042C264.638 283.355 264.552 283.775 264.234 283.98L255.042 289.913C254.923 289.99 254.79 290.027 254.663 290.027Z" fill="#FECC86"/>
<path d="M240.624 275.827C240.534 275.827 240.442 275.81 240.352 275.773C240.002 275.626 239.84 275.228 239.991 274.884L244.321 264.947C244.471 264.603 244.876 264.444 245.226 264.592C245.575 264.739 245.737 265.137 245.587 265.481L241.257 275.418C241.144 275.674 240.89 275.827 240.624 275.827Z" fill="#FECC86"/>
<path d="M222.962 270.568C222.959 270.568 222.957 270.568 222.951 270.568C222.569 270.562 222.266 270.255 222.272 269.88L222.442 259.07C222.448 258.701 222.754 258.403 223.13 258.403C223.133 258.403 223.136 258.403 223.142 258.403C223.523 258.408 223.827 258.715 223.821 259.09L223.65 269.9C223.645 270.272 223.338 270.568 222.962 270.568Z" fill="#FECC86"/>
<g opacity="0.5">
<g opacity="0.5">
<g opacity="0.5">
<path opacity="0.5" d="M242.487 295.45C243.571 293.797 241.594 290.648 238.073 288.417C234.552 286.187 230.819 285.718 229.735 287.371C228.652 289.024 230.628 292.173 234.149 294.403C237.67 296.634 241.403 297.103 242.487 295.45Z" fill="#F3FFFE"/>
</g>
</g>
</g>
<path d="M232.894 83.33H285.412C286.716 83.33 287.774 82.2899 287.774 81.0084V50.9525C287.774 49.6709 286.716 48.6309 285.412 48.6309H232.894C231.59 48.6309 230.532 49.6709 230.532 50.9525V81.0084C230.532 82.2899 231.59 83.33 232.894 83.33Z" fill="white"/>
<path d="M235.909 54.9477H283.641C283.97 54.9477 284.239 54.6834 284.239 54.3595C284.239 54.0355 283.97 53.7712 283.641 53.7712H235.909C235.579 53.7712 235.311 54.0355 235.311 54.3595C235.311 54.6834 235.576 54.9477 235.909 54.9477Z" fill="#596657"/>
<path d="M235.909 61.6257H283.641C283.97 61.6257 284.239 61.3614 284.239 61.0374C284.239 60.7135 283.97 60.4492 283.641 60.4492H235.909C235.579 60.4492 235.311 60.7135 235.311 61.0374C235.311 61.3642 235.576 61.6257 235.909 61.6257Z" fill="#596657"/>
<path d="M252.625 68.3063H283.638C283.967 68.3063 284.236 68.042 284.236 67.7181C284.236 67.3942 283.967 67.1299 283.638 67.1299H252.625C252.295 67.1299 252.026 67.3942 252.026 67.7181C252.026 68.042 252.295 68.3063 252.625 68.3063Z" fill="#596657"/>
<path d="M235.553 68.3063H247.928C248.257 68.3063 248.526 68.042 248.526 67.7181C248.526 67.3942 248.257 67.1299 247.928 67.1299H235.553C235.224 67.1299 234.955 67.3942 234.955 67.7181C234.955 68.042 235.224 68.3063 235.553 68.3063Z" fill="#596657"/>
<path d="M264.143 74.9841H283.637C283.967 74.9841 284.236 74.7198 284.236 74.3958C284.236 74.0719 283.967 73.8076 283.637 73.8076H264.143C263.814 73.8076 263.545 74.0719 263.545 74.3958C263.545 74.7198 263.814 74.9841 264.143 74.9841Z" fill="#596657"/>
<path d="M235.553 74.9841H259.773C260.103 74.9841 260.372 74.7198 260.372 74.3958C260.372 74.0719 260.103 73.8076 259.773 73.8076H235.553C235.224 73.8076 234.955 74.0719 234.955 74.3958C234.955 74.7198 235.224 74.9841 235.553 74.9841Z" fill="#596657"/>
<path d="M248.034 81.7954C247.976 82.0284 238.758 93.8154 238.7 93.4688C238.643 93.1221 239.764 80.8093 239.764 80.8093L248.034 81.7954Z" fill="white"/>
<path d="M225.933 435.604H133.808V436.317H225.933V435.604Z" fill="#21111D"/>
<g opacity="0.3">
<g opacity="0.3">
<g opacity="0.3">
<path opacity="0.3" d="M148.567 392.848C151.195 394.633 154.059 395.949 157.042 396.79L158.063 404.277L163.312 404.53L168.561 404.783L170.321 397.429C173.374 396.881 176.357 395.843 179.146 394.323L185.254 398.91L189.148 395.44L193.041 391.97L188.997 385.545C190.813 382.962 192.151 380.146 193.007 377.214L200.623 376.211L200.881 371.05L201.138 365.89L193.657 364.159C193.099 361.159 192.047 358.226 190.498 355.484L195.163 349.479L191.634 345.652L188.104 341.824L181.563 345.8C178.935 344.015 176.071 342.699 173.088 341.858L172.067 334.371L166.818 334.118L161.569 333.865L159.809 341.219C156.756 341.767 153.773 342.802 150.984 344.325L144.876 339.738L140.982 343.208L137.089 346.678L141.133 353.103C139.317 355.686 137.979 358.502 137.123 361.434L129.507 362.437L129.249 367.598L128.992 372.758L136.473 374.489C137.031 377.489 138.083 380.422 139.632 383.164L134.967 389.168L138.496 392.996L142.026 396.824L148.567 392.848ZM151.825 354.967C159.889 347.777 172.356 348.377 179.67 356.308C186.983 364.236 186.373 376.492 178.305 383.681C170.241 390.871 157.774 390.271 150.46 382.34C143.147 374.412 143.76 362.156 151.825 354.967Z" fill="#C16548"/>
</g>
</g>
</g>
</svg>
