<svg width="34" height="34" viewBox="0 0 34 34" fill="none" xmlns="http://www.w3.org/2000/svg">
<path d="M17 0C13.6377 0 10.3509 0.997032 7.55531 2.86502C4.75968 4.733 2.58074 7.38804 1.29406 10.4944C0.00736582 13.6007 -0.329291 17.0189 0.326658 20.3165C0.982606 23.6142 2.6017 26.6433 4.97919 29.0208C7.35668 31.3983 10.3858 33.0174 13.6835 33.6733C16.9811 34.3293 20.3993 33.9926 23.5056 32.7059C26.612 31.4193 29.267 29.2403 31.135 26.4447C33.003 23.6491 34 20.3623 34 17C34 12.4913 32.2089 8.1673 29.0208 4.97918C25.8327 1.79107 21.5087 0 17 0ZM17 30.7097C14.2885 30.7097 11.6379 29.9056 9.38332 28.3992C7.12877 26.8927 5.37157 24.7516 4.33392 22.2465C3.29626 19.7413 3.02477 16.9848 3.55376 14.3254C4.08275 11.666 5.38847 9.22313 7.3058 7.30579C9.22313 5.38846 11.666 4.08274 14.3254 3.55375C16.9848 3.02476 19.7414 3.29626 22.2465 4.33391C24.7516 5.37156 26.8927 7.12877 28.3992 9.38331C29.9056 11.6379 30.7097 14.2885 30.7097 17C30.7097 20.636 29.2653 24.1231 26.6942 26.6942C24.1231 29.2653 20.636 30.7097 17 30.7097Z" fill="#596657"/>
<path d="M15.3549 19.0618L11.582 15.2889L9.25684 17.6141L14.1923 22.5495C14.5008 22.8576 14.9189 23.0307 15.3549 23.0307C15.7909 23.0307 16.209 22.8576 16.5175 22.5495L25.2917 13.7754L22.9665 11.4502L15.3549 19.0618Z" fill="#596657"/>
</svg>
