<svg width="529" height="530" viewBox="0 0 529 530" fill="none" xmlns="http://www.w3.org/2000/svg">
<path d="M264.5 529.004C410.579 529.004 529 410.583 529 264.504C529 118.425 410.579 0.0039978 264.5 0.0039978C118.421 0.0039978 0 118.425 0 264.504C0 410.583 118.421 529.004 264.5 529.004Z" fill="#5C3DB5" fill-opacity="0.31"/>
<path d="M259.481 406.039C343.47 406.039 411.556 337.953 411.556 253.964C411.556 169.975 343.47 101.889 259.481 101.889C175.492 101.889 107.406 169.975 107.406 253.964C107.406 337.953 175.492 406.039 259.481 406.039Z" fill="#5C3DB5"  fill-opacity="0.71"/>
<path fill-rule="evenodd" clip-rule="evenodd" d="M269.188 188.921L334.906 119.97C339.865 114.771 351.971 99.2318 364.859 117.069L292.486 214.156L343.579 180.459C353.235 168.805 372.87 141.201 388.679 162.832L365.432 197.604L312.381 244.571C325.862 264.527 339.222 287.594 346.972 309.818C346.972 309.818 281.012 353.051 274.929 362.226C268.846 371.401 259.872 371.592 259.872 371.592L232.87 432.763C199.313 437.511 161.491 422.936 138.644 383.577L173.536 333.487C173.536 333.487 167.574 317.487 168.387 302.029C169.2 286.57 163.368 260.732 163.368 260.732L136.616 127.188C167.333 119.79 174.108 141.18 181.456 187.245C188.804 233.309 218.245 223.482 218.245 223.482L269.188 188.921Z" fill="#C16548"/>
<path fill-rule="evenodd" clip-rule="evenodd" d="M166.831 343.063L173.496 333.507C173.496 333.507 176.768 346.556 192.568 357.668C192.608 357.698 177.12 354.687 166.831 343.063Z" fill="#3B2F35"/>
<path fill-rule="evenodd" clip-rule="evenodd" d="M337.928 184.162L343.579 180.428C345.205 190.295 351.549 192.594 351.549 192.594C344.362 190.255 340.266 187.053 337.928 184.162Z" fill="#3B2F35"/>
<path fill-rule="evenodd" clip-rule="evenodd" d="M346.992 272.858L365.411 254.7C365.411 254.7 343.82 253.696 327.739 250.684C332.663 258.525 337.183 266.613 341.28 274.916L343.539 272.507C344.773 272.567 345.918 272.667 346.982 272.818L346.992 272.858Z" fill="#C16548"/>
<path fill-rule="evenodd" clip-rule="evenodd" d="M184.548 101.239L300.958 83.6626C304.122 83.1901 307.345 83.9906 309.92 85.8888C312.496 87.7871 314.214 90.6284 314.7 93.7909L351.629 338.145C352.096 341.31 351.292 344.531 349.393 347.105C347.493 349.68 344.653 351.399 341.491 351.887L225.051 369.473C221.898 369.92 218.696 369.106 216.139 367.208C213.582 365.311 211.875 362.482 211.389 359.335L174.409 114.981C173.943 111.816 174.747 108.595 176.646 106.02C178.545 103.446 181.386 101.727 184.548 101.239Z" fill="#FEFEFE"/>
<path fill-rule="evenodd" clip-rule="evenodd" d="M192.668 114.198L297.063 98.4282C299.901 98.0101 302.788 98.7303 305.097 100.432C307.406 102.133 308.949 104.678 309.39 107.513L342.515 326.591C342.933 329.427 342.212 332.314 340.511 334.621C338.809 336.928 336.264 338.469 333.431 338.907L229.006 354.687C226.167 355.105 223.278 354.383 220.969 352.68C218.659 350.976 217.118 348.429 216.679 345.593L183.554 126.524C183.136 123.682 183.861 120.791 185.569 118.481C187.276 116.171 189.829 114.631 192.668 114.198Z" fill="#CFE6E4"/>
<path fill-rule="evenodd" clip-rule="evenodd" d="M192.668 114.198L297.063 98.4282C299.901 98.0101 302.788 98.7303 305.097 100.432C307.406 102.133 308.949 104.678 309.39 107.513L342.515 326.591C342.933 329.427 342.212 332.314 340.511 334.621C338.809 336.928 336.264 338.469 333.431 338.907L229.006 354.687C226.167 355.105 223.278 354.383 220.969 352.68C218.659 350.976 217.118 348.429 216.679 345.593L183.554 126.524C183.136 123.682 183.861 120.791 185.569 118.481C187.276 116.171 189.829 114.631 192.668 114.198Z" fill="#D5E5F9"/>
<path fill-rule="evenodd" clip-rule="evenodd" d="M338.721 252.742L339.915 260.591C337.189 259.73 334.54 258.643 331.995 257.339C322.278 252.32 318.846 246.087 317.942 244.139C317.942 244.059 317.872 243.979 317.842 243.908L317.761 243.728V243.667C319.478 246.829 322.519 249.6 327.799 250.865H327.86H328.321H328.432H328.532H328.582H328.693H328.793H328.853L331.072 251.336C333.601 251.959 336.161 252.39 338.721 252.742Z" fill="#3B2F35"/>
<path fill-rule="evenodd" clip-rule="evenodd" d="M219.118 299.198L261.017 292.864C262.188 292.691 263.38 292.989 264.331 293.692C265.283 294.396 265.918 295.448 266.096 296.618C266.272 297.789 265.977 298.982 265.275 299.936C264.573 300.89 263.522 301.526 262.352 301.707L220.423 308.041C219.252 308.211 218.06 307.913 217.107 307.21C216.155 306.507 215.517 305.457 215.334 304.287C215.165 303.111 215.467 301.915 216.176 300.962C216.886 300.008 217.943 299.374 219.118 299.198Z" fill="#3B2F35"/>
<path fill-rule="evenodd" clip-rule="evenodd" d="M292.054 288.176L299.352 287.072C300.524 286.899 301.717 287.197 302.67 287.9C303.624 288.603 304.26 289.655 304.441 290.826C304.617 291.999 304.32 293.193 303.616 294.147C302.912 295.101 301.859 295.737 300.687 295.915L293.389 297.02C292.218 297.19 291.026 296.891 290.073 296.188C289.12 295.485 288.483 294.435 288.3 293.265C288.127 292.093 288.425 290.9 289.128 289.947C289.831 288.994 290.883 288.357 292.054 288.176Z" fill="#3B2F35"/>
<path fill-rule="evenodd" clip-rule="evenodd" d="M292.747 304.116L250.848 310.44C249.678 310.621 248.627 311.257 247.925 312.211C247.224 313.165 246.928 314.358 247.104 315.529C247.283 316.699 247.917 317.751 248.869 318.455C249.821 319.158 251.013 319.456 252.184 319.283L294.082 312.949C295.253 312.769 296.305 312.132 297.008 311.179C297.711 310.225 298.009 309.032 297.836 307.86C297.655 306.69 297.018 305.639 296.065 304.937C295.111 304.235 293.918 303.94 292.747 304.116Z" fill="#3B2F35"/>
<path fill-rule="evenodd" clip-rule="evenodd" d="M235.721 312.728L221.487 314.876C220.318 315.06 219.267 315.697 218.565 316.65C217.862 317.603 217.563 318.794 217.733 319.966C217.916 321.135 218.554 322.186 219.506 322.889C220.459 323.591 221.651 323.89 222.822 323.72L237.056 321.562C238.228 321.383 239.282 320.747 239.986 319.793C240.689 318.839 240.986 317.645 240.81 316.473C240.63 315.302 239.993 314.251 239.039 313.55C238.085 312.848 236.892 312.553 235.721 312.728Z" fill="#3B2F35"/>
<path fill-rule="evenodd" clip-rule="evenodd" d="M245.418 271.071C247.212 270.8 249.047 271.066 250.69 271.837C252.332 272.609 253.71 273.85 254.647 275.404C255.584 276.958 256.04 278.755 255.956 280.567C255.872 282.38 255.252 284.127 254.175 285.588C253.098 287.049 251.611 288.157 249.904 288.773C248.197 289.389 246.346 289.484 244.584 289.048C242.823 288.611 241.23 287.662 240.008 286.321C238.786 284.979 237.989 283.305 237.719 281.511C237.356 279.105 237.963 276.655 239.407 274.697C240.851 272.739 243.013 271.435 245.418 271.071Z" fill="white"/>
<path fill-rule="evenodd" clip-rule="evenodd" d="M270.613 267.256C272.407 266.985 274.242 267.251 275.885 268.023C277.528 268.794 278.905 270.035 279.842 271.589C280.78 273.143 281.235 274.94 281.151 276.753C281.067 278.566 280.447 280.313 279.37 281.773C278.293 283.234 276.807 284.342 275.1 284.958C273.392 285.574 271.541 285.67 269.78 285.233C268.018 284.797 266.425 283.848 265.203 282.506C263.981 281.164 263.185 279.49 262.914 277.696C262.554 275.291 263.162 272.842 264.606 270.885C266.049 268.928 268.209 267.623 270.613 267.256Z" fill="white"/>
<path fill-rule="evenodd" clip-rule="evenodd" d="M318.203 260.07C319.997 259.798 321.832 260.065 323.475 260.836C325.118 261.607 326.495 262.848 327.432 264.402C328.37 265.956 328.825 267.753 328.741 269.566C328.657 271.379 328.037 273.126 326.96 274.587C325.883 276.047 324.397 277.155 322.69 277.771C320.982 278.387 319.131 278.483 317.369 278.046C315.608 277.61 314.015 276.661 312.793 275.319C311.571 273.978 310.775 272.304 310.504 270.509C310.144 268.104 310.752 265.655 312.196 263.698C313.639 261.741 315.799 260.436 318.203 260.07Z" fill="white"/>
<path fill-rule="evenodd" clip-rule="evenodd" d="M184.498 100.878L300.938 83.2811C304.19 82.8106 307.497 83.6403 310.143 85.5905C312.788 87.5406 314.559 90.4543 315.071 93.7005L351.991 338.044C352.475 341.305 351.649 344.626 349.693 347.279C347.737 349.933 344.81 351.705 341.551 352.208L225.111 369.794C221.85 370.278 218.53 369.452 215.876 367.496C213.222 365.54 211.45 362.613 210.948 359.355L174.048 115.041C173.564 111.779 174.392 108.457 176.35 105.803C178.308 103.149 181.237 101.378 184.498 100.878ZM301.018 84.0139L184.578 101.6C181.51 102.071 178.753 103.738 176.911 106.236C175.07 108.735 174.293 111.861 174.751 114.931L211.67 359.275C212.146 362.34 213.814 365.094 216.311 366.934C218.808 368.775 221.932 369.554 225.001 369.102L341.441 351.515C344.507 351.04 347.26 349.372 349.101 346.875C350.942 344.378 351.721 341.254 351.268 338.185L314.338 93.841C313.868 90.775 312.202 88.0201 309.706 86.1785C307.21 84.337 304.086 83.5587 301.018 84.0139Z" fill="#3B2F35"/>
<path d="M325.816 252.363L210.623 269.764L210.732 270.489L325.926 253.088L325.816 252.363Z" fill="#3B2F35"/>
<path fill-rule="evenodd" clip-rule="evenodd" d="M185.762 203.636C187.29 213.266 187.496 223.06 186.375 232.746C184.106 250.353 177.34 356.554 211.158 360.348C211.085 360.027 211.024 359.693 210.978 359.345L188.242 208.936C187.311 207.22 186.483 205.45 185.762 203.636ZM256.249 379.912L259.832 371.571C260.388 371.539 260.941 371.472 261.489 371.37L261.408 370.015L261.057 364.404L228.283 369.353C237.488 371.41 247.375 375.536 256.249 379.912Z" fill="#3B2F35"/>
<path fill-rule="evenodd" clip-rule="evenodd" d="M364.117 226.583L316.306 228.902C316.306 228.902 311.628 246.869 327.739 250.724C343.85 254.579 365.412 254.739 365.412 254.739C365.412 254.739 389.844 236.852 364.117 226.583Z" fill="#F28E50"/>
<path fill-rule="evenodd" clip-rule="evenodd" d="M350.917 267.096L305.415 279.975C306.549 302.279 338.921 294.028 349.11 293.526C349.07 293.526 372.739 281.099 350.917 267.096Z" fill="#F28E50"/>
<path fill-rule="evenodd" clip-rule="evenodd" d="M243.169 95.176C244.128 95.0318 245.107 95.1751 245.984 95.5876C246.86 96.0001 247.595 96.6633 248.095 97.4934C248.594 98.3235 248.837 99.2831 248.791 100.251C248.746 101.219 248.414 102.151 247.838 102.931C247.262 103.71 246.469 104.301 245.557 104.629C244.645 104.957 243.657 105.008 242.716 104.774C241.776 104.54 240.926 104.033 240.274 103.316C239.622 102.599 239.198 101.705 239.054 100.747C238.861 99.4625 239.186 98.1541 239.958 97.1093C240.73 96.0646 241.885 95.3692 243.169 95.176Z" fill="#3B2F35"/>
<path fill-rule="evenodd" clip-rule="evenodd" d="M248.781 100.376C248.7 101.484 248.246 102.532 247.492 103.347C246.738 104.163 245.729 104.698 244.631 104.865C243.533 105.032 242.41 104.821 241.448 104.266C240.486 103.711 239.741 102.845 239.335 101.811C239.415 100.704 239.87 99.6558 240.624 98.8402C241.378 98.0245 242.386 97.4893 243.485 97.3225C244.583 97.1556 245.705 97.3669 246.667 97.9217C247.63 98.4765 248.375 99.342 248.781 100.376Z" fill="#FEFEFE"/>
<path fill-rule="evenodd" clip-rule="evenodd" d="M243.109 94.8145C244.315 94.6304 245.547 94.8703 246.596 95.4933C247.645 96.1162 248.445 97.0837 248.86 98.2306C249.275 99.3776 249.279 100.633 248.872 101.783C248.465 102.933 247.672 103.906 246.628 104.536C245.583 105.166 244.353 105.415 243.145 105.239C241.938 105.063 240.83 104.474 240.008 103.573C239.187 102.671 238.704 101.512 238.642 100.294C238.579 99.0755 238.941 97.8734 239.666 96.8924C240.073 96.3344 240.587 95.8632 241.178 95.5064C241.769 95.1496 242.426 94.9144 243.109 94.8145ZM246.592 96.3704C245.751 95.7451 244.719 95.4304 243.672 95.4799C242.624 95.5294 241.627 95.94 240.848 96.6419C240.069 97.3438 239.558 98.2937 239.4 99.3301C239.243 100.367 239.449 101.426 239.984 102.327C240.519 103.229 241.349 103.917 242.335 104.276C243.32 104.634 244.399 104.64 245.388 104.293C246.377 103.946 247.216 103.267 247.761 102.372C248.306 101.477 248.525 100.42 248.379 99.3818C248.295 98.7867 248.094 98.2141 247.787 97.6972C247.48 97.1803 247.074 96.7294 246.592 96.3704Z" fill="#3B2F35"/>
<path fill-rule="evenodd" clip-rule="evenodd" d="M193.321 118.203L297.716 102.424C300.555 102.006 303.444 102.727 305.753 104.431C308.062 106.135 309.604 108.682 310.042 111.518L309.44 107.503C308.987 104.678 307.439 102.145 305.132 100.454C302.824 98.7631 299.943 98.0497 297.113 98.4687L192.719 114.238C189.883 114.677 187.335 116.219 185.632 118.528C183.928 120.837 183.206 123.726 183.624 126.565L184.237 130.58C184.018 129.171 184.08 127.732 184.419 126.347C184.758 124.961 185.366 123.656 186.21 122.507C187.054 121.357 188.117 120.385 189.337 119.646C190.557 118.908 191.911 118.418 193.321 118.203Z" fill="#3B2F35"/>
<path fill-rule="evenodd" clip-rule="evenodd" d="M343.609 216.896C330.901 208.795 330.329 189.171 330.329 189.171L329.566 189.673L334.856 224.655L343.609 216.896Z" fill="#3B2F35"/>
<path fill-rule="evenodd" clip-rule="evenodd" d="M326.394 168.664L331.252 162.13C324.898 153.798 322.058 139.464 321.214 134.345L326.394 168.664Z" fill="#3B2F35"/>
<path fill-rule="evenodd" clip-rule="evenodd" d="M348.277 267.839C344.808 263.45 342.258 258.408 340.778 253.013L339.102 252.792L341.662 269.706L348.277 267.839Z" fill="#3B2F35"/>
<path fill-rule="evenodd" clip-rule="evenodd" d="M122.162 258.805C122.843 258.705 123.539 258.809 124.162 259.103C124.784 259.397 125.306 259.869 125.661 260.459C126.017 261.049 126.19 261.731 126.159 262.419C126.128 263.107 125.894 263.77 125.487 264.326C125.08 264.881 124.518 265.304 123.871 265.541C123.225 265.778 122.523 265.819 121.853 265.658C121.183 265.497 120.576 265.142 120.108 264.637C119.64 264.132 119.331 263.5 119.221 262.82C119.145 262.363 119.162 261.895 119.269 261.444C119.377 260.993 119.573 260.569 119.847 260.195C120.121 259.821 120.467 259.505 120.865 259.267C121.262 259.028 121.703 258.871 122.162 258.805Z" fill="#5C3DB5"/>
<path fill-rule="evenodd" clip-rule="evenodd" d="M415.852 353.683C416.636 353.568 417.437 353.688 418.153 354.027C418.869 354.365 419.469 354.909 419.877 355.588C420.285 356.267 420.483 357.052 420.447 357.843C420.41 358.635 420.139 359.397 419.67 360.036C419.2 360.674 418.552 361.159 417.808 361.43C417.063 361.7 416.255 361.745 415.485 361.557C414.715 361.369 414.018 360.958 413.481 360.375C412.945 359.792 412.593 359.064 412.469 358.281C412.387 357.757 412.409 357.221 412.535 356.705C412.66 356.19 412.887 355.704 413.202 355.276C413.516 354.849 413.912 354.488 414.367 354.215C414.822 353.941 415.327 353.761 415.852 353.683Z" fill="#5C3DB5"/>
<path fill-rule="evenodd" clip-rule="evenodd" d="M159.884 97.4244C161.025 97.2507 162.192 97.4191 163.237 97.9086C164.282 98.398 165.158 99.1864 165.755 100.174C166.351 101.162 166.642 102.304 166.589 103.457C166.536 104.609 166.143 105.72 165.458 106.649C164.774 107.578 163.829 108.283 162.744 108.675C161.659 109.067 160.482 109.128 159.362 108.851C158.241 108.574 157.229 107.971 156.452 107.118C155.675 106.265 155.168 105.2 154.996 104.06C154.766 102.532 155.151 100.975 156.068 99.7306C156.984 98.4866 158.357 97.6572 159.884 97.4244Z" fill="#5C3DB5"/>
<path fill-rule="evenodd" clip-rule="evenodd" d="M306.981 286.61C306.981 286.61 311.146 302.771 346.058 301.296L344.944 293.918C333.792 295.283 312.943 298.716 306.981 286.61Z" fill="#3B2F35"/>
</svg>
