<svg width="510" height="510" viewBox="0 0 510 510" fill="none" xmlns="http://www.w3.org/2000/svg">
<path d="M107.034 195.33C105.606 197.717 102.617 198.727 100.047 199.242C96.7623 199.915 93.3657 200.093 90.0405 200.389L88.1076 200.863C87.7418 200.976 87.4019 201.16 87.1074 201.405C86.8128 201.649 86.5695 201.95 86.3913 202.288C86.2132 202.627 86.1037 202.998 86.0691 203.379C86.0346 203.76 86.0757 204.145 86.19 204.51C87.386 208.625 89.0313 212.597 91.0962 216.352L88.0362 219.412C87.1692 218.239 87.1284 216.184 85.9656 216.383C84.8487 215.266 83.5227 214.72 82.1508 216.214C79.4682 219.147 79.9017 225.241 83.844 226.924L82.9617 231.316C82.6575 232.851 81.8305 234.233 80.6217 235.227C79.4128 236.221 77.8968 236.766 76.3317 236.767L77.01 231.571C72.42 233.891 67.2129 228.873 67.575 224.737C67.8096 221.901 67.167 219.943 65.0709 217.887C64.9332 217.75 65.7747 217.24 65.6472 217.102C65.0556 215.312 64.9741 213.221 65.5606 212.038C66.5806 209.926 69.5844 208.692 68.2023 206.387C67.5957 205.382 67.1532 204.287 66.8917 203.143C66.6141 201.626 66.6649 200.068 67.0406 198.572C67.4162 197.077 68.108 195.679 69.0693 194.473C71.1093 192.025 74.4244 192.683 77.1325 191.816C80.4321 190.796 81.957 187.262 85.4097 186.17C87.1284 185.625 88.7196 185.875 90.4383 186.267C91.8918 186.604 93.33 186.981 94.758 187.43C96.186 187.879 97.4406 188.251 98.838 187.833C100.684 187.323 102.107 185.599 104.122 185.584C105.127 185.561 106.111 185.875 106.916 186.476C108.406 189.154 108.416 193.04 107.034 195.33Z" fill="#0FBE73"/>
<path d="M43.9162 264.384C43.9162 264.384 -11.6076 203.143 70.1608 172.584C74.9023 170.845 79.844 169.711 84.8692 169.208C97.9201 167.821 126.771 162.889 130.096 146.232" stroke="#CCDDE2" stroke-miterlimit="10"/>
<path d="M276.996 178.653V178.638" stroke="#CCDDE2" stroke-miterlimit="10"/>
<path d="M131.31 288.92V288.905" stroke="black" stroke-miterlimit="10"/>
<path d="M87.8986 219.004C87.3551 218.065 86.7085 217.189 85.9708 216.393C84.8539 215.276 83.5279 214.73 82.156 216.225C79.4734 219.157 79.9069 225.252 83.8492 226.935L82.9669 231.326C82.6626 232.861 81.8357 234.243 80.6268 235.237C79.418 236.231 77.902 236.776 76.3369 236.778" stroke="black" stroke-linecap="round" stroke-linejoin="round"/>
<path d="M73.8682 256.209C74.0926 254.505 74.6485 250.033 75.184 245.769C75.694 241.816 76.1479 238.012 76.3264 236.757L77.0098 231.571" stroke="black" stroke-linecap="round" stroke-linejoin="round"/>
<path d="M105.356 205.102C105.356 205.102 98.8432 205.423 97.5835 210.814" stroke="black" stroke-miterlimit="10"/>
<path d="M107.722 219.346C109.497 219.3 111.802 219.04 112.639 217.24L108.151 212.288C107.056 211.074 106.408 209.523 106.315 207.891C106.136 205.153 106.457 200.807 103.836 197.916" stroke="black" stroke-miterlimit="10"/>
<path d="M103.885 212.49C104.619 211.677 104.656 210.513 103.966 209.89C103.277 209.266 102.122 209.42 101.387 210.233C100.653 211.046 100.616 212.21 101.306 212.833C101.995 213.457 103.15 213.303 103.885 212.49Z" fill="black"/>
<path d="M103.443 251.874L100.062 235.482" stroke="black" stroke-miterlimit="10"/>
<path d="M189.159 325.645L167.367 343.465C193.586 383.449 173.742 390.788 173.742 390.788C169.892 391.524 166.005 392.047 162.098 392.353C143.147 393.72 123.706 388.829 108.084 377.874C76.4643 355.689 48.9243 311.289 63.6123 272.631C64.8482 269.361 66.358 266.201 68.1258 263.186C69.649 260.564 71.5885 258.208 73.8684 256.209C77.8586 252.716 82.7725 250.449 88.0197 249.681C93.267 248.913 98.6244 249.676 103.448 251.879C105.295 252.722 107.042 253.769 108.655 255C116.912 261.319 124.42 270.3 130.891 279.725C136.638 288.248 141.809 297.145 146.37 306.357C147.63 308.871 148.772 311.248 149.782 313.426C158.936 309.723 166.612 303.435 173.752 296.642C165.118 312.758 189.159 325.645 189.159 325.645Z" fill="#353642"/>
<path d="M173.91 338.681C173.492 339.002 173.058 339.339 172.625 339.66" stroke="black" stroke-miterlimit="10"/>
<path d="M109.482 270.938C115.262 282.004 121.042 293.092 126.822 304.2C131.182 312.584 138.552 317.761 148.93 313.788C160.222 309.463 169.33 301.196 177.756 292.771C186.181 284.345 194.718 276.287 206.882 274.115C222.605 271.305 237.482 279.873 248.192 290.7C249.016 291.526 249.537 292.605 249.671 293.764C249.805 294.923 249.545 296.093 248.931 297.085C248.538 297.72 248.012 298.262 247.39 298.675C246.768 299.088 246.064 299.363 245.326 299.479C244.589 299.596 243.835 299.552 243.116 299.351C242.396 299.15 241.729 298.797 241.159 298.314C236.084 293.984 227.827 287.722 222.085 287.64" stroke="black" stroke-miterlimit="10"/>
<path d="M206.417 302.496C208.182 303.674 210.63 304.98 212.67 304.98" stroke="black" stroke-miterlimit="10"/>
<path d="M229.031 289.787C232.794 291.649 234.166 297.095 231.509 300.349C228.14 304.53 223.919 307.944 219.126 310.366C213.884 312.982 210.518 311.386 205.356 308.193" stroke="black" stroke-miterlimit="10"/>
<path d="M220.32 294.668C220.32 294.668 227.776 296.514 227.577 303.751C227.564 304.059 227.509 304.365 227.414 304.659" stroke="black" stroke-miterlimit="10"/>
<path d="M215.052 299.227C215.052 299.227 225.053 305.689 220.295 309.754" stroke="black" stroke-miterlimit="10"/>
<path d="M408.245 324.554C396.464 356.934 363.482 357.847 359.708 357.847C361.289 354.516 361.717 348.667 358.254 338.416C360.574 335.028 361.795 331.008 361.753 326.903C361.71 322.797 360.405 318.804 358.015 315.466C358.061 315.425 358.086 315.369 358.127 315.328C359.776 315.227 361.413 314.98 363.018 314.588C368.709 313.232 379.929 310.253 388.834 306.061C394.872 303.21 401.915 307.78 401.4 314.446C401.4 314.532 401.4 314.614 401.37 314.711C402.549 314.71 403.71 314.994 404.756 315.538C405.802 316.083 406.7 316.872 407.375 317.839C408.05 318.805 408.482 319.92 408.633 321.09C408.785 322.259 408.651 323.447 408.245 324.554Z" fill="#0FBE73"/>
<path d="M257.065 400.498C253.098 407.306 246.922 413.105 240.955 418.164C219.948 435.943 192.505 444.97 164.965 445.322C137.333 444.97 109.788 435.912 88.6838 418.292C22.0013 362.61 34.0526 296.866 44.8391 266.424C45.2191 265.371 45.7333 264.372 46.3691 263.451C47.2125 262.217 48.3074 261.175 49.582 260.395C50.8565 259.614 52.2818 259.112 53.7641 258.922C59.4251 259.702 64.5659 264.399 63.6581 271.672C63.6581 271.952 63.5459 272.34 63.5204 272.62C48.8426 311.278 76.3928 355.679 107.992 377.864C122.329 387.926 139.883 392.873 157.325 392.552H157.524C159.02 392.521 160.514 392.452 162.007 392.343C171.804 391.629 181.325 389.283 190.755 386.442C201.822 383.132 212.767 379.119 223.824 376.309C227.71 375.319 231.606 374.365 235.523 373.473C237.783 373.009 240.095 372.849 242.398 372.999C255.979 373.917 265.521 385.993 257.065 400.498Z" fill="#EAFFEF"/>
<path d="M260.421 400.498C256.453 407.306 250.272 413.105 244.305 418.164C222.462 436.667 193.642 445.704 164.949 445.322C137.317 444.97 109.772 435.912 88.6684 418.292C22.0012 362.61 34.0525 296.866 44.839 266.424C45.2189 265.371 45.7332 264.372 46.369 263.451C47.2124 262.217 48.3073 261.175 49.5819 260.395C50.8564 259.614 52.2817 259.112 53.764 258.922C59.425 259.702 64.5658 264.399 63.658 271.672C63.658 271.952 63.5458 272.34 63.5203 272.62C48.8425 311.278 76.3927 355.679 107.992 377.864C122.328 387.926 139.883 392.873 157.325 392.552H157.523C160.152 392.593 162.765 392.523 165.362 392.343C175.159 391.629 184.676 389.283 194.111 386.442C205.178 383.132 216.122 379.119 227.179 376.309C231.06 375.319 234.962 374.365 238.874 373.473C240.036 373.235 241.214 373.077 242.398 372.999C257.667 371.974 269.56 384.82 260.421 400.498Z" fill="#EAFFEF"/>
<path d="M169.555 445.23L176.266 454.726C176.266 454.726 216.878 456.307 239.103 474.963C243.214 478.416 240.756 485.122 235.391 485.122C234.045 485.127 232.742 484.653 231.714 483.786C226.466 479.38 206.418 465.528 161.068 465.11C116.882 464.697 99.9347 478.37 95.2478 483.353C94.7132 483.915 94.0691 484.362 93.3552 484.667C92.6412 484.971 91.8725 485.126 91.0964 485.122H90.2243C84.7163 485.122 82.3856 478.166 86.7359 474.79C105.29 460.362 146.88 455.762 146.88 455.762L153.979 445.052" fill="#353642"/>
<path d="M349.283 392.573C349.283 392.573 361.722 404.389 357.841 441.022C357.559 443.638 356.649 446.147 355.189 448.336L353.838 450.376C351.622 453.695 348.279 456.101 344.428 457.149C336.304 459.367 321.565 464.508 312.461 474.249C308.616 478.375 311.477 485.097 317.118 485.097C318.17 485.099 319.206 484.842 320.134 484.347C321.062 483.853 321.853 483.136 322.437 482.261C326.145 476.682 337.37 464.834 364.446 465.084C394.985 465.365 407.286 477.508 411.228 482.74C411.773 483.47 412.48 484.063 413.293 484.472C414.107 484.881 415.004 485.095 415.915 485.097C417.056 485.094 418.172 484.759 419.126 484.132C420.079 483.505 420.829 482.613 421.284 481.566C421.738 480.519 421.877 479.362 421.683 478.237C421.49 477.112 420.972 476.068 420.194 475.233C408.285 462.295 393.72 457.47 385.682 455.68C381.644 454.809 378.077 452.461 375.681 449.096C373.847 446.5 372.804 443.428 372.677 440.252C372.228 428.895 371.994 401.324 379.69 392.583" fill="#353642"/>
<path d="M190.857 386.458C212.731 375.839 236.472 368.873 259.815 362.314C283.305 355.715 307.025 349.957 330.817 344.546C340.323 342.388 349.916 340.466 359.377 338.033" stroke="black" stroke-miterlimit="10"/>
<path d="M211.38 304.832H211.395H211.406" stroke="black" stroke-miterlimit="10"/>
<path d="M208.927 303.45C207.555 304.807 202.659 312.054 201.43 313.354C194.677 320.591 187.505 327.423 179.948 333.815C178.046 335.396 176.032 337.028 173.91 338.681C173.492 339.002 173.058 339.339 172.625 339.66C158.243 350.574 139.475 361.08 122.135 354.348C121.676 354.18 121.227 353.986 120.783 353.787C94.1869 341.879 75.5974 312.054 73.9756 283.264C73.9195 282.326 73.8889 281.393 73.8787 280.469C73.7359 272.6 74.8987 264.731 82.4467 260.579" stroke="black" stroke-miterlimit="10"/>
<path d="M63.6531 272.518L63.7602 271.682C65.4534 258.106 46.1754 253.526 41.6007 266.424C30.8193 296.861 18.7629 362.59 85.4607 418.282C128.51 454.242 198.206 454.492 241.092 418.164C247.059 413.11 253.235 407.301 257.208 400.493C267.26 383.275 251.909 369.469 234.595 373.708" stroke="black" stroke-miterlimit="10"/>
<path d="M169.555 445.23L176.266 454.726C176.266 454.726 216.878 456.307 239.103 474.963C243.214 478.416 240.756 485.122 235.391 485.122C234.045 485.127 232.742 484.653 231.714 483.786C226.466 479.38 206.418 465.528 161.068 465.11C116.882 464.697 99.9347 478.37 95.2478 483.353C94.7132 483.915 94.0691 484.362 93.3552 484.667C92.6412 484.971 91.8725 485.126 91.0964 485.122H90.2243C84.7163 485.122 82.3856 478.166 86.7359 474.79C105.29 460.362 146.88 455.762 146.88 455.762L153.979 445.052" stroke="black" stroke-miterlimit="10"/>
<path d="M146.88 305.541C163.904 300.951 170.916 276.935 173.742 260.788" stroke="black" stroke-miterlimit="10"/>
<path d="M130.876 279.74C135.605 279.121 140.096 277.299 143.921 274.449C147.745 271.599 150.774 267.816 152.719 263.461C153.126 262.595 153.324 261.645 153.298 260.689C153.271 259.732 153.021 258.795 152.566 257.953C150.71 254.516 147.941 250.532 148.598 246.412C149.073 243.505 151.465 241.46 154.208 240.802C155.599 240.437 157.064 240.462 158.442 240.873C159.267 241.107 160.03 241.522 160.676 242.087C161.322 242.653 161.834 243.355 162.175 244.142C162.843 245.708 162.047 247.258 160.818 248.278C159.589 249.298 158.151 249.66 156.651 250.068C156.458 250.124 155.927 250.237 155.341 250.349" stroke="black" stroke-miterlimit="10"/>
<path d="M359.356 338.023C359.356 338.023 392.914 330.995 399.218 320.872C400.399 319.026 401.136 316.931 401.37 314.752" stroke="black" stroke-miterlimit="10"/>
<path d="M194.228 320.734C252.761 314.517 318.826 315.435 318.826 315.435H355.903C358.3 315.438 360.688 315.157 363.018 314.599C368.709 313.242 379.929 310.269 388.834 306.071C394.872 303.22 401.916 307.79 401.4 314.461C401.4 314.542 401.4 314.629 401.37 314.726C402.546 314.726 403.705 315.01 404.749 315.554C405.792 316.097 406.689 316.884 407.364 317.848C408.038 318.812 408.471 319.924 408.624 321.091C408.777 322.257 408.647 323.443 408.245 324.549C395.739 358.918 359.356 357.842 359.356 357.842C354.705 357.979 350.064 358.163 345.408 358.402C304.388 360.397 263.731 366.154 223.931 376.319C212.874 379.129 201.929 383.137 190.862 386.452C181.427 389.303 171.895 391.634 162.098 392.348C143.147 393.72 123.705 388.824 108.084 377.869C73.8682 353.858 44.4208 303.797 68.1256 263.16C76.4947 248.819 95.4463 244.892 108.655 255C127.286 269.254 142.167 297.024 149.802 313.405" stroke="black" stroke-miterlimit="10"/>
<path d="M407.469 392.573H326.012" stroke="black" stroke-miterlimit="10"/>
<path d="M309.57 376.12C309.582 371.76 311.319 367.581 314.402 364.498C317.484 361.414 321.662 359.676 326.022 359.662H407.49C411.851 359.674 416.03 361.412 419.114 364.496C422.198 367.58 423.935 371.759 423.948 376.12V376.12" stroke="black" stroke-miterlimit="10"/>
<path d="M425.549 381.954C425.553 383.35 425.281 384.733 424.748 386.024C424.216 387.314 423.433 388.486 422.446 389.473C421.459 390.46 420.286 391.242 418.995 391.774C417.705 392.306 416.322 392.577 414.926 392.573H318.536C316.123 392.344 313.896 391.178 312.334 389.325C310.772 387.472 309.999 385.08 310.182 382.663C310.365 380.247 311.489 377.998 313.313 376.402C315.136 374.805 317.513 373.988 319.933 374.126H416.323C418.034 374.123 419.72 374.535 421.237 375.326C422.754 376.118 424.057 377.265 425.034 378.67C425.375 379.731 425.549 380.839 425.549 381.954Z" fill="#EAFFEF"/>
<path d="M425.549 381.954C425.553 383.35 425.281 384.733 424.748 386.024C424.216 387.314 423.434 388.486 422.446 389.473C421.459 390.46 420.286 391.242 418.995 391.774C417.705 392.306 416.322 392.577 414.926 392.573H318.536C317.121 392.604 315.715 392.352 314.399 391.832C313.084 391.312 311.885 390.535 310.874 389.545C309.863 388.556 309.059 387.375 308.511 386.071C307.962 384.767 307.68 383.366 307.68 381.952C307.68 380.537 307.962 379.137 308.511 377.833C309.059 376.529 309.863 375.347 310.874 374.358C311.885 373.369 313.084 372.591 314.399 372.072C315.715 371.552 317.121 371.3 318.536 371.331H414.926C417.17 371.33 419.356 372.039 421.172 373.358C422.988 374.676 424.34 376.536 425.034 378.67C425.375 379.731 425.549 380.839 425.549 381.954V381.954Z" stroke="black" stroke-miterlimit="10"/>
<path d="M173.558 260.411L173.364 262.048C173.276 262.791 172.918 263.476 172.359 263.973C171.8 264.47 171.078 264.745 170.33 264.746H159.737C158.989 264.745 158.267 264.47 157.708 263.973C157.149 263.476 156.791 262.791 156.703 262.048L155.336 250.318C155.922 250.206 156.453 250.094 156.647 250.038C158.146 249.63 159.599 249.283 160.813 248.248C162.027 247.212 162.853 245.698 162.17 244.111C161.829 243.324 161.317 242.622 160.671 242.057C160.026 241.491 159.262 241.076 158.437 240.842C157.059 240.431 155.595 240.407 154.204 240.771L153.882 237.976C153.835 237.549 153.878 237.117 154.009 236.708C154.14 236.298 154.356 235.921 154.642 235.601C154.928 235.28 155.279 235.024 155.671 234.848C156.063 234.672 156.487 234.581 156.917 234.58H173.171C173.6 234.581 174.024 234.673 174.415 234.85C174.807 235.026 175.156 235.282 175.442 235.603C175.728 235.923 175.943 236.3 176.074 236.709C176.204 237.118 176.247 237.55 176.2 237.976L175.823 241.164" stroke="black" stroke-miterlimit="10"/>
<path d="M174.971 248.452L174.956 248.564" stroke="black" stroke-miterlimit="10"/>
<path d="M174.175 255.189V255.143" stroke="black" stroke-miterlimit="10"/>
<path d="M174.328 255.189C174.283 255.181 174.236 255.181 174.191 255.189C174.126 255.181 174.061 255.181 173.997 255.189C173.336 255.191 172.7 255.441 172.215 255.89C171.73 256.339 171.431 256.954 171.378 257.613C171.325 258.272 171.521 258.927 171.927 259.448C172.334 259.969 172.922 260.318 173.574 260.426C173.855 260.483 174.144 260.483 174.425 260.426C175.698 260.223 176.86 259.581 177.71 258.611C178.842 256.749 179.628 254.698 180.03 252.557C180.037 252.536 180.037 252.512 180.03 252.491C180.341 250.913 180.459 249.303 180.382 247.697C180.382 247.008 180.295 246.325 180.214 245.657C180.058 244.539 179.547 243.501 178.757 242.696C177.966 241.89 176.937 241.36 175.823 241.184C175.767 241.184 175.7 241.184 175.644 241.154C173.502 240.888 170.498 241.699 169.942 244.117C169.432 246.299 171.799 248.171 173.742 248.339C173.742 248.339 174.252 248.406 174.971 248.452C176.409 248.549 178.801 248.533 180.382 247.697C180.615 247.576 180.834 247.431 181.035 247.263" stroke="black" stroke-miterlimit="10"/>
<path d="M176.562 248.569H176.21H173.492H172.293C171.483 248.572 170.704 248.884 170.117 249.443C169.53 250.002 169.179 250.764 169.136 251.573V251.573C169.097 252.359 169.35 253.132 169.848 253.743C170.345 254.353 171.051 254.757 171.829 254.878C175.348 255.444 179.367 255.561 180.055 252.409" stroke="black" stroke-miterlimit="10"/>
<path d="M349.283 392.573C349.283 392.573 361.722 404.389 357.841 441.022C357.559 443.638 356.649 446.147 355.189 448.336L353.838 450.376C351.622 453.695 348.279 456.101 344.428 457.149C336.304 459.367 321.565 464.508 312.461 474.249C308.616 478.375 311.477 485.097 317.118 485.097C318.17 485.099 319.206 484.842 320.134 484.347C321.062 483.853 321.853 483.136 322.437 482.261C326.145 476.682 337.37 464.834 364.446 465.084C394.985 465.365 407.286 477.508 411.228 482.74C411.773 483.47 412.48 484.063 413.293 484.472C414.107 484.881 415.004 485.095 415.915 485.097V485.097C417.056 485.094 418.172 484.759 419.126 484.132C420.079 483.505 420.829 482.613 421.284 481.566C421.738 480.519 421.877 479.362 421.683 478.237C421.49 477.112 420.972 476.068 420.194 475.233C408.285 462.295 393.72 457.47 385.682 455.68C381.644 454.809 378.077 452.461 375.681 449.096C373.847 446.5 372.804 443.428 372.677 440.252C372.228 428.895 371.994 401.324 379.69 392.583" stroke="black" stroke-miterlimit="10"/>
<path d="M323.427 306.949V307.775C323.427 313.431 318.867 314.405 314.93 314.502L238.731 316.276C235.39 316.358 232.58 313.441 232.509 309.789V309.636C232.509 306.066 235.14 303.083 238.435 303.006C238.435 303.006 281.066 301.803 314.073 300.895C314.706 302.894 316.236 304.434 318.153 305.643C319.742 306.593 321.578 307.047 323.427 306.949V306.949Z" stroke="black" stroke-miterlimit="10"/>
<path d="M363.931 226.318C363.935 227.248 363.722 228.167 363.309 229L329.231 298.86C328.831 299.671 328.258 300.385 327.554 300.951C326.849 301.518 326.029 301.923 325.151 302.139C323.743 302.5 322.254 302.348 320.948 301.711C319.902 301.196 319.021 300.396 318.407 299.404C317.793 298.412 317.47 297.268 317.475 296.101C317.478 295.814 317.498 295.528 317.536 295.244C317.627 294.612 317.816 293.997 318.097 293.423L352.17 223.553C352.786 222.3 353.808 221.291 355.07 220.692C356.332 220.094 357.759 219.94 359.12 220.257C360.48 220.573 361.693 221.341 362.561 222.435C363.43 223.529 363.902 224.885 363.9 226.282L363.931 226.318Z" stroke="black" stroke-miterlimit="10"/>
<path d="M88.0414 219.422C88.0006 219.28 87.9445 219.142 87.8986 219.004C87.8527 218.867 87.7864 218.708 87.7456 218.555" stroke="black" stroke-linecap="round" stroke-linejoin="round"/>
<path d="M88.0415 219.427L89.087 218.377L91.0862 216.352" stroke="black" stroke-linecap="round" stroke-linejoin="round"/>
<path d="M99.8071 222.192C99.8071 222.192 101.148 226.195 106.274 226.465" stroke="black" stroke-miterlimit="10"/>
<path d="M77.0098 231.571C72.4198 233.891 67.2127 228.873 67.5748 224.737C67.8094 221.901 67.1668 219.943 65.0707 217.887C64.933 217.75 64.8055 217.607 64.6831 217.469C63.8851 216.601 63.3662 215.513 63.1934 214.346C63.0207 213.18 63.2021 211.988 63.7141 210.926C64.6678 208.707 66.7231 207.407 65.2951 205.015C64.6685 203.98 64.2106 202.853 63.9385 201.674C63.6537 200.112 63.707 198.506 64.095 196.966C64.483 195.425 65.1965 193.986 66.1876 192.744C68.2888 190.194 71.7109 190.898 74.521 190.006C77.9023 188.929 79.4833 185.293 83.0329 184.176C84.8077 183.62 86.455 183.87 88.2298 184.273C89.7241 184.625 91.2235 185.018 92.677 185.477C94.1305 185.936 95.4565 186.328 96.91 185.895C98.8123 185.339 100.276 183.59 102.347 183.574C104.417 183.559 106.008 184.778 106.937 186.481C108.405 189.154 108.416 193.04 107.034 195.345C105.606 197.732 102.617 198.742 100.047 199.257C96.7621 199.93 93.3655 200.109 90.0403 200.404L88.1074 200.879C87.3721 201.107 86.7573 201.617 86.3978 202.298C86.0383 202.979 85.9635 203.774 86.1898 204.51C87.3858 208.625 89.0311 212.597 91.096 216.352" stroke="black" stroke-miterlimit="10"/>
<path d="M91.0859 232.157C91.0859 232.157 101.204 239.567 106.972 235.482C112.741 231.397 109.482 219.422 109.482 219.422" stroke="black" stroke-linecap="round" stroke-linejoin="round"/>
<path d="M162.583 229.464C162.583 229.464 158.283 226.557 161.017 223.589C163.751 220.621 160.109 216.704 160.109 216.704" stroke="black" stroke-miterlimit="10"/>
<path d="M166.551 229.969C166.551 229.969 169.397 228.047 167.571 226.078C165.745 224.109 168.178 221.488 168.178 221.488" stroke="black" stroke-miterlimit="10"/>
<path d="M186.16 202.266C217.121 202.266 242.219 177.167 242.219 146.207C242.219 115.246 217.121 90.1476 186.16 90.1476C155.2 90.1476 130.101 115.246 130.101 146.207C130.101 177.167 155.2 202.266 186.16 202.266Z" stroke="#CCDDE2" stroke-miterlimit="10"/>
<path d="M186.16 176.995C203.164 176.995 216.949 163.211 216.949 146.207C216.949 129.203 203.164 115.418 186.16 115.418C169.156 115.418 155.372 129.203 155.372 146.207C155.372 163.211 169.156 176.995 186.16 176.995Z" stroke="#CCDDE2" stroke-miterlimit="10"/>
<path d="M186.16 151.485C189.076 151.485 191.439 149.122 191.439 146.207C191.439 143.292 189.076 140.928 186.16 140.928C183.245 140.928 180.882 143.292 180.882 146.207C180.882 149.122 183.245 151.485 186.16 151.485Z" stroke="#CCDDE2" stroke-miterlimit="10"/>
<path d="M197.089 128.581L188.939 141.719" stroke="#CCDDE2" stroke-miterlimit="10"/>
<path d="M186.16 115.418V120.895" stroke="#CCDDE2" stroke-miterlimit="10"/>
<path d="M216.949 146.207H211.757" stroke="#CCDDE2" stroke-miterlimit="10"/>
<path d="M186.16 177.001V171.676" stroke="#CCDDE2" stroke-miterlimit="10"/>
<path d="M155.366 146.207H160.048" stroke="#CCDDE2" stroke-miterlimit="10"/>
<path d="M239.889 239.414C251.409 239.414 260.748 230.076 260.748 218.555C260.748 207.035 251.409 197.696 239.889 197.696C228.369 197.696 219.03 207.035 219.03 218.555C219.03 230.076 228.369 239.414 239.889 239.414Z" fill="#2AABEE"/>
<g opacity="0.72">
<path opacity="0.72" d="M291.878 209.921C298.221 209.921 303.363 204.779 303.363 198.436C303.363 192.093 298.221 186.951 291.878 186.951C285.535 186.951 280.393 192.093 280.393 198.436C280.393 204.779 285.535 209.921 291.878 209.921Z" fill="#2AABEE"/>
</g>
<path d="M275.419 252.673L269.96 264.217C267.98 268.403 269.769 273.402 273.955 275.381L285.5 280.841C289.686 282.82 294.684 281.032 296.664 276.846L302.123 265.301C304.103 261.115 302.314 256.117 298.128 254.137L286.584 248.678C282.397 246.698 277.399 248.487 275.419 252.673Z" fill="#2AABEE"/>
<path d="M336.12 214.807C336.734 215.925 337.179 217.128 337.441 218.377C337.909 220.661 337.774 223.027 337.052 225.243C336.33 227.459 335.044 229.45 333.321 231.02C331.954 232.229 330.215 233.172 328.833 234.437C327.824 235.307 327.082 236.443 326.691 237.716C326.619 238.151 326.444 238.562 326.181 238.915C325.375 239.782 324.584 238.405 323.886 238.17C322.759 237.803 321.538 237.863 320.453 238.338C317.601 239.531 314.424 239.7 311.461 238.818C308.498 237.936 305.931 236.056 304.196 233.497C302.461 230.938 301.664 227.858 301.941 224.779C302.218 221.699 303.551 218.811 305.714 216.602C307.851 214.424 310.646 213.032 313.364 211.614C315.741 210.355 318.107 209.013 320.688 208.259C326.736 206.448 333.193 209.462 336.12 214.807Z" fill="#2AABEE"/>
<path d="M311.763 230.561C313.368 230.561 314.67 229.259 314.67 227.654C314.67 226.048 313.368 224.747 311.763 224.747C310.157 224.747 308.856 226.048 308.856 227.654C308.856 229.259 310.157 230.561 311.763 230.561Z" fill="white"/>
<path d="M319.592 226.374C321.197 226.374 322.499 225.072 322.499 223.467C322.499 221.861 321.197 220.56 319.592 220.56C317.986 220.56 316.685 221.861 316.685 223.467C316.685 225.072 317.986 226.374 319.592 226.374Z" fill="white"/>
<path d="M326.935 222.447C328.541 222.447 329.842 221.145 329.842 219.54C329.842 217.934 328.541 216.633 326.935 216.633C325.33 216.633 324.028 217.934 324.028 219.54C324.028 221.145 325.33 222.447 326.935 222.447Z" fill="white"/>
<path d="M238.303 125.598C238.303 125.598 257.443 184.799 331.123 181.601C355.603 178.541 384.739 181.601 410.683 215.771C450.121 267.75 434.286 325.655 416.364 362.411" stroke="#CCDDE2" stroke-miterlimit="10"/>
<g opacity="0.54">
<path opacity="0.54" d="M344.806 148.849C344.734 149.742 344.596 150.628 344.393 151.501L342.098 161.456C341.394 164.516 340.604 167.719 338.421 169.952C334.341 174.114 327.558 173.16 321.887 171.901L307.964 168.81C304.766 168.101 301.517 167.372 298.651 165.786C295.785 164.2 293.296 161.604 292.633 158.396C292.123 156.029 292.669 153.581 293.189 151.225L295.29 141.668C295.989 138.536 296.774 135.232 299.034 132.952C303.057 128.897 309.744 129.821 315.303 131.029L329.562 134.13C338.161 135.986 345.49 139.975 344.806 148.849Z" fill="#2AABEE"/>
</g>
<path d="M44.105 485.097H484.5" stroke="black" stroke-miterlimit="10"/>
</svg>
