<svg width="598" height="560" viewBox="0 0 598 560" fill="none" xmlns="http://www.w3.org/2000/svg">
<path fill-rule="evenodd" clip-rule="evenodd" d="M176.26 133.848C193.184 131.289 208.101 137.171 209.586 146.978C211.072 156.785 198.544 166.813 181.62 169.363C164.696 171.912 149.78 166.05 148.294 156.233C146.809 146.416 159.316 136.398 176.26 133.848Z" fill="white"/>
<path fill-rule="evenodd" clip-rule="evenodd" d="M212.327 166.06C215.86 165.528 219.032 167.145 219.413 169.664C219.795 172.184 217.245 174.683 213.702 175.205C210.158 175.727 206.996 174.121 206.615 171.601C206.233 169.082 208.793 166.592 212.327 166.06Z" fill="white"/>
<path d="M292.244 187.987C289.716 207.225 272.071 220.771 252.833 218.244C233.596 215.716 220.049 198.071 222.577 178.833C225.104 159.595 242.749 146.049 261.987 148.577C281.225 151.104 294.771 168.749 292.244 187.987Z" fill="#0088CC"/>
<path d="M252.833 218.244C272.076 220.772 289.715 207.23 292.244 187.987C294.772 168.744 281.23 151.105 261.987 148.577C242.744 146.049 225.105 159.591 222.577 178.833C220.049 198.076 233.591 215.715 252.833 218.244ZM238.615 180.173L273.902 171.636C275.535 171.278 276.772 172.4 275.957 174.691L275.961 174.689L266.702 200.878C266.028 202.732 264.832 203.048 263.362 201.939L255.497 194.377L250.765 197.871C250.239 198.275 249.796 198.615 248.896 198.497L250.679 189.716L268.734 177.256C269.518 176.73 268.704 176.269 267.698 176.762L246.103 186.699L237.857 182.887C236.068 182.05 236.195 180.77 238.615 180.173Z" fill="white"/>
<g opacity="0.3">
<circle cx="558.41" cy="109.41" r="35.1328" transform="rotate(7.4852 558.41 109.41)" fill="#0088CC"/>
<path d="M553.833 144.244C573.076 146.772 590.715 133.23 593.244 113.987C595.772 94.7444 582.23 77.105 562.987 74.5768C543.744 72.0485 526.105 85.5909 523.577 104.833C521.048 124.076 534.591 141.715 553.833 144.244ZM539.615 106.173L574.902 97.6364C576.535 97.2781 577.772 98.4003 576.957 100.691L576.961 100.689L567.702 126.878C567.028 128.732 565.832 129.048 564.362 127.939L556.497 120.377L551.765 123.871C551.239 124.275 550.796 124.615 549.896 124.497L551.679 115.716L569.734 103.256C570.518 102.73 569.704 102.269 568.697 102.762L547.103 112.699L538.857 108.887C537.068 108.05 537.195 106.77 539.615 106.173Z" fill="white"/>
</g>
<g opacity="0.3">
<circle cx="454.41" cy="520.41" r="35.1328" transform="rotate(7.4852 454.41 520.41)" fill="#0088CC"/>
<path d="M449.833 555.244C469.076 557.772 486.715 544.23 489.244 524.987C491.772 505.744 478.23 488.105 458.987 485.577C439.744 483.048 422.105 496.591 419.577 515.833C417.048 535.076 430.591 552.715 449.833 555.244ZM435.615 517.173L470.902 508.636C472.535 508.278 473.772 509.4 472.957 511.691L472.961 511.689L463.702 537.878C463.028 539.732 461.832 540.048 460.362 538.939L452.497 531.377L447.765 534.871C447.239 535.275 446.796 535.615 445.896 535.497L447.679 526.716L465.734 514.256C466.518 513.73 465.704 513.269 464.697 513.762L443.103 523.699L434.857 519.887C433.068 519.05 433.195 517.77 435.615 517.173Z" fill="white"/>
</g>
<g opacity="0.3">
<circle cx="39.414" cy="39.4102" r="35.1328" transform="rotate(7.4852 39.414 39.4102)" fill="#0088CC"/>
<path d="M34.8373 74.2436C54.0798 76.7719 71.7192 63.2295 74.2475 43.987C76.7757 24.7444 63.2334 7.10503 43.9908 4.57676C24.7482 2.04848 7.10887 15.5909 4.58059 34.8334C2.05232 54.076 15.5947 71.7154 34.8373 74.2436ZM20.619 36.173L55.9056 27.6364C57.5384 27.2781 58.7758 28.4003 57.9611 30.691L57.9644 30.6885L48.7061 56.8779C48.0314 58.7323 46.8353 59.0476 45.3658 57.9391L37.5007 50.3769L32.7687 53.8715C32.2432 54.2749 31.7998 54.6153 30.9 54.497L32.6827 45.7161L50.7379 33.2559C51.5216 32.7299 50.7082 32.2687 49.7013 32.7624L28.1064 42.6993L19.8607 38.8874C18.072 38.05 18.1988 36.7704 20.619 36.173Z" fill="white"/>
</g>
</svg>
