<svg width="175" height="175" viewBox="0 0 175 175" fill="none" xmlns="http://www.w3.org/2000/svg">
<path d="M35 58.2296C35 58.2296 24.5331 27.2718 61.0419 31.0502C97.5508 34.8286 80.1072 21.1261 93.9031 12.6228C107.699 4.1195 148.347 30.574 131.341 56.0897C114.335 81.6054 158.519 58.2646 167.736 96.6354C173.423 120.314 159.312 137.743 147.671 147.622" stroke="#CCDDE2"/>
<path fill-rule="evenodd" clip-rule="evenodd" d="M122.99 82.8591C138.773 87.9455 148.487 102.157 151.231 118.038C152.372 124.688 152.458 131.663 151.017 138.283C150.202 141.999 149.024 146.18 146.288 148.973C145.141 150.149 143.629 150.902 141.999 151.111C142.397 150.307 142.605 149.421 142.607 148.524C142.619 145.219 139.957 142.527 136.652 142.499L132.852 142.477L127.165 142.448C126.996 142.427 126.817 142.427 126.64 142.427H126.64H122.811L119.585 142.413L102.05 142.32C101.825 142.32 101.589 142.336 101.356 142.357L101.392 142.362C101.529 142.382 101.673 142.402 101.803 142.435C101.653 142.435 101.504 142.447 101.349 142.46L101.327 142.462C104.296 142.827 106.548 145.313 106.618 148.302V148.415C106.622 148.488 106.622 148.562 106.618 148.635C106.442 151.546 104.205 153.914 101.307 154.256C101.46 154.275 101.614 154.287 101.768 154.291C101.625 154.323 101.48 154.347 101.335 154.363L101.362 154.365C101.587 154.386 101.805 154.405 102.031 154.405H101.811C98.698 154.405 96.7828 156.318 96.7828 158.65C96.785 159.777 97.2339 160.858 98.0311 161.655C98.803 162.429 99.8667 162.903 101.811 162.903H77.8439L73.6478 152.129L58.8428 114.171H26.25C22.9363 114.173 19.8088 112.639 17.7823 110.018C15.7557 107.398 15.059 103.986 15.8958 100.781L23.7689 78.7814C23.8139 78.9073 23.8624 79.0652 23.9186 79.2482C24.5444 81.2858 26.1278 86.4414 34.5722 85.3624C35.8983 91.3973 37.8544 97.2768 40.8625 102.67C41.9183 104.569 43.2717 106.647 45.2939 107.638C45.5001 107.738 45.7132 107.823 45.9317 107.893C47.9597 108.55 50.4564 108.013 52.3775 107.384C57.0364 105.862 61.7789 104.031 66.0333 101.586C69.7161 99.4828 74.0989 96.064 73.6167 91.514V91.4498C73.3944 88.8891 71.6642 86.7082 69.2203 85.9086C67.9705 87.9612 66.4752 89.854 64.7675 91.5451C63.3982 90.209 62.2939 88.6263 61.5125 86.8804C60.9541 85.628 60.5128 84.3268 60.1942 82.9932C69.3875 80.7094 80.8597 78.7036 93.0553 78.6045C91.6164 79.93 90.5936 81.8289 90.893 83.8347C91.1555 85.6151 92.608 87.2652 94.1053 88.202C96.5922 89.7608 99.9114 89.6325 102.591 88.6413C105.216 87.6773 107.483 85.827 109.128 83.5743C109.904 82.486 110.421 81.2349 110.639 79.9164V79.8951C114.824 80.5744 118.952 81.5652 122.99 82.8591ZM98 123.111C98 123.111 103.625 123.568 106.929 118.486C110.25 113.411 107.39 108.114 107.39 108.114C107.39 108.114 97.9922 100.169 96.3842 99.2554C94.7761 98.3419 86.4558 93.72 81.1183 94.8823C75.7808 96.0446 81.0405 100.447 81.3244 100.503C81.6083 100.56 87.5136 102.078 87.5136 102.078L85.4719 103.154C85.4719 103.154 83.7433 104.132 83.3097 107.08C83.269 107.357 83.2186 107.658 83.1648 107.978C82.6469 111.062 81.8226 115.971 86.4208 119.44C91.4958 123.269 92.0072 120.314 92.2542 118.371C92.2542 118.371 95.3555 119.694 96.4444 121.63C97.5333 123.566 98 123.111 98 123.111Z" fill="#353642"/>
<path d="M34.5644 85.3663C34.5644 85.3663 39.0153 84.826 40.6817 81.6501L39.2292 89.7958C39.2292 89.7958 56.9353 83.7706 60.1825 82.9932C60.1825 82.9932 61.2286 89.7356 65.3936 91.5451L69.6908 86.0835C69.6908 86.0835 75.0789 87.4441 73.605 94.7831C72.1311 102.122 51.7456 108.256 48.2883 108.114C44.8311 107.972 41.1094 105.846 37.2983 94.4197L34.5644 85.3663Z" fill="#353642"/>
<path d="M41.8153 67.2207C42.9431 69.0555 44.0767 70.8864 45.2472 72.6939C45.9686 73.8076 47.2831 75.3955 45.885 76.5598C45.4301 76.9084 44.8804 77.1116 44.3081 77.1428C43.4097 77.2225 42.4667 77.0068 41.9203 76.2352L39.1981 71.726C38.0729 69.8611 35.7036 69.1726 33.7536 70.1439" stroke="black"/>
<path d="M52.1111 73.1604C52.8228 74.8514 52.3406 75.9417 51.5083 76.4898C50.1472 77.3819 48.3253 76.9543 47.3608 75.6521L41.825 67.2305" stroke="black"/>
<path d="M46.5014 64.7719C48.5158 67.2208 51.0572 71.7689 52.463 73.6678C53.8689 75.5667 56.0428 74.4219 56.0428 74.4219C57.8083 73.4715 57.5089 71.8952 56.7369 69.9808C54.8353 65.2811 52.1208 62.1558 49.0933 60.1072C39.7114 53.7633 30.0864 58.4435 27.2222 69.3938L15.8958 100.781C15.059 103.986 15.7557 107.398 17.7823 110.018C19.8088 112.639 22.9363 114.173 26.25 114.171H58.8428L77.8497 162.905" stroke="black"/>
<path d="M58.1389 67.8251C60.4722 67.0166 60.3653 63.2965 57.0539 62.0409C53.3964 60.6532 46.9019 58.6901 45.2706 58.2003C45.2604 58.1925 45.2483 58.1878 45.2356 58.1867C45.1208 58.1517 45.0411 58.1226 44.9789 58.109L44.8875 58.0798" stroke="black"/>
<path d="M92.6139 105.02C90.5722 102.567 84.9839 101.178 81.3361 100.505C80.0766 100.269 79.1254 99.2282 79.0028 97.9532C78.9605 97.5344 79.0089 97.1115 79.1447 96.7131C79.5922 95.4543 80.8427 94.6644 82.1722 94.8006C88.3944 95.4303 94.8111 97.3876 99.5575 101.603C99.5575 101.603 122.566 119.154 125.314 120.862C126.447 121.551 127.505 120.738 126.737 119.657L126.496 119.245C125.143 116.925 123.543 114.759 121.722 112.785" stroke="black"/>
<path d="M93.0397 78.6024C64.1025 78.8434 39.2292 89.7937 39.2292 89.7937L41.7122 75.8813" stroke="black"/>
<path d="M137.984 154.32C137.984 154.32 134.832 153.606 133.994 156.129C133.156 158.652 132.281 162.666 138.306 162.903C144.332 163.14 140.793 161.956 140.445 160.007C140.097 158.057 137.984 154.32 137.984 154.32Z" fill="#353642"/>
<path d="M89.8333 108.222C89.8333 108.222 86.4325 105.643 83.37 108.257C83.2411 108.37 83.1285 108.501 83.0356 108.645" stroke="black"/>
<g opacity="0.77">
<path d="M47.3492 75.6423C48.3214 76.9465 50.1414 77.3721 51.4967 76.4781C52.3192 75.9339 52.8014 74.8493 52.1072 73.1739C52.2336 73.3586 52.3483 73.5218 52.4611 73.6715C53.865 75.5782 56.0408 74.4295 56.0408 74.4295C57.8064 73.4791 57.5089 71.9028 56.7369 69.9864C55.9816 68.0883 54.9905 66.2926 53.7872 64.6415C54.5747 63.9048 55.51 63.1604 56.4958 63.487C57.5595 63.8407 57.857 65.174 57.9775 66.2858C58.0339 66.8028 58.0903 67.3139 58.1467 67.8309L58.9983 75.4421C59.2822 77.9688 59.5661 80.5324 60.1825 82.9989C60.5011 84.3325 60.9425 85.6338 61.5008 86.8861C62.2822 88.632 63.3866 90.2147 64.7558 91.5508C66.4636 89.8597 67.9589 87.9669 69.2086 85.9143C71.6525 86.714 73.3827 88.8948 73.605 91.4555V91.5197C74.0872 96.0697 69.7044 99.4885 66.0217 101.591C61.7672 104.037 57.0247 105.867 52.3658 107.389C50.4447 108.019 47.9481 108.555 45.92 107.898C45.7016 107.829 45.4885 107.744 45.2822 107.644C43.26 106.653 41.9067 104.575 40.8508 102.676C35.7953 93.5896 33.6953 83.1563 32.5889 72.8241C34.8017 72.5189 37.0067 72.1788 39.1845 71.7104C39.1845 71.7104 39.1845 71.7259 39.1981 71.7318L41.7083 75.893L41.9145 76.239C42.4589 77.0165 43.402 77.2244 44.3022 77.1467C44.8746 77.1184 45.4245 76.9148 45.8772 76.5636C47.2733 75.3974 45.9628 73.8153 45.2395 72.7016" fill="white"/>
<path d="M47.3492 75.6423C48.3214 76.9465 50.1414 77.3721 51.4967 76.4781C52.3192 75.9339 52.8014 74.8493 52.1072 73.1739C52.2336 73.3586 52.3483 73.5218 52.4611 73.6715C53.865 75.5782 56.0408 74.4295 56.0408 74.4295C57.8064 73.4791 57.5089 71.9028 56.7369 69.9864C55.9816 68.0883 54.9905 66.2926 53.7872 64.6415C54.5747 63.9048 55.51 63.1604 56.4958 63.487C57.5595 63.8407 57.857 65.174 57.9775 66.2858C58.0339 66.8028 58.0903 67.3139 58.1467 67.8309L58.9983 75.4421C59.2822 77.9688 59.5661 80.5324 60.1825 82.9989C60.5011 84.3325 60.9425 85.6338 61.5008 86.8861C62.2822 88.632 63.3866 90.2147 64.7558 91.5508C66.4636 89.8597 67.9589 87.9669 69.2086 85.9143C71.6525 86.714 73.3827 88.8948 73.605 91.4555V91.5197C74.0872 96.0697 69.7044 99.4885 66.0217 101.591C61.7672 104.037 57.0247 105.867 52.3658 107.389C50.4447 108.019 47.9481 108.555 45.92 107.898C45.7016 107.829 45.4885 107.744 45.2822 107.644C43.26 106.653 41.9067 104.575 40.8508 102.676C35.7953 93.5896 33.6953 83.1563 32.5889 72.8241C34.8017 72.5189 37.0067 72.1788 39.1845 71.7104C39.1845 71.7104 39.1845 71.7259 39.1981 71.7318L41.7083 75.893L41.9145 76.239C42.4589 77.0165 43.402 77.2244 44.3022 77.1467C44.8746 77.1184 45.4245 76.9148 45.8772 76.5636C47.2733 75.3974 45.9628 73.8153 45.2395 72.7016" fill="#0FBE73"/>
<path d="M47.9461 76.2584C48.8075 77.4246 50.2794 77.2769 51.4967 76.4781C52.2317 75.9922 52.8344 76.1341 52.2142 74.6355C52.3289 74.7988 52.3444 74.2468 52.4456 74.3693C53.6997 76.0719 52.4611 73.6657 52.4611 73.6657C54.2111 75.8756 58.0203 73.794 57.3222 72.0855C56.5833 70.2449 55.8055 67.5239 54.8197 66.1633C55.5975 65.4286 55.4478 65.5375 56.4375 66.1225C56.9766 66.4688 57.3216 67.0483 57.3689 67.6871C57.4486 68.4276 57.5283 69.1371 57.608 69.8601L58.3664 76.6627C58.6211 78.9231 58.8739 81.2069 59.4242 83.4071C59.7087 84.5968 60.1032 85.7576 60.6025 86.8745C61.2986 88.4118 63.5347 90.9716 64.7558 92.1436C66.2744 90.6373 68.0944 87.8676 69.2086 86.027C71.3475 86.684 71.2542 88.7287 71.4058 90.9619V91.0202C71.8375 95.0804 67.9253 98.1299 64.6469 100.009C60.8475 102.192 56.6144 103.825 52.4553 105.185C50.7403 105.749 48.5119 106.235 46.7017 105.64C46.5064 105.578 46.316 105.502 46.1319 105.413C44.3275 104.526 43.1181 102.674 42.175 100.977C38.0469 93.5663 36.1317 85.1524 35.0778 76.7171C34.917 75.4053 35.825 74.202 37.1311 73.9961C38.3153 73.8017 39.4956 73.6074 40.6681 73.3469L40.7011 73.3625L42.9411 77.0767C43.4292 77.7667 43.5089 77.2264 44.3119 77.1564C44.8194 77.1117 45.8033 77.0126 46.1961 76.6841C47.4425 75.6462 46.7386 75.2167 46.0931 74.2235" fill="#0FBE73"/>
</g>
<path d="M89.423 111.973C89.423 111.973 82.9655 109.85 82.8683 113.42" stroke="black"/>
<path opacity="0.54" d="M31.6205 148.324L18.9564 115.893C18.6384 114.621 18.9244 113.274 19.7315 112.241C20.5386 111.208 21.777 110.604 23.0883 110.604H73.3911C75.7161 110.604 77.7383 112.196 78.2814 114.456L92.1453 146.88C92.4488 148.147 92.155 149.483 91.3479 150.506C90.5407 151.53 89.3091 152.127 88.0055 152.127H36.4992C34.1924 152.129 32.1809 150.56 31.6205 148.324Z" fill="white"/>
<path d="M91.525 117.444C91.525 117.444 92.5731 118.404 92.1745 119.776C91.8789 120.793 90.8678 121.434 89.8664 121.086C86.6775 119.984 83.8056 118.112 83.1056 114.931C82.7747 113.32 82.7032 111.666 82.8936 110.033C83.0472 108.519 83.2708 106.884 83.7803 105.444C84.5581 103.232 86.94 101.691 89.252 102.756" stroke="black"/>
<path d="M31.6205 148.324L18.9564 115.893C18.6384 114.621 18.9244 113.274 19.7315 112.241C20.5386 111.208 21.777 110.604 23.0883 110.604H73.3911C75.7161 110.604 77.7383 112.196 78.2814 114.456L92.1453 146.88C92.4488 148.147 92.155 149.483 91.3479 150.506C90.5407 151.53 89.3091 152.127 88.0055 152.127H36.4992C34.1924 152.129 32.1809 150.56 31.6205 148.324Z" fill="#0FBE73"/>
<path fill-rule="evenodd" clip-rule="evenodd" d="M31.6205 148.324L18.9564 115.893C18.6384 114.621 18.9244 113.274 19.7315 112.241C20.5386 111.208 21.777 110.604 23.0883 110.604H73.3911C75.7161 110.604 77.7383 112.196 78.2814 114.456L92.1453 146.88C92.4488 148.147 92.155 149.483 91.3479 150.506C90.5407 151.53 89.3091 152.127 88.0055 152.127H36.4992C34.1924 152.129 32.1809 150.56 31.6205 148.324V148.324Z" stroke="black" stroke-linecap="square" stroke-linejoin="round"/>
<path d="M33.4736 147.018L21.7894 117.086C21.4967 115.913 21.761 114.67 22.5057 113.717C23.2505 112.764 24.3928 112.207 25.6025 112.208H72.0086C74.1533 112.207 76.0188 113.676 76.5197 115.76L89.3122 145.675C89.5919 146.844 89.3205 148.077 88.5755 149.021C87.8306 149.965 86.6942 150.516 85.4914 150.516H37.973C35.8486 150.518 33.9947 149.076 33.4736 147.018Z" fill="#0FBE73"/>
<path d="M132.79 142.322L141.688 162.903" stroke="black"/>
<path d="M175 162.903H0" stroke="black"/>
<path d="M92.2386 70.0134C90.7958 71.4387 88.6414 71.4368 87.4144 70.1184" stroke="black"/>
<path d="M53.7872 64.6359C54.5747 63.8992 55.51 63.1548 56.4958 63.4814C57.5594 63.8351 57.8569 65.1684 57.9775 66.2802C58.3184 69.3355 58.6587 72.3876 58.9983 75.4365C59.43 79.3237 59.885 83.3042 61.5008 86.8766C62.2822 88.6225 63.3866 90.2052 64.7558 91.5413" stroke="black"/>
<path d="M73.605 91.5177V91.4536C73.3827 88.8928 71.6525 86.712 69.2086 85.9124C67.9589 87.965 66.4636 89.8577 64.7558 91.5488C60.2784 95.999 54.5266 98.9463 48.298 99.9822C48.5975 101.174 49.2139 102.258 49.6397 103.405C50.0655 104.552 50.2775 105.879 49.7603 106.985C49.1069 108.396 47.2325 108.211 45.9297 107.898C45.9161 107.898 45.9083 107.898 45.8947 107.898" stroke="black"/>
<path d="M39.1883 71.7085C37.0106 72.1769 34.8056 72.517 32.5928 72.8222C33.6992 83.1544 35.7914 93.5877 40.8547 102.674C41.9106 104.573 43.2639 106.651 45.2861 107.642C45.4923 107.742 45.7055 107.827 45.9239 107.897C47.9519 108.563 50.4486 108.017 52.3697 107.387C57.0364 105.864 61.7711 104.035 66.0255 101.59C69.6986 99.4846 74.0814 96.0678 73.6089 91.5178C73.5631 91.0167 73.4607 90.5225 73.3036 90.0445" stroke="black"/>
<path d="M75.6039 51.0984C76.2727 53.8872 78.6477 55.9382 81.5053 56.1946C81.621 55.6335 81.8719 55.1091 82.2364 54.6669C83.7919 52.8341 84.455 56.2723 89.4308 53.8039C96.3258 50.3754 98.943 52.3423 98.943 52.3423C99.1725 52.5134 99.1375 54.0916 99.1764 54.3793C99.3708 56.0177 99.5458 57.6484 99.7383 59.2849C99.855 60.2839 99.9697 61.2752 100.079 62.2664C100.172 62.0977 100.276 61.9348 100.39 61.7786C101.018 59.557 102.14 56.9332 104.559 58.0624C105.048 58.3011 105.475 58.6521 105.803 59.0867C107.407 61.1936 106.192 63.2285 104.514 64.7348C104.093 65.2021 103.623 65.6224 103.112 65.9884C103.388 66.5599 104.516 68.8281 104.516 68.8358C104.632 69.0652 108.574 64.6065 108.867 64.1206C109.306 62.9303 109.541 61.6747 109.564 60.4064C109.628 55.1917 107.504 49.1218 103.279 46.1306C102.231 45.39 102.566 44.6767 102.501 43.67C102.492 43.5585 102.415 43.4643 102.308 43.4328C102.201 43.4013 102.085 43.4392 102.017 43.5281C100.693 45.0519 97.4147 44.9003 97.4147 44.9003C86.0358 42.0509 82.2111 47.1082 79.9147 48.01C78.9777 48.3649 77.9463 48.382 76.998 48.0586C76.8843 48.6982 76.4253 49.222 75.8061 49.4192L75.8644 49.9459C75.914 50.3486 75.8218 50.7561 75.6039 51.0984H75.6039Z" fill="#0FBE73"/>
<path d="M81.513 56.2023C78.6555 55.9459 76.2805 53.895 75.6117 51.1061C75.484 50.5844 75.4033 50.0524 75.3705 49.5163L75.46 49.5065C75.5823 49.4974 75.7027 49.4713 75.8178 49.4288C76.437 49.2317 76.8959 48.7078 77.0097 48.0683C77.0453 47.8944 77.0525 47.7158 77.0311 47.5396L76.7394 44.9663C76.7394 44.9663 78.7967 46.4959 81.0794 45.6018C83.3622 44.7078 87.1947 39.6505 98.5794 42.4921C98.5794 42.4921 101.15 42.6437 102.468 41.1199C102.536 41.031 102.652 40.9931 102.759 41.0246C102.866 41.056 102.943 41.1503 102.952 41.2617C103.021 42.2705 103.394 42.9838 104.444 43.7224C108.669 46.7155 110.792 52.7835 110.726 57.9982C110.707 60.1614 109.987 62.2975 108.877 64.1303C108.584 64.6162 104.642 69.0748 104.526 68.8455C104.526 68.8455 103.398 66.5695 103.122 65.9981L103.056 65.8718L103.182 65.7882C103.651 65.4697 104.099 65.1211 104.524 64.7445C106.2 63.2382 107.417 61.2032 105.813 59.0963C105.484 58.6617 105.058 58.3107 104.568 58.072C102.142 56.9428 101.027 59.5667 100.399 61.7882C100.277 62.2128 100.202 62.6495 100.176 63.0904C100.147 62.8183 100.117 62.556 100.088 62.2838C99.9794 61.2926 99.8647 60.3014 99.748 59.3023C99.5536 57.6658 99.3708 56.0351 99.1861 54.3967C99.1569 54.1168 99.1861 52.5308 98.9528 52.3598C98.9528 52.3598 96.3336 50.3928 89.4405 53.8214C84.4647 56.2898 83.8017 52.8496 82.2461 54.6843C81.8817 55.1265 81.6307 55.6509 81.515 56.212C81.4794 56.3922 81.4567 56.5747 81.4469 56.7582C81.4432 56.782 81.4432 56.8062 81.4469 56.8301C81.4236 57.2324 81.4158 57.6328 81.4061 58.0254C81.3692 61.8135 81.7853 65.7707 83.2728 69.2886C85.0811 73.5529 89.8664 77.7589 94.8422 75.7706C96.3978 75.1467 97.7919 74.1418 99.0675 73.0748" stroke="black"/>
<ellipse rx="0.945001" ry="1.14333" transform="matrix(0.948365 -0.317182 0.317427 0.948283 84.5556 64.358)" fill="black"/>
<ellipse rx="0.945001" ry="1.14333" transform="matrix(0.948365 -0.317182 0.317427 0.948283 91.9591 64.1214)" fill="black"/>
<path d="M89.4911 66.4864C89.4911 66.4864 87.0275 67.8838 86.8778 66.4339C86.8311 65.9868 86.2283 61.6079 86.2283 61.6079C86.2283 61.6079 84.2372 59.4991 81.1864 61.0578" stroke="black"/>
<path d="M88.937 60.3814C88.937 60.3814 92.9153 58.3942 95.5481 61.2584" stroke="black"/>
<path d="M92.5847 76.2585L93.0417 78.6025C91.6008 79.93 90.5819 81.8328 90.8794 83.8367C91.1439 85.6131 92.5983 87.2672 94.0897 88.1981C96.5825 89.753 99.8978 89.6306 102.581 88.6413C105.204 87.6695 107.473 85.825 109.118 83.5743C109.893 82.4863 110.409 81.2359 110.627 79.9184V79.895" stroke="black"/>
<path d="M93.0417 78.6025L93.9322 82.8357" stroke="black"/>
<path d="M105.636 67.8252L106.981 76.7561C107.256 78.5629 108.811 79.8974 110.639 79.895C114.827 80.5734 118.958 81.5635 122.998 82.8571C138.781 87.9455 148.495 102.157 151.239 118.036C152.38 124.686 152.466 131.659 151.033 138.271C150.218 141.993 149.04 146.174 146.304 148.961C142.751 152.596 137.299 151.099 133.101 149.457C120.067 144.39 109.227 135.375 99.8667 125.055C94.8617 119.535 88.3944 115.111 88.3944 115.111" stroke="black"/>
<path d="M37.7806 140.318C36.3183 140.305 35.0447 139.125 34.7161 137.482C34.0667 134.252 33.8956 129.257 38.6342 128.167C44.555 126.806 49.1089 133.251 51.3411 137.325C52.0917 138.686 51.2419 140.435 49.8439 140.435L37.7806 140.318Z" fill="#D7E8F0"/>
<ellipse rx="2.73353" ry="4.02964" transform="matrix(0.832644 -0.553808 0.554137 0.832425 37.5022 122.07)" fill="#D7E8F0"/>
<path d="M137.039 154.427C136.947 154.44 136.844 154.454 136.755 154.475H136.72L122.889 154.403L102.136 154.296C102.056 154.296 101.978 154.296 101.901 154.296C101.746 154.293 101.593 154.281 101.44 154.261C104.342 153.924 106.582 151.551 106.75 148.635C106.754 148.561 106.754 148.488 106.75 148.415V148.302C106.738 145.453 104.728 143.004 101.936 142.434C101.794 142.4 101.638 142.378 101.488 142.357C101.724 142.335 101.957 142.32 102.184 142.32L119.717 142.413L122.945 142.427L127.299 142.448C130.388 142.73 132.755 145.314 132.765 148.415C132.765 148.697 132.743 148.979 132.701 149.259C132.272 152.202 129.754 154.39 126.778 154.403H137.313C136.706 154.403 136.875 154.403 137.039 154.427Z" fill="white"/>
<path d="M108.984 161.655C109.782 162.457 110.868 162.907 112 162.903H101.815C99.8705 162.903 98.8089 162.429 98.035 161.655C97.2397 160.857 96.7918 159.777 96.7886 158.65C96.7886 156.318 98.7019 154.406 101.815 154.406H112C110.28 154.403 108.729 155.437 108.07 157.025C107.412 158.613 107.777 160.441 108.994 161.655H108.984Z" fill="#D7E8F0"/>
<path d="M142.621 148.522C142.618 149.42 142.41 150.305 142.011 151.109C141.726 151.717 141.334 152.269 140.856 152.74C140.066 153.522 139.074 154.069 137.991 154.32C137.545 154.423 137.088 154.475 136.63 154.475C136.724 154.454 136.825 154.44 136.914 154.427C136.751 154.411 136.582 154.405 137.19 154.405H126.653C129.631 154.394 132.152 152.205 132.58 149.259C132.623 148.98 132.644 148.698 132.644 148.415C132.635 145.314 130.266 142.729 127.176 142.448L132.864 142.477L136.663 142.499C139.969 142.527 142.631 145.218 142.621 148.522Z" fill="#0FBE73"/>
<path fill-rule="evenodd" clip-rule="evenodd" d="M142.621 148.52C142.596 151.826 139.901 154.49 136.593 154.477L101.998 154.298C101.766 154.298 101.535 154.281 101.302 154.258C104.32 153.916 106.605 151.371 106.621 148.335C106.637 145.298 104.378 142.73 101.364 142.357C101.595 142.333 101.827 142.321 102.06 142.322L136.656 142.501C139.963 142.523 142.63 145.214 142.621 148.52V148.52Z" stroke="black" stroke-linecap="square" stroke-linejoin="round"/>
<path fill-rule="evenodd" clip-rule="evenodd" d="M132.64 148.413C132.634 151.719 129.955 154.397 126.647 154.404H102.033C101.8 154.402 101.568 154.389 101.337 154.365C104.353 154.007 106.625 151.45 106.625 148.414C106.625 145.378 104.353 142.822 101.337 142.464C101.568 142.443 101.801 142.427 102.033 142.427H126.647C129.953 142.434 132.631 145.11 132.64 148.413V148.413Z" stroke="black" stroke-linecap="square" stroke-linejoin="round"/>
<path fill-rule="evenodd" clip-rule="evenodd" d="M96.7886 158.652C96.7883 159.778 97.236 160.857 98.033 161.653C98.8108 162.43 99.8667 162.902 101.813 162.902H137.188C136.58 162.902 136.745 162.891 136.91 162.875C134.768 162.623 133.153 160.808 133.153 158.652C133.153 156.495 134.768 154.68 136.91 154.428C136.745 154.413 136.58 154.401 137.188 154.401H101.813C98.698 154.403 96.7886 156.316 96.7886 158.652H96.7886Z" stroke="black" stroke-linecap="square" stroke-linejoin="round"/>
<path fill-rule="evenodd" clip-rule="evenodd" d="M107.736 158.652C107.741 160.997 109.642 162.897 111.988 162.902H136.416C136.58 162.902 136.745 162.891 136.91 162.875C134.768 162.623 133.153 160.808 133.153 158.652C133.153 156.495 134.768 154.68 136.91 154.428C136.745 154.413 136.58 154.401 136.416 154.401H111.988C109.642 154.408 107.742 156.307 107.736 158.652H107.736Z" stroke="black" stroke-linecap="square" stroke-linejoin="round"/>
<path d="M68.1372 126.221H57.225C56.2049 126.219 55.2821 125.615 54.8722 124.681C54.7148 124.336 54.7456 123.933 54.9539 123.616C55.1622 123.298 55.5189 123.109 55.8989 123.115H67.4994C66.9531 124.034 67.2311 125.311 68.1372 126.221Z" fill="#D7E8F0"/>
<path d="M75.1936 125.098C75.1925 125.717 74.6909 126.218 74.0717 126.219H68.1372C67.2311 125.311 66.9531 124.035 67.4994 123.109H72.7397C73.7585 123.11 74.6815 123.71 75.0944 124.641C75.1572 124.785 75.1909 124.94 75.1936 125.098Z" fill="#0FBE73"/>
<path d="M72.4636 126.221C72.4329 126.281 72.3971 126.337 72.3567 126.39C71.5789 127.453 69.8892 127.556 68.5767 126.596C68.4215 126.482 68.2746 126.356 68.1372 126.221C67.2311 125.314 66.9531 124.037 67.4994 123.111C67.5302 123.052 67.566 122.996 67.6064 122.942C68.3842 121.871 70.0661 121.776 71.3786 122.729C71.5366 122.847 71.6854 122.977 71.8239 123.117C72.7222 124.021 73.0022 125.29 72.4636 126.221Z" fill="white"/>
<path d="M77.9372 131.945C77.9329 132.565 77.4293 133.065 76.8094 133.065H65.3586C65.9108 132.136 65.6347 130.868 64.7267 129.955H75.4833C76.5038 129.955 77.4277 130.558 77.8381 131.492C77.9021 131.635 77.9359 131.789 77.9372 131.945Z" fill="#0FBE73"/>
<path d="M65.3586 133.064H59.9706C58.9514 133.065 58.0279 132.465 57.6158 131.533C57.5523 131.39 57.5185 131.236 57.5167 131.08C57.5161 130.783 57.634 130.498 57.8441 130.288C58.0543 130.078 58.3395 129.96 58.6367 129.96H64.7267C65.6347 130.868 65.9167 132.135 65.3586 133.064Z" fill="#D7E8F0"/>
<path d="M65.3586 133.064C65.3333 133.126 65.2999 133.183 65.2594 133.235C64.4817 134.304 62.7978 134.402 61.4872 133.447C61.3286 133.329 61.1791 133.199 61.04 133.059C60.1397 132.151 59.8636 130.884 60.4022 129.949C60.4333 129.889 60.4691 129.832 60.5092 129.778C61.2869 128.715 62.9767 128.612 64.2872 129.574C64.4433 129.687 64.5902 129.812 64.7267 129.949C65.6347 130.868 65.9167 132.135 65.3586 133.064Z" fill="white"/>
<path d="M69.1736 139.861H62.3175C61.299 139.86 60.3765 139.26 59.9628 138.33C59.8059 137.983 59.8371 137.58 60.0455 137.262C60.2539 136.943 60.6106 136.753 60.9914 136.757H68.5358C67.9953 137.688 68.2733 138.954 69.1736 139.861Z" fill="#0FBE73"/>
<path d="M80.2842 138.749C80.2809 139.365 79.7801 139.862 79.1642 139.861H69.1736C68.2733 138.954 67.9953 137.686 68.5358 136.751H77.8303C78.8508 136.752 79.7746 137.355 80.185 138.289C80.2491 138.434 80.2828 138.591 80.2842 138.749Z" fill="#D7E8F0"/>
<path d="M73.5 139.861C73.4689 139.921 73.4331 139.978 73.3931 140.032C72.6153 141.101 70.9333 141.198 69.6208 140.244C69.4632 140.125 69.3144 139.995 69.1756 139.855C68.2753 138.948 67.9972 137.68 68.5378 136.746C68.5675 136.686 68.6026 136.628 68.6428 136.575C69.4206 135.511 71.1103 135.42 72.4228 136.37C72.5788 136.484 72.7258 136.609 72.8622 136.746C73.7683 137.665 74.0444 138.94 73.5 139.861Z" fill="white"/>
<path d="M21.7019 77.8972L21.8731 77.9458L21.8089 78.1947C21.7683 78.0974 21.7326 77.9981 21.7019 77.8972Z" fill="#353642"/>
<ellipse rx="4.82984" ry="5.78633" transform="matrix(0.959543 -0.281561 0.281783 0.959478 50.5013 87.8946)" fill="#D7E8F0"/>
</svg>
