<svg width="175" height="175" viewBox="0 0 175 175" fill="none" xmlns="http://www.w3.org/2000/svg">
<path d="M135.923 38.1529C135.123 35.9313 134.233 33.7251 133.259 31.5804C131.317 27.3124 130.871 23.2676 128.144 19.6984" stroke="#CCDDE2"/>
<path d="M121.821 15.6071C119.474 13.2161 117.279 10.646 113.29 8.72661C104.861 4.68378 94.083 4.27372 80.3256 9.99144" stroke="#CCDDE2"/>
<path d="M22.4875 172.299C9.15676 153.427 4.84518 132.091 7.07305 110.269" stroke="#CCDDE2"/>
<path d="M143.423 79.3933V79.6263C143.293 83.8616 147.2 101.419 158.284 106.996C169.368 112.573 177.27 137.054 152.281 146.658C127.292 156.263 128.653 172.299 128.653 172.299" stroke="#CCDDE2"/>
<path d="M80.3231 28.1186V7.37696C80.3158 4.41042 77.9164 2.00741 74.9543 2H6.36882C3.40677 2.00741 1.0074 4.41042 1 7.37696V104.905C1.0053 107.871 3.40776 110.272 6.36882 110.271H74.9543C75.6197 110.275 76.2793 110.148 76.8958 109.897" stroke="black" stroke-linecap="round" stroke-linejoin="round"/>
<rect x="3.40845" y="5.28613" width="74.506" height="101.708" rx="24.95" fill="#0FBE73"/>
<rect x="7.79556" y="13.1565" width="66.548" height="19.0436" rx="9.52182" fill="#0FBE73"/>
<ellipse cx="40.6619" cy="19.2072" rx="1.96645" ry="1.9697" fill="#EAFFEF"/>
<path d="M35.166 28.1194C35.166 25.0792 37.6265 22.6146 40.6617 22.6146C43.6969 22.6146 46.1574 25.0792 46.1574 28.1194H35.166Z" fill="#EAFFEF"/>
<path fill-rule="evenodd" clip-rule="evenodd" d="M41.0618 52.6046C36.7745 52.6023 32.9082 55.1873 31.2665 59.1538C29.6247 63.1202 30.531 67.6867 33.5626 70.7228C36.5941 73.759 41.1536 74.6666 45.1141 73.0224C49.0745 71.3782 51.6556 67.506 51.6533 63.2122C51.6501 57.3551 46.91 52.6078 41.0618 52.6046ZM41.0618 71.2621C40.2077 71.2621 39.5153 70.5686 39.5153 69.7131C39.5153 68.8576 40.2077 68.1641 41.0618 68.1641C41.9159 68.1641 42.6082 68.8576 42.6082 69.7131C42.6082 70.5686 41.9159 71.2621 41.0618 71.2621ZM42.8847 60.3099C42.9311 59.9799 42.9772 59.6515 43.0243 59.3257V59.3334C43.0461 59.1606 43.0757 58.98 43.106 58.7953C43.2763 57.7568 43.4677 56.5891 42.4053 55.9778C41.3981 55.406 39.6546 55.5408 39.0414 56.6324C38.4904 57.5918 38.819 59.0446 39.0882 60.2347C39.1636 60.5681 39.2343 60.8809 39.2798 61.1565C39.5361 62.8882 39.9073 64.6009 40.3908 66.2832C40.5638 66.8145 41.5711 66.8145 41.7364 66.2832C42.3155 64.3649 42.6043 62.3077 42.8847 60.3099Z" fill="#EAFFEF"/>
<path d="M14.4502 40.7013H66.195" stroke="white"/>
<path d="M14.4502 45.8011H66.195" stroke="white"/>
<path d="M14.4502 78.6501H66.195" stroke="white"/>
<path d="M26.4701 83.4745H54.1754" stroke="white"/>
<path d="M19.9476 115.069C19.9476 115.069 29.1552 78.4252 57.8331 69.4751L69.4895 66.6894C69.4895 66.6894 71.333 58.444 70.6544 57.5777C69.9758 56.7113 68.5822 54.9364 66.0295 55.3214C63.4768 55.7064 56.8777 55.8296 55.1881 47.7497C53.4984 39.6699 59.7418 20.4645 75.9675 17.5922C92.1931 14.7198 92.5718 26.652 92.5718 26.652L80.6539 54.3107L82.5031 76.6232L82.7357 109.861L19.9476 115.069Z" fill="white"/>
<mask id="mask0_1_1538" style="mask-type:alpha" maskUnits="userSpaceOnUse" x="12" y="16" width="125" height="158">
<path fill-rule="evenodd" clip-rule="evenodd" d="M12.7477 16.5792H136.907V173H12.7477L12.7477 16.5792Z" fill="white"/>
</mask>
<g mask="url(#mask0_1_1538)">
<path d="M119.051 86.761C118.858 86.8168 116.406 87.531 115.441 89.2329C115.066 88.4376 114.266 87.9307 113.388 87.9315H84.5829C83.5275 87.9297 82.611 88.659 82.3743 89.6891L76.7017 114.048C76.3173 113.973 75.9328 113.927 75.533 113.888L62.1465 110.542C60.9566 110.243 59.7348 110.9 59.3247 112.058C59.2355 112.308 59.1912 112.573 59.194 112.839C59.1939 114.094 60.1627 115.135 61.4122 115.222L67.7422 115.631C61.6448 118.505 54.2269 123.98 48.0354 129.01C42.0111 119.564 47.6644 110.119 51.9164 105.033C51.3685 99.4266 48.5928 86.4106 34.7431 86.7648C39.5141 80.637 45.4634 75.3852 52.8352 71.8699C78.0858 99.9002 106.973 76.9831 107.586 76.4902C111.906 79.3125 115.772 82.7771 119.051 86.7648" fill="#2E2E2E"/>
<path d="M116.426 167.171V172.015H33.0378V165.153C36.2864 165.346 39.7041 164.576 42.8124 163.172C46.7472 161.378 50.1457 158.59 53.0522 155.41C56.0412 152.118 57.6828 147.554 59.5878 143.584C62.4481 137.606 66.2368 133.348 72.2496 131.544L71.8651 133.2C71.7088 133.875 71.8682 134.584 72.2982 135.127C72.7281 135.67 73.3818 135.988 74.0738 135.989H103.023C102.446 140.995 100.014 168.332 116.426 167.177" fill="#2E2E2E"/>
<path d="M103.036 39.7809C103.013 42.3707 102.676 44.9481 102.033 47.4565C101.433 49.8856 99.4688 51.7377 97.0117 52.1905C96.9637 50.4425 96.2217 48.9081 95.0895 47.9552C95.1929 46.4753 95.1781 44.9894 95.0453 43.5119C94.9703 42.5358 94.8531 41.6252 94.73 40.8071C94.6567 40.3413 94.5507 39.8814 94.4129 39.4306C94.0265 39.0148 93.5712 38.6689 93.0673 38.4083C91.2854 37.4034 87.6177 36.3349 80.8226 37.9058C79.7131 38.1602 78.6693 38.6449 77.7586 39.3285C77.7384 39.3411 77.7202 39.3567 77.7048 39.3747C77.0916 39.9407 76.3111 40.6569 75.5038 41.0285C74.6676 41.4135 73.7949 41.4289 73.0625 40.5183C73.0433 40.499 73.0337 40.4817 73.0164 40.4625C72.632 39.96 72.2648 39.3074 71.5863 39.1784C70.1561 38.9089 69.4603 40.3335 69.2796 41.5309C69.1219 42.6379 69.4468 43.6139 69.9216 44.5438C70.3192 45.2997 70.8388 45.9847 71.4594 46.571C71.6186 46.7252 71.7646 46.8927 71.8957 47.0715C71.8361 47.0821 71.7775 47.0982 71.7208 47.1196C71.5894 47.1638 71.461 47.2166 71.3364 47.2775C69.6064 48.0572 68.3742 50.0112 68.3473 52.2983C68.3473 52.3695 65.4466 52.3272 65.0795 52.2983C63.6647 52.1674 62.2711 51.7593 61.2754 50.6908C58.4497 47.6587 58.4631 43.1596 59.6242 39.6404C60.7237 36.3003 62.1231 33.0391 63.9569 30.0339C67.9302 23.5307 74.0948 18.7332 81.8991 18.302C83.7706 18.2077 85.6469 18.3175 87.4947 18.6293C88.369 18.7672 89.2338 18.9601 90.084 19.2068C98.0401 22.6836 103.09 30.5652 103.044 39.7809" fill="#2E2E2E"/>
<path d="M98.4279 113.919C97.4879 116.335 95.2504 117.717 93.43 116.999C91.6097 116.281 90.8946 113.755 91.8327 111.339C92.7707 108.923 95.0101 107.539 96.8305 108.259C98.6508 108.979 99.3678 111.505 98.4279 113.921" fill="#0FBE73"/>
<path d="M103.265 135.496C103.265 135.496 98.1595 171.14 118.581 167.19C138.892 163.257 146.579 80.5039 87.789 68.6025" stroke="black"/>
<path d="M55.4511 101.18C55.4511 101.18 38.9736 115.097 47.8525 129.016" stroke="black"/>
<path d="M103.636 125.595C103.353 125.613 102.95 125.424 102.675 125.349C102.326 125.257 101.981 125.158 101.639 125.052C99.6312 124.427 97.7424 123.469 96.0507 122.218C95.6663 121.943 94.982 121.766 94.5129 121.947C93.9812 122.142 93.598 122.612 93.5134 123.173C93.3692 124.167 94.0689 125.139 94.832 125.776C95.7374 126.535 96.6774 127.234 97.775 127.688C98.8344 128.114 99.9274 128.451 101.043 128.695C101.548 128.813 102.062 128.888 102.563 129.017" stroke="black"/>
<path d="M109.96 115.952C110.168 117.049 110.319 118.189 110.216 119.304C110.129 120.247 109.791 121.349 108.743 121.578C108.544 121.63 108.337 121.649 108.132 121.634C104.187 121.401 100.937 120.035 97.2251 117.348C93.5133 114.66 92.2062 120.85 95.597 121.947" stroke="black"/>
<path d="M95.7393 126.523C95.6482 126.447 95.5616 126.367 95.4798 126.282C93.6325 124.347 93.298 128.234 95.2375 129.378L95.4874 129.526C95.6182 129.582 95.7585 129.647 95.8969 129.718C95.9622 129.736 96.0353 129.765 96.1026 129.784C97.8556 130.554 99.7221 131.047 101.56 131.549C99.7414 130.954 97.9287 130.369 96.1026 129.784C95.9449 129.718 95.795 129.653 95.6374 129.578C95.589 129.558 95.5388 129.542 95.4874 129.532C95.4209 129.501 95.3434 129.509 95.2837 129.551C95.2398 129.587 95.2077 129.635 95.1914 129.69C94.8935 130.406 95.1357 131.309 95.5163 131.95C95.9161 132.627 96.6023 133.149 97.279 133.521C99.0993 134.543 101.216 135.147 103.259 135.509C103.638 135.588 104.026 135.613 104.412 135.584" stroke="black"/>
<path d="M120.896 139.995C120.896 139.995 114.631 129.303 113.934 120.006C113.507 114.252 111.819 113.033 110.612 112.951" stroke="black"/>
<path d="M108.743 121.575L109.962 115.952L110.612 112.948L115.429 90.6819C115.574 90.0104 115.407 89.3093 114.976 88.7747C114.546 88.2401 113.897 87.9292 113.211 87.929H84.404C83.3488 87.9279 82.4327 88.6569 82.1953 89.6866L76.5228 114.048L72.3823 131.823L71.9978 133.488C71.8429 134.163 72.0032 134.872 72.4333 135.414C72.8635 135.957 73.5168 136.274 74.2084 136.275H103.155" stroke="black"/>
<path d="M73.0276 39.8771C73.0276 39.8771 74.552 33.4027 83.1597 32.5441C91.7675 31.6855 93.9243 38.1271 93.9243 38.1271L93.6532 38.7759C93.6532 38.7759 82.337 34.2286 76.0878 40.7183C76.0878 40.7183 73.8369 41.7406 73.0276 39.8809" fill="#0FBE73"/>
<path d="M75.35 113.888L61.9616 110.538C61.0908 110.322 60.1728 110.616 59.5895 111.299C59.0061 111.982 58.8571 112.936 59.2045 113.764C59.5518 114.593 60.3361 115.154 61.2312 115.215L67.5611 115.633" stroke="black"/>
<path d="M107.413 76.4801C107.413 76.4801 78.17 100.206 52.6542 71.8694" stroke="black"/>
<path d="M51.7371 105.028C51.1892 99.4223 48.4154 86.3967 34.5542 86.7605" stroke="black"/>
<path d="M118.875 86.7566C118.875 86.7566 116.263 87.4767 115.262 89.2365" stroke="black"/>
<path d="M12.7504 172.303H136.91" stroke="black"/>
<path d="M95.0893 47.9629C96.2599 48.9486 97.0115 50.558 97.0115 52.3792C97.0115 55.4017 94.9143 57.8466 92.3232 57.8466C92.03 57.8451 91.738 57.8109 91.4524 57.7446C94.4703 55.4344 95.0816 47.9629 95.0816 47.9629" fill="#0FBE73"/>
<path d="M78.0172 60.1625C80.96 61.6291 84.3894 61.7616 87.4362 60.5263C95.9287 56.9744 95.6038 46.5054 94.7215 40.8146C94.6512 40.353 94.551 39.8964 94.4216 39.4478C93.447 36.1943 90.9039 33.5433 87.5535 32.7906C81.064 31.3217 75.13 35.0064 72.6676 39.9676" stroke="black"/>
<path d="M94.5027 39.5501C94.5027 39.5501 94.4758 39.5116 94.4201 39.4481C93.8434 38.7973 90.5045 35.6916 80.8395 37.9232C79.7304 38.1771 78.6871 38.6619 77.7773 39.3461C77.7559 39.3584 77.7364 39.374 77.7197 39.3923" stroke="black"/>
<path d="M68.7408 55.3207H63.9602C60.5098 55.3207 57.7744 52.1557 56.5845 49.1852C54.9122 45.0076 55.9829 40.7319 57.488 36.6717C58.749 33.2738 60.3521 29.9722 62.4608 27.017C67.1818 20.4041 74.3095 16.6578 82.5021 17.3508C83.2287 17.4124 83.9521 17.5023 84.6723 17.6204C95.6733 19.4069 103.091 28.6188 103.035 39.7751C103.012 42.3667 102.676 44.946 102.032 47.4564C101.428 49.8834 99.4648 51.7338 97.0092 52.1904" stroke="black"/>
<path d="M71.8991 47.0712C71.7675 46.8922 71.6215 46.7241 71.4628 46.5687C70.8418 45.9836 70.3221 45.2992 69.925 44.5435C69.4502 43.6136 69.1253 42.6376 69.2829 41.5306C69.4598 40.3409 70.1556 38.9085 71.5896 39.1781C72.2682 39.309 72.6296 39.9597 73.0198 40.4622C74.5037 42.3873 76.5471 40.4525 77.8004 39.2897" stroke="black"/>
<path d="M95.0889 47.9629C96.2596 48.9486 97.0112 50.558 97.0112 52.3792C97.0112 55.4017 94.914 57.8466 92.3228 57.8466C92.0297 57.8451 91.7376 57.8109 91.452 57.7446" stroke="black"/>
<path d="M85.057 51.6724C86.1066 52.3789 88.642 52.9584 88.1326 50.8638C87.5213 48.3823 86.6986 43.0804 91.7368 42.6761C91.7368 42.6761 93.9551 42.7705 95.0508 43.5251" stroke="black"/>
<path d="M86.9541 55.8212C86.9541 55.8212 84.4167 57.169 83.1596 54.483" stroke="black"/>
<path d="M81.8082 46.302C81.7102 47.1549 82.0428 47.8923 82.5521 47.952C83.0615 48.0117 83.5536 47.3744 83.6536 46.5157C83.7535 45.6569 83.4172 44.9272 82.9097 44.8675C82.4022 44.8078 81.9063 45.4451 81.8082 46.302Z" fill="black"/>
<path d="M90.0703 46.8042C89.9722 47.6552 90.3048 48.3946 90.8142 48.4542C91.3236 48.5139 91.8156 47.8766 91.9137 47.0179C92.0117 46.1592 91.6792 45.4275 91.1717 45.3697C90.6642 45.312 90.1683 45.9474 90.0703 46.8042Z" fill="black"/>
<path d="M85.0564 43.2216C85.0564 43.2216 83.5032 40.8226 79.9836 43.0984" stroke="black"/>
<path d="M87.7864 60.3688V73.6755" stroke="black"/>
<path d="M35.2594 139.995C35.2594 139.995 40.7359 134.797 47.8482 129.022C54.0397 123.991 61.4653 118.507 67.5646 115.634C68.345 115.271 69.1024 114.945 69.8386 114.672C71.5952 114.001 73.4807 113.738 75.3535 113.902C75.7455 113.934 76.1356 113.987 76.5222 114.06" stroke="black"/>
<path d="M72.3814 131.823C66.3668 133.627 62.578 137.885 59.7197 143.863C57.8186 147.832 56.1731 152.397 53.184 155.689C50.2795 158.867 46.881 161.657 42.9462 163.451C35.807 166.705 27.0166 166.455 22.3782 159.38C19.2411 154.582 18.007 148.622 17.3804 143.016C16.3039 133.273 19.7025 105.808 34.5537 86.7588C39.3247 80.631 45.2759 75.3792 52.6458 71.8639C57.8186 69.4035 63.666 67.7941 70.2939 67.3378L72.1508 57.7448" stroke="black"/>
<path d="M116.558 167.494V172.304" stroke="black"/>
<path d="M33.1698 165.777V172.304" stroke="black"/>
<path d="M77.71 52.3792C77.7283 53.8224 77.2166 55.2221 76.2721 56.3123C75.7425 56.5576 75.166 56.6843 74.5825 56.6838C71.9932 56.6838 69.8941 54.2389 69.8941 51.2164C69.8755 49.7734 70.3881 48.374 71.3339 47.2852C71.8631 47.0386 72.4399 46.9112 73.0235 46.9117C75.6128 46.9117 77.71 49.3586 77.71 52.3792Z" fill="#0FBE73"/>
<ellipse cx="73.0277" cy="52.3792" rx="4.68258" ry="5.46745" stroke="black"/>
</g>
<path fill-rule="evenodd" clip-rule="evenodd" d="M128.698 4.59888C122.799 2.83754 116.421 4.8088 112.538 9.59345C108.656 14.3781 108.034 21.0339 110.962 26.4572C113.89 31.8806 119.791 35.0034 125.915 34.3696C132.038 33.7358 137.177 29.4701 138.936 23.5617C141.337 15.4938 136.754 7.00393 128.698 4.59888ZM121.051 30.289C119.874 29.937 119.204 28.6957 119.556 27.5164C119.907 26.3371 121.146 25.6665 122.324 26.0184C123.501 26.3704 124.171 27.6118 123.819 28.791C123.468 29.9703 122.228 30.641 121.051 30.289ZM128.648 14.9311C128.677 14.8579 128.708 14.7829 128.74 14.7059H128.735C128.792 14.5697 128.854 14.4281 128.918 14.2821C129.541 12.8577 130.344 11.0203 129.184 9.81018C128.027 8.60888 125.572 8.07176 124.271 9.32311C123.12 10.4198 122.979 12.5712 122.864 14.325C122.832 14.8064 122.802 15.2578 122.754 15.6492C122.396 18.1363 122.204 20.6446 122.178 23.1573C122.182 23.9659 123.573 24.3817 124.017 23.7079C125.849 20.9443 127.401 18.0041 128.648 14.9311Z" fill="#0FBE73"/>
<path fill-rule="evenodd" clip-rule="evenodd" d="M139.228 92.0049C137.069 94.2041 136.445 97.4897 137.647 100.329C138.85 103.169 141.642 105.004 144.722 104.977C147.802 104.951 150.563 103.069 151.716 100.209C152.87 97.3487 152.19 94.0743 149.993 91.9125C146.995 88.9621 142.176 89.0034 139.228 92.0049ZM148.778 101.406C148.347 101.845 147.642 101.851 147.204 101.419C146.765 100.987 146.759 100.281 147.19 99.8421C147.469 99.558 147.878 99.4445 148.263 99.5443C148.648 99.6441 148.951 99.9421 149.057 100.326C149.163 100.71 149.057 101.121 148.778 101.406ZM144.063 94.918C143.927 94.7406 143.791 94.564 143.657 94.3881C143.58 94.2902 143.503 94.1842 143.424 94.0758C142.978 93.4635 142.475 92.7727 141.638 93.0115C140.837 93.2425 140.026 94.2033 140.274 95.0736C140.488 95.8398 141.406 96.4068 142.153 96.8685C142.358 96.995 142.55 97.1136 142.711 97.2262C143.725 97.9681 144.788 98.641 145.892 99.2402C146.25 99.4289 146.759 98.909 146.567 98.5547C145.877 97.2785 144.956 96.0805 144.063 94.918Z" fill="#0FBE73"/>
<path fill-rule="evenodd" clip-rule="evenodd" d="M169.081 30.9292C171.199 28.3196 170.803 24.4847 168.198 22.3634C165.592 20.2421 161.763 20.6377 159.645 23.2469C157.527 25.8562 157.922 29.6912 160.527 31.8128C161.778 32.8318 163.382 33.3112 164.986 33.1455C166.591 32.9798 168.063 32.1825 169.081 30.9292ZM160.782 24.1739C160.983 23.9269 161.299 23.8057 161.613 23.8559C161.926 23.9061 162.189 24.12 162.303 24.4172C162.416 24.7143 162.363 25.0495 162.163 25.2964C161.962 25.5434 161.646 25.6646 161.332 25.6144C161.019 25.5642 160.756 25.3503 160.642 25.0531C160.529 24.756 160.582 24.4208 160.782 24.1739ZM165.011 28.9719C165.135 29.1058 165.259 29.2391 165.382 29.3721V29.3606C165.447 29.4303 165.513 29.5057 165.58 29.5828C165.983 30.0438 166.438 30.5658 167.095 30.3117C167.716 30.0768 168.289 29.2508 168.027 28.5788C167.8 27.9843 167.029 27.6038 166.401 27.2937C166.228 27.2081 166.065 27.1279 165.928 27.0501C165.063 26.535 164.165 26.0783 163.239 25.683C162.947 25.5598 162.574 26.0103 162.755 26.278C163.401 27.2432 164.217 28.1192 165.011 28.9719Z" fill="#0FBE73"/>
<path d="M108.646 71.0767C110.791 74.7345 110.693 77.3393 110.135 81.5611C109.912 83.1686 111.641 84.2564 113.042 83.4478C125.423 76.3247 136.98 81.9577 151.742 78.4655C157.163 77.191 163.922 74.5497 168.554 70.3028C170.092 68.0169 170.913 65.3236 170.913 62.5675C170.913 51.0166 155.15 41.6392 135.711 41.6392C123.253 41.6392 112.308 45.4895 106.051 51.29C106.051 51.29 106.051 51.29 106.033 51.3073C104.446 53.6887 103.573 56.2915 103.573 59.0079C103.563 63.1528 106.641 67.6461 108.646 71.0767Z" fill="#EAFFEF"/>
<path fill-rule="evenodd" clip-rule="evenodd" d="M103.619 59.008V59.3006C103.688 63.3435 105.714 67.111 108.113 70.3703C109.72 72.5496 111.627 74.9714 111.175 77.6435C110.983 78.8217 110.32 79.8902 110.155 81.0722C109.989 82.2543 110.618 83.729 111.81 83.7906C112.567 83.8291 113.211 83.29 113.811 82.828C117.357 80.075 121.967 79.0451 126.449 78.8641C130.932 78.6831 135.409 79.2761 139.894 79.4031C146.36 79.5957 152.928 78.7794 158.901 76.2959C164.252 74.0743 169.156 70.4281 172.376 65.5574C175.54 60.7753 173.669 53.8313 170.294 49.6729C167.13 45.7706 162.545 43.2737 157.843 41.5141C145.197 36.7859 130.763 36.8937 118.291 42.0743C114.589 43.6145 111.008 45.6166 108.232 48.514C105.528 51.3363 103.648 55.098 103.619 59.008H103.619Z" stroke="black"/>
<ellipse cx="155.508" cy="58.746" rx="4.85558" ry="4.86295" fill="#0FBE73"/>
<ellipse cx="139.803" cy="58.746" rx="4.85558" ry="4.86295" fill="#0FBE73"/>
<ellipse cx="123.792" cy="58.746" rx="4.85558" ry="4.86295" fill="#0FBE73"/>
</svg>
