<svg width="175" height="175" viewBox="0 0 175 175" fill="none" xmlns="http://www.w3.org/2000/svg">
<g clip-path="url(#clip0_1_1532)">
<ellipse rx="3.9769" ry="2.98232" transform="matrix(0.499828 -0.866125 0.865926 0.500172 70.2012 82.5672)" fill="#CCDDE2"/>
<ellipse rx="3.97691" ry="2.98232" transform="matrix(0.498112 -0.867113 0.866915 0.498456 79.1438 84.5467)" fill="#CCDDE2"/>
<path d="M47.7381 111.154C50.2218 105.498 51.7899 98.9709 51.9378 91.402C52.6555 54.3817 94.5006 25.8137 140.919 57.2143C187.338 88.615 146.313 175 146.313 175" stroke="#CCDDE2" stroke-width="0.994286"/>
<path d="M15.0774 175C13.0621 173.374 -2.30144 157.945 6.92651 149.114C10.8694 145.346 19.3558 140.945 27.8571 134.234" stroke="#CCDDE2" stroke-width="0.994286"/>
<path d="M127.262 82.5314C127.395 83.294 127.743 83.9904 128.256 84.5199" stroke="#CCDDE2" stroke-width="0.994286"/>
<path d="M90.7078 99.1443C90.3817 99.23 90.1062 99.2915 89.888 99.342C89.7249 99.3706 89.5905 99.3991 89.4979 99.4123H89.4781L89.3503 99.4343C89.3503 99.4343 89.337 99.4189 89.3282 99.4189C87.1244 97.8066 87.8009 94.806 87.8009 94.806C94.3905 95.8406 95.7569 90.5204 95.7569 90.5204C95.6709 87.9701 95.1839 86.7707 94.0599 86.081C92.8852 85.3473 91.012 85.1584 88.1491 84.5434L87.6753 84.4379C83.4175 83.4736 81.4318 79.1177 80.6472 76.7014C80.4645 76.1661 80.3172 75.6195 80.2064 75.0649C75.3844 76.8706 72.3651 79.4274 70.6263 81.3451C69.9387 67.7502 83.629 69.703 83.629 69.703C85.9328 69.7359 88.2223 70.0697 90.439 70.6958C90.9414 70.9155 91.4219 71.1352 91.8803 71.3548C92.1007 71.4669 92.3343 71.5877 92.5414 71.7129C92.7486 71.8381 92.9822 71.9611 93.185 72.0863C93.3326 72.172 93.4825 72.2642 93.6257 72.3609C96.6373 74.2659 99.0446 76.9837 100.568 80.1984C100.59 80.242 100.609 80.2867 100.625 80.3324C100.694 80.4813 100.756 80.6338 100.808 80.7893C103.907 94.303 94.3464 98.1712 90.7078 99.1443Z" fill="#0FBE73"/>
<path d="M90.7078 98.44C89.7469 96.8861 90.1921 95.0107 90.1921 95.0107C96.7751 96.0224 98.1459 90.8313 98.1459 90.8313C98.0048 87.0141 96.9448 86.2983 94.0599 85.6874C92.991 85.4538 91.6775 85.2395 90.0643 84.8901C89.3944 84.7437 88.7494 84.5048 88.1491 84.1807C83.7657 81.8445 82.5844 75.7383 82.5844 75.7383C81.9056 75.9847 81.2621 76.2527 80.6472 76.5291C80.4645 76.0069 80.3172 75.4735 80.2064 74.9324C75.3844 76.6942 72.3651 79.189 70.6263 81.0601C69.9387 67.7952 83.629 69.7006 83.629 69.7006C85.9328 69.7328 88.2223 70.0585 90.439 70.6694C90.9414 70.8837 91.4219 71.098 91.8803 71.3124C92.1007 71.4217 92.3343 71.5396 92.5414 71.6617C92.7486 71.7839 92.9822 71.9039 93.185 72.0261C93.3326 72.1097 93.4825 72.1997 93.6257 72.294C96.6373 74.1528 99.0446 76.8046 100.568 79.9413C100.59 79.9837 100.609 80.0274 100.625 80.072C100.694 80.2172 100.756 80.3661 100.808 80.5178C103.907 93.7162 94.3464 97.4905 90.7078 98.44Z" fill="#0FBE73"/>
<path d="M65.631 15.9105L63.6561 19.8904C62.7957 21.6211 60.6289 22.3632 58.8093 21.5504L53.8013 19.2928C51.9862 18.472 51.2078 16.408 52.0595 14.6738L52.1923 14.4041C53.5531 13.3666 55.9069 11.9722 56.7647 13.8749C58.0015 16.6139 59.6084 15.7279 61.6638 14.5825C63.3883 13.6135 65.4481 13.2919 65.631 15.9105Z" fill="white"/>
<circle cx="58.176" cy="9.45139" r="1.49143" fill="white"/>
<path d="M88.4941 36.7942L85.9421 42.1022C84.8321 44.4072 82.0467 45.3927 79.7091 44.3073L73.2783 41.3012C70.9465 40.2039 69.9496 37.4505 71.0475 35.1398L71.2198 34.7803C72.97 33.4013 75.994 31.5367 77.0977 34.074C78.6905 37.7276 80.7554 36.5461 83.3988 35.0179C85.6083 33.7334 88.2601 33.3004 88.4941 36.7942Z" fill="white"/>
<circle cx="97.441" cy="44.7486" r="1.98857" fill="white"/>
<circle cx="102.411" cy="48.7258" r="1.98857" fill="white"/>
<circle cx="107.381" cy="51.7085" r="1.98857" fill="white"/>
<path d="M147.143 143.602C147.142 143.639 147.137 143.677 147.13 143.713C147.126 143.722 147.126 143.732 147.13 143.741C146.82 145.743 145.966 147.627 144.656 149.2C144.64 149.213 144.634 149.235 144.62 149.247C142.607 151.689 139.688 153.45 136.734 154.556C133.716 155.699 130.656 156.16 128.477 156.001H128.428C125.763 155.808 122.837 156.145 120.277 156.612C120.008 156.661 119.74 156.708 119.471 156.764C117.781 157.094 116.113 157.506 114.461 157.96L114.151 158.044L113.944 158.097C112.401 148.272 111.357 138.211 111.357 138.211L142.86 143.658C144.278 143.908 145.732 143.889 147.143 143.602Z" fill="#0FBE73"/>
<path d="M82.9534 96.6881C81.3036 98.2949 79.0944 98.605 76.9247 99.0789C71.9951 100.156 67.8619 98.9324 67.6447 93.369C67.5043 89.7892 67.8904 86.2073 70.0974 83.2349C72.741 79.6746 76.8018 77.3031 80.8473 75.5714C80.8473 75.5714 82.7033 84.8934 91.1584 85.2984C99.6136 85.7033 97.5557 96.6472 87.6483 94.8228" stroke="black" stroke-width="0.994286"/>
<path d="M88.4941 99.5682C88.6785 99.5682 88.8483 99.5682 89.0198 99.553C89.0616 99.5497 89.1035 99.5497 89.1453 99.553H89.1619L89.4884 99.5181" stroke="black" stroke-width="0.994286"/>
<path d="M98.4346 77.0998C97.0385 75.421 95.3701 73.9948 93.5009 72.8823C93.2929 72.7438 93.0776 72.617 92.8558 72.5024C92.6349 72.375 92.4139 72.2521 92.193 72.1381C91.7268 71.8945 91.2429 71.6642 90.748 71.4676C87.8263 70.23 84.6891 69.597 81.5215 69.6058C64.4826 69.6058 69.2173 84.52 69.2173 84.52" stroke="black" stroke-width="0.994286"/>
<path d="M100.838 111.366C100.234 108.331 100.99 103.608 101.826 99.8303C102.577 96.466 103.398 93.8572 103.398 93.8572C104.636 86.9916 104.584 83.3105 104.01 81.4165C103.026 78.0715 100.423 80.2394 100.423 80.2394" stroke="black" stroke-width="0.994286"/>
<path d="M103.359 81.8918C102.419 78.516 99.9332 80.7039 99.9332 80.7039C99.5035 79.7278 98.973 78.7991 98.3501 77.9328C98.0989 77.5843 97.8347 77.2445 97.5575 76.9134C98.3003 74.9457 100.282 73.7729 102.322 73.6152C107.678 73.2049 112.958 76.7406 114.571 81.8227C116.029 86.4168 115.169 91.3974 114.98 96.1102C114.905 98.1535 114.612 101.294 116.176 102.948C116.258 103.033 116.336 103.108 116.425 103.184C117.724 104.3 119.795 104.363 122.248 104.197C122.963 104.147 123.715 104.087 124.492 104.015C126.874 103.799 129.473 103.614 131.983 104.037L132.232 104.078C132.156 108.16 131.905 112.255 131.697 116.337C131.587 118.324 131.481 120.314 131.427 122.303C127.73 121.07 122.98 119.316 119.316 118.076L117.363 117.404C111.102 115.277 106.086 113.599 100.23 112.255C97.9711 111.735 95.5889 111.27 92.9554 110.84L90.1552 110.35C89.7675 110.283 89.4855 109.946 89.4881 109.553V99.6718C93.2789 99.3508 96.7007 97.2793 98.7356 94.0735C101.445 89.7278 101.703 85.2807 100.221 81.3778C100.168 81.2219 100.107 81.069 100.037 80.9199C100.021 80.875 100.002 80.831 99.9809 80.7881C99.9809 80.7752 99.9679 80.7536 99.9614 80.7385" stroke="black" stroke-width="0.994286"/>
<path d="M30.8393 116.337C31.6576 109.759 32.0341 103.068 32.8279 96.4514" stroke="black" stroke-width="0.994286"/>
<path d="M33.8215 95.4571C34.058 93.637 34.338 91.8169 34.6896 90.0183C34.7027 89.9299 34.7179 89.8458 34.7374 89.7639C34.9327 88.6985 35.1498 87.6397 35.3885 86.5808C36.1134 83.4129 38.6442 81.0946 40.4434 78.5133L40.5541 78.2372C44.436 72.626 46.585 66.011 46.7377 59.2037C46.7811 56.741 46.6834 51.8715 43.8423 50.8666C42.2471 50.2994 40.5541 51.4079 39.6708 52.6737C39.308 53.1963 39.0161 53.764 38.8026 54.3623" stroke="black" stroke-width="0.994286"/>
<path d="M59.6666 175C52.6802 155.311 55.9929 133.802 55.9929 133.802L45.6894 134.124L18.5094 134.979C15.2796 135.085 12.162 133.796 9.96327 131.445C7.7645 129.095 6.70042 125.913 7.04626 122.724L15.1202 93.4686" stroke="black" stroke-width="0.994286"/>
<path d="M15.9286 92.4743L16.849 89.6786L17.9172 86.5085" stroke="black" stroke-width="0.994286"/>
<path d="M17.3503 83.5258L17.8152 81.8549C18.4311 79.6365 18.2787 77.2751 17.3827 75.1541L16.4593 72.9494C15.856 71.1121 15.6679 70.2237 16.4247 68.4275C16.7829 67.5799 17.2855 66.801 17.9104 66.1254C19.7334 64.1152 22.3002 63.1166 24.9449 62.7751C27.5897 62.4335 30.509 62.6994 32.6369 64.4135C34.0814 65.5764 35.4481 68.3453 34.5031 70.1545C33.8176 71.4709 32.3666 71.8535 31.1318 71.3823C30.6997 71.2206 30.3105 70.9617 29.9943 70.6257C28.5368 69.0997 25.4531 68.7668 24.3719 70.2518" stroke="black" stroke-width="0.994286"/>
<path d="M132.306 124.291C132.306 123.847 132.326 123.406 132.347 122.956V122.921C132.347 122.717 132.361 122.506 132.376 122.303" stroke="black" stroke-width="0.994286"/>
<path d="M129.531 72.5886C126.99 73.9659 123.87 77.4287 129.134 85.5689C130.87 88.2508 132.703 91.1505 132.961 94.4615C133.202 97.7703 133.279 101.089 133.191 104.406" stroke="black" stroke-width="0.994286"/>
<path d="M104.399 137.29L110.461 138.369L110.897 138.446L113.678 138.944L142.034 143.998C143.437 144.255 144.877 144.235 146.273 143.942V143.942C151.262 142.888 154.898 138.565 155.095 133.452L150.905 99.033L149.978 91.6863C149.683 89.3758 150.178 87.0334 151.38 85.041L152.624 82.9651C152.624 82.9651 154.788 79.7965 151.001 79.5649C148.961 79.4447 146.837 80.0019 144.993 80.841C143.939 81.3109 142.458 82.1522 141.864 83.3082C141.622 83.7458 141.54 84.2544 141.633 84.746C142.068 87.0034 144.899 87.9561 146.768 87.0034" stroke="black" stroke-width="0.994286"/>
<path d="M151.929 79.8631C151.929 79.8631 154.039 78.5553 152.611 75.3384C152.105 74.1938 150.57 73.4002 147.265 73.6193C138.463 74.2028 135.015 83.6277 141.698 83.5249" stroke="black" stroke-width="0.994286"/>
<path d="M150.522 73.6751C152.554 71.0447 148.958 68.5276 146.339 68.6136C143.869 68.6954 141.369 69.5533 139.205 70.6273C136.195 72.1208 132.309 75.0134 133.421 78.6738C133.749 79.7519 136.347 81.0839 138.044 80.3141" stroke="black" stroke-width="0.994286"/>
<path d="M133.763 77.5215C133.763 77.5215 133.763 77.5215 133.763 77.5345C132.339 80.1443 125.601 77.5345 129.405 72.1017C130.294 70.8999 131.359 69.8281 132.568 68.9196C142.054 61.4794 144.174 69.0444 144.161 68.5947" stroke="black" stroke-width="0.994286"/>
<path d="M137.202 80.5428C137.202 80.5428 141.171 82.7802 139.953 86.5086" stroke="black" stroke-width="0.994286"/>
<path d="M19.0416 61.7297C18.8203 60.8838 18.8491 59.8168 19.3669 58.4513C20.1126 56.489 22.2857 55.2008 24.4012 54.3528C25.1735 54.0436 25.9502 53.7881 26.6141 53.5884C28.9221 52.9014 31.4558 52.5364 33.9165 52.7769C34.7458 52.8549 35.5658 53.0073 36.3662 53.2321C37.2893 53.4904 38.1727 53.8673 38.9928 54.3528C41.0154 55.5594 42.3852 57.3907 43.2083 59.7953C43.9253 61.8693 44.2019 64.334 42.4272 65.6286" stroke="black" stroke-width="0.994286"/>
<path d="M42.763 93.6838L42.1129 96.8068C42.0694 97.019 41.9408 97.2046 41.7568 97.3208C41.5727 97.4371 41.3489 97.4742 41.1368 97.4236C38.6358 96.8353 36.4434 96.2885 34.1385 95.7615C32.9949 95.4946 31.8138 95.2431 30.5623 94.9829C25.6705 93.979 20.7854 92.8462 15.8672 91.9714C13.8113 91.6061 11.7533 91.289 9.682 91.0506C8.52296 90.9172 7.3485 90.8626 6.18286 90.7773C5.92806 90.7715 5.68117 90.6883 5.47554 90.5389C4.3738 89.7384 5.47554 87.1359 5.71572 86.0555C5.71572 86.0424 5.71572 86.0271 5.71572 86.014C5.88539 85.1851 10.6846 85.4235 17.3942 86.4623C19.7343 86.8275 22.3058 87.2824 25.0006 87.8314C28.7884 88.6034 32.2038 89.4366 34.9957 90.2371C35.476 90.377 35.9366 90.5105 36.3751 90.6439H36.3883C36.9458 90.8188 37.4702 90.9872 37.9638 91.1556C41.0817 92.2119 42.8775 93.1305 42.763 93.6838Z" fill="#0FBE73"/>
<path fill-rule="evenodd" clip-rule="evenodd" d="M42.763 93.6838L42.1129 96.8068C42.0694 97.019 41.9408 97.2046 41.7568 97.3208C41.5727 97.4371 41.3489 97.4742 41.1368 97.4236C38.6358 96.8353 36.4434 96.2885 34.1385 95.7615C32.9949 95.4946 31.8138 95.2431 30.5623 94.9829C25.6705 93.979 20.7854 92.8462 15.8672 91.9714C13.8113 91.6061 11.7533 91.289 9.682 91.0506C8.52296 90.9172 7.3485 90.8626 6.18286 90.7773C5.92806 90.7715 5.68117 90.6883 5.47554 90.5389C4.3738 89.7384 5.47554 87.1359 5.71572 86.0555C5.71572 86.0424 5.71572 86.0271 5.71572 86.014C5.88539 85.1851 10.6846 85.4235 17.3942 86.4623C19.7343 86.8275 22.3058 87.2824 25.0006 87.8314C28.7884 88.6034 32.2038 89.4366 34.9957 90.2371C35.476 90.377 35.9366 90.5105 36.3751 90.6439H36.3883C36.9458 90.8188 37.4702 90.9872 37.9638 91.1556C41.0817 92.2119 42.8775 93.1305 42.763 93.6838V93.6838Z" stroke="black" stroke-width="0.994286"/>
<path d="M35.8366 68.2265L36.465 69.4638C37.255 70.314 38.3481 70.8511 39.8462 70.4814C42.7848 69.7639 43.0747 67.3698 42.5636 65.0823C42.4757 64.667 42.3619 64.2575 42.2228 63.856C41.5346 61.8381 40.4702 60.2138 38.9788 59.0287C37.919 58.1857 36.6944 57.5655 35.3807 57.2066C34.3103 56.9029 33.2059 56.7298 32.0925 56.6912C29.9047 56.6172 27.7201 56.9113 25.6332 57.561C23.5465 58.1894 20.692 59.2701 19.174 61.1249C18.8339 61.5324 18.5648 61.9923 18.3773 62.4861C17.9104 63.7342 17.8308 64.7453 17.9945 65.5629L18.1516 66.3239" stroke="black" stroke-width="0.994286"/>
<path d="M36.1675 52.7029L36.8667 49.7811L37.6973 46.3399C37.9343 45.3368 37.7473 44.2795 37.1811 43.421C36.615 42.5625 35.7205 41.9799 34.7118 41.8128C34.5165 41.7802 34.3187 41.7645 34.1207 41.7658C32.393 41.7616 30.8971 42.9757 30.5314 44.6791C30.3195 45.6751 30.0547 46.887 29.7623 48.2528C29.4847 49.5481 29.1775 50.9673 28.8512 52.4635" stroke="black" stroke-width="0.994286"/>
<path d="M27.9672 57.7869V57.7803" stroke="black" stroke-width="0.994286"/>
<path d="M25.2543 70.4523C25.0341 71.5252 24.9086 72.2004 24.9152 72.3162V72.3315C23.962 78.6902 21.1574 82.0903 18.1062 83.8624C16.24 84.9164 14.1557 85.533 12.0127 85.6652" stroke="black" stroke-width="0.994286"/>
<path d="M32.1469 71.5951C32.1469 71.5951 27.0352 85.1189 35.0285 89.9131C35.4512 90.165 35.8928 90.3841 36.3494 90.5686C36.8964 90.794 37.4612 90.9745 38.0379 91.1084" stroke="black" stroke-width="0.994286"/>
<path d="M41.6548 97.277C41.6548 97.277 41.6901 97.9019 33.9697 96.746C31.328 96.3527 27.7771 95.7496 23.0022 94.8384C20.0082 94.2703 17.5206 93.7655 15.4601 93.3306C4.63351 91.0319 5.47225 90.4637 5.47225 90.4637" stroke="black" stroke-width="0.994286"/>
<path d="M62.4737 21.3486C60.846 29.981 55.484 39.0683 48.9817 44.9009C46.3224 47.2957 43.2302 48.9656 39.892 49.6231C38.8676 49.8315 37.8253 49.9387 36.7801 49.9431L37.6266 46.4401C38.0555 44.6596 37.1506 42.827 35.4766 42.0858C35.1835 41.96 34.8768 41.8686 34.5626 41.8137C34.3612 41.7804 34.1574 41.7643 33.9533 41.7658C32.1748 41.7628 30.6372 43.006 30.2669 44.7463C30.1342 45.382 29.9731 46.1027 29.799 46.8908C21.5297 41.4218 17.9434 29.7241 18.3417 20.2252C18.4679 17.0684 18.642 12.9122 20.0238 9.69876C20.4901 8.55347 21.1863 7.51608 22.0694 6.65077C25.9864 2.9627 31.3484 1.27977 36.878 1.02722C41.1222 1.22748 45.299 2.16607 49.2211 3.80089C56.5329 6.89025 64.1624 12.3679 62.4737 21.3486Z" fill="#0FBE73"/>
<path d="M62.4737 21.3486C60.846 29.981 55.484 39.0683 48.9817 44.9009C46.3224 47.2957 43.2302 48.9656 39.892 49.6231L40.6645 46.4401C40.9079 45.4184 40.7159 44.3415 40.1344 43.467C39.5529 42.5925 38.6343 41.9991 37.5983 41.8289C37.3977 41.7957 37.1945 41.7797 36.9912 41.781C36.4665 41.7789 35.9473 41.888 35.4679 42.1011C35.1748 41.9752 34.8681 41.8839 34.5539 41.8289C34.3525 41.7956 34.1487 41.7796 33.9446 41.781C32.174 41.7806 30.6427 43.0153 30.2669 44.7463C30.1342 45.382 29.9731 46.1027 29.799 46.8908C21.5297 41.4218 17.9434 29.7241 18.3417 20.2252C18.4679 17.0684 18.642 12.9122 20.0238 9.69876C20.4901 8.55347 21.1863 7.51608 22.0694 6.65076C25.9864 2.9627 31.3484 1.27977 36.878 1.02722C41.1222 1.22748 45.299 2.16607 49.2211 3.80089C56.5329 6.89025 64.1624 12.3679 62.4737 21.3486Z" fill="#0FBE73"/>
<path fill-rule="evenodd" clip-rule="evenodd" d="M62.4741 21.3508C60.8485 29.9831 55.4865 39.0705 48.982 44.903C45.5002 48.025 41.2981 49.9235 36.7739 49.9453L37.6269 46.4401C37.8704 45.4184 37.6783 44.3414 37.0969 43.4669C36.5154 42.5924 35.5967 41.9991 34.5608 41.8289C34.3601 41.7957 34.157 41.7796 33.9536 41.781C32.1791 41.7767 30.6429 43.0134 30.2672 44.7484C30.0496 45.763 29.7776 46.9974 29.4773 48.3886C19.2712 43.8624 14.8645 30.7103 15.3063 20.2274C15.4303 17.0705 15.6044 12.9144 16.9884 9.7009C17.4539 8.55518 18.1502 7.51763 19.034 6.65291C26.7397 -0.596951 39.9989 -0.0962093 49.2214 3.80304C56.5311 6.8924 64.1628 12.3679 62.4741 21.3508V21.3508Z" stroke="black" stroke-width="0.994286"/>
<path d="M62.4305 21.662C64.191 23.7695 65.8427 27.3008 64.389 32.5477C64.1654 33.3754 63.8455 34.1741 63.4359 34.9273C61.1248 39.0638 56.6637 39.7888 53.6563 39.7453" stroke="black" stroke-width="0.994286"/>
<path d="M61.0899 26.0751C62.6132 27.8995 64.0212 30.7886 63.4336 34.9317C63.3403 35.5968 63.2029 36.255 63.0223 36.902C60.8462 44.7222 52.8576 44.3369 50.1157 43.9559" stroke="black" stroke-width="0.994286"/>
<path d="M18.4269 36.8608C16.7252 37.2113 7.0958 35.2345 6.97828 27.203C6.94376 26.1144 7.14881 25.0315 7.5789 24.0309C9.08696 20.6302 13.0649 19.5547 15.3564 19.2042" stroke="black" stroke-width="0.994286"/>
<path d="M16.6945 32.8352C14.9536 32.9419 5.70282 29.6392 6.70602 21.6687C6.82567 20.5891 7.17996 19.5488 7.74404 18.6207C9.70257 15.4617 13.8024 14.9544 16.1178 14.9196" stroke="black" stroke-width="0.994286"/>
<path d="M55.7275 133.593C55.7275 133.593 55.9257 132.08 57.0142 128.662" stroke="black" stroke-width="0.994286"/>
<path d="M91.5167 109.997V110.013C91.4384 115.218 87.8173 116.398 84.8425 116.964C77.5111 118.366 72.4211 113.017 72.6452 108.358" stroke="black" stroke-width="0.994286"/>
<path d="M74.0368 81.3549C74.0368 81.3549 74.2545 83.7497 72.171 86.8391C71.6136 87.6707 73.5426 88.0125 74.002 88.1671" stroke="black" stroke-width="0.994286"/>
<ellipse rx="4.48003" ry="3.6411" transform="matrix(0.499828 -0.866125 0.865926 0.500172 79.2792 84.7165)" stroke="black" stroke-width="0.994286"/>
<ellipse rx="4.49547" ry="3.65363" transform="matrix(0.498112 -0.867113 0.866915 0.498456 70.6261 81.9448)" stroke="black" stroke-width="0.994286"/>
<path fill-rule="evenodd" clip-rule="evenodd" d="M67.4007 80.7169C68.1885 79.341 69.5225 78.5398 70.7803 78.5398V78.542C70.7804 78.542 70.7805 78.542 70.7806 78.542C71.2574 78.539 71.7265 78.6622 72.1404 78.899C73.6724 79.7699 74.0336 82.0232 72.9455 83.9064C72.1556 85.2802 70.8216 86.0836 69.5638 86.0836C69.0866 86.0867 68.6172 85.9627 68.2037 85.7243C66.6717 84.8535 66.3127 82.6023 67.4007 80.7169ZM71.8164 79.4651C71.5016 79.2835 71.144 79.1895 70.7806 79.193C69.7034 79.193 68.6153 79.918 67.9625 81.037C67.5191 81.774 67.3416 82.6408 67.4598 83.4928C67.5423 84.1841 67.9358 84.7998 68.5283 85.1649C68.8432 85.3458 69.2009 85.4391 69.5641 85.4348C70.6413 85.4348 71.7294 84.712 72.3822 83.5908C72.8256 82.8546 73.0031 81.9885 72.8849 81.1372C72.8033 80.4456 72.4096 79.8295 71.8164 79.4651Z" fill="white"/>
<path d="M74.0073 82.1452C74.0073 82.1452 74.6604 81.172 76.1344 82.8941" stroke="black" stroke-width="0.994286"/>
<ellipse rx="1.05809" ry="0.89698" transform="matrix(0.606645 -0.794973 0.794704 0.606997 79.7005 83.9793)" fill="#353642"/>
<ellipse rx="1.05809" ry="0.89698" transform="matrix(0.606645 -0.794973 0.794704 0.606997 71.9559 82.9226)" fill="#353642"/>
<path d="M78.4748 92.049C74.018 95.8372 71.6787 92.4626 71.6787 92.4626" stroke="black" stroke-width="0.994286"/>
<path d="M31.2592 113.825C35.1132 113.134 39.0019 112.594 42.821 111.889C44.6838 111.547 46.5451 111.214 48.405 110.892C56.6917 109.481 64.9654 108.384 73.3436 108.349C74.1801 108.349 74.8888 107.732 75.004 106.903L75.1585 105.743L76.1355 98.5084" stroke="black" stroke-width="0.994286"/>
<path d="M89.9455 99.0876V99.0528V98.8786" stroke="black" stroke-width="0.994286"/>
<path d="M5.18909 174.891H52.9227H58.3217H104.571H113.237H171" stroke="black" stroke-width="0.994286"/>
<path d="M111.021 138.291C111.021 138.291 112.048 148.511 113.576 158.491C114.581 165.057 115.811 171.517 117.095 174.891" stroke="black" stroke-width="0.994286"/>
<path d="M113.576 158.491L113.778 158.436L114.087 158.351C115.719 157.89 117.367 157.48 119.036 157.136C119.301 157.08 119.567 157.032 119.832 156.982C121.694 156.639 123.581 156.454 125.473 156.431C126.311 156.431 127.114 156.403 127.882 156.361H127.93C131.148 156.179 133.838 155.663 136.086 154.894C139.757 153.644 142.236 151.724 143.877 149.501C143.89 149.488 143.896 149.466 143.911 149.453C145.105 147.797 145.938 145.907 146.355 143.908C146.352 143.899 146.352 143.889 146.355 143.88L146.377 143.775" stroke="black" stroke-width="0.994286"/>
</g>
<defs>
<clipPath id="clip0_1_1532">
<rect width="175" height="175" fill="white"/>
</clipPath>
</defs>
</svg>
