<svg width="175" height="175" viewBox="0 0 175 175" fill="none" xmlns="http://www.w3.org/2000/svg">
<g clip-path="url(#clip0_1_1530)">
<path d="M50.6884 58.9329H35.6595C34.8147 58.9329 34.0044 58.5929 33.4074 57.9879C32.8104 57.3829 32.4755 56.5625 32.4766 55.7075V19.1389C32.4766 18.2848 32.812 17.4657 33.409 16.8619C34.006 16.2582 34.8156 15.9193 35.6595 15.9198H60.4713C61.3169 15.9171 62.1288 16.2549 62.7278 16.8589C63.3269 17.4628 63.6639 18.2832 63.6644 19.1389V29.0022" stroke="#CCDDE2"/>
<rect x="35.1455" y="20.3512" width="26.1638" height="7.56534" rx="3.78267" stroke="#CCDDE2"/>
<ellipse cx="48.0669" cy="22.7553" rx="0.772865" ry="0.781904" fill="#D7E8F0"/>
<path d="M45.907 26.2967C45.8575 25.4845 46.2575 24.7115 46.9455 24.2902C47.6335 23.8689 48.4957 23.8689 49.1836 24.2902C49.8716 24.7115 50.2717 25.4845 50.2221 26.2967H45.907Z" fill="#D7E8F0"/>
<path fill-rule="evenodd" clip-rule="evenodd" d="M48.2247 36.0249C46.54 36.0249 45.0213 37.0519 44.3766 38.627C43.7319 40.2021 44.0883 42.0152 45.2795 43.2207C46.4707 44.4263 48.2622 44.7869 49.8186 44.1345C51.375 43.482 52.3897 41.945 52.3897 40.2401C52.3903 39.122 51.9516 38.0495 51.1704 37.2589C50.3892 36.4683 49.3295 36.0244 48.2247 36.0249ZM48.2248 43.4372C47.927 43.3875 47.7085 43.1268 47.7085 42.8212C47.7085 42.5157 47.927 42.255 48.2248 42.2052C48.466 42.165 48.708 42.2728 48.8416 42.4801C48.9752 42.6874 48.9752 42.9551 48.8416 43.1624C48.708 43.3697 48.466 43.4775 48.2248 43.4372ZM48.4879 41.4588C48.7267 40.5527 48.8964 39.6295 48.9956 38.6971C49.0043 38.6287 49.016 38.5571 49.0279 38.4839C49.0953 38.0701 49.1712 37.6048 48.7572 37.3662C48.3605 37.1396 47.674 37.1916 47.4314 37.6262C47.2148 38.0089 47.3465 38.5922 47.4536 39.0666C47.4827 39.1955 47.51 39.3163 47.528 39.4229C47.628 40.1106 47.7736 40.7908 47.9638 41.4588C48.0149 41.5573 48.1159 41.619 48.2259 41.619C48.3359 41.619 48.4368 41.5573 48.4879 41.4588Z" fill="#D7E8F0"/>
<path d="M37.7613 31.2938H58.1059" stroke="#CCDDE2"/>
<path d="M37.7613 33.3212H58.1059" stroke="#CCDDE2"/>
<path d="M37.7613 46.3703H58.1059" stroke="#CCDDE2"/>
<path d="M42.4873 48.2876H53.3798" stroke="#CCDDE2"/>
<rect x="127.56" y="51.118" width="40.5886" height="63.4195" rx="20.2943" fill="#0FBE73"/>
<rect x="94.4021" y="51.118" width="31.118" height="63.4195" rx="15.559" fill="#0FBE73"/>
<path d="M96.2002 146.787H167.925C170.506 146.786 172.598 144.67 172.6 142.058V51.9541C172.6 50.6992 172.108 49.4955 171.231 48.6082C170.354 47.7209 169.165 47.2226 167.925 47.2231H119.181L106.441 47.3001H106.404L99.9625 47.5538H99.942L98.2468 47.6203H98.0968L97.9714 48.6414L97.7248 50.54C97.7303 50.5474 97.7303 50.5576 97.7248 50.565L95.7194 53.572L95.3084 54.1813L94.1762 61.5137V61.549C94.1515 61.5386 94.1269 61.5241 94.0961 61.5075C94.0714 61.4929 94.048 61.4762 94.0262 61.4575C93.6453 61.1672 93.3591 60.7682 93.2043 60.3117C92.8282 59.3468 92.7378 58.0679 92.7337 57.0531L92.4872 62.6242V62.645L92.144 70.0876L92.0598 72.086C92.22 71.797 92.4502 71.3811 92.7173 70.8841L91.8645 76.399L91.6878 80.373L91.2481 90.415L91.2317 90.7893V90.9328L91.1166 93.3784V93.4345C91.1166 93.4345 90.7878 100.611 90.7878 100.621L90.757 101.287L90.3769 104.192L89.2673 112.321V142.058C89.2678 143.784 90.1992 145.372 91.6961 146.198C93.0872 146.962 94.6262 146.86 96.155 146.808C96.5659 146.795 96.9769 146.777 97.3879 146.754" fill="#0FBE73"/>
<path d="M93.4775 145.236C93.4487 145.236 93.4179 145.209 93.3829 145.198C92.9923 145.057 92.623 144.861 92.2857 144.616C91.0845 143.752 90.3727 142.352 90.3768 140.86V101.174L89.2672 101.713L89.1973 101.748L89.0473 101.372L88.3055 99.5004L88.1 98.9826L86.224 94.2434C86.224 94.2434 89.787 79.6534 92.1439 70.0875C93.0069 66.5752 93.7097 63.7387 94.0055 62.5471C94.096 62.1915 94.1494 61.9836 94.1597 61.9482C94.1604 61.9399 94.1604 61.9316 94.1597 61.9233C94.1658 61.8525 94.1552 61.7812 94.1288 61.7153C94.0996 61.6386 94.0645 61.5642 94.024 61.4928C94.0193 61.478 94.0124 61.464 94.0035 61.4512C93.7591 61.0306 93.4844 60.6289 93.1816 60.2493L92.7912 55.3561L92.8549 55.3062L93.1507 55.0671L95.1727 53.445L95.6432 52.1848L96.5658 49.7351L96.9768 48.6434H97.9549H98.2056H99.9747L106.513 48.6226H107.074L119.479 48.5477H166.943C168.15 48.5477 169.308 49.0334 170.16 49.8978C171.013 50.7622 171.492 51.9344 171.49 53.156V140.86C171.492 142.082 171.013 143.254 170.16 144.118C169.308 144.983 168.15 145.468 166.943 145.468H96.2864" fill="#0FBE73"/>
<path d="M98.2263 47.3458L99.9072 47.3354H99.9421L106.394 47.3001H106.439L119.179 47.2231H167.925C170.507 47.2243 172.599 49.3417 172.6 51.9541V142.058C172.598 144.67 170.506 146.786 167.925 146.787H93.8147C91.2999 146.787 89.2612 144.724 89.2612 142.179V132.34" stroke="black"/>
<rect x="94.4021" y="119.196" width="73.7469" height="22.7438" rx="11.3719" fill="white"/>
<rect x="99.0177" y="124.261" width="44.7495" height="12.9388" rx="6.46942" fill="#0FBE73"/>
<ellipse cx="134.718" cy="128.373" rx="1.32374" ry="1.33922" fill="white"/>
<path d="M131.023 134.428C131.023 132.361 132.679 130.685 134.722 130.685C136.764 130.685 138.42 132.361 138.42 134.428H131.023Z" fill="white"/>
<path fill-rule="evenodd" clip-rule="evenodd" d="M155.056 124.264C152.42 124.261 150.043 125.866 149.033 128.329C148.023 130.792 148.579 133.629 150.442 135.516C152.305 137.402 155.107 137.967 157.542 136.946C159.977 135.925 161.564 133.521 161.563 130.854C161.564 129.106 160.878 127.43 159.658 126.195C158.438 124.959 156.782 124.264 155.056 124.264ZM155.056 135.853C154.705 135.869 154.374 135.689 154.193 135.384C154.013 135.079 154.013 134.698 154.193 134.393C154.374 134.088 154.705 133.908 155.056 133.925C155.565 133.949 155.965 134.373 155.965 134.889C155.965 135.404 155.565 135.829 155.056 135.853ZM156.162 129.099C156.193 128.878 156.223 128.658 156.255 128.439C156.268 128.325 156.287 128.205 156.306 128.083C156.408 127.441 156.522 126.724 155.877 126.353C155.26 126.008 154.187 126.089 153.807 126.769C153.467 127.365 153.673 128.276 153.841 129.018C153.886 129.219 153.929 129.408 153.957 129.575C154.112 130.65 154.34 131.713 154.639 132.756C154.744 133.091 155.367 133.091 155.461 132.756C155.818 131.583 155.992 130.326 156.162 129.099Z" fill="#0FBE73"/>
<path d="M161.972 96.9635C161.326 102.602 157.342 107.268 151.924 108.733C146.505 110.198 140.752 108.163 137.414 103.602C134.076 99.0407 133.831 92.8784 136.795 88.0601C139.76 83.2417 145.332 80.7454 150.85 81.7642C151.089 81.8108 151.299 81.9557 151.43 82.1645C151.56 82.3732 151.599 82.6272 151.538 82.8663L151.269 83.929L148.857 93.4615C148.778 93.7709 148.869 94.099 149.094 94.3225C149.32 94.5459 149.646 94.6307 149.95 94.545L159.313 91.8956L160.594 91.5338C160.824 91.4682 161.071 91.5 161.278 91.6219C161.484 91.7438 161.634 91.9454 161.691 92.1805C162.06 93.746 162.155 95.3647 161.972 96.9635Z" fill="white"/>
<path d="M162.295 87.1398C162.385 87.3748 162.372 87.6372 162.259 87.862C162.147 88.0867 161.946 88.2528 161.706 88.3189L160.824 88.5684L153.199 90.7249C152.895 90.8107 152.569 90.7258 152.343 90.5024C152.118 90.279 152.027 89.9508 152.106 89.6415L154.076 81.8806L154.265 81.1362C154.325 80.8969 154.481 80.6938 154.695 80.5754C154.909 80.4571 155.162 80.4342 155.393 80.5123C158.532 81.6087 161.049 84.0253 162.295 87.1398Z" fill="white"/>
<ellipse cx="148.207" cy="59.7187" rx="3.75618" ry="3.80138" fill="#D7E8F0"/>
<path d="M134.72 68.12H162.063V68.8817H134.72V68.12Z" fill="#D7E8F0"/>
<path d="M134.72 70.9358H162.063V71.6975H134.72V70.9358Z" fill="#D7E8F0"/>
<path d="M134.72 73.502H162.063V74.2636H134.72V73.502Z" fill="#D7E8F0"/>
<path d="M99.3131 84.0201H120.732V84.7818H99.3131V84.0201Z" fill="#D7E8F0"/>
<path d="M99.3131 87.0917H120.732V87.8533H99.3131V87.0917Z" fill="#D7E8F0"/>
<path d="M99.313 90.161H120.732V90.9227H99.313V90.161Z" fill="#D7E8F0"/>
<path d="M99.313 93.2325H120.732V93.9942H99.313V93.2325Z" fill="#D7E8F0"/>
<path d="M99.313 96.304H120.732V97.0656H99.313V96.304Z" fill="#D7E8F0"/>
<path d="M96.3751 62.3932C96.3751 62.3932 102.885 72.768 110.303 76.0287C117.72 79.2894 120.038 80.7305 122.876 79.5639C125.714 78.3973 131.161 76.7628 134.999 65.2151C138.838 53.6675 140.666 47.589 140.802 44.792C140.938 41.9951 133.306 44.2929 133.306 44.2929C133.306 44.2929 129.197 56.5518 120.192 62.023L107.368 48.3148L96.3751 62.3932Z" fill="white"/>
<path d="M88.7678 78.3369L94.0076 79.776C94.0076 79.776 87.9233 88.2667 93.3336 97.1567C98.7439 106.047 109.885 123.983 109.885 123.983L131.21 158.295L111.266 155.481L96.3747 138.974L88.7719 131.303L79.2438 101.201L88.7678 78.3369Z" fill="white"/>
<path d="M3.2141 122.215C4.18609 122.747 5.3946 122.503 6.09083 121.635L13.8457 112.013L20.1025 104.065L14.9799 101.153C13.8751 100.522 12.4736 100.916 11.8484 102.033L2.30177 119.002C1.99455 119.549 1.91815 120.198 2.08985 120.803C2.26155 121.408 2.66684 121.917 3.2141 122.215Z" fill="#2E2E2E"/>
<path d="M121.254 167.601L127.709 174.026C128.266 174.582 129.016 174.894 129.798 174.896H145.939C146.962 174.9 147.891 174.292 148.306 173.346C148.721 172.399 148.545 171.294 147.856 170.529C147.432 170.048 146.845 169.746 146.212 169.68L137.259 168.751L121.254 167.601Z" fill="#2E2E2E"/>
<path d="M62.3146 87.231C62.3146 87.231 74.7976 90.7454 83.1195 91.7935C91.4415 92.8416 90.8579 89.348 90.8579 89.348L91.875 84.9352C94.5463 80.5307 96.0976 71.1604 96.0976 71.1604L97.1703 63.83L98.736 66.6187L103.797 71.778L103.859 71.8279C103.705 69.3636 103.822 65.9012 104.389 61.1849C105.696 50.2673 110.023 51.5337 110.023 51.5337L109.388 50.8288C106.398 45.7942 96.8538 40.4727 93.8045 39.2C90.7552 37.9274 92.06 39.7303 92.4483 41.0716C92.8367 42.4129 91.7271 46.1873 87.2825 44.2658C82.838 42.3443 82.614 38.1644 82.614 38.1644H80.5489C67.8811 39.7054 61.4393 46.5429 61.4393 46.5429C74.8962 49.7557 71.8078 61.3075 71.8078 61.3075L70.5873 62.4367C65.8098 66.6291 65.477 70.6717 65.89 72.3561C66.303 74.0405 69.2496 76.3072 74.5695 77.6215C79.8894 78.9357 80.8572 78.9378 82.0592 76.6108C83.2613 74.2838 84.6627 73.9968 86.5798 73.6475C88.4969 73.2981 90.8456 74.6769 90.3093 75.7624C89.773 76.8479 89.3846 75.8996 90.7202 78.8318C92.0558 81.7639 91.4353 83.2549 87.8435 85.9562C84.2517 88.6576 68.2818 87.1416 68.2818 87.1416C60.6441 85.0038 62.3146 87.231 62.3146 87.231Z" fill="#2E2E2E"/>
<path d="M91.5112 38.2334V38.6764V38.7887C95.0816 39.6916 98.4442 41.2893 101.411 43.4926C101.892 43.8482 102.361 44.21 102.823 44.5906C102.835 43.0621 102.706 41.5274 102.219 40.0801C101.824 38.838 101.081 37.739 100.08 36.9171C99.1983 36.2059 98.1565 35.7505 97.1085 35.3387C96.0606 34.927 95.0311 34.5651 94.0695 34.0099C93.2591 33.5612 92.5513 32.9448 91.9921 32.2007C91.593 31.6529 91.5146 30.9308 91.7866 30.3083C91.6921 30.3017 91.5989 30.2828 91.5092 30.2522L91.5112 38.2334Z" fill="#0FBE73"/>
<path d="M91.5112 38.2334V38.6764V38.7887C95.0816 39.6916 98.4442 41.2893 101.411 43.4926C101.892 43.8482 102.361 44.21 102.823 44.5906C102.835 43.0621 102.706 41.5274 102.219 40.0801C101.824 38.838 101.081 37.739 100.08 36.9171C99.1983 36.2059 98.1565 35.7505 97.1085 35.3387C96.0606 34.927 95.0311 34.5651 94.0695 34.0099C93.2591 33.5612 92.5513 32.9448 91.9921 32.2007C91.593 31.6529 91.5146 30.9308 91.7866 30.3083C91.6921 30.3017 91.5989 30.2828 91.5092 30.2522L91.5112 38.2334Z" fill="#0FBE73"/>
<path d="M42.1816 72.7579C43.5232 73.7295 45.0147 74.4695 46.5953 74.9476C47.2753 75.1597 47.966 75.3347 48.6645 75.4717C45.9049 68.8899 47.97 60.2308 56.6782 50.9976C58.1693 49.4142 59.7567 47.9265 61.431 46.5433C64.1372 44.3161 66.5413 42.6566 69.3769 41.3216C70.6464 40.7288 71.9502 40.2142 73.2811 39.7806C75.641 38.9856 78.077 38.4441 80.5489 38.1648C81.1099 38.0962 81.6647 38.0463 82.2256 38.0151C82.0888 37.0402 82.1159 36.0488 82.3058 35.083C82.8236 32.4316 83.7256 30.9073 85.3654 28.8173C86.3928 27.501 87.9976 24.3568 85.8585 23.2712C84.5085 22.5912 84.3852 21.1917 85.0202 20.3599C85.5565 19.6362 86.6414 19.3056 87.9791 20.1519C88.9037 20.7508 90.001 20.7883 91.0613 20.4951C91.8848 20.0096 92.5987 19.3551 93.1572 18.5736C94.7106 16.3214 94.7661 12.9089 92.3353 11.2557C91.0099 10.3511 89.3209 10.1327 87.7366 10.3074C87.0272 10.3862 86.3281 10.5409 85.651 10.7691C85.6451 10.7664 85.6384 10.7664 85.6325 10.7691C82.7558 12.335 80.7112 15.2297 79.7249 18.4925C79.1455 20.4202 78.492 22.3292 77.7277 24.2008C77.0989 25.7355 76.6612 27.6008 75.2619 28.6489C74.677 29.0868 74.0132 29.4046 73.3078 29.5847C70.6632 31.2816 66.9954 30.3021 64.1043 29.9403C61.7929 29.6204 59.4394 29.8599 57.2371 30.639C54.7714 31.9013 52.6508 33.9164 50.931 36.5366C48.0892 40.8724 51.0974 47.1235 46.3446 50.5422C44.9063 51.5716 43.2624 52.1955 41.6905 52.994C39.4467 54.1481 37.6343 55.7889 36.9644 58.3155C35.6412 63.4125 37.996 69.6822 42.1816 72.7579Z" fill="#0FBE73"/>
<path d="M158.391 174.896H45.9438" stroke="black"/>
<path d="M95.6353 16.5208C95.9242 17.1267 96.1715 17.752 96.3753 18.3923C96.6713 19.4321 96.3506 20.0768 96.8008 21.0687C96.9549 21.4118 97.1769 21.992 97.4174 22.5784C97.4853 22.4412 97.5469 22.3289 97.5839 22.2416C99.3475 18.2676 97.0289 16.3523 95.9128 15.6973C95.8418 15.9787 95.749 16.254 95.6353 16.5208Z" fill="#0FBE73"/>
<path d="M95.6353 16.5208C95.9242 17.1267 96.1715 17.752 96.3753 18.3923C96.6713 19.4321 96.3506 20.0768 96.8008 21.0687C96.9549 21.4118 97.1769 21.992 97.4174 22.5784C97.4853 22.4412 97.5469 22.3289 97.5839 22.2416C99.3475 18.2676 97.0289 16.3523 95.9128 15.6973C95.8418 15.9787 95.749 16.254 95.6353 16.5208Z" fill="#0FBE73"/>
<path d="M56.569 83.5628C55.4923 92.1554 56.3635 107.062 73.7513 118.466C76.8807 120.518 79.6979 123.417 82.4575 125.923C89.9841 132.806 97.1442 140.089 103.908 147.741C108.048 152.387 112.275 157.27 116.473 161.974C118.625 164.378 120.8 166.759 122.999 169.119C124.618 170.847 127.186 174.894 129.79 174.894H145.789C147.227 174.894 148.534 173.702 148.513 172.24C148.502 171.609 148.265 171.002 147.847 170.533C147.423 170.053 146.837 169.75 146.204 169.685L137.251 168.755L93.9952 99.1364C91.7637 95.543 89.7849 89.6288 91.5109 85.7546C98.0863 71.019 97.5212 56.7368 97.5212 56.7368" stroke="black"/>
<path d="M78.9644 122.945C77.0781 129.652 74.0329 136.462 71.5178 140.75C70.6066 142.316 69.4051 143.688 67.9795 144.793C62.826 148.787 55.5417 148.361 50.5999 144.104L26.0224 122.933L13.8477 112.013L6.09286 121.635C5.33275 122.571 3.99168 122.763 3.00464 122.078C2.0176 121.392 1.71237 120.057 2.30175 119.002L11.8504 102.037C12.4756 100.92 13.8771 100.526 14.9819 101.158L20.1046 104.069L49.4554 120.705C50.4459 121.266 51.6424 121.312 52.6716 120.827C53.7008 120.343 54.4376 119.388 54.652 118.26L58.1287 99.8103" stroke="black"/>
<path d="M91.5108 29.0167V38.1667V38.6096V38.7219C92.4416 40.0944 92.9101 42.0492 92.0224 43.5048C90.8327 45.4575 88.2067 45.1331 86.5423 44.0414C86.0524 43.7207 85.5848 43.3664 85.143 42.9808C83.6615 41.6782 82.7025 39.8718 82.4471 37.9026C82.3103 36.9276 82.3373 35.9363 82.5272 34.9704C83.0491 32.3211 83.9491 30.7989 85.5909 28.7027C86.6183 27.3926 88.2211 24.2442 86.08 23.1587C83.571 21.8923 85.3094 18.1865 88.2005 20.0394C90.4444 21.4805 93.6683 19.6838 94.9999 17.7519C96.5533 15.4998 96.6088 12.0873 94.1779 10.434C92.8526 9.52944 91.1635 9.31109 89.5793 9.48577C84.7525 10.0223 81.3169 13.8403 79.9423 18.382C79.3628 20.3097 78.7094 22.2187 77.945 24.0903C77.3162 25.625 76.8785 27.4904 75.4792 28.5384C72.808 30.5535 68.9573 29.4992 65.9429 29.1249C59.6675 28.345 54.6065 31.1587 51.1483 36.4261C48.3065 40.7619 51.3147 47.013 46.562 50.4318C45.1236 51.4611 43.4798 52.085 41.9078 52.8835C39.664 54.0377 37.8516 55.6784 37.192 58.2051C35.8605 63.2957 38.2195 69.5655 42.401 72.6412C44.3181 74.0511 46.562 74.8933 48.8921 75.355" stroke="black"/>
<path d="M103.899 45.7757C103.912 45.6593 103.916 45.547 103.922 45.4368C104.027 43.4258 104.014 41.3422 103.367 39.4061C102.97 38.1654 102.226 37.0675 101.226 36.2452C100.342 35.5361 99.3006 35.0765 98.2568 34.6648C97.213 34.253 96.1773 33.8953 95.2178 33.338C94.4054 32.8914 93.6971 32.2737 93.1403 31.5268C92.7432 30.9806 92.6649 30.2612 92.9349 29.6406" stroke="black"/>
<path d="M89.5654 26.954C90.2928 28.0062 91.2791 29.1416 92.5222 29.5513C94.1311 30.0816 95.214 28.6987 95.7914 27.3532C96.1366 26.5526 96.375 25.7 96.6544 24.8723C96.7449 24.5999 96.8003 24.4689 97.1086 24.4564C97.4168 24.444 97.7414 24.5063 98.0579 24.5063C98.1037 24.5052 98.1454 24.4793 98.1671 24.4384C98.1888 24.3976 98.1871 24.3481 98.1627 24.3088C97.7373 23.6537 97.1024 21.8674 96.7818 21.1521C96.3359 20.1601 96.6586 19.5176 96.3586 18.4757C96.1544 17.8361 95.9086 17.2109 95.6229 16.6041" stroke="black"/>
<path d="M96.0974 14.6803C96.0974 14.6803 100.486 16.3834 98.2186 21.5012C98.0788 21.811 97.7356 22.4577 97.5732 22.7489" stroke="black"/>
<path d="M143.417 0.0884457C143.417 0.0884457 143.442 0.100932 143.492 0.119662L143.417 0.0884457Z" fill="#0FBE73"/>
<path d="M95.8552 27.2063C95.1283 27.3073 94.4406 26.8455 94.2498 26.1283" stroke="black"/>
<path d="M96.5973 20.3514C95.6888 19.6022 94.6919 20.5595 94.0834 21.2546" stroke="black"/>
<path d="M82.4534 37.9047C79.4074 38.0998 76.399 38.6918 73.5027 39.666C68.7766 41.234 65.5218 43.2574 61.6608 46.4287C59.9868 47.8144 58.3994 49.3042 56.9081 50.8893C48.1916 60.1224 46.1306 68.7857 48.8943 75.3654C51.1402 80.7264 56.3183 84.0516 61.6238 85.7464C65.0944 86.8527 68.7109 87.3289 72.3396 87.435C76.665 87.5597 81.0274 87.3934 85.2849 86.5616C87.0788 86.2122 89.1459 85.9252 90.2164 84.2387C91.287 82.5522 91.3774 80.2772 90.5822 78.4701C89.8363 76.7878 87.8226 74.9786 86.002 76.2991C85.5932 76.5979 85.3424 77.0701 85.3219 77.5801" stroke="black"/>
<path d="M79.1634 49.0302C79.3894 55.9259 73.6154 59.7709 73.6154 59.7709C71.7003 61.341 69.8387 63.0275 68.2729 64.9594C67.2722 66.1925 66.3435 67.5733 65.8832 69.1184C65.5391 70.172 65.5449 71.3105 65.8996 72.3604C66.2919 73.3312 66.9401 74.1743 67.7736 74.7976C69.3311 76.0308 71.2257 76.6692 73.1038 77.2224C75.1732 77.8216 77.2809 78.276 79.412 78.5824C80.6449 78.7612 81.1648 78.3744 81.7278 77.2952C82.2374 76.3178 82.6545 75.1865 83.5976 74.5481C84.9045 73.6601 86.6593 73.4543 88.1716 73.8203C90.5038 74.3817 91.0997 76.2533 89.199 76.6318" stroke="black"/>
<path d="M77.7397 95.8134L42.3046 87.1479L33.8717 122.467L68.3246 131.134L69.4301 130.621L77.7397 95.8134Z" fill="white"/>
<path d="M61.3897 90.8473C63.0706 78.9399 66.7137 75.9953 69.085 75.4068L68.9288 75.3194C61.7699 72.4996 56.8055 86.4512 55.7513 89.7139L61.3897 90.8473Z" fill="#D7E8F0"/>
<path d="M61.2912 91.7915C62.972 79.8841 66.7138 75.9871 69.085 75.4069L68.9289 75.3196C61.7699 72.4997 56.6 87.123 55.5418 90.3837L61.2912 91.7915Z" fill="#D7E8F0"/>
<path fill-rule="evenodd" clip-rule="evenodd" d="M68.9289 75.3195C60.8329 72.1337 55.5418 90.3837 55.5418 90.3837L61.2953 91.7915C64.6384 73.4916 71.8118 76.8189 71.8118 76.8189C71.559 76.7419 68.9289 75.3195 68.9289 75.3195V75.3195Z" stroke="black"/>
<path d="M33.8728 122.478L41.9099 88.8311L69.8657 95.6705L61.8286 129.317L33.8728 122.478Z" fill="#0FBE73"/>
<path d="M33.8733 122.479L42.3362 87.0496L71.772 94.2511L63.3091 129.681L33.8733 122.479Z" fill="white"/>
<path d="M42.3404 123.667C38.1828 122.65 35.6186 118.45 36.613 114.287L41.0489 95.7162C42.0434 91.5531 46.2199 89.0028 50.3775 90.02L63.2774 93.1759C67.435 94.1931 69.9992 98.3925 69.0048 102.556L64.5688 121.126C63.5744 125.289 59.3979 127.84 55.2403 126.823L42.3404 123.667Z" fill="#0FBE73"/>
<path fill-rule="evenodd" clip-rule="evenodd" d="M33.8739 122.478L42.3103 87.1598L71.7461 94.3613L63.3097 129.68L33.8739 122.478Z" stroke="black"/>
<path d="M63.4336 129.708L71.8699 94.3897L77.7459 95.8272L69.3095 131.146L63.4336 129.708Z" fill="white"/>
<path fill-rule="evenodd" clip-rule="evenodd" d="M63.4332 129.708L71.8792 94.3919L77.7556 95.8278L69.3095 131.144L63.4332 129.708Z" stroke="black"/>
<path d="M69.3067 131.134L67.4142 126.208L63.43 129.697" stroke="black"/>
<path d="M74.8031 95.0959L67.414 126.208" stroke="black"/>
<path d="M139.624 37.8026C139.513 37.8213 139.418 37.84 139.297 37.865C138.185 38.0613 137.132 38.5092 136.215 39.1751C135.21 39.9612 134.298 41.3274 133.854 42.5024C133.183 44.2866 132.445 46.0417 131.641 47.7677C130.427 50.4284 128.983 52.9754 127.326 55.3788C125.606 57.8243 123.541 60.3032 120.939 61.8254C120.613 62.025 120.269 62.1942 119.912 62.3307C119.474 62.5179 113.316 55.3476 112.638 54.5491C109.92 51.3487 107.109 48.1795 103.922 45.4407C103.114 44.742 102.278 44.0682 101.419 43.4381C98.4496 41.233 95.0851 39.6333 91.5126 38.728" stroke="black"/>
<path d="M150.703 37.5406C150.716 37.5436 150.728 37.5436 150.74 37.5406C153.588 37.8775 152.473 40.9844 150.469 40.8845C148.256 40.7722 146.049 40.8845 143.842 40.922C143.234 40.9016 142.628 41.0144 142.067 41.2526C140.957 41.7891 140.853 42.9869 140.686 44.0725C140.464 45.4949 140.212 46.9173 139.914 48.3272C139.334 51.1221 138.619 53.8795 137.799 56.612C137.269 58.3838 136.683 60.1472 136.067 61.892C134.267 67.0326 131.998 72.4851 128.183 76.4487C126.074 78.6447 123.313 80.2667 120.2 80.0297C115.817 79.699 111.6 77.4718 107.883 74.939C107.868 74.9281 107.853 74.9155 107.84 74.9015C106.453 73.9562 105.123 72.9271 103.858 71.8197C103.858 71.8197 98.7353 67.2031 97.1696 63.8218" stroke="black"/>
<path fill-rule="evenodd" clip-rule="evenodd" d="M158.801 34.7457V35.0368C158.801 37.0457 157.203 37.3909 155.822 37.4242L129.095 38.048C127.924 38.0792 126.94 37.0415 126.915 35.746V35.6919C126.915 34.4213 127.836 33.3649 128.992 33.3358C128.992 33.3358 143.943 32.9095 155.522 32.5872C155.742 33.2963 156.28 33.8453 156.948 34.2737C157.506 34.6133 158.151 34.7776 158.801 34.7457V34.7457Z" stroke="black"/>
<path fill-rule="evenodd" clip-rule="evenodd" d="M173 6.12495C173 6.456 172.922 6.78233 172.774 7.07737L160.829 31.8758C160.545 32.4557 160.025 32.8811 159.405 33.0403C158.912 33.1668 158.39 33.1123 157.932 32.8864C157.186 32.5152 156.713 31.7464 156.714 30.9047C156.715 30.5748 156.79 30.2494 156.931 29.9522L168.882 5.15172C169.329 4.23996 170.337 3.75921 171.317 3.99067C172.296 4.22212 172.99 5.10497 172.992 6.12287L173 6.12495Z" stroke="black"/>
<ellipse cx="144.443" cy="17.1008" rx="0.914694" ry="0.925392" fill="white"/>
<ellipse cx="143.245" cy="19.6545" rx="0.914694" ry="0.925392" fill="white"/>
<ellipse cx="142.121" cy="22.0501" rx="0.914694" ry="0.925392" fill="white"/>
</g>
<defs>
<clipPath id="clip0_1_1530">
<rect width="175" height="175" fill="white"/>
</clipPath>
</defs>
</svg>
