<svg width="59" height="52" viewBox="0 0 59 52" fill="none" xmlns="http://www.w3.org/2000/svg">
<path d="M14.9649 18.6188C14.976 18.7575 14.9877 18.8955 15 19.0329C15.9269 29.4916 22.0636 37.5722 29.4989 37.5722C36.9356 37.5722 43.0722 29.4916 43.9991 19.0329C44.0134 18.8955 44.0245 18.7575 44.0361 18.6188C44.1024 18.1652 44.146 17.7058 44.1726 17.2399C44.1895 16.9223 44.2039 16.6016 44.2039 16.2776C44.2039 15.4838 44.1473 14.7004 44.0361 13.937C42.9604 6.52519 36.8615 0.847412 29.4996 0.847412C22.137 0.847412 16.04 6.52519 14.9656 13.937C14.8544 14.7004 14.7979 15.4838 14.7979 16.2776C14.7979 16.6016 14.8115 16.9223 14.8284 17.2399C14.8531 17.7058 14.8986 18.1652 14.9649 18.6188Z" fill="#1C366C"/>
<path d="M42.2289 35.6704C42.1951 35.6652 42.16 35.6639 42.1275 35.6574C41.8559 35.6218 41.5835 35.5907 41.3092 35.5654C41.3072 35.5926 41.2988 35.6205 41.2988 35.6471C41.2943 35.7281 41.2806 35.8058 41.2709 35.8875C41.2215 36.3411 41.0849 36.7817 40.8724 37.2068C39.4437 40.7935 34.8176 47.5917 32.0954 51.4511L31.5338 43.4328C32.3301 43.0272 33.0139 42.3526 33.4507 41.5724C33.7673 41.0112 33.959 40.3976 33.959 39.7722C33.959 39.7722 31.9277 40.6704 29.8542 40.6704C29.7359 40.6704 29.6176 40.6684 29.4993 40.662C29.3811 40.6684 29.2627 40.6704 29.1444 40.6704C27.0709 40.6704 25.0397 39.7722 25.0397 39.7722C25.0397 40.3982 25.2327 41.0112 25.548 41.5724C25.9861 42.3526 26.6719 43.0259 27.4668 43.4328L26.9045 51.4518C24.1817 47.5923 19.5563 40.7941 18.1283 37.2075C17.9157 36.7824 17.7785 36.3417 17.7278 35.8881C17.7181 35.8065 17.7051 35.7287 17.7012 35.6477C17.6999 35.6212 17.6915 35.5933 17.6915 35.5661C17.4165 35.5913 17.1448 35.6225 16.8731 35.6581C16.8393 35.6646 16.8042 35.6659 16.7717 35.6711C8.26905 36.8498 1.5318 43.508 0.25 51.9533H58.75C57.4675 43.508 50.7303 36.8498 42.2289 35.6704Z" fill="#1C366C"/>
</svg>
