<svg width="31" height="30" viewBox="0 0 31 30" fill="none" xmlns="http://www.w3.org/2000/svg">
<path d="M15.5 0C12.4344 0 9.43763 0.879734 6.88867 2.52795C4.33971 4.17618 2.35303 6.51886 1.17987 9.25975C0.00671589 12.0006 -0.300236 15.0166 0.297835 17.9263C0.895906 20.8361 2.37214 23.5088 4.53985 25.6066C6.70756 27.7044 9.4694 29.133 12.4761 29.7118C15.4828 30.2905 18.5993 29.9935 21.4316 28.8582C24.2638 27.7229 26.6846 25.8003 28.3878 23.3335C30.0909 20.8668 31 17.9667 31 15C31 11.0217 29.367 7.20644 26.4602 4.3934C23.5533 1.58035 19.6109 0 15.5 0ZM15.5 27.0968C13.0277 27.0968 10.611 26.3873 8.55538 25.0581C6.49976 23.7289 4.89761 21.8396 3.95151 19.6292C3.00542 17.4188 2.75788 14.9866 3.24019 12.64C3.72251 10.2935 4.91302 8.13805 6.66117 6.44629C8.40933 4.75452 10.6366 3.60242 13.0614 3.13566C15.4861 2.6689 17.9995 2.90846 20.2835 3.82404C22.5676 4.73961 24.5199 6.29009 25.8934 8.27939C27.2669 10.2687 28 12.6075 28 15C28 18.2083 26.683 21.2851 24.3388 23.5537C21.9946 25.8223 18.8152 27.0968 15.5 27.0968Z" fill="#1C366C"/>
<path d="M14.0004 16.8194L10.5604 13.4904L8.44043 15.542L12.9404 19.8968C13.2217 20.1687 13.6029 20.3213 14.0004 20.3213C14.3979 20.3213 14.7792 20.1687 15.0604 19.8968L23.0604 12.1549L20.9404 10.1033L14.0004 16.8194Z" fill="#1C366C"/>
</svg>
