<svg width="92" height="39" viewBox="0 0 92 39" fill="none" xmlns="http://www.w3.org/2000/svg">
<path d="M83.5178 39.0002H56.3922C51.7771 39.0002 48 35.223 48 30.608C48 25.993 51.7771 22.2158 56.3922 22.2158H83.5178C88.1329 22.2158 91.91 25.993 91.91 30.608C91.91 35.223 88.1329 39.0002 83.5178 39.0002Z" fill="#FF3900"/>
<path d="M8.73831 0C11.1572 0 13.2895 0.886402 14.844 2.37035V6.94348C14.1009 4.26222 11.7305 2.39242 8.73831 2.39242C5.12214 2.39242 2.39243 5.1222 2.39243 8.73836C2.39243 12.3545 5.12214 15.0842 8.73831 15.0842C11.4923 15.0842 13.7194 13.5033 14.6301 11.1572H6.34373V8.76259H14.8461V15.1085C13.2894 16.5925 11.1572 17.4789 8.74057 17.4789C3.75952 17.4789 9.69435e-07 13.7194 9.69435e-07 8.73836C-0.00220401 3.75952 3.75726 0 8.73831 0Z" fill="white"/>
<path d="M17.0004 0.359375H29.9326V2.75395H19.3949V7.54316H29.9326V9.93779H19.3949V14.727H29.9326V17.1216H17.0004V0.359375Z" fill="white"/>
<path d="M32.0872 0.359375H37.1168L44.6358 17.1216V0.359375H47.0304V17.1216H42.0008L34.4818 0.359375V17.1216H32.0872V0.359375Z" fill="white"/>
<path d="M48.7065 14.727H54.8121V2.75395H48.7065V0.359375H63.3145V2.75395H57.209V14.727H63.3145V17.1216H48.7065V14.727Z" fill="white"/>
<path d="M64.5111 9.26747V0.359375H66.9057V9.31598C66.9057 12.7161 69.4436 15.2077 72.8459 15.2077C76.1975 15.2077 78.8809 12.7183 78.8809 9.31598V0.359375H81.2755V9.26747C81.2755 13.9861 77.5403 17.6023 72.8459 17.6023C68.1515 17.6023 64.5111 13.9619 64.5111 9.26747Z" fill="white"/>
<path d="M82.3544 15.9484V11.5649C82.5947 13.6244 84.6762 14.9893 86.6408 14.9893C88.0542 14.9893 89.5382 14.1999 89.5382 12.6189C89.5382 9.24308 82.3544 10.1758 82.3544 4.93237C82.3544 1.8917 84.7246 0.0946045 87.622 0.0946045C88.9626 0.0946045 90.2813 0.502534 91.3573 1.31617V5.72172C91.1412 3.78133 89.5602 2.48924 87.6463 2.48924C86.2329 2.48924 84.7489 3.15954 84.7489 4.78902C84.7489 8.31037 91.9328 7.63787 91.9328 12.6917C91.9328 15.7081 89.4896 17.3861 86.6651 17.3861C85.1304 17.3861 83.5759 16.9054 82.3544 15.9484Z" fill="white"/>
<path d="M57.8505 32.2397C57.8505 31.9395 57.7364 31.7074 57.5083 31.5434C57.2842 31.3753 56.8901 31.2312 56.3258 31.1112C55.7656 30.9911 55.3194 30.8471 54.9873 30.679C54.6591 30.5109 54.415 30.3109 54.2549 30.0788C54.0989 29.8467 54.0209 29.5705 54.0209 29.2504C54.0209 28.7182 54.2449 28.268 54.6931 27.8998C55.1453 27.5317 55.7216 27.3476 56.4219 27.3476C57.1582 27.3476 57.7544 27.5377 58.2106 27.9178C58.6708 28.298 58.9009 28.7842 58.9009 29.3765H57.7844C57.7844 29.0723 57.6544 28.8102 57.3943 28.5901C57.1382 28.37 56.814 28.26 56.4219 28.26C56.0177 28.26 55.7016 28.348 55.4735 28.5241C55.2454 28.7002 55.1313 28.9303 55.1313 29.2144C55.1313 29.4825 55.2374 29.6846 55.4495 29.8207C55.6615 29.9567 56.0437 30.0868 56.5959 30.2108C57.1522 30.3349 57.6024 30.4829 57.9465 30.655C58.2907 30.8271 58.5448 31.0352 58.7088 31.2793C58.8769 31.5194 58.9609 31.8135 58.9609 32.1616C58.9609 32.7419 58.7288 33.2081 58.2646 33.5602C57.8004 33.9084 57.1982 34.0825 56.4579 34.0825C55.9377 34.0825 55.4775 33.9904 55.0773 33.8063C54.6771 33.6223 54.363 33.3662 54.1349 33.038C53.9108 32.7059 53.7988 32.3477 53.7988 31.9636H54.9092C54.9292 32.3357 55.0773 32.6318 55.3534 32.8519C55.6335 33.068 56.0017 33.1761 56.4579 33.1761C56.8781 33.1761 57.2142 33.092 57.4663 32.924C57.7224 32.7519 57.8505 32.5238 57.8505 32.2397ZM65.8939 30.7871C65.8939 31.7755 65.6678 32.5718 65.2156 33.1761C64.7634 33.7803 64.1511 34.0825 63.3788 34.0825C62.5905 34.0825 61.9702 33.8323 61.518 33.3321V36.4595H60.4076V27.4677H61.422L61.476 28.188C61.9282 27.6277 62.5565 27.3476 63.3608 27.3476C64.1411 27.3476 64.7574 27.6417 65.2096 28.23C65.6658 28.8182 65.8939 29.6366 65.8939 30.685V30.7871ZM64.7834 30.661C64.7834 29.9287 64.6273 29.3505 64.3152 28.9263C64.0031 28.5021 63.5749 28.29 63.0307 28.29C62.3584 28.29 61.8542 28.5881 61.518 29.1844V32.2877C61.8502 32.8799 62.3584 33.1761 63.0427 33.1761C63.5749 33.1761 63.9971 32.966 64.3092 32.5458C64.6253 32.1216 64.7834 31.4934 64.7834 30.661ZM71.3202 33.9624C71.2561 33.8343 71.2041 33.6063 71.1641 33.2781C70.6479 33.8143 70.0316 34.0825 69.3153 34.0825C68.675 34.0825 68.1488 33.9024 67.7367 33.5422C67.3285 33.1781 67.1244 32.7179 67.1244 32.1616C67.1244 31.4854 67.3805 30.9611 67.8927 30.589C68.4089 30.2128 69.1332 30.0247 70.0656 30.0247H71.1461V29.5145C71.1461 29.1264 71.03 28.8182 70.7979 28.5901C70.5658 28.358 70.2237 28.242 69.7715 28.242C69.3753 28.242 69.0432 28.342 68.7751 28.5421C68.507 28.7422 68.3729 28.9843 68.3729 29.2684H67.2564C67.2564 28.9443 67.3705 28.6321 67.5986 28.332C67.8307 28.0279 68.1428 27.7878 68.535 27.6117C68.9312 27.4356 69.3653 27.3476 69.8375 27.3476C70.5859 27.3476 71.1721 27.5357 71.5963 27.9118C72.0205 28.284 72.2406 28.7982 72.2566 29.4545V32.4438C72.2566 33.04 72.3326 33.5142 72.4847 33.8664V33.9624H71.3202ZM69.4774 33.116C69.8255 33.116 70.1557 33.026 70.4678 32.8459C70.7799 32.6659 71.006 32.4318 71.1461 32.1436V30.8111H70.2757C68.9151 30.8111 68.2349 31.2092 68.2349 32.0056C68.2349 32.3537 68.3509 32.6258 68.583 32.8219C68.8151 33.018 69.1132 33.116 69.4774 33.116ZM76.6024 33.1761C76.9986 33.1761 77.3447 33.056 77.6408 32.8159C77.937 32.5758 78.101 32.2757 78.133 31.9155H79.1835C79.1635 32.2877 79.0354 32.6418 78.7993 32.978C78.5632 33.3141 78.2471 33.5822 77.8509 33.7823C77.4588 33.9824 77.0426 34.0825 76.6024 34.0825C75.718 34.0825 75.0137 33.7883 74.4895 33.2001C73.9693 32.6078 73.7092 31.7995 73.7092 30.7751V30.589C73.7092 29.9567 73.8252 29.3945 74.0573 28.9023C74.2894 28.4101 74.6216 28.0279 75.0537 27.7558C75.4899 27.4837 76.0041 27.3476 76.5964 27.3476C77.3247 27.3476 77.929 27.5657 78.4092 28.0019C78.8934 28.4381 79.1515 29.0043 79.1835 29.7006H78.133C78.101 29.2804 77.941 28.9363 77.6528 28.6682C77.3687 28.396 77.0166 28.26 76.5964 28.26C76.0322 28.26 75.594 28.4641 75.2818 28.8722C74.9737 29.2764 74.8196 29.8627 74.8196 30.631V30.8411C74.8196 31.5894 74.9737 32.1656 75.2818 32.5698C75.59 32.974 76.0302 33.1761 76.6024 33.1761ZM83.1272 34.0825C82.2468 34.0825 81.5305 33.7943 80.9782 33.2181C80.426 32.6378 80.1499 31.8635 80.1499 30.8951V30.691C80.1499 30.0467 80.272 29.4725 80.5161 28.9683C80.7642 28.4601 81.1083 28.0639 81.5485 27.7798C81.9927 27.4917 82.4729 27.3476 82.9891 27.3476C83.8335 27.3476 84.4897 27.6257 84.9579 28.182C85.4261 28.7382 85.6602 29.5345 85.6602 30.571V31.0332H81.2604C81.2764 31.6734 81.4625 32.1917 81.8186 32.5878C82.1788 32.98 82.635 33.1761 83.1872 33.1761C83.5793 33.1761 83.9115 33.096 84.1836 32.936C84.4557 32.7759 84.6938 32.5638 84.8979 32.2997L85.5762 32.8279C85.032 33.6643 84.2156 34.0825 83.1272 34.0825ZM82.9891 28.26C82.5409 28.26 82.1648 28.4241 81.8606 28.7522C81.5565 29.0763 81.3684 29.5325 81.2964 30.1208H84.5498V30.0367C84.5177 29.4725 84.3657 29.0363 84.0936 28.7282C83.8215 28.4161 83.4533 28.26 82.9891 28.26Z" fill="white"/>
</svg>
