<svg width="55" height="54" viewBox="0 0 55 54" fill="none" xmlns="http://www.w3.org/2000/svg">
<g clip-path="url(#clip0_2140_594)">
<path d="M54.9999 48.2144C54.9999 51.4049 52.4478 54.0001 49.3103 54.0001C46.1727 54.0001 43.6206 51.4049 43.6206 48.2144C43.6206 45.0239 46.1727 42.4287 49.3103 42.4287C52.4478 42.4287 54.9999 45.0239 54.9999 48.2144Z" fill="#2B2932"/>
<path d="M17.0688 48.2144C17.0688 51.4049 14.5166 54.0001 11.3791 54.0001C8.24158 54.0001 5.68945 51.4049 5.68945 48.2144C5.68945 45.0239 8.24158 42.4287 11.3791 42.4287C14.5166 42.4287 17.0688 45.0239 17.0688 48.2144Z" fill="#2B2932"/>
<path d="M54.6807 17.3571H28.4482V1.92857C28.4482 0.863357 29.2973 0 30.3448 0C43.9905 0 52.9738 6.55907 54.6807 17.3571Z" fill="#2B2932"/>
<path d="M30.3448 42.4288C14.9069 42.4288 5.68966 34.4979 5.68966 21.2145V15.4288C5.68966 14.3655 4.83874 13.5002 3.7931 13.5002H1.89655C0.849023 13.5002 0 12.6369 0 11.5716C0 10.5064 0.849023 9.64307 1.89655 9.64307H3.7931C6.93063 9.64307 9.48276 12.2383 9.48276 15.4288V21.2145C26.6276 21.2145 38.751 21.2145 55 21.2145C55 34.4979 45.7828 42.4288 30.3448 42.4288Z" fill="#2B2932"/>
</g>
<defs>
<clipPath id="clip0_2140_594">
<rect width="55" height="54" fill="white"/>
</clipPath>
</defs>
</svg>
