<svg width="57" height="57" viewBox="0 0 57 57" fill="none" xmlns="http://www.w3.org/2000/svg">
<g clip-path="url(#clip0_2140_613)">
<path d="M16.7763 22.3206C16.7893 22.3206 16.8022 22.3076 16.8152 22.3076C18.4993 29.601 21.1679 34.8606 28.5002 34.8606C35.7807 34.8606 38.1902 29.2901 40.0427 22.1781C40.1852 22.2558 40.3406 22.3076 40.4961 22.3206C41.8045 22.476 43.1129 20.7013 43.3979 18.3306C43.6829 15.9858 42.8668 13.9519 41.5713 13.7706C41.6361 6.65853 37.3741 0.297852 28.5002 0.297852C19.5486 0.297852 15.6363 6.63263 15.5845 13.8224C14.3668 14.1204 13.6025 16.0765 13.8745 18.3435C14.1725 20.7013 15.4679 22.476 16.7763 22.3206ZM47.0641 39.9258C45.2504 39.3947 42.517 38.2417 40.9625 37.309C39.8354 36.6354 38.6306 36.8426 37.6461 37.6069L32.4254 54.0722L30.7025 44.4081C30.6766 44.2526 30.6118 44.1101 30.5211 43.9806C30.7413 43.8899 30.8968 43.6308 30.8968 43.294L31.5834 38.9283C31.5834 38.5267 31.3502 38.2029 31.0652 38.2029H25.9093C25.6243 38.2029 25.3911 38.5267 25.3911 38.9283L26.0777 43.294C26.0777 43.6308 26.2461 43.9029 26.4534 43.9806C26.3757 44.1101 26.3109 44.2397 26.285 44.4081L24.562 54.0722L19.4968 38.0604C18.4734 37.0369 17.1391 36.6354 15.9213 37.3738C14.4316 38.2676 11.737 39.3558 9.92338 39.874C4.21043 41.4804 0.0390625 43.5531 0.0390625 49.3697V53.2949C0.0390625 55.1863 1.5677 56.7149 3.45906 56.7149H53.5413C55.4327 56.7149 56.9613 55.1863 56.9613 53.2949V49.3567C56.9613 43.5272 52.8677 41.6358 47.0641 39.9258Z" fill="#2B2932"/>
</g>
<defs>
<clipPath id="clip0_2140_613">
<rect width="57" height="57" fill="white"/>
</clipPath>
</defs>
</svg>
