<svg width="98" height="41" viewBox="0 0 208 86" fill="none" xmlns="http://www.w3.org/2000/svg">
<g clip-path="url(#clip0_2102_476)">
<path d="M19.6294 0.00179486C24.717 -0.0669277 29.6327 1.84014 33.3412 5.32132V15.5843C31.6774 9.56705 26.3491 5.37575 19.6294 5.37575C11.5082 5.37575 5.37777 11.5019 5.37777 19.6173C5.37777 27.7326 11.5082 33.8587 19.6294 33.8587C25.8143 33.8587 30.8157 30.3107 32.8609 25.0456H14.2516V19.6519H33.3412V33.8934C29.6327 37.3746 24.717 39.2816 19.6294 39.2129C8.443 39.2129 0 30.8006 0 19.5975C0 8.39428 8.443 0.00179486 19.6294 0.00179486Z" fill="black"/>
<path d="M38.1841 0.788818H67.2221V6.16279H43.5421V16.9107H67.2023V22.2698H43.5421V33.0177H67.2023V38.3917H38.1841V0.788818Z" fill="black"/>
<path d="M72.0649 0.788818H83.3602L100.246 38.3967V0.788818H105.624V38.3967H94.3287L77.4427 0.788818V38.3967H72.0649V0.788818Z" fill="black"/>
<path d="M109.403 33.0326H123.12V6.16279H109.403V0.788818H142.209V6.16279H128.483V33.0326H142.194V38.4065H109.403V33.0326Z" fill="black"/>
<path d="M144.883 20.7853V0.793772H150.26V20.8942C150.26 28.5246 155.965 34.1113 163.601 34.1113C171.128 34.1113 177.154 28.5246 177.154 20.8942V0.788818H182.532V20.7853C182.532 31.3699 174.144 39.4853 163.601 39.4853C161.133 39.5206 158.684 39.0611 156.397 38.1339C154.111 37.2067 152.033 35.8306 150.288 34.0872C148.543 32.3437 147.165 30.2682 146.237 27.9834C145.309 25.6987 144.848 23.251 144.883 20.7853Z" fill="black"/>
<path d="M184.954 35.7739V25.9365C185.488 30.5632 190.168 33.651 194.575 33.651C197.744 33.651 201.082 31.8746 201.082 28.3266C201.082 20.7506 184.949 22.8487 184.949 11.0765C184.949 4.25261 190.272 0.219663 196.779 0.219663C199.799 0.19604 202.745 1.15863 205.167 2.96108V12.8579C204.672 8.50824 201.137 5.60352 196.833 5.60352C193.659 5.60352 190.326 7.08804 190.326 10.7647C190.326 18.6821 206.46 17.158 206.46 28.4998C206.46 35.2692 200.973 39.0349 194.63 39.0349C191.132 39.0499 187.728 37.9027 184.954 35.7739Z" fill="black"/>
<path d="M189.153 48.333H128.235C117.826 48.333 109.388 56.7651 109.388 67.1666C109.388 77.5681 117.826 86.0002 128.235 86.0002H189.153C199.562 86.0002 208 77.5681 208 67.1666C208 56.7651 199.562 48.333 189.153 48.333Z" fill="#FF3900"/>
<path d="M121.609 69.4725V69.3141H123.763V69.4725C123.763 70.5809 125.185 71.1154 128.082 71.1154C130.637 71.1154 131.998 70.6205 131.998 69.6952V69.5368C131.998 68.8045 131.261 68.4927 129.171 68.27L126.611 68.0028C123.451 67.6713 122.05 66.7805 122.05 64.9991V64.7765C122.05 62.7328 124.274 61.5105 127.992 61.5105C131.845 61.5105 134.138 62.8416 134.138 65.0684V65.2218H132.023V65.0684C132.023 63.9995 130.642 63.4206 127.903 63.4206C125.566 63.4206 124.234 63.9154 124.234 64.7319V64.8903C124.234 65.6226 124.902 65.9789 126.616 66.1373L129.216 66.3797C132.682 66.7113 134.167 67.6465 134.167 69.4923V69.715C134.167 71.7834 131.83 73.0502 128.002 73.0502C124.031 73.0502 121.609 71.6943 121.609 69.4725Z" fill="white"/>
<path d="M150.316 67.0924V67.4487C150.316 70.8482 147.756 73.0503 143.749 73.0503C142.226 73.092 140.742 72.5624 139.59 71.5657V76.5488H137.451V61.7778H139.431L139.521 63.0446C140.692 62.0285 142.199 61.4819 143.749 61.5106C147.756 61.5106 150.316 63.6879 150.316 67.0924ZM148.112 67.0924C148.112 64.8211 146.443 63.4652 143.73 63.4652C141.972 63.4652 140.412 64.1333 139.59 65.2021V69.339C140.412 70.4029 141.972 71.0956 143.73 71.0956C146.443 71.0956 148.112 69.715 148.112 67.4487V67.0924Z" fill="white"/>
<path d="M167.181 70.8928V72.7831H165.696C164.21 72.7831 163.22 72.2041 162.848 71.16C161.67 72.4515 160.026 73.0503 157.778 73.0503C154.594 73.0503 152.826 71.8923 152.826 69.8239C152.826 68.0672 154.183 66.9588 156.762 66.6916L162.705 66.0681C162.616 64.4005 161.303 63.5345 158.852 63.5345C156.495 63.5345 155.005 64.4005 155.005 65.7366V65.8157H152.89V65.7267C152.89 63.1881 155.272 61.5007 158.877 61.5007C162.635 61.5007 164.819 63.2574 164.819 66.2363V69.6606C164.819 70.4375 165.314 70.8829 166.196 70.8829L167.181 70.8928ZM162.725 68.9827V67.7951L157.248 68.3691C155.693 68.5274 154.96 68.9926 154.96 69.814C154.96 70.6355 155.916 71.1501 157.763 71.1501C160.15 71.16 161.932 70.3584 162.71 68.9827H162.725Z" fill="white"/>
<path d="M168.331 67.5129V67.1121C168.331 63.6482 170.866 61.5105 174.897 61.5105C178.546 61.5105 181.215 63.4899 181.215 66.2461V66.3352H179.012V66.2461C179.012 64.623 177.298 63.4651 174.897 63.4651C172.158 63.4651 170.534 64.821 170.534 67.1368V67.4931C170.534 69.7348 172.158 71.0955 174.897 71.0955C177.318 71.0955 179.012 69.9376 179.012 68.3344V68.2453H181.206V68.3344C181.206 71.1154 178.626 73.0502 174.887 73.0502C170.901 73.0502 168.331 70.8927 168.331 67.5129Z" fill="white"/>
<path d="M196.091 67.9828H185.474C185.608 69.9127 187.212 71.0954 189.747 71.0954C192.105 71.0954 193.709 70.2245 193.798 68.9379H196.091C195.843 71.516 193.486 73.05 189.747 73.05C185.786 73.05 183.25 70.9172 183.25 67.5375V67.0426C183.25 63.6431 185.766 61.4856 189.747 61.4856C193.729 61.4856 196.091 63.554 196.091 66.9536V67.9828ZM185.518 66.2014H193.818C193.555 64.4893 192.06 63.465 189.747 63.465C187.435 63.465 185.83 64.4893 185.518 66.2014V66.2014Z" fill="white"/>
<path d="M114.076 63.6521C113.917 63.6545 113.758 63.6654 113.599 63.6645C113.109 63.6613 112.621 63.6441 112.133 63.6131C111.646 63.5822 111.159 63.5373 110.674 63.4808C110.189 63.4244 109.706 63.3564 109.224 63.277C108.742 63.1976 108.261 63.1076 107.782 63.0078C107.303 62.9079 106.826 62.7987 106.35 62.681C105.874 62.5633 105.4 62.4374 104.929 62.3044C104.457 62.1715 103.986 62.0316 103.518 61.8858C103.051 61.7401 102.586 61.5889 102.122 61.433C101.196 61.1213 100.271 60.7893 99.3475 60.4496C98.4239 60.1098 97.501 59.7615 96.5776 59.4132C95.6543 59.065 94.7304 58.7171 93.8046 58.38C92.8787 58.0428 91.9515 57.7155 91.0205 57.409C90.5549 57.2557 90.0886 57.1074 89.6213 56.9655C89.1539 56.8235 88.6853 56.6891 88.2158 56.5609C87.7463 56.4327 87.276 56.3119 86.804 56.1999C86.332 56.0879 85.8575 55.9836 85.3827 55.8902C84.9078 55.7969 84.4315 55.7135 83.9534 55.6412C83.4754 55.569 82.9963 55.5079 82.5147 55.4592C82.0332 55.4104 81.5504 55.3746 81.065 55.3518C80.5796 55.3291 80.0921 55.3197 79.6026 55.3254C79.0986 55.3309 78.5952 55.3541 78.0927 55.3923C77.5903 55.4304 77.0881 55.4841 76.5892 55.5541C76.0903 55.6241 75.5933 55.7097 75.0999 55.8109C74.6065 55.9121 74.117 56.0291 73.6312 56.161C73.1453 56.2929 72.6641 56.4393 72.1877 56.6014C72.0838 56.6367 71.9829 56.6813 71.8794 56.7181C73.8032 62.8322 78.977 69.1634 88.2253 76.9302C91.5459 79.7188 94.4461 81.9999 94.671 81.9999C95.7657 81.9999 104.268 74.8639 108.585 70.3214C110.753 68.0413 112.581 65.8122 114.076 63.652V63.6521Z" fill="#FECB00"/>
<path d="M82.3552 39.0005C80.1766 39.0191 78.0507 39.5006 76.4534 40.4881C72.3276 43.039 70.9376 45.801 71.0021 51.3185C71.0233 53.1202 71.3106 54.9099 71.8796 56.7182C71.983 56.6814 72.0839 56.6369 72.1879 56.6015C72.6642 56.4394 73.1454 56.293 73.6313 56.1611C74.1172 56.0292 74.6067 55.9122 75.1001 55.811C75.5935 55.7098 76.0904 55.6242 76.5893 55.5542C77.0883 55.4843 77.5904 55.4306 78.0929 55.3924C78.5953 55.3542 79.0987 55.3313 79.6027 55.3255C80.0923 55.3199 80.5798 55.3294 81.0651 55.3519C81.5505 55.3747 82.0334 55.4105 82.5149 55.4593C82.9964 55.508 83.4756 55.5691 83.9536 55.6413C84.4316 55.7136 84.908 55.797 85.3828 55.8903C85.8576 55.9837 86.3321 56.088 86.8041 56.2C87.2761 56.312 87.7464 56.4328 88.2159 56.561C88.6854 56.6892 89.1541 56.8236 89.6214 56.9656C90.0888 57.1075 90.5551 57.2558 91.0206 57.4091C91.9517 57.7156 92.8789 58.0429 93.8047 58.3801C94.7306 58.7172 95.6544 59.0651 96.5778 59.4133C97.5012 59.7616 98.4241 60.1099 99.3477 60.4497C100.271 60.7894 101.196 61.1214 102.122 61.4331C102.586 61.589 103.051 61.7402 103.518 61.8859C103.986 62.0317 104.457 62.1716 104.929 62.3045C105.4 62.4375 105.874 62.5634 106.35 62.6811C106.825 62.7988 107.303 62.908 107.782 63.0079C108.261 63.1077 108.742 63.1977 109.224 63.2771C109.706 63.3565 110.189 63.4245 110.674 63.4809C111.159 63.5374 111.646 63.5823 112.133 63.6132C112.621 63.6441 113.109 63.6617 113.599 63.6646C113.758 63.6654 113.917 63.6546 114.076 63.6522C120.227 54.7677 120.669 47.0539 115.097 41.8C113.203 40.0137 111.716 39.4323 108.332 39.1562C103.044 38.7245 99.6287 40.2416 97.0426 44.1715C94.9831 47.3011 94.3226 47.5578 93.6561 45.491C93.3984 44.6918 92.0993 43.0122 90.7692 41.758C88.8375 39.9364 85.5394 38.9734 82.3552 39.0006V39.0005Z" fill="#0068C2"/>
<path opacity="0.217903" d="M100.611 75.8877C111.005 65.0126 114.933 58.2664 114.946 51.2656C114.955 45.7068 113.225 42.5945 109.031 40.6325L105.645 39.0481L109.175 39.4361C115.667 40.1495 119.783 46.4383 118.567 53.7851C117.65 59.3251 114.105 64.712 106.358 72.3407C97.3842 81.1768 92.926 83.9284 100.611 75.8877ZM90.438 46.2614C88.7474 43.2455 87.329 41.857 84.7718 40.7143C81.4535 39.2317 81.4267 39.1898 83.7891 39.1757C88.3171 39.1486 95.1682 45.1956 94.523 48.6498C94.0834 51.0039 92.6155 50.1456 90.438 46.2614Z" fill="black"/>
<path opacity="0.367623" d="M79.7974 42.6665C78.8046 42.6605 77.7435 43.2799 76.4552 44.5479C72.8581 47.7398 75.0191 60.4258 76.6247 52.3631C76.9215 51.0335 78.8906 49.1838 80.1658 48.2559C83.1162 46.1089 83.6209 45.3405 82.0662 43.8103C81.3003 43.0564 80.5696 42.6719 79.7974 42.6665ZM103.86 42.8425C102.452 42.8334 100.964 43.8812 99.9582 45.7959C98.3736 48.812 99.2666 48.9657 101.587 48.9657C102.675 48.9657 103.732 48.0915 104.981 47.0236C107.088 45.2218 107.157 44.9873 105.926 43.7558C105.313 43.1426 104.597 42.8474 103.86 42.8425Z" fill="white"/>
</g>
<defs>
<clipPath id="clip0_2102_476">
<rect width="208" height="86" fill="white"/>
</clipPath>
</defs>
</svg>
