<svg width="442" height="388" viewBox="0 0 442 388" fill="none" xmlns="http://www.w3.org/2000/svg">
<g clip-path="url(#clip0_1_133)">
<path d="M332.364 51.1858H32.3197V234.623H332.364V51.1858Z" fill="white" stroke="#E0E0E0" stroke-width="0.993162" stroke-miterlimit="10"/>
<path d="M32.3197 74.9521H332.364" stroke="#E0E0E0" stroke-width="0.993162" stroke-miterlimit="10"/>
<path d="M53.524 63.8188C53.5181 64.9434 53.1791 66.0411 52.5498 66.9733C51.9205 67.9054 51.029 68.6302 49.9881 69.056C48.9472 69.4819 47.8034 69.5898 46.7012 69.366C45.5989 69.1423 44.5877 68.597 43.7953 67.7989C43.0028 67.0009 42.4645 65.9859 42.2484 64.8822C42.0324 63.7784 42.1482 62.6354 42.5813 61.5975C43.0144 60.5595 43.7454 59.6732 44.6819 59.0504C45.6184 58.4276 46.7184 58.0962 47.8431 58.0982C48.5921 58.0994 49.3335 58.2486 50.0247 58.537C50.716 58.8255 51.3435 59.2475 51.8713 59.779C52.3991 60.3105 52.8167 60.9409 53.1003 61.6341C53.384 62.3274 53.5279 63.0698 53.524 63.8188Z" fill="#E0E0E0"/>
<path d="M76.7343 63.8188C76.7264 64.9406 76.3866 66.035 75.7576 66.964C75.1287 67.893 74.2387 68.6149 73.2 69.0388C72.1613 69.4627 71.0203 69.5695 69.921 69.3459C68.8216 69.1222 67.8131 68.5781 67.0226 67.782C66.2321 66.986 65.6949 65.9737 65.4789 64.8728C65.2629 63.7719 65.3777 62.6317 65.8089 61.596C66.24 60.5602 66.9681 59.6753 67.9014 59.0529C68.8348 58.4304 69.9315 58.0982 71.0534 58.0981C71.8024 58.0994 72.5438 58.2486 73.235 58.537C73.9263 58.8255 74.5538 59.2475 75.0816 59.779C75.6093 60.3105 76.027 60.9409 76.3106 61.6341C76.5942 62.3274 76.7382 63.0698 76.7343 63.8188Z" fill="#F0F0F0"/>
<path d="M99.9448 63.8188C99.9448 64.9424 99.6116 66.0407 98.9874 66.975C98.3632 67.9092 97.4759 68.6373 96.4379 69.0673C95.3998 69.4973 94.2576 69.6098 93.1556 69.3906C92.0536 69.1714 91.0414 68.6303 90.2469 67.8358C89.4524 67.0413 88.9114 66.0291 88.6922 64.9271C88.473 63.8251 88.5855 62.6829 89.0154 61.6448C89.4454 60.6068 90.1735 59.7196 91.1078 59.0953C92.042 58.4711 93.1403 58.1379 94.2639 58.1379C95.7698 58.1406 97.2132 58.7399 98.278 59.8047C99.3428 60.8695 99.9422 62.313 99.9448 63.8188Z" fill="#F5F5F5"/>
<path d="M65.591 120.876H49.601V125.285H65.591V120.876Z" fill="#E6E6E6"/>
<path d="M185.843 120.876H77.2506V125.285H185.843V120.876Z" fill="#E6E6E6"/>
<path d="M226.036 120.876H195.665V125.285H226.036V120.876Z" fill="#E6E6E6"/>
<path d="M295.508 179.899H265.137V184.309H295.508V179.899Z" fill="#E6E6E6"/>
<path d="M285.149 120.876H232.641V125.285H285.149V120.876Z" fill="#E6E6E6"/>
<path d="M81.5805 132.675H65.5906V137.084H81.5805V132.675Z" fill="#E6E6E6"/>
<path d="M163.318 132.675H92.8336V137.084H163.318V132.675Z" fill="#E6E6E6"/>
<path d="M257.927 179.899H187.442V184.309H257.927V179.899Z" fill="#E6E6E6"/>
<path d="M142.333 168.091H77.2506V172.5H142.333V168.091Z" fill="#E6E6E6"/>
<path d="M123.602 144.483H92.8336V148.893H123.602V144.483Z" fill="#E6E6E6"/>
<path d="M246.744 156.292H215.976V160.702H246.744V156.292Z" fill="#E6E6E6"/>
<path d="M236.415 144.483H132.55V148.893H236.415V144.483Z" fill="#E6E6E6"/>
<path d="M181.116 179.899H77.2506V184.309H181.116V179.899Z" fill="#E6E6E6"/>
<path d="M312.58 132.675H229.254V137.084H312.58V132.675Z" fill="#E6E6E6"/>
<path d="M222.65 132.675H170.876V137.084H222.65V132.675Z" fill="#E6E6E6"/>
<path d="M294.246 144.483H242.473V148.893H294.246V144.483Z" fill="#E6E6E6"/>
<path d="M81.5805 144.483H65.5906V148.893H81.5805V144.483Z" fill="#E6E6E6"/>
<path d="M65.591 156.292H49.601V160.702H65.591V156.292Z" fill="#E6E6E6"/>
<path d="M121.863 156.292H77.2506V160.702H121.863V156.292Z" fill="#E6E6E6"/>
<path d="M137.446 191.698H92.8336V196.108H137.446V191.698Z" fill="#E6E6E6"/>
<path d="M266.061 203.507H194.215V207.917H266.061V203.507Z" fill="#E6E6E6"/>
<path d="M214.952 191.698H145.123V196.108H214.952V191.698Z" fill="#E6E6E6"/>
<path d="M185.962 203.507H128.408V207.917H185.962V203.507Z" fill="#E6E6E6"/>
<path d="M312.58 191.698H223.146V196.108H312.58V191.698Z" fill="#E6E6E6"/>
<path d="M120.195 203.507H92.8336V207.917H120.195V203.507Z" fill="#E6E6E6"/>
<path d="M226.037 168.091H148.838V172.5H226.037V168.091Z" fill="#E6E6E6"/>
<path d="M297.633 168.091H232.641V172.5H297.633V168.091Z" fill="#E6E6E6"/>
<path d="M208.537 156.292H131.467V160.702H208.537V156.292Z" fill="#E6E6E6"/>
<path d="M65.591 168.091H49.601V172.5H65.591V168.091Z" fill="#E6E6E6"/>
<path d="M65.591 179.899H49.601V184.309H65.591V179.899Z" fill="#E6E6E6"/>
<path d="M81.5805 191.698H65.5906V196.108H81.5805V191.698Z" fill="#E6E6E6"/>
<path d="M81.5805 203.507H65.5906V207.917H81.5805V203.507Z" fill="#E6E6E6"/>
<path d="M51.0908 105.304V104.057L61.1345 98.9414V100.938L53.4302 104.649L53.4926 104.525V104.837L53.4302 104.712L61.1345 108.424V110.42L51.0908 105.304ZM70.6811 94.2003L65.5345 113.321H63.8501L68.9967 94.2003H70.6811ZM83.4364 105.304L73.3928 110.42V108.424L81.0971 104.712L81.0347 104.837V104.525L81.0971 104.649L73.3928 100.938V98.9414L83.4364 104.057V105.304Z" fill="#E0E0E0"/>
<path d="M11.8213 215.832H46.86C47.9259 215.832 48.9814 216.042 49.966 216.451C50.9505 216.859 51.8448 217.458 52.5976 218.213C53.3504 218.967 53.9469 219.863 54.353 220.849C54.7591 221.834 54.9668 222.89 54.9642 223.956V258.915L46.721 251.347H11.8213C9.67188 251.347 7.61055 250.494 6.09072 248.974C4.57088 247.454 3.71705 245.393 3.71705 243.243V223.956C3.71444 222.89 3.92213 221.834 4.32823 220.849C4.73434 219.863 5.33088 218.967 6.08368 218.213C6.83649 217.458 7.73077 216.859 8.71531 216.451C9.69986 216.042 10.7553 215.832 11.8213 215.832Z" fill="white" stroke="#EAEAEA" stroke-width="0.993162" stroke-miterlimit="10"/>
<path d="M37.3552 234.235C37.3552 234.933 37.562 235.614 37.9494 236.194C38.3368 236.774 38.8875 237.226 39.5317 237.493C40.1759 237.76 40.8849 237.829 41.5688 237.693C42.2527 237.557 42.8809 237.222 43.374 236.729C43.8671 236.235 44.2029 235.607 44.3389 234.923C44.475 234.239 44.4051 233.53 44.1383 232.886C43.8714 232.242 43.4195 231.691 42.8397 231.304C42.2599 230.917 41.5783 230.71 40.8809 230.71C39.9459 230.71 39.0491 231.081 38.3879 231.742C37.7267 232.404 37.3552 233.3 37.3552 234.235Z" fill="#EAEAEA"/>
<path d="M28.6252 237.761C30.5724 237.761 32.1509 236.183 32.1509 234.235C32.1509 232.288 30.5724 230.71 28.6252 230.71C26.6779 230.71 25.0994 232.288 25.0994 234.235C25.0994 236.183 26.6779 237.761 28.6252 237.761Z" fill="#EAEAEA"/>
<path d="M16.3699 237.761C18.3171 237.761 19.8956 236.183 19.8956 234.235C19.8956 232.288 18.3171 230.71 16.3699 230.71C14.4227 230.71 12.8442 232.288 12.8442 234.235C12.8442 236.183 14.4227 237.761 16.3699 237.761Z" fill="#EAEAEA"/>
<path d="M404.776 195.999H366.688C362.832 195.999 359.706 199.124 359.706 202.98V224.85C359.706 228.706 362.832 231.832 366.688 231.832H404.776C408.632 231.832 411.758 228.706 411.758 224.85V202.98C411.758 199.124 408.632 195.999 404.776 195.999Z" fill="#F0F0F0"/>
<path d="M370.231 213.421V212.32L379.093 207.806V209.568L372.295 212.843L372.35 212.733V213.008L372.295 212.898L379.093 216.174V217.935L370.231 213.421ZM387.517 203.623L382.976 220.495H381.49L386.031 203.623H387.517ZM398.773 213.421L389.91 217.935V216.174L396.709 212.898L396.654 213.008V212.733L396.709 212.843L389.91 209.568V207.806L398.773 212.32V213.421Z" fill="white"/>
<path d="M340.222 167.412V166.392C341.138 166.392 341.777 166.2 342.139 165.816C342.507 165.432 342.69 164.79 342.69 163.89V161.257C342.69 160.5 342.762 159.845 342.904 159.291C343.052 158.737 343.291 158.279 343.62 157.917C343.949 157.555 344.388 157.286 344.937 157.11C345.485 156.935 346.163 156.847 346.969 156.847V158.46C346.333 158.46 345.831 158.559 345.463 158.756C345.101 158.954 344.843 159.261 344.69 159.678C344.542 160.089 344.468 160.616 344.468 161.257V164.549C344.468 164.977 344.41 165.366 344.295 165.717C344.185 166.068 343.979 166.37 343.678 166.622C343.376 166.874 342.945 167.069 342.386 167.206C341.832 167.344 341.111 167.412 340.222 167.412ZM346.969 177.911C346.163 177.911 345.485 177.823 344.937 177.648C344.388 177.472 343.949 177.204 343.62 176.842C343.291 176.479 343.052 176.021 342.904 175.467C342.762 174.913 342.69 174.258 342.69 173.501V170.868C342.69 169.968 342.507 169.326 342.139 168.943C341.777 168.559 341.138 168.367 340.222 168.367V167.346C341.111 167.346 341.832 167.415 342.386 167.552C342.945 167.689 343.376 167.884 343.678 168.136C343.979 168.388 344.185 168.69 344.295 169.041C344.41 169.392 344.468 169.782 344.468 170.21V173.501C344.468 174.143 344.542 174.669 344.69 175.081C344.843 175.492 345.101 175.797 345.463 175.994C345.831 176.197 346.333 176.298 346.969 176.298V177.911ZM340.222 168.367V166.392H342.164V168.367H340.222ZM355.298 167.346V168.367C354.382 168.367 353.74 168.559 353.373 168.943C353.011 169.326 352.83 169.968 352.83 170.868V173.501C352.83 174.258 352.755 174.913 352.607 175.467C352.465 176.021 352.229 176.479 351.9 176.842C351.571 177.204 351.132 177.472 350.583 177.648C350.035 177.823 349.357 177.911 348.551 177.911V176.298C349.187 176.298 349.686 176.197 350.048 175.994C350.416 175.797 350.674 175.492 350.822 175.081C350.975 174.669 351.052 174.143 351.052 173.501V170.21C351.052 169.782 351.107 169.392 351.217 169.041C351.332 168.69 351.54 168.388 351.842 168.136C352.144 167.884 352.572 167.689 353.126 167.552C353.685 167.415 354.409 167.346 355.298 167.346ZM348.551 156.847C349.357 156.847 350.035 156.935 350.583 157.11C351.132 157.286 351.571 157.555 351.9 157.917C352.229 158.279 352.465 158.737 352.607 159.291C352.755 159.845 352.83 160.5 352.83 161.257V163.89C352.83 164.79 353.011 165.432 353.373 165.816C353.74 166.2 354.382 166.392 355.298 166.392V167.412C354.409 167.412 353.685 167.344 353.126 167.206C352.572 167.069 352.144 166.874 351.842 166.622C351.54 166.37 351.332 166.068 351.217 165.717C351.107 165.366 351.052 164.977 351.052 164.549V161.257C351.052 160.616 350.975 160.089 350.822 159.678C350.674 159.261 350.416 158.954 350.048 158.756C349.686 158.559 349.187 158.46 348.551 158.46V156.847ZM355.298 166.392V168.367H353.356V166.392H355.298Z" fill="#E6E6E6"/>
<path d="M43.8773 9.28321V8.48202C44.5967 8.48202 45.0985 8.33126 45.3828 8.02974C45.6714 7.72822 45.8157 7.22425 45.8157 6.51782V4.45024C45.8157 3.85581 45.8717 3.34106 45.9837 2.90601C46.1 2.47096 46.2873 2.11128 46.5458 1.82699C46.8042 1.5427 47.1488 1.33163 47.5796 1.19379C48.0103 1.05595 48.5423 0.987035 49.1755 0.987035V2.25343C48.6758 2.25343 48.2817 2.33096 47.9931 2.48603C47.7088 2.6411 47.5064 2.88232 47.3857 3.20969C47.2694 3.53275 47.2113 3.94626 47.2113 4.45024V7.03472C47.2113 7.3707 47.1661 7.67653 47.0756 7.95221C46.9895 8.22788 46.8279 8.4648 46.591 8.66294C46.3541 8.86108 46.016 9.014 45.5766 9.12168C45.1416 9.22937 44.5751 9.28321 43.8773 9.28321ZM49.1755 17.5277C48.5423 17.5277 48.0103 17.4588 47.5796 17.3209C47.1488 17.1831 46.8042 16.972 46.5458 16.6877C46.2873 16.4035 46.1 16.0438 45.9837 15.6087C45.8717 15.1737 45.8157 14.6589 45.8157 14.0645V11.9969C45.8157 11.2905 45.6714 10.7865 45.3828 10.485C45.0985 10.1835 44.5967 10.0327 43.8773 10.0327V9.23152C44.5751 9.23152 45.1416 9.28537 45.5766 9.39305C46.016 9.50074 46.3541 9.65366 46.591 9.8518C46.8279 10.0499 46.9895 10.2869 47.0756 10.5625C47.1661 10.8382 47.2113 11.144 47.2113 11.48V14.0645C47.2113 14.5685 47.2694 14.982 47.3857 15.3051C47.5064 15.6281 47.7088 15.8672 47.9931 16.0222C48.2817 16.1816 48.6758 16.2613 49.1755 16.2613V17.5277ZM43.8773 10.0327V8.48202H45.4022V10.0327H43.8773ZM55.7158 9.23152V10.0327C54.9965 10.0327 54.4925 10.1835 54.2039 10.485C53.9196 10.7865 53.7775 11.2905 53.7775 11.9969V14.0645C53.7775 14.6589 53.7193 15.1737 53.603 15.6087C53.491 16.0438 53.3058 16.4035 53.0474 16.6877C52.7889 16.972 52.4443 17.1831 52.0136 17.3209C51.5828 17.4588 51.0509 17.5277 50.4177 17.5277V16.2613C50.9173 16.2613 51.3093 16.1816 51.5936 16.0222C51.8822 15.8672 52.0847 15.6281 52.201 15.3051C52.3216 14.982 52.3819 14.5685 52.3819 14.0645V11.48C52.3819 11.144 52.4249 10.8382 52.5111 10.5625C52.6015 10.2869 52.7652 10.0499 53.0021 9.8518C53.2391 9.65366 53.575 9.50074 54.0101 9.39305C54.4495 9.28537 55.018 9.23152 55.7158 9.23152ZM50.4177 0.987035C51.0509 0.987035 51.5828 1.05595 52.0136 1.19379C52.4443 1.33163 52.7889 1.5427 53.0474 1.82699C53.3058 2.11128 53.491 2.47096 53.603 2.90601C53.7193 3.34106 53.7775 3.85581 53.7775 4.45024V6.51782C53.7775 7.22425 53.9196 7.72822 54.2039 8.02974C54.4925 8.33126 54.9965 8.48202 55.7158 8.48202V9.28321C55.018 9.28321 54.4495 9.22937 54.0101 9.12168C53.575 9.014 53.2391 8.86108 53.0021 8.66294C52.7652 8.4648 52.6015 8.22788 52.5111 7.95221C52.4249 7.67653 52.3819 7.3707 52.3819 7.03472V4.45024C52.3819 3.94626 52.3216 3.53275 52.201 3.20969C52.0847 2.88232 51.8822 2.6411 51.5936 2.48603C51.3093 2.33096 50.9173 2.25343 50.4177 2.25343V0.987035ZM55.7158 8.48202V10.0327H54.191V8.48202H55.7158Z" fill="#E6E6E6"/>
<path d="M213.573 11.7573H107.453C102.895 11.7573 99.2 15.4524 99.2 20.0105V97.1196C99.2 101.678 102.895 105.373 107.453 105.373H213.573C218.131 105.373 221.826 101.678 221.826 97.1196V20.0105C221.826 15.4524 218.131 11.7573 213.573 11.7573Z" fill="#4D5A64"/>
<path d="M182.524 31.9676V31.1296L189.27 27.6939V29.0347L184.095 31.5277L184.137 31.4439V31.6534L184.095 31.5696L189.27 34.0626V35.4033L182.524 31.9676ZM195.682 24.5096L192.225 37.3516H191.094L194.55 24.5096H195.682ZM204.249 31.9676L197.503 35.4033V34.0626L202.678 31.5696L202.636 31.6534V31.4439L202.678 31.5277L197.503 29.0347V27.6939L204.249 31.1296V31.9676Z" fill="#FAFAFA"/>
<path d="M136.274 33.3784H168.92C169.117 33.3784 169.307 33.2999 169.446 33.1602C169.586 33.0206 169.664 32.8311 169.664 32.6335C169.664 32.436 169.586 32.2465 169.446 32.1068C169.307 31.9671 169.117 31.8887 168.92 31.8887H136.274C136.077 31.8887 135.887 31.9671 135.748 32.1068C135.608 32.2465 135.529 32.436 135.529 32.6335C135.529 32.8311 135.608 33.0206 135.748 33.1602C135.887 33.2999 136.077 33.3784 136.274 33.3784Z" fill="#FAFAFA"/>
<path d="M110.572 46.1804H201.287C202.499 46.1804 203.77 46.2896 204.972 46.1804H205.141C205.338 46.1804 205.528 46.1019 205.667 45.9622C205.807 45.8225 205.886 45.633 205.886 45.4355C205.886 45.2379 205.807 45.0485 205.667 44.9088C205.528 44.7691 205.338 44.6906 205.141 44.6906H114.425C113.214 44.6906 111.952 44.5913 110.741 44.6906C110.684 44.6954 110.628 44.6954 110.572 44.6906C110.374 44.6906 110.185 44.7691 110.045 44.9088C109.905 45.0485 109.827 45.2379 109.827 45.4355C109.827 45.633 109.905 45.8225 110.045 45.9622C110.185 46.1019 110.374 46.1804 110.572 46.1804Z" fill="#FAFAFA"/>
<path d="M194.394 61.197H205.14C205.338 61.197 205.527 61.1185 205.667 60.9788C205.807 60.8392 205.885 60.6497 205.885 60.4521C205.885 60.2546 205.807 60.0651 205.667 59.9254C205.527 59.7857 205.338 59.7073 205.14 59.7073H194.394C194.197 59.7073 194.007 59.7857 193.868 59.9254C193.728 60.0651 193.649 60.2546 193.649 60.4521C193.649 60.6497 193.728 60.8392 193.868 60.9788C194.007 61.1185 194.197 61.197 194.394 61.197Z" fill="#FAFAFA"/>
<path d="M137.427 61.197H182.725C182.922 61.197 183.112 61.1185 183.251 60.9788C183.391 60.8392 183.47 60.6497 183.47 60.4521C183.47 60.2546 183.391 60.0651 183.251 59.9254C183.112 59.7857 182.922 59.7073 182.725 59.7073H137.427C137.229 59.7073 137.04 59.7857 136.9 59.9254C136.76 60.0651 136.682 60.2546 136.682 60.4521C136.682 60.6497 136.76 60.8392 136.9 60.9788C137.04 61.1185 137.229 61.197 137.427 61.197Z" fill="#FAFAFA"/>
<path d="M110.572 73.6611H201.287C202.499 73.6611 203.77 73.7604 204.972 73.6611C205.028 73.6563 205.085 73.6563 205.141 73.6611C205.338 73.6611 205.528 73.5826 205.667 73.4429C205.807 73.3032 205.886 73.1138 205.886 72.9162C205.886 72.7187 205.807 72.5292 205.667 72.3895C205.528 72.2498 205.338 72.1714 205.141 72.1714H114.425C113.214 72.1714 111.952 72.0621 110.741 72.1714H110.572C110.374 72.1714 110.185 72.2498 110.045 72.3895C109.905 72.5292 109.827 72.7187 109.827 72.9162C109.827 73.1138 109.905 73.3032 110.045 73.4429C110.185 73.5826 110.374 73.6611 110.572 73.6611Z" fill="#FAFAFA"/>
<path d="M177.521 87.4065H205.141C205.338 87.4065 205.528 87.328 205.668 87.1883C205.807 87.0486 205.886 86.8592 205.886 86.6616C205.886 86.4641 205.807 86.2746 205.668 86.1349C205.528 85.9952 205.338 85.9167 205.141 85.9167H177.521C177.324 85.9167 177.134 85.9952 176.994 86.1349C176.855 86.2746 176.776 86.4641 176.776 86.6616C176.776 86.8592 176.855 87.0486 176.994 87.1883C177.134 87.328 177.324 87.4065 177.521 87.4065Z" fill="#FAFAFA"/>
<path d="M137.427 87.4065H168.92C169.117 87.4065 169.307 87.328 169.446 87.1883C169.586 87.0486 169.665 86.8592 169.665 86.6616C169.665 86.4641 169.586 86.2746 169.446 86.1349C169.307 85.9952 169.117 85.9167 168.92 85.9167H137.427C137.229 85.9167 137.04 85.9952 136.9 86.1349C136.76 86.2746 136.682 86.4641 136.682 86.6616C136.682 86.8592 136.76 87.0486 136.9 87.1883C137.04 87.328 137.229 87.4065 137.427 87.4065Z" fill="#FAFAFA"/>
<path d="M223.127 159.311H151.619V199.564H223.127V159.311Z" fill="#FAFAFA" stroke="#FFE85A" stroke-width="0.993162" stroke-miterlimit="10"/>
<path d="M158.393 162.986C158.393 163.347 158.286 163.701 158.085 164.001C157.884 164.302 157.599 164.536 157.265 164.674C156.931 164.812 156.563 164.849 156.209 164.778C155.854 164.708 155.529 164.534 155.273 164.278C155.018 164.022 154.844 163.697 154.773 163.342C154.702 162.988 154.739 162.62 154.877 162.287C155.015 161.953 155.25 161.667 155.55 161.466C155.851 161.266 156.204 161.158 156.565 161.158C157.049 161.161 157.512 161.354 157.855 161.697C158.197 162.039 158.39 162.502 158.393 162.986Z" fill="#FFE85A"/>
<path d="M165.841 162.986C165.841 163.347 165.734 163.701 165.533 164.001C165.333 164.302 165.047 164.536 164.713 164.674C164.379 164.812 164.012 164.849 163.657 164.778C163.303 164.708 162.977 164.534 162.722 164.278C162.466 164.022 162.292 163.697 162.222 163.342C162.151 162.988 162.187 162.62 162.326 162.287C162.464 161.953 162.698 161.667 162.999 161.466C163.299 161.266 163.653 161.158 164.014 161.158C164.254 161.158 164.492 161.206 164.713 161.298C164.935 161.389 165.136 161.524 165.306 161.694C165.476 161.863 165.61 162.065 165.702 162.287C165.794 162.508 165.841 162.746 165.841 162.986Z" fill="#FFE85A"/>
<path d="M173.29 162.986C173.29 163.347 173.183 163.701 172.982 164.001C172.781 164.302 172.496 164.536 172.162 164.674C171.828 164.812 171.461 164.849 171.106 164.778C170.752 164.708 170.426 164.534 170.17 164.278C169.915 164.022 169.741 163.697 169.67 163.342C169.6 162.988 169.636 162.62 169.774 162.287C169.913 161.953 170.147 161.667 170.447 161.466C170.748 161.266 171.101 161.158 171.463 161.158C171.947 161.158 172.412 161.351 172.755 161.694C173.098 162.036 173.29 162.501 173.29 162.986Z" fill="#FFE85A"/>
<path d="M151.579 166.561H223.127" stroke="#FFE85A" stroke-width="0.993162" stroke-miterlimit="10"/>
<path d="M110.771 26.7241H61.6886V59.8361H110.771V26.7241Z" fill="#FAFAFA" stroke="#FFE85A" stroke-width="0.993162" stroke-miterlimit="10"/>
<path d="M65.7896 31.253C66.6178 31.253 67.2892 30.5816 67.2892 29.7533C67.2892 28.9251 66.6178 28.2537 65.7896 28.2537C64.9613 28.2537 64.2899 28.9251 64.2899 29.7533C64.2899 30.5816 64.9613 31.253 65.7896 31.253Z" fill="#FFE85A"/>
<path d="M73.4173 29.7535C73.4292 30.0548 73.3506 30.3527 73.1917 30.6089C73.0327 30.865 72.8007 31.0678 72.5256 31.191C72.2504 31.3141 71.9446 31.3521 71.6477 31.2999C71.3508 31.2478 71.0762 31.1079 70.8595 30.8983C70.6428 30.6888 70.4937 30.4191 70.4316 30.1241C70.3695 29.8291 70.3971 29.5222 70.511 29.2431C70.6248 28.9639 70.8196 28.7252 71.0703 28.5578C71.321 28.3903 71.6161 28.3017 71.9176 28.3035C72.3061 28.3057 72.6788 28.4577 72.9582 28.7278C73.2375 28.9979 73.4019 29.3653 73.4173 29.7535Z" fill="#FFE85A"/>
<path d="M79.5353 29.7535C79.5452 30.052 79.4657 30.3467 79.3071 30.5998C79.1484 30.8528 78.9178 31.0527 78.6448 31.1739C78.3718 31.2951 78.0688 31.3319 77.7747 31.2798C77.4806 31.2277 77.2087 31.0889 76.994 30.8813C76.7793 30.6737 76.6314 30.4066 76.5694 30.1145C76.5074 29.8223 76.5341 29.5182 76.646 29.2413C76.7579 28.9644 76.9499 28.7272 77.1975 28.5601C77.4451 28.393 77.7369 28.3036 78.0356 28.3035C78.4249 28.3033 78.799 28.4544 79.0789 28.725C79.3587 28.9956 79.5224 29.3644 79.5353 29.7535Z" fill="#FFE85A"/>
<path d="M61.6886 32.6931H110.771" stroke="#FFE85A" stroke-width="0.993162" stroke-miterlimit="10"/>
<path d="M437.064 75.4089H342.147V135.346H437.064" fill="#FFE85A"/>
<path d="M437.064 75.4089H342.147V86.8601H437.064V75.4089Z" fill="#D880A6"/>
<path d="M437.064 75.4089H342.147V86.8601H437.064V75.4089Z" fill="#D0BC43"/>
<path d="M352.893 81.2093C352.893 81.7789 352.724 82.3358 352.408 82.8094C352.091 83.2831 351.641 83.6522 351.115 83.8702C350.589 84.0882 350.01 84.1452 349.451 84.0341C348.892 83.923 348.379 83.6487 347.976 83.2459C347.573 82.8431 347.299 82.3299 347.188 81.7712C347.077 81.2125 347.134 80.6334 347.352 80.1071C347.57 79.5808 347.939 79.131 348.413 78.8145C348.886 78.498 349.443 78.3291 350.013 78.3291C350.777 78.3291 351.509 78.6326 352.049 79.1727C352.589 79.7128 352.893 80.4454 352.893 81.2093Z" fill="white"/>
<path d="M364.662 81.2093C364.662 81.7789 364.493 82.3358 364.177 82.8094C363.86 83.2831 363.411 83.6522 362.884 83.8702C362.358 84.0882 361.779 84.1452 361.22 84.0341C360.661 83.923 360.148 83.6487 359.745 83.2459C359.343 82.8431 359.068 82.3299 358.957 81.7712C358.846 81.2125 358.903 80.6334 359.121 80.1071C359.339 79.5808 359.708 79.131 360.182 78.8145C360.656 78.498 361.212 78.3291 361.782 78.3291C362.546 78.3291 363.278 78.6326 363.819 79.1727C364.359 79.7128 364.662 80.4454 364.662 81.2093Z" fill="white"/>
<path d="M376.392 81.2093C376.392 81.7789 376.223 82.3358 375.906 82.8094C375.59 83.2831 375.14 83.6522 374.614 83.8702C374.087 84.0882 373.508 84.1452 372.95 84.0341C372.391 83.923 371.878 83.6487 371.475 83.2459C371.072 82.8431 370.798 82.3299 370.687 81.7712C370.576 81.2125 370.633 80.6334 370.851 80.1071C371.069 79.5808 371.438 79.131 371.911 78.8145C372.385 78.498 372.942 78.3291 373.512 78.3291C374.275 78.3291 375.008 78.6326 375.548 79.1727C376.088 79.7128 376.392 80.4454 376.392 81.2093Z" fill="white"/>
<path d="M351.87 120.685V99.8035H355.021V108.878H365.431V99.8035H368.591V120.685H365.431V111.58H355.021V120.685H351.87Z" fill="#263238"/>
<path d="M372.15 102.516V99.8035H388.31V102.516H381.795V120.685H378.655V102.516H372.15Z" fill="#263238"/>
<path d="M391.881 99.8035H395.705L402.352 116.035H402.597L409.245 99.8035H413.068V120.685H410.071V105.574H409.877L403.719 120.654H401.231L395.072 105.564H394.879V120.685H391.881V99.8035Z" fill="#263238"/>
<path d="M417.649 120.685V99.8035H420.799V117.972H430.261V120.685H417.649Z" fill="#263238"/>
<path d="M93.3995 116.377H14.8801V166.035H93.4492" fill="#FFE85A"/>
<path d="M93.4 116.377H14.831V125.852H93.4V116.377Z" fill="#D880A6"/>
<path d="M93.4 116.377H14.831V125.852H93.4V116.377Z" fill="#D0BC43"/>
<path d="M23.7296 121.184C23.7296 121.657 23.5892 122.12 23.3262 122.514C23.0632 122.907 22.6894 123.214 22.252 123.395C21.8147 123.576 21.3334 123.624 20.8691 123.531C20.4048 123.439 19.9783 123.211 19.6436 122.876C19.3089 122.542 19.0809 122.115 18.9885 121.651C18.8962 121.186 18.9436 120.705 19.1247 120.268C19.3059 119.83 19.6127 119.457 20.0063 119.194C20.3999 118.931 20.8627 118.79 21.3361 118.79C21.9709 118.79 22.5797 119.042 23.0285 119.491C23.4774 119.94 23.7296 120.549 23.7296 121.184Z" fill="white"/>
<path d="M33.4624 121.184C33.4604 121.655 33.319 122.115 33.0559 122.505C32.7928 122.896 32.4198 123.2 31.9841 123.379C31.5484 123.558 31.0694 123.604 30.6077 123.51C30.146 123.417 29.7222 123.19 29.3899 122.856C29.0575 122.522 28.8315 122.097 28.7403 121.635C28.6491 121.173 28.6969 120.694 28.8776 120.259C29.0583 119.824 29.3638 119.453 29.7556 119.191C30.1473 118.93 30.6078 118.79 31.0788 118.79C31.3926 118.79 31.7034 118.852 31.9932 118.973C32.2831 119.093 32.5463 119.27 32.7678 119.492C32.9892 119.714 33.1646 119.978 33.2838 120.269C33.403 120.559 33.4637 120.87 33.4624 121.184Z" fill="white"/>
<path d="M43.2056 121.184C43.2037 121.655 43.0622 122.115 42.7991 122.505C42.536 122.896 42.1631 123.2 41.7274 123.379C41.2916 123.558 40.8127 123.604 40.351 123.51C39.8893 123.417 39.4655 123.19 39.1331 122.856C38.8008 122.522 38.5747 122.097 38.4836 121.635C38.3924 121.173 38.4402 120.694 38.6209 120.259C38.8016 119.824 39.1071 119.453 39.4988 119.191C39.8906 118.93 40.3511 118.79 40.8221 118.79C41.1359 118.79 41.4467 118.852 41.7365 118.973C42.0264 119.093 42.2896 119.27 42.511 119.492C42.7325 119.714 42.9079 119.978 43.0271 120.269C43.1463 120.559 43.207 120.87 43.2056 121.184Z" fill="white"/>
<path d="M42.64 141.227H39.4302C39.3067 140.542 39.077 139.938 38.7409 139.417C38.4048 138.895 37.9933 138.453 37.5064 138.09C37.0194 137.726 36.4741 137.452 35.8706 137.267C35.2739 137.081 34.6395 136.989 33.9673 136.989C32.7534 136.989 31.6663 137.294 30.7061 137.904C29.7528 138.515 28.9983 139.41 28.4428 140.59C27.8941 141.769 27.6197 143.21 27.6197 144.91C27.6197 146.625 27.8941 148.072 28.4428 149.252C28.9983 150.432 29.7562 151.323 30.7164 151.927C31.6766 152.53 32.7568 152.832 33.9571 152.832C34.6223 152.832 35.2533 152.743 35.85 152.565C36.4536 152.379 36.9988 152.109 37.4858 151.752C37.9727 151.395 38.3842 150.96 38.7203 150.445C39.0632 149.924 39.2999 149.327 39.4302 148.655L42.64 148.666C42.4685 149.701 42.1359 150.654 41.6421 151.526C41.1551 152.39 40.5275 153.137 39.7594 153.768C38.9981 154.392 38.1271 154.876 37.1463 155.219C36.1655 155.562 35.0956 155.733 33.9365 155.733C32.1121 155.733 30.4866 155.301 29.06 154.437C27.6335 153.566 26.5087 152.321 25.6856 150.702C24.8695 149.084 24.4614 147.153 24.4614 144.91C24.4614 142.661 24.8729 140.73 25.6959 139.118C26.5189 137.5 27.6438 136.258 29.0703 135.394C30.4969 134.523 32.119 134.088 33.9365 134.088C35.0544 134.088 36.0969 134.249 37.064 134.571C38.0379 134.887 38.9124 135.353 39.6874 135.97C40.4624 136.581 41.1037 137.328 41.6112 138.213C42.1187 139.091 42.4617 140.096 42.64 141.227Z" fill="#263238"/>
<path d="M57.9354 139.911C57.8257 138.937 57.373 138.182 56.5774 137.647C55.7818 137.105 54.7805 136.834 53.5734 136.834C52.7092 136.834 51.9616 136.972 51.3306 137.246C50.6996 137.513 50.2093 137.884 49.8595 138.357C49.5165 138.823 49.3451 139.355 49.3451 139.952C49.3451 140.452 49.4617 140.884 49.6949 141.248C49.9349 141.611 50.247 141.917 50.6311 142.164C51.022 142.404 51.4404 142.606 51.8862 142.771C52.332 142.928 52.7606 143.059 53.1722 143.162L55.2297 143.696C55.9019 143.861 56.5911 144.084 57.2976 144.365C58.004 144.646 58.659 145.017 59.2626 145.476C59.8661 145.936 60.3531 146.505 60.7234 147.184C61.1006 147.863 61.2893 148.676 61.2893 149.622C61.2893 150.816 60.9806 151.875 60.3633 152.801C59.7529 153.727 58.8648 154.458 57.6988 154.993C56.5397 155.527 55.1371 155.795 53.4911 155.795C51.9136 155.795 50.5488 155.545 49.3965 155.044C48.2443 154.543 47.3424 153.833 46.6908 152.914C46.0393 151.988 45.6792 150.891 45.6106 149.622H48.7998C48.8615 150.384 49.1085 151.018 49.5405 151.526C49.9795 152.026 50.5385 152.4 51.2175 152.647C51.9033 152.887 52.6543 153.007 53.4705 153.007C54.369 153.007 55.168 152.866 55.8676 152.585C56.574 152.297 57.1295 151.899 57.5342 151.392C57.9389 150.877 58.1412 150.277 58.1412 149.591C58.1412 148.967 57.9629 148.456 57.6062 148.059C57.2564 147.661 56.7798 147.332 56.1762 147.071C55.5795 146.81 54.9039 146.581 54.1495 146.382L51.6598 145.703C49.9726 145.243 48.6352 144.568 47.6476 143.676C46.6668 142.784 46.1764 141.605 46.1764 140.137C46.1764 138.923 46.5056 137.863 47.1641 136.958C47.8225 136.053 48.7141 135.35 49.8389 134.849C50.9637 134.341 52.2325 134.088 53.6454 134.088C55.072 134.088 56.3305 134.338 57.421 134.839C58.5184 135.339 59.3826 136.029 60.0136 136.907C60.6445 137.778 60.9738 138.779 61.0012 139.911H57.9354Z" fill="#263238"/>
<path d="M76.5795 139.911C76.4698 138.937 76.0171 138.182 75.2215 137.647C74.426 137.105 73.4246 136.834 72.2175 136.834C71.3533 136.834 70.6057 136.972 69.9748 137.246C69.3438 137.513 68.8534 137.884 68.5036 138.357C68.1607 138.823 67.9892 139.355 67.9892 139.952C67.9892 140.452 68.1058 140.884 68.339 141.248C68.579 141.611 68.8911 141.917 69.2752 142.164C69.6661 142.404 70.0845 142.606 70.5303 142.771C70.9761 142.928 71.4048 143.059 71.8163 143.162L73.8738 143.696C74.546 143.861 75.2353 144.084 75.9417 144.365C76.6481 144.646 77.3031 145.017 77.9067 145.476C78.5102 145.936 78.9972 146.505 79.3675 147.184C79.7448 147.863 79.9334 148.676 79.9334 149.622C79.9334 150.816 79.6247 151.875 79.0075 152.801C78.3971 153.727 77.5089 154.458 76.3429 154.993C75.1838 155.527 73.7813 155.795 72.1352 155.795C70.5577 155.795 69.1929 155.545 68.0406 155.044C66.8884 154.543 65.9865 153.833 65.3349 152.914C64.6834 151.988 64.3233 150.891 64.2547 149.622H67.444C67.5057 150.384 67.7526 151.018 68.1847 151.526C68.6236 152.026 69.1826 152.4 69.8616 152.647C70.5474 152.887 71.2985 153.007 72.1146 153.007C73.0131 153.007 73.8121 152.866 74.5117 152.585C75.2181 152.297 75.7737 151.899 76.1783 151.392C76.583 150.877 76.7853 150.277 76.7853 149.591C76.7853 148.967 76.607 148.456 76.2503 148.059C75.9006 147.661 75.4239 147.332 74.8203 147.071C74.2236 146.81 73.5481 146.581 72.7936 146.382L70.304 145.703C68.6168 145.243 67.2793 144.568 66.2917 143.676C65.3109 142.784 64.8206 141.605 64.8206 140.137C64.8206 138.923 65.1498 137.863 65.8082 136.958C66.4666 136.053 67.3582 135.35 68.483 134.849C69.6078 134.341 70.8767 134.088 72.2895 134.088C73.7161 134.088 74.9746 134.338 76.0652 134.839C77.1625 135.339 78.0267 136.029 78.6577 136.907C79.2887 137.778 79.6179 138.779 79.6453 139.911H76.5795Z" fill="#263238"/>
<path d="M0.807129 352.273H440.123" stroke="#263238" stroke-width="0.993162" stroke-miterlimit="10"/>
<path d="M168.622 213.746C166.636 210.558 165.325 204.391 165.98 198.452C166.636 192.513 166.864 183.475 159.376 183.038C151.887 182.601 149.365 197.677 148.957 200.865C148.55 204.053 135.202 206.04 124.526 202.722C113.849 199.405 93.9262 195.582 85.1467 197.757C76.3671 199.932 79.6247 207.619 79.6247 207.619C73.5664 211.879 80.2107 217.272 80.2107 217.272C74.053 222.844 80.8959 228.733 85.2559 229.309C85.1408 229.89 85.1408 230.487 85.2559 231.067C86.4278 237.523 113.144 235.179 128.409 241.922C143.674 248.666 154.231 277.15 154.231 277.15L186.082 238.913C186.082 238.913 170.608 216.944 168.622 213.746Z" fill="white"/>
<path d="M116.888 214.372C116.888 214.372 86.358 211.73 80.1905 217.352C74.0229 222.973 80.8758 228.813 85.2357 229.389" stroke="#263238" stroke-width="0.993162" stroke-miterlimit="10"/>
<path d="M116.888 207.619C116.888 207.619 93.8465 201.461 82.3954 206.149C71.7785 210.509 80.1906 217.312 80.1906 217.312" stroke="#263238" stroke-width="0.993162" stroke-miterlimit="10"/>
<path d="M79.5845 207.648C79.5845 207.648 76.3269 199.991 85.1064 197.786C93.886 195.582 113.809 199.395 124.485 202.752C135.162 206.109 148.48 204.093 148.917 200.895C149.354 197.697 151.897 182.631 159.375 183.068C166.854 183.505 166.645 192.533 165.98 198.482C165.314 204.431 166.645 210.588 168.621 213.776C170.598 216.964 186.022 238.983 186.022 238.983L154.171 277.219C154.171 277.219 143.604 248.745 128.349 241.992C113.094 235.238 86.3876 237.562 85.1859 231.107C83.9842 224.651 95.7531 221.712 113.66 223.767" stroke="#263238" stroke-width="0.993162" stroke-miterlimit="10"/>
<path d="M141.528 263.683L189.518 236.023C189.518 236.023 231.102 311.126 284.723 330.483L220.852 354.597L169.595 351.3C169.595 351.3 149.216 308.375 141.528 263.683Z" fill="#FFDE14"/>
<g opacity="0.3">
<path d="M141.528 263.683L189.518 236.023C189.518 236.023 231.102 311.126 284.723 330.483L220.852 354.597L169.595 351.3C169.595 351.3 149.216 308.375 141.528 263.683Z" fill="white"/>
</g>
<path d="M284.265 330.324L283.272 329.956V331.049L284.265 330.671V330.324Z" fill="#FAFAFA"/>
<path d="M263.439 323.163V338.537L264.432 338.16V323.163H269.07L267.362 322.17H264.382V320.372L263.389 319.737V322.17H244.519V305.286L243.526 304.392V322.17H224.656V302.416H241.321C240.964 302.088 240.606 301.76 240.258 301.423H224.765V285.214L223.772 284.082V301.423H204.902V281.659H221.657L220.822 280.666H204.932V260.902H205.567L203.948 258.608V259.909H185.078V240.145H191.891L191.305 239.152H185.078V238.585L182.377 240.145H184.085V259.909H165.215V249.977L164.222 250.553V259.869H148.113L146.395 260.862H164.272V280.626H145.402V261.458L144.408 262.024V278.143C144.736 279.543 145.064 280.944 145.402 282.334V281.659H164.272V301.423H150.705C150.804 301.76 150.914 302.088 151.013 302.416H164.272V322.18H157.677C157.806 322.518 157.925 322.845 158.044 323.173H164.272V339.163L165.265 341.537V323.163H184.135V342.927H165.841L166.268 343.92H184.075V352.253L185.068 352.322V343.92H203.938V353.524L204.932 353.594V343.92H223.802V353.514L224.795 353.137V343.92H243.665V346.026L244.658 345.648V343.92H249.237L251.869 342.927H244.599V323.163H263.439ZM184.105 322.17H165.235V302.416H184.105V322.17ZM184.105 301.413H165.235V281.659H184.105V301.413ZM184.105 280.666H165.235V260.902H184.105V280.666ZM203.968 342.927H185.098V323.163H203.968V342.927ZM203.968 322.17H185.098V302.416H203.968V322.17ZM203.968 301.413H185.098V281.659H203.968V301.413ZM203.968 280.666H185.098V260.902H203.968V280.666ZM223.832 342.927H204.961V323.163H223.832V342.927ZM223.832 322.17H204.961V302.416H223.832V322.17ZM243.695 342.927H224.825V323.163H243.695V342.927Z" fill="white"/>
<path d="M141.528 263.683L189.518 236.023C189.518 236.023 231.102 311.126 284.723 330.483L220.852 354.597L169.595 351.3C169.595 351.3 149.216 308.375 141.528 263.683Z" stroke="#263238" stroke-width="0.993162" stroke-miterlimit="10"/>
<path d="M145.759 282.95L200.403 254.119" stroke="#263238" stroke-width="0.993162" stroke-miterlimit="10"/>
<path d="M191.445 249.659C191.445 250.469 191.205 251.26 190.755 251.933C190.306 252.605 189.667 253.13 188.919 253.44C188.171 253.749 187.349 253.83 186.555 253.672C185.761 253.515 185.032 253.125 184.46 252.553C183.887 251.98 183.498 251.251 183.34 250.457C183.182 249.664 183.263 248.841 183.573 248.093C183.882 247.346 184.407 246.707 185.08 246.257C185.753 245.807 186.544 245.567 187.353 245.567C187.891 245.566 188.423 245.671 188.92 245.876C189.418 246.081 189.869 246.383 190.249 246.763C190.63 247.143 190.931 247.595 191.136 248.092C191.341 248.589 191.446 249.122 191.445 249.659Z" fill="#263238"/>
<path d="M344.611 279.991C344.611 279.991 357.422 313.758 310.436 325.676C263.449 337.594 208.14 335.538 208.14 335.538C208.14 335.538 202.519 335.618 202.856 320.889C203.194 306.16 202.529 277.061 221.448 244.922C240.368 212.783 252.147 201.014 261.741 197.34C265.078 196.068 288.239 194.142 301.031 201.551C325.015 215.465 343.538 248.05 344.611 279.991Z" fill="#FFDE14"/>
<g opacity="0.3">
<path d="M344.611 279.991C344.611 279.991 357.422 313.758 310.436 325.676C263.449 337.594 208.14 335.538 208.14 335.538C208.14 335.538 202.519 335.617 202.856 320.889C203.194 306.16 202.529 277.061 221.448 244.922C240.368 212.783 252.147 201.014 261.741 197.34C265.078 196.068 288.239 194.142 301.031 201.551C325.015 215.465 343.538 248.05 344.611 279.991Z" fill="white"/>
</g>
<path d="M329.951 298.443H345.127C345.216 298.106 345.296 297.778 345.375 297.45H329.951V277.686H344.511L344.452 276.693H329.951V256.929H340.936C340.837 256.601 340.747 256.264 340.648 255.936H329.951V236.172H332.603L332.067 235.179H329.951V231.445C329.624 230.898 329.286 230.372 328.958 229.836V235.179H310.088V215.415H318.033L317.09 214.422H310.138V207.897L309.145 207.102V214.422H290.275V197.687L289.281 197.478V214.452H270.411V196.257H269.418V214.402H250.548V204.709C250.22 205.017 249.883 205.324 249.555 205.652V214.402H241.709L240.914 215.395H249.555V235.159H230.685V229.796C230.357 230.302 230.019 230.789 229.692 231.325V235.159H227.258L226.633 236.152H229.692V255.916H215.648C215.489 256.244 215.331 256.582 215.182 256.909H229.791V276.673H210.921V267.328C210.573 268.321 210.246 269.254 209.928 270.218V276.673H207.941C207.852 277.001 207.773 277.329 207.683 277.666H209.898V297.45H203.999C203.999 297.778 203.919 298.116 203.889 298.443H209.848V318.197H202.807C202.807 318.535 202.807 318.873 202.807 319.19H209.868V335.588H210.861V319.22H229.731V335.558H230.725V319.22H249.595V334.654L250.588 334.594V319.22H269.458V332.896L270.451 332.787V319.22H289.321V330.145L290.314 329.976V319.22H309.184V326.033L310.178 325.785V319.22H327.508C328.382 318.744 329.216 318.227 330.011 317.75L329.951 298.443ZM229.791 318.227H210.921V298.443H229.791V318.227ZM229.791 297.48H210.921V277.716H229.791V297.48ZM249.654 318.227H230.784V298.443H249.654V318.227ZM249.654 297.48H230.784V277.716H249.654V297.48ZM249.654 276.723H230.784V256.959H249.654V276.723ZM249.654 255.966H230.784V236.202H249.654V255.966ZM269.518 318.227H250.647V298.443H269.518V318.227ZM269.518 297.48H250.647V277.716H269.518V297.48ZM269.518 276.723H250.647V256.959H269.518V276.723ZM269.518 255.966H250.647V236.202H269.518V255.966ZM269.518 235.209H250.647V215.445H269.518V235.209ZM289.381 318.227H270.511V298.443H289.381V318.227ZM289.381 297.48H270.511V277.716H289.381V297.48ZM289.381 276.723H270.511V256.959H289.381V276.723ZM289.381 255.966H270.511V236.202H289.381V255.966ZM289.381 235.209H270.511V215.445H289.381V235.209ZM309.244 318.227H290.374V298.443H309.244V318.227ZM309.244 297.48H290.374V277.716H309.244V297.48ZM309.244 276.723H290.374V256.959H309.244V276.723ZM309.244 255.966H290.374V236.202H309.244V255.966ZM309.244 235.209H290.374V215.445H309.244V235.209ZM329.107 318.227H310.237V298.443H329.107V318.227ZM329.107 297.48H310.237V277.716H329.107V297.48ZM329.107 276.723H310.237V256.959H329.107V276.723ZM329.107 255.966H310.237V236.202H329.107V255.966Z" fill="white"/>
<path d="M258.295 197.369C258.295 197.369 193.65 252.192 203.979 333.303" stroke="#263238" stroke-width="0.993162" stroke-miterlimit="10"/>
<path d="M302.729 315.158L306.413 366.554L245.205 360.436C243.355 359.952 241.412 359.949 239.561 360.427C237.71 360.905 236.012 361.848 234.628 363.168C229.98 367.736 230.059 370.189 229.662 371.749C229.265 373.308 227.924 379.108 225.212 382.157C222.501 385.206 220.247 385.136 218.26 383.15L216.274 381.164C216.274 381.164 215.509 380.767 214.466 381.789C213.424 382.812 210.732 384.004 209.242 381.968C207.753 379.932 207.703 380.171 207.703 380.171C207.703 380.171 207.236 379.307 206.392 380.171C205.548 381.035 201.833 382.425 199.917 380.171C198.887 378.995 197.985 377.713 197.225 376.347C196.639 376.249 196.038 376.339 195.507 376.605C194.355 377.052 189.637 378.194 187.055 372.633C184.473 367.071 186.062 358.589 187.055 353.027C188.048 347.466 192.825 335.429 197.136 330.562C201.446 325.696 209.6 320.055 218.111 318.644C226.623 317.234 250.339 316.28 260.341 316.042C270.342 315.804 302.729 315.158 302.729 315.158Z" fill="white"/>
<path d="M225.262 345.321C225.262 345.321 216.323 361.152 214.655 369.842C212.986 378.532 217.942 384.739 220.783 384.57C223.623 384.401 227.625 381.462 229.393 373.02C231.161 364.578 236.882 360.268 241.073 360.178C245.264 360.089 309.601 366.882 309.601 366.882" stroke="#263238" stroke-width="0.993162" stroke-miterlimit="10"/>
<path d="M214.039 343.235C214.039 343.235 206.64 360.188 205.915 369.057C205.19 377.926 209.242 382.812 211.189 383.09C213.135 383.369 216.045 380.538 216.045 380.538" stroke="#263238" stroke-width="0.993162" stroke-miterlimit="10"/>
<path d="M204.217 336.978C204.217 336.978 196.152 352.978 195.636 362.224C195.119 371.471 196.927 378.025 200.472 380.409C204.018 382.793 207.554 379.297 207.554 379.297" stroke="#263238" stroke-width="0.993162" stroke-miterlimit="10"/>
<path d="M304.377 315.148C304.377 315.148 243.248 315.615 223.455 317.701C203.661 319.786 195.169 330.612 190.68 341.656C186.191 352.7 184.721 367.16 187.313 372.156C191.812 380.727 196.927 375.582 196.927 375.582" stroke="#263238" stroke-width="0.993162" stroke-miterlimit="10"/>
<path d="M309.214 245.567C309.214 245.567 343.607 275.779 338.8 295.325C333.993 314.87 255.474 312.983 255.474 312.983V368.6C255.474 368.6 289.917 367.826 319.433 371.729C353.966 376.277 408.311 363.466 413.784 322.567C419.256 281.669 385.747 207.589 294.952 195.353L309.214 245.567Z" fill="#FFDE14"/>
<g opacity="0.3">
<path d="M309.214 245.567C309.214 245.567 343.607 275.779 338.8 295.325C333.993 314.87 255.474 312.983 255.474 312.983V368.6C255.474 368.6 289.917 367.826 319.433 371.729C353.966 376.277 408.311 363.466 413.784 322.567C419.256 281.669 385.747 207.589 294.952 195.353L309.214 245.567Z" fill="white"/>
</g>
<path d="M409.285 318.227V298.443H412.979C412.92 298.106 412.86 297.778 412.791 297.45H409.285V283.854C408.967 282.861 408.639 281.917 408.292 280.954V297.45H389.422V277.686H407.08L406.683 276.693H389.451V256.929H396.543C396.334 256.602 396.125 256.264 395.907 255.936H389.451V246.839C389.124 246.412 388.796 245.985 388.458 245.567V255.936H369.588V236.172H380.165L379.172 235.179H369.608V226.479L368.615 225.674V235.179H349.745V215.415H353.906C353.36 215.087 352.814 214.75 352.247 214.422H349.745V213.031L348.752 212.495V214.481H329.881V203.954L328.888 203.606V214.481H310.018V198.074L309.025 197.856V214.452H300.285L300.573 215.445H309.025V235.209H306.274L306.552 236.202H309.124V245.25L309.214 245.567L310.118 246.382V236.202H328.988V255.966H319.692C319.99 256.294 320.297 256.621 320.595 256.959H328.988V267.238L329.981 268.629V256.959H348.851V276.723H334.937L335.443 277.716H348.791V297.45H337.926C337.727 297.794 337.508 298.126 337.271 298.443H348.791V318.197H329.921V303.916L328.928 304.373V318.227H310.058V309.537L309.065 309.706V318.227H290.195V311.931L289.202 312.01V318.227H270.331V312.924H269.338V318.207H255.474V319.201H269.457V338.964H255.474V339.958H269.457V359.722H255.474V360.715H269.457V368.521H270.451V360.705H289.321V369.097L290.314 369.147V360.705H309.184V370.487L310.177 370.587V360.705H329.047V372.444H330.04V360.735H348.91V371.57L349.904 371.451V360.735H368.774V367.349L369.767 367.041V360.735H384.893C385.499 360.417 386.094 360.079 386.7 359.741H369.618V339.977H388.488V358.619L389.481 358.013V339.977H407.755C408.302 339.064 408.828 338.12 409.315 337.157V319.22H414.131C414.131 318.893 414.181 318.565 414.201 318.227H409.285ZM328.958 235.209H310.088V215.445H328.958V235.209ZM289.291 359.741H270.421V339.977H289.291V359.741ZM289.291 338.984H270.421V319.22H289.291V338.984ZM309.154 359.741H290.284V339.977H309.154V359.741ZM309.154 338.984H290.284V319.22H309.154V338.984ZM329.017 359.741H310.147V339.977H329.017V359.741ZM329.017 338.984H310.147V319.22H329.017V338.984ZM348.881 359.741H330.011V339.977H348.881V359.741ZM348.881 338.984H330.011V319.22H348.881V338.984ZM348.881 255.966H330.011V236.202H348.881V255.966ZM348.881 235.209H330.011V215.445H348.881V235.209ZM368.744 359.741H349.874V339.977H368.744V359.741ZM368.744 338.984H349.874V319.22H368.744V338.984ZM368.744 318.227H349.874V298.443H368.744V318.227ZM368.744 297.48H349.874V277.716H368.744V297.48ZM368.744 276.723H349.874V256.959H368.744V276.723ZM368.744 255.966H349.874V236.202H368.744V255.966ZM388.607 338.984H369.737V319.22H388.607V338.984ZM388.607 318.227H369.737V298.443H388.607V318.227ZM388.607 297.48H369.737V277.716H388.607V297.48ZM388.607 276.723H369.737V256.959H388.607V276.723ZM408.47 338.984H389.6V319.22H408.47V338.984ZM408.47 318.227H389.6V298.443H408.47V318.227Z" fill="white"/>
<path d="M309.214 245.567C309.214 245.567 343.607 275.779 338.8 295.325C333.993 314.87 255.474 312.983 255.474 312.983V368.6C255.474 368.6 289.917 367.826 319.433 371.729C353.966 376.277 408.311 363.466 413.784 322.567C419.256 281.669 385.747 207.589 294.952 195.353" stroke="#263238" stroke-width="0.993162" stroke-miterlimit="10"/>
<path d="M269.925 358.033C269.923 358.84 269.682 359.628 269.232 360.298C268.782 360.968 268.144 361.49 267.398 361.797C266.652 362.105 265.831 362.184 265.04 362.026C264.249 361.867 263.523 361.477 262.953 360.906C262.383 360.335 261.995 359.608 261.838 358.816C261.682 358.024 261.763 357.204 262.072 356.459C262.382 355.714 262.905 355.077 263.576 354.629C264.247 354.181 265.036 353.941 265.843 353.941C266.38 353.941 266.911 354.047 267.407 354.253C267.903 354.459 268.353 354.76 268.733 355.14C269.112 355.521 269.412 355.972 269.617 356.468C269.821 356.964 269.926 357.496 269.925 358.033Z" fill="#263238"/>
<path d="M275.536 312.765V368.551" stroke="#263238" stroke-width="0.993162" stroke-miterlimit="10"/>
<path d="M306.87 149.926C306.893 152.288 306.215 154.604 304.919 156.579C303.624 158.555 301.771 160.101 299.596 161.021C297.42 161.942 295.02 162.195 292.701 161.748C290.381 161.302 288.246 160.177 286.568 158.515C284.889 156.853 283.742 154.729 283.272 152.414C282.803 150.099 283.032 147.697 283.93 145.512C284.829 143.328 286.356 141.459 288.318 140.144C290.281 138.829 292.59 138.127 294.952 138.127C296.509 138.118 298.054 138.416 299.496 139.004C300.938 139.593 302.25 140.459 303.357 141.555C304.464 142.651 305.344 143.955 305.947 145.391C306.55 146.827 306.863 148.368 306.87 149.926Z" stroke="black" stroke-width="1.98632" stroke-miterlimit="10"/>
<path d="M255.047 113.318H269.944C279.876 113.318 288 122.574 288 133.886V157.037C288 157.692 288 158.338 287.92 158.974C288.084 159.67 288.168 160.383 288.169 161.099V190.079C288.164 192.543 287.182 194.905 285.44 196.647C283.698 198.389 281.337 199.37 278.873 199.375H272.914C270.45 199.37 268.089 198.389 266.346 196.647C264.604 194.905 263.623 192.543 263.618 190.079V177.605H254.977C245.046 177.605 236.912 168.349 236.912 157.037V133.886C236.981 122.574 245.115 113.318 255.047 113.318Z" fill="white" stroke="#263238" stroke-width="0.993162" stroke-miterlimit="10"/>
<path d="M284.126 149.549L281.375 131.413C281.375 131.413 231.181 137.7 214.913 113.318C198.645 88.9358 215.737 79.2922 224.01 80.6727C232.283 82.0532 241.957 93.9016 241.957 93.9016C241.957 93.9016 234.26 83.4238 241.957 81.7751C249.654 80.1265 258.165 88.1115 262.595 96.3845C262.595 96.3845 295.677 93.3057 306.86 113.268C318.043 133.231 308.985 147.493 288.526 168.17L287.166 156.6L284.126 149.549Z" fill="#263238"/>
<path d="M279.628 153.114C279.628 154.811 279.124 156.47 278.181 157.881C277.239 159.292 275.898 160.392 274.33 161.042C272.762 161.691 271.037 161.861 269.373 161.53C267.708 161.199 266.179 160.382 264.979 159.182C263.779 157.981 262.962 156.452 262.631 154.788C262.299 153.123 262.469 151.398 263.119 149.83C263.768 148.262 264.868 146.922 266.279 145.979C267.69 145.036 269.349 144.533 271.047 144.533C272.174 144.532 273.29 144.753 274.332 145.183C275.374 145.614 276.32 146.246 277.117 147.043C277.914 147.84 278.546 148.787 278.977 149.829C279.408 150.87 279.629 151.987 279.628 153.114Z" fill="#F7D5E3"/>
<path d="M239.077 146.251C238.568 146.253 238.061 146.317 237.567 146.44V155.378C237.475 156.674 237.518 157.975 237.696 159.262C238.154 159.325 238.615 159.358 239.077 159.361C239.956 159.395 240.833 159.252 241.655 158.939C242.477 158.626 243.227 158.151 243.861 157.541C244.495 156.931 245 156.2 245.344 155.39C245.689 154.581 245.866 153.711 245.866 152.831C245.866 151.951 245.689 151.081 245.344 150.271C245 149.462 244.495 148.731 243.861 148.121C243.227 147.511 242.477 147.036 241.655 146.723C240.833 146.41 239.956 146.267 239.077 146.301V146.251Z" fill="#F7D5E3"/>
<path d="M264.164 141.136C264.162 141.739 263.981 142.327 263.645 142.828C263.309 143.328 262.832 143.717 262.275 143.946C261.717 144.175 261.105 144.234 260.514 144.116C259.923 143.997 259.381 143.706 258.955 143.279C258.53 142.852 258.24 142.309 258.124 141.718C258.007 141.126 258.068 140.514 258.299 139.957C258.53 139.401 258.921 138.925 259.422 138.591C259.923 138.256 260.512 138.077 261.115 138.077C261.516 138.077 261.913 138.157 262.284 138.31C262.654 138.464 262.991 138.69 263.274 138.974C263.557 139.258 263.782 139.595 263.934 139.966C264.087 140.338 264.165 140.735 264.164 141.136Z" fill="#263238"/>
<path d="M244.172 140.689C244.17 141.204 244.015 141.706 243.728 142.132C243.441 142.559 243.034 142.891 242.558 143.086C242.083 143.282 241.56 143.332 241.056 143.23C240.552 143.129 240.089 142.88 239.726 142.516C239.363 142.152 239.116 141.688 239.017 141.183C238.917 140.679 238.969 140.156 239.166 139.681C239.364 139.207 239.697 138.801 240.125 138.515C240.553 138.23 241.055 138.077 241.57 138.077C241.912 138.077 242.251 138.145 242.568 138.276C242.884 138.408 243.171 138.6 243.413 138.843C243.655 139.086 243.846 139.374 243.976 139.691C244.107 140.007 244.173 140.347 244.172 140.689Z" fill="#263238"/>
<path d="M247.081 153.164C247.081 153.164 248.621 157.633 251.858 157.941C255.096 158.249 257.639 154.653 257.817 151.853L247.081 153.164Z" fill="white"/>
<path d="M246.764 153.253C247.282 154.843 248.244 156.252 249.534 157.315C251.809 159.083 254.699 158.179 256.407 156.084C257.403 154.883 258.01 153.407 258.145 151.853C258.145 151.766 258.111 151.682 258.049 151.621C257.988 151.559 257.904 151.525 257.817 151.525L248.422 152.667L247.081 152.836C246.664 152.886 246.664 153.551 247.081 153.501L256.477 152.349L257.817 152.19L257.48 151.853C257.311 154.226 255.603 156.878 253.219 157.504C250.835 158.129 249.157 156.411 248.104 154.524C247.827 154.047 247.594 153.545 247.409 153.025C247.28 152.677 246.624 152.846 246.764 153.253Z" fill="#263238"/>
<path d="M276.539 139.349C276.539 145.924 271.772 151.267 265.892 151.267C260.013 151.267 255.235 145.943 255.235 139.349C255.235 132.754 260.003 127.431 265.892 127.431C271.782 127.431 276.539 132.774 276.539 139.349Z" stroke="#4D5A64" stroke-width="0.993162" stroke-miterlimit="10"/>
<path d="M248.115 137.859C248.115 143.738 244.192 148.496 239.345 148.496C234.499 148.496 230.576 143.738 230.576 137.859C230.576 131.979 234.548 127.212 239.345 127.212C244.142 127.212 248.115 131.979 248.115 137.859Z" stroke="#4D5A64" stroke-width="0.993162" stroke-miterlimit="10"/>
<path d="M251.213 138.117V148.456L245.791 145.159L251.213 138.117Z" fill="#F7D5E3"/>
<path d="M247.836 141.037C247.836 141.037 252.375 139.319 255.484 141.891L247.836 141.037Z" fill="#F7D5E3"/>
<path d="M247.836 141.037C247.836 141.037 252.375 139.319 255.484 141.891" stroke="#4D5A64" stroke-width="0.993162" stroke-miterlimit="10"/>
<path d="M276.519 139.786L290.97 142.805" stroke="#4D5A64" stroke-width="0.993162" stroke-miterlimit="10"/>
<path d="M306.87 149.926C306.893 152.288 306.215 154.604 304.919 156.579C303.624 158.555 301.771 160.101 299.596 161.021C297.42 161.942 295.02 162.195 292.701 161.748C290.381 161.302 288.246 160.177 286.568 158.515C284.889 156.853 283.742 154.729 283.272 152.414C282.803 150.099 283.032 147.697 283.93 145.512C284.829 143.328 286.356 141.459 288.318 140.144C290.281 138.829 292.59 138.127 294.952 138.127C296.509 138.118 298.054 138.416 299.496 139.004C300.938 139.593 302.25 140.459 303.357 141.555C304.464 142.651 305.344 143.955 305.947 145.391C306.55 146.827 306.863 148.368 306.87 149.926Z" fill="white"/>
<path d="M288.993 151.455C288.844 149.072 289.877 146.321 292.191 145.238C293.489 144.708 294.906 144.536 296.293 144.742C296.819 144.801 296.81 143.977 296.293 143.927C293.939 143.679 291.397 144.126 289.828 146.043C288.863 147.305 288.299 148.827 288.209 150.412C288.184 150.76 288.184 151.108 288.209 151.455C288.209 151.982 289.063 151.982 289.023 151.455H288.993Z" fill="#263238"/>
<path d="M298.22 191.41H255.365C253.813 191.41 252.554 192.669 252.554 194.221V201.58C252.554 203.133 253.813 204.391 255.365 204.391H298.22C299.772 204.391 301.03 203.133 301.03 201.58V194.221C301.03 192.669 299.772 191.41 298.22 191.41Z" fill="#FFDE14"/>
<path opacity="0.3" d="M298.22 191.41H255.365C253.813 191.41 252.554 192.669 252.554 194.221V201.58C252.554 203.133 253.813 204.391 255.365 204.391H298.22C299.772 204.391 301.03 203.133 301.03 201.58V194.221C301.03 192.669 299.772 191.41 298.22 191.41Z" fill="white"/>
<path d="M262.595 197.627C262.595 198.077 262.461 198.517 262.211 198.891C261.961 199.265 261.606 199.556 261.191 199.729C260.775 199.901 260.318 199.946 259.876 199.858C259.435 199.77 259.03 199.554 258.712 199.236C258.394 198.918 258.177 198.512 258.09 198.071C258.002 197.63 258.047 197.173 258.219 196.757C258.391 196.341 258.683 195.986 259.057 195.736C259.431 195.486 259.87 195.353 260.32 195.353C260.619 195.352 260.916 195.41 261.192 195.523C261.469 195.637 261.72 195.805 261.931 196.016C262.143 196.228 262.31 196.479 262.424 196.755C262.538 197.032 262.596 197.328 262.595 197.627Z" fill="#263238"/>
<path d="M290.284 204.391V194.698H301.03V194.221C301.029 194.048 301.012 193.875 300.981 193.705H290.284V191.41H289.291V193.705H270.421V191.41H269.428V193.705H252.544C252.513 193.875 252.496 194.048 252.495 194.221V194.698H269.378V204.391H270.372V194.698H289.242V204.391H290.284Z" fill="#FAFAFA"/>
<path d="M298.22 191.41H255.365C253.813 191.41 252.554 192.669 252.554 194.221V201.58C252.554 203.133 253.813 204.391 255.365 204.391H298.22C299.772 204.391 301.03 203.133 301.03 201.58V194.221C301.03 192.669 299.772 191.41 298.22 191.41Z" stroke="#263238" stroke-width="0.993162" stroke-miterlimit="10"/>
<path d="M398.886 337.981C395.282 337.981 391.758 339.05 388.761 341.053C385.764 343.055 383.428 345.901 382.049 349.232C380.669 352.562 380.309 356.226 381.012 359.761C381.715 363.296 383.451 366.544 385.999 369.092C388.548 371.641 391.795 373.377 395.331 374.08C398.866 374.783 402.53 374.422 405.86 373.043C409.19 371.664 412.037 369.328 414.039 366.331C416.042 363.334 417.111 359.81 417.111 356.206C417.108 351.373 415.187 346.739 411.77 343.322C408.353 339.905 403.719 337.984 398.886 337.981ZM398.886 367.726C396.608 367.726 394.38 367.051 392.486 365.785C390.591 364.519 389.114 362.72 388.242 360.614C387.37 358.509 387.142 356.193 387.587 353.958C388.031 351.723 389.129 349.671 390.74 348.059C392.351 346.448 394.404 345.351 396.639 344.906C398.873 344.462 401.19 344.69 403.295 345.562C405.4 346.434 407.199 347.911 408.465 349.805C409.731 351.7 410.407 353.927 410.407 356.206C410.407 359.261 409.193 362.192 407.032 364.352C404.872 366.513 401.942 367.726 398.886 367.726Z" fill="white" stroke="#263238" stroke-width="0.993162" stroke-miterlimit="10"/>
<path d="M393.831 327.603H355.267C352.047 327.603 349.437 330.213 349.437 333.432V379.624C349.437 382.844 352.047 385.454 355.267 385.454H393.831C397.051 385.454 399.661 382.844 399.661 379.624V333.432C399.661 330.213 397.051 327.603 393.831 327.603Z" fill="white" stroke="#263238" stroke-width="0.993162" stroke-miterlimit="10"/>
<path d="M394.695 309.14C394.69 310.975 394.119 312.765 393.061 314.265C392.003 315.765 390.509 316.903 388.781 317.524C387.054 318.145 385.177 318.22 383.406 317.737C381.635 317.254 380.056 316.238 378.882 314.826C377.709 313.414 376.999 311.676 376.848 309.846C376.698 308.017 377.114 306.185 378.041 304.601C378.968 303.016 380.36 301.755 382.028 300.989C383.696 300.224 385.56 299.99 387.366 300.321C389.416 300.721 391.266 301.817 392.602 303.424C393.937 305.031 394.677 307.05 394.695 309.14C394.721 309.418 394.85 309.676 395.057 309.864C395.264 310.052 395.533 310.157 395.812 310.157C396.092 310.157 396.361 310.052 396.568 309.864C396.774 309.676 396.903 309.418 396.93 309.14C396.93 306.834 396.219 304.585 394.893 302.698C393.568 300.812 391.692 299.38 389.523 298.599C387.354 297.818 384.997 297.725 382.773 298.333C380.549 298.941 378.566 300.22 377.096 301.996C375.626 303.772 374.74 305.959 374.559 308.257C374.377 310.556 374.909 312.854 376.083 314.839C377.256 316.824 379.013 318.398 381.114 319.348C383.215 320.297 385.558 320.575 387.822 320.144C390.37 319.628 392.664 318.255 394.322 316.252C395.979 314.249 396.9 311.739 396.93 309.14C396.903 308.862 396.774 308.603 396.568 308.415C396.361 308.227 396.092 308.123 395.812 308.123C395.533 308.123 395.264 308.227 395.057 308.415C394.85 308.603 394.721 308.862 394.695 309.14Z" fill="#E0E0E0"/>
<path d="M438.573 274.022C438.489 278.892 436.902 283.618 434.029 287.552C431.156 291.487 427.138 294.437 422.524 296C417.85 297.59 412.811 297.763 408.039 296.496C403.268 295.228 398.978 292.579 395.708 288.879C392.574 285.203 390.682 280.631 390.302 275.815C389.922 270.999 391.074 266.186 393.593 262.064C396.28 257.873 400.168 254.588 404.749 252.64C409.331 250.691 414.393 250.168 419.276 251.139C430.201 253.344 438.514 262.769 438.593 273.982C438.619 274.26 438.749 274.518 438.955 274.706C439.162 274.894 439.431 274.999 439.711 274.999C439.99 274.999 440.259 274.894 440.466 274.706C440.673 274.518 440.802 274.26 440.828 273.982C440.733 268.681 439.016 263.537 435.909 259.241C432.801 254.946 428.452 251.706 423.447 249.957C418.307 248.156 412.744 247.94 407.48 249.337C402.215 250.734 397.492 253.68 393.921 257.793C390.494 261.865 388.446 266.918 388.071 272.227C387.696 277.536 389.014 282.827 391.835 287.34C394.775 291.814 398.976 295.315 403.907 297.402C408.837 299.488 414.276 300.064 419.534 299.059C425.425 297.963 430.758 294.87 434.636 290.303C438.514 285.736 440.701 279.972 440.828 273.982C440.823 273.683 440.699 273.398 440.484 273.191C440.268 272.983 439.98 272.869 439.681 272.874C439.382 272.88 439.097 273.003 438.889 273.219C438.682 273.434 438.568 273.723 438.573 274.022Z" fill="#E0E0E0"/>
<path d="M70.6461 385.842L175.852 386.04C186.777 386.04 192.428 377.579 188.465 367.111L160.875 294.054C156.902 283.576 144.865 275.074 133.94 275.055L28.7843 274.856C17.8596 274.856 12.2184 283.318 16.1712 293.786L43.6818 366.813C47.6544 377.291 59.7214 385.842 70.6461 385.842Z" fill="#263238"/>
<path d="M86.5273 324.643C87.7588 329.281 92.4863 333.045 97.1541 333.055C101.822 333.065 104.543 329.311 103.312 324.673C102.08 320.035 97.3528 316.271 92.6849 316.261C88.017 316.251 85.2958 320.005 86.5273 324.643Z" fill="white"/>
<path d="M143.567 385.964L249.557 386.149C250.95 386.152 252.082 385.024 252.084 383.631L252.103 372.935C252.105 371.541 250.978 370.41 249.585 370.408L143.594 370.223C142.201 370.22 141.07 371.348 141.067 372.741L141.049 383.437C141.046 384.83 142.174 385.962 143.567 385.964Z" fill="#263238"/>
</g>
<defs>
<clipPath id="clip0_1_133">
<rect width="442" height="388" fill="white"/>
</clipPath>
</defs>
</svg>
