<svg width="32" height="40" viewBox="0 0 32 40" fill="none" xmlns="http://www.w3.org/2000/svg">
<path d="M8.84511 25.1367C8.49244 25.1367 8.25478 25.1712 8.13211 25.2057V27.4636C8.27778 27.4981 8.45986 27.5076 8.71094 27.5076C9.62903 27.5076 10.1944 27.0438 10.1944 26.2599C10.1944 25.5584 9.70761 25.1367 8.84511 25.1367ZM15.5285 25.1597C15.1452 25.1597 14.896 25.1942 14.7484 25.2287V30.2312C14.896 30.2657 15.1337 30.2657 15.3484 30.2657C16.9143 30.2772 17.9339 29.4147 17.9339 27.5901C17.9454 25.9992 17.0159 25.1597 15.5285 25.1597Z" fill="#1C366C"/>
<path d="M19.8333 0.833252H4.49999C3.48333 0.833252 2.5083 1.23712 1.78941 1.95601C1.07052 2.6749 0.666656 3.64992 0.666656 4.66659V35.3333C0.666656 36.3499 1.07052 37.3249 1.78941 38.0438C2.5083 38.7627 3.48333 39.1666 4.49999 39.1666H27.5C28.5166 39.1666 29.4917 38.7627 30.2106 38.0438C30.9295 37.3249 31.3333 36.3499 31.3333 35.3333V12.3333L19.8333 0.833252ZM11.2045 28.0308C10.6122 28.5866 9.73824 28.8358 8.72049 28.8358C8.52315 28.8379 8.3259 28.8264 8.13016 28.8013V31.5344H6.41666V23.9904C7.18994 23.8751 7.9713 23.8225 8.75307 23.8333C9.82065 23.8333 10.5797 24.0364 11.0914 24.4447C11.5782 24.8318 11.9079 25.4663 11.9079 26.2138C11.906 26.9651 11.6568 27.5995 11.2045 28.0308ZM18.5012 30.6278C17.6962 31.2968 16.4715 31.6149 14.9746 31.6149C14.0776 31.6149 13.4432 31.5574 13.0119 31.4999V23.9923C13.7855 23.8794 14.5666 23.8262 15.3483 23.8333C16.7992 23.8333 17.7422 24.0939 18.4782 24.6498C19.2737 25.2401 19.772 26.1812 19.772 27.5324C19.772 28.9948 19.2372 30.0049 18.5012 30.6278ZM25.5833 25.3091H22.647V27.0552H25.3917V28.462H22.647V31.5363H20.9105V23.8908H25.5833V25.3091ZM19.8333 14.2499H17.9167L25.3917 16.2558L27.5 14.2499H19.8333Z" fill="#1C366C"/>
</svg>
