<svg width="34" height="38" viewBox="0 0 34 38" fill="none" xmlns="http://www.w3.org/2000/svg">
<path d="M15.7337 25.3333C15.7337 24.6614 15.4668 24.0171 14.9917 23.542C14.5166 23.0669 13.8722 22.8 13.2003 22.8C12.5284 22.8 11.8841 23.0669 11.409 23.542C10.9339 24.0171 10.667 24.6614 10.667 25.3333C10.667 26.0052 10.9339 26.6496 11.409 27.1247C11.8841 27.5997 12.5284 27.8667 13.2003 27.8667C13.8722 27.8667 14.5166 27.5997 14.9917 27.1247C15.4668 26.6496 15.7337 26.0052 15.7337 25.3333Z" fill="#596657"/>
<path fill-rule="evenodd" clip-rule="evenodd" d="M0.533203 3.8C0.533203 2.79218 0.933559 1.82563 1.6462 1.11299C2.35884 0.400356 3.32538 0 4.3332 0L25.1243 0L33.4665 8.34227V34.2C33.4665 35.2078 33.0662 36.1744 32.3535 36.887C31.6409 37.5996 30.6744 38 29.6665 38H4.3332C3.32538 38 2.35884 37.5996 1.6462 36.887C0.933559 36.1744 0.533203 35.2078 0.533203 34.2V3.8ZM16.5996 10.1992C16.8517 10.1151 17.1238 10.1124 17.3775 10.1915C17.6312 10.2706 17.8536 10.4275 18.0132 10.64L18.7732 11.6533C19.5991 12.7545 20.6701 13.6483 21.9012 14.2639C23.1324 14.8795 24.49 15.2 25.8665 15.2V17.7333C23.0624 17.7333 20.3566 16.6997 18.2665 14.8301V25.3333C18.2666 26.4487 17.8986 27.5329 17.2196 28.4178C16.5406 29.3026 15.5887 29.9388 14.5113 30.2275C13.434 30.5162 12.2915 30.4413 11.261 30.0145C10.2306 29.5877 9.36973 28.8328 8.81204 27.8668C8.25435 26.9009 8.03097 25.778 8.17654 24.6722C8.32212 23.5664 8.8285 22.5395 9.61717 21.7508C10.4058 20.9621 11.4327 20.4557 12.5385 20.3101C13.6443 20.1646 14.7673 20.3879 15.7332 20.9456V11.4C15.7334 11.1343 15.8172 10.8753 15.9727 10.6598C16.1282 10.4443 16.3475 10.2832 16.5996 10.1992Z" fill="#596657"/>
</svg>
